<svg width="1024" height="167" viewBox="0 0 1024 167" fill="none" xmlns="http://www.w3.org/2000/svg">
<path d="M80.9075 4.58618C82.8947 -1.52873 91.5456 -1.52873 93.5328 4.58618L109.572 53.9512C110.461 56.6864 113.009 58.5375 115.885 58.5375H167.79C174.22 58.5375 176.893 66.765 171.692 70.5442L129.699 101.054C127.372 102.744 126.399 105.74 127.288 108.474L143.328 157.84C145.315 163.955 138.316 169.04 133.114 165.261L91.1215 134.751C88.7952 133.061 85.6451 133.061 83.3188 134.751L41.3262 165.261C36.1246 169.04 29.1258 163.955 31.1126 157.84L47.1525 108.474C48.0409 105.74 47.0676 102.744 44.7413 101.054L2.74864 70.5442C-2.45299 66.765 0.220339 58.5375 6.64991 58.5375H58.5555C61.4314 58.5375 63.9794 56.6864 64.8681 53.9512L80.9075 4.58618Z" fill="#0EA5E9"/>
<path d="M293.297 4.58618C295.284 -1.52873 303.935 -1.52873 305.922 4.58618L321.962 53.9512C322.85 56.6864 325.398 58.5375 328.274 58.5375H380.18C386.609 58.5375 389.283 66.765 384.081 70.5442L342.088 101.054C339.762 102.744 338.789 105.74 339.678 108.474L355.717 157.84C357.704 163.955 350.705 169.04 345.504 165.261L303.511 134.751C301.185 133.061 298.035 133.061 295.708 134.751L253.716 165.261C248.514 169.04 241.515 163.955 243.502 157.84L259.542 108.474C260.43 105.74 259.457 102.744 257.131 101.054L215.138 70.5442C209.937 66.765 212.61 58.5375 219.04 58.5375H270.945C273.821 58.5375 276.369 56.6864 277.258 53.9512L293.297 4.58618Z" fill="#0EA5E9"/>
<path d="M505.687 4.58618C507.674 -1.52873 516.325 -1.52873 518.312 4.58618L534.351 53.9512C535.24 56.6864 537.788 58.5375 540.664 58.5375H592.569C598.999 58.5375 601.672 66.765 596.471 70.5442L554.478 101.054C552.152 102.744 551.179 105.74 552.067 108.474L568.107 157.84C570.094 163.955 563.095 169.04 557.893 165.261L515.901 134.751C513.574 133.061 510.424 133.061 508.098 134.751L466.105 165.261C460.904 169.04 453.905 163.955 455.892 157.84L471.931 108.474C472.82 105.74 471.847 102.744 469.521 101.054L427.528 70.5442C422.326 66.765 425 58.5375 431.429 58.5375H483.335C486.21 58.5375 488.759 56.6864 489.647 53.9512L505.687 4.58618Z" fill="#0EA5E9"/>
<path d="M718.078 4.58618C720.062 -1.52873 728.717 -1.52873 730.702 4.58618L746.744 53.9512C747.633 56.6864 750.182 58.5375 753.056 58.5375H804.959C811.39 58.5375 814.065 66.765 808.861 70.5442L766.868 101.054C764.545 102.744 763.569 105.74 764.459 108.474L780.501 157.84C782.485 163.955 775.483 169.04 770.286 165.261L728.293 134.751C725.963 133.061 722.817 133.061 720.487 134.751L678.494 165.261C673.297 169.04 666.295 163.955 668.279 157.84L684.321 108.474C685.211 105.74 684.235 102.744 681.912 101.054L639.918 70.5442C634.717 66.765 637.39 58.5375 643.82 58.5375H695.724C698.598 58.5375 701.147 56.6864 702.036 53.9512L718.078 4.58618Z" fill="#0EA5E9"/>
<path d="M930.468 4.58618C932.452 -1.52873 941.107 -1.52873 943.092 4.58618L959.134 53.9512C960.023 56.6864 962.572 58.5375 965.446 58.5375H1017.35C1023.78 58.5375 1026.45 66.765 1021.25 70.5442L979.258 101.054C976.935 102.744 975.959 105.74 976.848 108.474L992.89 157.84C994.875 163.955 987.873 169.04 982.676 165.261L940.682 134.751C938.353 133.061 935.207 133.061 932.877 134.751L890.884 165.261C885.687 169.04 878.684 163.955 880.669 157.84L896.711 108.474C897.6 105.74 896.625 102.744 894.302 101.054L852.308 70.5442C847.105 66.765 849.779 58.5375 856.211 58.5375H908.114C910.988 58.5375 913.536 56.6864 914.426 53.9512L930.468 4.58618Z" fill="#0EA5E9"/>
</svg>
