<svg width="512" height="513" viewBox="0 0 512 513" fill="none" xmlns="http://www.w3.org/2000/svg">
<g clip-path="url(#clip0_417_1004)">
<path d="M405.204 1.51489H106.798C47.9087 1.51489 0 49.4236 0 108.312V404.296C0 463.183 47.9087 511.093 106.798 511.093H405.204C464.091 511.093 512.001 463.185 512.001 404.296V108.312C512 49.4236 464.091 1.51489 405.204 1.51489ZM472.878 404.296C472.878 441.612 442.52 471.971 405.202 471.971H106.798C69.4805 471.97 39.1219 441.612 39.1219 404.296V108.312C39.1219 70.9954 69.4805 40.6368 106.798 40.6368H405.204C442.52 40.6368 472.879 70.9954 472.879 108.312V404.296H472.878Z" fill="#0EA5E9"/>
<path fill-rule="evenodd" clip-rule="evenodd" d="M405.202 471.971C442.52 471.971 472.878 441.612 472.878 404.296H472.879V108.312C472.879 70.9954 442.52 40.6368 405.204 40.6368H106.798C69.4805 40.6368 39.1219 70.9954 39.1219 108.312V404.296C39.1219 441.612 69.4805 471.97 106.798 471.971H405.202ZM407.146 153.466V174.483V174.53V359.141C407.146 369.944 398.387 378.702 387.585 378.702H124.415C113.613 378.702 104.855 369.944 104.855 359.141V153.466C104.855 142.663 113.613 133.905 124.415 133.905H387.585C398.387 133.905 407.146 142.663 407.146 153.466ZM350.876 173.027L256.105 226.372L163.367 173.027H350.876ZM143.976 339.58V207.005L246.246 265.834C249.264 267.571 252.631 268.44 255.999 268.44C259.306 268.44 262.615 267.601 265.593 265.924L368.022 208.268V339.579L143.976 339.58Z" fill="#0EA5E9"/>
</g>
<defs>
<clipPath id="clip0_417_1004">
<rect width="512" height="512" fill="white" transform="translate(0 0.303711)"/>
</clipPath>
</defs>
</svg>
