<svg width="512" height="513" viewBox="0 0 512 513" fill="none" xmlns="http://www.w3.org/2000/svg">
<g clip-path="url(#clip0_417_994)">
<path d="M483.833 28.4678C465.063 9.69291 442.448 0.303711 416.006 0.303711H96.0033C69.5613 0.303711 46.9464 9.69291 28.168 28.4678C9.39311 47.2462 0.00390625 69.8599 0.00390625 96.3031V416.302C0.00390625 442.743 9.39311 465.359 28.168 484.137C46.9464 502.916 69.5613 512.305 96.0033 512.305H416.002C442.444 512.305 465.059 502.916 483.829 484.137C502.608 465.359 511.997 442.744 511.997 416.302V96.3031C511.996 69.8599 502.607 47.2427 483.833 28.4678ZM419.326 388.941C414.66 399.162 404.16 408.055 387.83 415.614C371.496 423.174 356.992 426.953 344.322 426.953C340.766 426.953 336.987 426.679 332.988 426.123C328.988 425.564 325.605 425.012 322.827 424.456C320.051 423.9 316.379 422.902 311.828 421.455C307.269 420.015 303.988 418.9 301.995 418.123C299.989 417.348 296.325 415.959 290.996 413.96C285.661 411.954 282.324 410.732 280.999 410.296C244.555 396.955 208.939 372.903 174.163 338.127C139.387 303.343 115.33 267.735 101.996 231.297C101.555 229.962 100.332 226.628 98.3302 221.297C96.3314 215.967 94.9385 212.298 94.161 210.3C93.3881 208.3 92.2754 205.022 90.83 200.469C89.3858 195.913 88.3887 192.249 87.8318 189.468C87.2738 186.694 86.7227 183.307 86.1658 179.306C85.6101 175.305 85.3333 171.522 85.3333 167.969C85.3333 155.301 89.1126 140.802 96.67 124.468C104.226 108.137 113.113 97.6376 123.337 92.9699C135.115 88.0791 146.337 85.6343 157.005 85.6343C159.446 85.6343 161.227 85.8585 162.335 86.3021C163.448 86.7516 165.282 88.7469 167.839 92.3032C170.395 95.8595 173.172 100.358 176.171 105.803C179.172 111.25 182.116 116.528 185.005 121.637C187.893 126.747 190.672 131.8 193.34 136.804C196.006 141.8 197.672 144.971 198.338 146.3C199.004 147.417 200.45 149.525 202.67 152.638C204.891 155.747 206.562 158.521 207.671 160.969C208.78 163.413 209.337 165.747 209.337 167.969C209.337 171.307 207.057 175.361 202.502 180.135C197.945 184.913 192.945 189.304 187.5 193.305C182.054 197.307 177.056 201.585 172.5 206.141C167.948 210.693 165.668 214.415 165.668 217.305C165.668 218.861 166.057 220.693 166.836 222.804C167.613 224.92 168.336 226.642 169.003 227.973C169.669 229.305 170.727 231.195 172.169 233.642C173.613 236.089 174.56 237.643 175.001 238.311C187.222 260.311 201.28 279.256 217.165 295.147C233.057 311.041 251.999 325.092 274.002 337.314C274.664 337.763 276.223 338.705 278.677 340.152C281.118 341.59 283.012 342.645 284.343 343.312C285.678 343.979 287.395 344.703 289.509 345.474C291.624 346.25 293.457 346.641 295.019 346.641C298.564 346.641 303.454 342.977 309.683 335.645C315.904 328.306 322.241 321.03 328.686 313.806C335.126 306.59 340.343 302.979 344.351 302.979C346.572 302.979 348.901 303.531 351.355 304.641C353.801 305.752 356.573 307.422 359.682 309.643C362.798 311.873 364.908 313.311 366.019 313.987L383.678 323.644C395.457 329.869 405.29 335.367 413.181 340.146C421.073 344.924 425.352 348.2 426.019 349.975C426.462 351.085 426.678 352.868 426.678 355.313C426.67 365.97 424.224 377.193 419.326 388.941Z" fill="#0EA5E9"/>
</g>
<defs>
<clipPath id="clip0_417_994">
<rect width="512" height="512" fill="white" transform="translate(0 0.303711)"/>
</clipPath>
</defs>
</svg>
