<svg width="24" height="26" viewBox="0 0 24 26" fill="none" xmlns="http://www.w3.org/2000/svg">
<g clip-path="url(#clip0_220_598)">
<mask id="mask0_220_598" style="mask-type:luminance" maskUnits="userSpaceOnUse" x="0" y="0" width="24" height="25">
<path d="M24 0.990723H0V24.9907H24V0.990723Z" fill="white"/>
</mask>
<g mask="url(#mask0_220_598)">
<path d="M1.49996 2.62377C-0.386045 4.58277 -4.5225e-05 6.66378 -4.5225e-05 12.9858C-4.5225e-05 18.2358 -0.916044 23.4987 3.87796 24.7377C5.37494 25.1228 18.639 25.1228 20.134 24.7358C22.1299 24.2208 23.754 22.6017 23.976 19.7787C24.007 19.3848 24.007 6.59375 23.9749 6.19175C23.739 3.18477 21.888 1.45177 19.449 1.10077C18.8899 1.01977 18.778 0.995769 15.91 0.990769C5.73695 0.995769 3.50696 0.542769 1.49996 2.62377Z" fill="url(#paint0_linear_220_598)"/>
<path d="M11.9981 4.12965C8.36708 4.12965 4.91904 3.80664 3.60206 7.18664C3.05806 8.58263 3.13706 10.3957 3.13706 12.9916C3.13706 15.2696 3.06406 17.4106 3.60206 18.7957C4.91604 22.1776 8.39206 21.8536 11.996 21.8536C15.473 21.8536 19.058 22.2157 20.3911 18.7957C20.936 17.3857 20.8561 15.5996 20.8561 12.9916C20.8561 9.52964 21.047 7.29464 19.3681 5.61665C17.6681 3.91665 15.3691 4.12965 11.9941 4.12965H11.9981ZM11.204 5.72663C18.7781 5.71463 19.742 4.87265 19.2101 16.5697C19.0211 20.7067 15.8711 20.2526 11.999 20.2526C4.93906 20.2526 4.73604 20.0506 4.73604 12.9877C4.73604 5.84264 5.29606 5.73066 11.204 5.72466V5.72663ZM16.7281 7.19766C16.1411 7.19766 15.665 7.67363 15.665 8.26064C15.665 8.84766 16.1411 9.32363 16.7281 9.32363C17.315 9.32363 17.7911 8.84766 17.7911 8.26064C17.7911 7.67363 17.315 7.19766 16.7281 7.19766ZM11.9981 8.44064C9.48504 8.44064 7.44804 10.4786 7.44804 12.9916C7.44804 15.5047 9.48504 17.5417 11.9981 17.5417C14.5111 17.5417 16.547 15.5047 16.547 12.9916C16.547 10.4786 14.5111 8.44064 11.9981 8.44064ZM11.9981 10.0376C15.9031 10.0376 15.908 15.9457 11.9981 15.9457C8.09408 15.9457 8.08808 10.0376 11.9981 10.0376Z" fill="white"/>
</g>
</g>
<defs>
<linearGradient id="paint0_linear_220_598" x1="1.54598" y1="23.4579" x2="23.8514" y2="4.15274" gradientUnits="userSpaceOnUse">
<stop stop-color="#FFDD55"/>
<stop offset="0.5" stop-color="#FF543E"/>
<stop offset="1" stop-color="#C837AB"/>
</linearGradient>
<clipPath id="clip0_220_598">
<rect width="24" height="24.0469" fill="white" transform="translate(0 0.976562)"/>
</clipPath>
</defs>
</svg>
