<svg width="24" height="24" viewBox="0 0 24 24" fill="none" xmlns="http://www.w3.org/2000/svg">
<g clip-path="url(#clip0_220_607)">
<mask id="mask0_220_607" style="mask-type:luminance" maskUnits="userSpaceOnUse" x="0" y="0" width="24" height="24">
<path d="M23.9532 0.0141602H0V23.9674H23.9532V0.0141602Z" fill="white"/>
</mask>
<g mask="url(#mask0_220_607)">
<path d="M20.7255 0.0141602H3.22799C1.44539 0.0141602 0.000244141 1.45924 0.000244141 3.2419V20.7395C0.000244141 22.5222 1.44533 23.9673 3.22799 23.9673H11.8577L11.8724 15.4077H9.64862C9.35964 15.4077 9.12507 15.174 9.12394 14.8851L9.11328 12.1259C9.11215 11.8354 9.34743 11.5992 9.638 11.5992H11.8577V8.93324C11.8577 5.83939 13.7472 4.15477 16.5072 4.15477H18.7719C19.0617 4.15477 19.2966 4.38968 19.2966 4.67948V7.00599C19.2966 7.29567 19.0618 7.53052 18.7722 7.53071L17.3824 7.53137C15.8814 7.53137 15.5908 8.24458 15.5908 9.29127V11.5993H18.8889C19.2031 11.5993 19.4469 11.8737 19.4099 12.1858L19.0829 14.9449C19.0516 15.2089 18.8277 15.4079 18.5618 15.4079H15.6055L15.5908 23.9674H20.7256C22.5082 23.9674 23.9533 22.5223 23.9533 20.7397V3.2419C23.9532 1.45924 22.5081 0.0141602 20.7255 0.0141602Z" fill="#475993"/>
</g>
</g>
<defs>
<clipPath id="clip0_220_607">
<rect width="23.9532" height="24" fill="white"/>
</clipPath>
</defs>
</svg>
