<svg width="512" height="513" viewBox="0 0 512 513" fill="none" xmlns="http://www.w3.org/2000/svg">
<g clip-path="url(#clip0_417_1062)">
<path d="M398.231 236.071L170.385 8.22827C165.115 2.9543 158.08 0.0488281 150.579 0.0488281C143.078 0.0488281 136.043 2.9543 130.774 8.22827L113.994 25.0034C103.076 35.9343 103.076 53.7002 113.994 64.6144L305.323 255.943L113.782 447.483C108.512 452.757 105.603 459.788 105.603 467.285C105.603 474.79 108.512 481.82 113.782 487.098L130.561 503.869C135.835 509.143 142.866 512.049 150.367 512.049C157.868 512.049 164.902 509.143 170.172 503.869L398.231 275.819C403.513 270.528 406.415 263.464 406.398 255.955C406.415 248.417 403.513 241.357 398.231 236.071Z" fill="black"/>
</g>
<defs>
<clipPath id="clip0_417_1062">
<rect width="512" height="512" fill="white" transform="translate(0 0.0488281)"/>
</clipPath>
</defs>
</svg>
