<svg width="512" height="513" viewBox="0 0 512 513" fill="none" xmlns="http://www.w3.org/2000/svg">
<path d="M430.222 57.6674H405.333V8H355.556V57.6674H156.444V8H106.667V57.6674H81.7778C54.1511 57.6674 32.2489 80.0177 32.2489 107.335L32 455.007C32 468.179 37.2444 480.812 46.5796 490.127C55.9147 499.441 68.5759 504.674 81.7778 504.674H430.222C457.6 504.674 480 482.324 480 455.007V107.335C480 80.0177 457.6 57.6674 430.222 57.6674ZM430.222 455.007H81.7778V206.67H430.222V455.007ZM181.333 306.004H131.556V256.337H181.333V306.004ZM280.889 306.004H231.111V256.337H280.889V306.004ZM380.444 306.004H330.667V256.337H380.444V306.004ZM181.333 405.339H131.556V355.672H181.333V405.339ZM280.889 405.339H231.111V355.672H280.889V405.339ZM380.444 405.339H330.667V355.672H380.444V405.339Z" fill="black"/>
</svg>
