<svg width="512" height="513" viewBox="0 0 512 513" fill="none" xmlns="http://www.w3.org/2000/svg">
<g clip-path="url(#clip0_455_826)">
<path d="M480 448.05H32.0002C14.3264 448.05 0 433.722 0 416.05C0 398.377 14.3264 384.049 32.0002 384.049H480.001C497.674 384.049 512.001 398.377 512.001 416.05C512 433.722 497.674 448.05 480 448.05Z" fill="black"/>
<path d="M480 288.049H32.0002C14.3264 288.049 0 273.722 0 256.05C0 238.377 14.3264 224.049 32.0002 224.049H480.001C497.674 224.049 512.001 238.376 512.001 256.05C512.001 273.723 497.674 288.049 480 288.049Z" fill="black"/>
<path d="M480 128.049H32.0002C14.3264 128.049 0 113.722 0 96.0485C0 78.3747 14.3264 64.0483 32.0002 64.0483H480.001C497.674 64.0483 512.001 78.3747 512.001 96.0485C512.001 113.722 497.674 128.049 480 128.049Z" fill="black"/>
</g>
<defs>
<clipPath id="clip0_455_826">
<rect width="512" height="512" fill="white" transform="translate(0 0.0488281)"/>
</clipPath>
</defs>
</svg>
