<?xml version="1.0" standalone="no"?>
<!DOCTYPE svg PUBLIC "-//W3C//DTD SVG 20010904//EN"
 "http://www.w3.org/TR/2001/REC-SVG-20010904/DTD/svg10.dtd">
<svg version="1.0" xmlns="http://www.w3.org/2000/svg"
 width="513.000000pt" height="513.000000pt" viewBox="0 0 513.000000 513.000000"
 preserveAspectRatio="xMidYMid meet">
<metadata>
Created by potrace 1.14, written by Peter Selinger 2001-2017
</metadata>
<g transform="translate(0.000000,513.000000) scale(0.100000,-0.100000)"
fill="#000000" stroke="none">
<path d="M1685 4759 c-22 -5 -47 -12 -55 -16 -8 -3 -21 -7 -28 -9 -7 -1 -43
-20 -80 -42 -181 -108 -325 -333 -376 -587 -4 -16 -9 -41 -12 -55 -4 -20 -16
-232 -15 -275 1 -38 23 -171 45 -265 12 -51 71 -187 110 -255 46 -79 184 -224
234 -246 17 -7 32 -17 32 -21 0 -5 9 -8 19 -8 11 0 23 -4 26 -10 6 -9 44 -22
115 -37 39 -8 148 -8 195 0 86 14 242 103 305 174 53 59 100 121 100 132 0 6
5 11 10 11 6 0 10 6 10 13 0 7 5 18 11 24 14 14 54 108 80 186 19 59 26 86 35
142 3 17 8 37 11 45 3 8 7 76 8 150 3 133 -11 262 -36 351 -7 24 -13 46 -14
49 -6 28 -34 97 -60 150 -96 196 -228 322 -405 386 -52 19 -206 26 -265 13z"/>
<path d="M3195 4751 c-72 -21 -128 -46 -175 -80 -183 -134 -304 -349 -355
-631 -11 -62 -13 -305 -3 -356 5 -27 11 -62 13 -79 2 -16 4 -30 5 -30 1 0 3
-10 6 -23 2 -12 13 -50 24 -85 174 -527 662 -708 1006 -372 39 38 85 90 102
115 44 67 103 186 117 240 1 3 4 12 8 20 7 16 27 93 33 125 2 11 6 31 9 45 5
23 18 191 17 215 -10 276 -82 498 -217 673 -27 36 -134 133 -162 149 -18 10
-33 21 -33 25 0 5 -6 8 -13 8 -8 0 -28 7 -45 15 -88 44 -232 55 -337 26z"/>
<path d="M415 3404 c-57 -14 -144 -50 -175 -72 -47 -34 -127 -118 -143 -151
-7 -14 -18 -35 -24 -46 -98 -184 -93 -472 13 -694 168 -357 501 -512 784 -366
116 60 226 217 257 365 25 121 22 299 -7 375 -5 14 -8 25 -5 25 8 0 -34 110
-69 180 -58 115 -157 232 -242 286 -16 10 -31 22 -34 25 -6 8 -126 59 -154 66
-33 7 -179 12 -201 7z"/>
<path d="M4548 3405 c-2 -2 -16 -5 -33 -8 -185 -30 -396 -235 -484 -471 -122
-328 -39 -687 195 -835 318 -203 748 49 865 507 23 89 33 290 17 357 -14 60
-17 71 -31 111 -76 211 -246 340 -449 342 -42 0 -78 -1 -80 -3z"/>
<path d="M2508 2865 c-2 -2 -34 -5 -73 -8 -69 -6 -85 -8 -175 -28 -311 -67
-648 -284 -895 -575 -88 -104 -195 -246 -195 -260 0 -3 -13 -24 -28 -47 -88
-128 -223 -448 -248 -583 -3 -22 -10 -46 -14 -54 -4 -8 -10 -37 -14 -65 -3
-27 -9 -63 -12 -80 -3 -16 -7 -57 -9 -90 -2 -33 -5 -62 -6 -65 -1 -3 -1 -8 -1
-11 1 -3 3 -46 6 -95 6 -100 7 -108 31 -179 68 -201 240 -325 485 -350 127
-13 322 -1 495 30 17 3 46 8 65 11 41 6 75 12 75 14 0 1 12 3 26 5 15 2 44 6
65 10 22 4 48 9 59 10 11 2 30 6 42 9 11 2 43 8 70 12 26 3 57 8 68 11 77 16
282 22 375 11 25 -3 90 -13 145 -23 55 -9 109 -19 120 -20 11 -2 43 -8 72 -14
29 -6 74 -13 100 -17 26 -3 51 -8 54 -10 4 -2 28 -6 55 -9 27 -3 56 -8 64 -10
66 -18 411 -27 490 -12 19 3 51 9 70 12 61 11 195 82 241 128 84 83 112 129
145 237 30 101 25 347 -11 525 -15 74 -58 221 -68 234 -7 8 -10 15 -8 15 14 3
-76 213 -142 331 -28 51 -118 195 -134 215 -6 8 -34 44 -61 80 -92 122 -232
266 -352 360 -36 28 -73 58 -83 66 -9 8 -19 14 -22 14 -2 0 -23 13 -47 29
-145 97 -394 196 -538 215 -19 2 -35 5 -35 6 0 5 -242 20 -247 15z"/>
</g>
</svg>
