<?xml version="1.0" standalone="no"?>
<!DOCTYPE svg PUBLIC "-//W3C//DTD SVG 20010904//EN"
 "http://www.w3.org/TR/2001/REC-SVG-20010904/DTD/svg10.dtd">
<svg version="1.0" xmlns="http://www.w3.org/2000/svg"
 width="518.000000pt" height="518.000000pt" viewBox="0 0 518.000000 518.000000"
 preserveAspectRatio="xMidYMid meet">
<metadata>
Created by potrace 1.14, written by Peter Selinger 2001-2017
</metadata>
<g transform="translate(0.000000,518.000000) scale(0.100000,-0.100000)"
fill="#000000" stroke="none">
<path d="M1899 5165 c-58 -14 -172 -63 -177 -77 -2 -4 -8 -8 -14 -8 -13 0
-106 -77 -138 -114 -14 -17 -35 -40 -47 -53 -13 -12 -23 -24 -23 -27 0 -3 -13
-25 -30 -49 -16 -25 -30 -48 -30 -53 0 -4 -6 -15 -14 -23 -14 -16 -71 -159
-80 -202 -33 -143 -38 -187 -39 -314 -1 -150 14 -240 58 -366 129 -370 457
-559 780 -451 46 15 152 71 183 96 46 38 133 129 163 171 74 103 154 285 173
395 30 170 27 412 -6 499 -5 14 -8 26 -7 26 9 0 -30 110 -59 169 -92 190 -232
319 -402 371 -72 22 -219 27 -291 10z"/>
<path d="M3305 5024 c-201 -47 -380 -207 -493 -441 -17 -35 -28 -63 -25 -63 3
0 1 -6 -5 -13 -15 -18 -59 -198 -67 -272 -8 -70 -8 -239 0 -275 3 -14 7 -38 9
-55 30 -229 185 -472 366 -573 232 -129 502 -87 708 110 61 59 75 77 128 159
82 126 137 283 160 454 8 55 7 242 -1 285 -3 19 -8 49 -11 65 -5 31 -22 99
-32 125 -3 8 -6 22 -8 30 -7 35 -70 150 -116 215 -81 111 -179 187 -305 235
-73 28 -220 35 -308 14z"/>
<path d="M717 4104 c-1 -2 -21 -5 -42 -8 -22 -2 -40 -5 -40 -7 0 -1 -10 -3
-22 -4 -60 -6 -235 -113 -298 -181 -90 -98 -141 -174 -188 -285 -46 -108 -67
-180 -84 -289 -9 -55 -9 -316 0 -350 4 -14 10 -45 13 -70 3 -25 12 -60 20 -77
7 -18 10 -33 7 -33 -3 0 2 -11 11 -25 9 -14 14 -25 11 -25 -3 0 7 -24 21 -52
130 -257 333 -399 574 -400 84 -1 167 20 255 62 148 71 270 196 357 367 34 65
80 195 92 258 14 70 16 82 22 125 8 61 8 212 0 280 -7 57 -13 95 -16 95 -2 0
-5 15 -14 54 -58 262 -274 499 -502 551 -45 11 -170 20 -177 14z"/>
<path d="M4355 3726 c-27 -7 -60 -18 -72 -24 -13 -7 -23 -10 -23 -8 0 7 -85
-40 -135 -75 -90 -62 -181 -168 -244 -284 -153 -281 -178 -662 -61 -946 123
-298 345 -463 612 -454 86 3 197 32 253 67 17 10 37 21 45 24 24 11 101 75
148 124 54 55 123 159 166 248 35 71 84 234 90 294 2 19 5 39 8 44 13 23 5
269 -12 357 -28 144 -104 319 -178 409 -78 95 -190 173 -307 213 -62 21 -221
27 -290 11z"/>
<path d="M2320 3259 c-14 -4 -54 -17 -90 -29 -36 -11 -73 -22 -83 -25 -31 -7
-142 -72 -199 -116 -91 -71 -227 -225 -295 -334 -7 -11 -56 -92 -109 -180 -94
-155 -182 -292 -207 -321 -7 -8 -84 -87 -172 -177 -88 -89 -182 -189 -208
-222 -27 -33 -54 -67 -60 -75 -54 -66 -152 -228 -177 -290 -7 -19 -17 -40 -22
-46 -15 -21 -49 -129 -68 -218 -19 -92 -22 -275 -5 -341 54 -220 145 -388 270
-503 80 -73 208 -139 307 -157 13 -3 34 -7 48 -10 29 -7 235 -7 266 -1 12 2
39 7 60 11 137 21 186 35 457 126 131 44 254 82 274 85 43 5 91 -16 265 -118
175 -101 184 -106 280 -155 380 -189 669 -204 909 -47 154 101 322 329 365
494 22 87 40 190 31 190 -6 0 -6 5 0 13 18 24 4 213 -24 322 -8 33 -16 65 -17
70 -1 6 -4 15 -8 20 -3 6 -9 24 -13 42 -3 18 -16 51 -27 75 -11 23 -21 47 -22
52 -4 22 -116 236 -155 296 -9 14 -20 33 -26 42 -17 27 -117 172 -134 193 -19
24 -32 47 -70 123 -27 54 -47 104 -157 407 -96 265 -190 429 -321 559 -42 42
-80 76 -85 76 -5 0 -18 8 -28 18 -44 41 -201 108 -305 131 -27 6 -63 14 -80
17 -43 10 -335 12 -365 3z"/>
</g>
</svg>
