<svg width="512" height="513" viewBox="0 0 512 513" fill="none" xmlns="http://www.w3.org/2000/svg">
<path d="M46.4909 4.87136C47.2278 4.86961 47.9648 4.86785 48.7241 4.86605C51.1951 4.86139 53.6661 4.86385 56.1371 4.86628C57.926 4.86441 59.7149 4.86211 61.5038 4.85942C66.4212 4.85329 71.3385 4.85343 76.2559 4.85461C81.5587 4.85481 86.8614 4.8493 92.1642 4.84455C102.554 4.83624 112.943 4.8335 123.333 4.83294C131.777 4.83247 140.221 4.83041 148.666 4.82724C172.601 4.81843 196.536 4.81382 220.472 4.81457C221.763 4.81461 223.053 4.81465 224.383 4.81469C226.321 4.81475 226.321 4.81475 228.299 4.81482C249.244 4.81522 270.189 4.80565 291.134 4.79155C312.635 4.7772 334.136 4.77028 355.637 4.77115C367.71 4.77148 379.783 4.76872 391.857 4.75797C402.135 4.74887 412.414 4.74668 422.693 4.75348C427.938 4.75675 433.182 4.75679 438.427 4.74813C443.229 4.74028 448.031 4.74168 452.833 4.75041C454.569 4.75195 456.305 4.75012 458.042 4.74455C470.216 4.70811 480.541 5.0651 491 12C491.692 12.4589 492.384 12.9178 493.097 13.3906C499.976 18.6392 504.802 27.2949 506.576 35.7435C507.047 39.3665 507.126 42.8525 507.128 46.5067C507.13 47.2454 507.132 47.984 507.134 48.7451C507.138 51.2218 507.136 53.6985 507.133 56.1752C507.135 57.9683 507.138 59.7613 507.14 61.5544C507.146 66.4832 507.146 71.4119 507.145 76.3407C507.145 81.6557 507.15 86.9707 507.155 92.2858C507.164 102.699 507.166 113.113 507.167 123.527C507.167 131.991 507.169 140.454 507.173 148.918C507.181 172.909 507.186 196.9 507.185 220.89C507.185 222.831 507.185 222.831 507.185 224.81C507.185 226.105 507.185 227.401 507.185 228.735C507.185 249.729 507.194 270.722 507.208 291.716C507.223 313.266 507.229 334.817 507.229 356.368C507.228 368.469 507.231 380.57 507.242 392.672C507.251 402.974 507.253 413.277 507.246 423.579C507.243 428.836 507.243 434.093 507.252 439.35C507.259 444.163 507.258 448.976 507.249 453.789C507.248 455.529 507.25 457.27 507.255 459.01C507.292 471.195 506.941 481.532 500 492C499.541 492.692 499.082 493.384 498.609 494.098C493.36 500.977 484.704 505.802 476.255 507.576C472.638 508.047 469.157 508.127 465.509 508.129C464.772 508.13 464.035 508.132 463.275 508.134C460.804 508.139 458.333 508.136 455.862 508.134C454.074 508.136 452.285 508.138 450.496 508.141C445.578 508.147 440.661 508.147 435.744 508.145C430.441 508.145 425.138 508.151 419.835 508.155C409.446 508.164 399.056 508.166 388.667 508.167C380.222 508.168 371.778 508.17 363.334 508.173C339.399 508.182 315.463 508.186 291.528 508.185C290.237 508.185 288.946 508.185 287.617 508.185C285.678 508.185 285.678 508.185 283.701 508.185C262.756 508.185 241.811 508.194 220.866 508.208C199.365 508.223 177.864 508.23 156.363 508.229C144.29 508.229 132.216 508.231 120.143 508.242C109.864 508.251 99.5854 508.253 89.3065 508.247C84.0619 508.243 78.8174 508.243 73.5728 508.252C68.7707 508.26 63.9687 508.258 59.1666 508.25C57.4304 508.248 55.6942 508.25 53.958 508.255C41.7834 508.292 31.458 507.935 20.9998 501C20.3075 500.541 19.6153 500.082 18.9021 499.609C12.0233 494.361 7.19795 485.705 5.42358 477.257C4.95208 473.634 4.87309 470.147 4.87114 466.493C4.86938 465.755 4.86763 465.016 4.86582 464.255C4.86117 461.778 4.86363 459.302 4.86606 456.825C4.86419 455.032 4.86189 453.239 4.85919 451.446C4.85307 446.517 4.85321 441.588 4.85439 436.659C4.85459 431.344 4.84907 426.029 4.84433 420.714C4.83602 410.301 4.83328 399.887 4.83272 389.473C4.83224 381.009 4.83019 372.546 4.82702 364.082C4.81821 340.091 4.8136 316.1 4.81435 292.11C4.81439 290.816 4.81443 289.522 4.81447 288.19C4.81451 286.895 4.81455 285.599 4.81459 284.265C4.815 263.271 4.80543 242.278 4.79133 221.284C4.77697 199.733 4.77006 178.183 4.77092 156.632C4.77126 144.531 4.7685 132.43 4.75774 120.328C4.74865 110.026 4.74646 99.7232 4.75325 89.4206C4.75652 84.1638 4.75656 78.9071 4.7479 73.6504C4.74005 68.8372 4.74145 64.0241 4.75019 59.2109C4.75173 57.4706 4.74989 55.7304 4.74432 53.9902C4.70793 41.8046 5.05838 31.4681 11.9998 21C12.4587 20.3078 12.9176 19.6155 13.3904 18.9023C18.6391 12.0233 27.2953 7.19762 35.7442 5.42381C39.3618 4.95287 42.8422 4.87332 46.4909 4.87136ZM20.9998 28C16.8935 34.2556 15.8754 39.7945 15.8683 47.2294C15.8663 47.9624 15.8642 48.6953 15.8621 49.4505C15.8564 51.92 15.8579 54.3894 15.8593 56.8588C15.8567 58.6419 15.8537 60.425 15.8503 62.208C15.8422 67.1185 15.8405 72.029 15.8397 76.9394C15.8379 82.2313 15.8303 87.5232 15.8236 92.8151C15.81 104.392 15.804 115.968 15.7996 127.544C15.7968 134.771 15.7926 141.997 15.7881 149.224C15.7759 169.226 15.7656 189.228 15.7622 209.231C15.762 210.511 15.7618 211.792 15.7615 213.111C15.7613 214.395 15.7611 215.679 15.7609 217.001C15.7604 219.602 15.76 222.204 15.7595 224.805C15.7593 226.095 15.7591 227.386 15.7589 228.715C15.7549 249.625 15.7375 270.534 15.7142 291.444C15.6905 312.904 15.678 334.364 15.6768 355.825C15.6759 367.877 15.6702 379.929 15.652 391.981C15.6366 402.243 15.6315 412.506 15.6398 422.768C15.6437 428.005 15.6427 433.241 15.6287 438.477C15.616 443.272 15.6171 448.067 15.6293 452.862C15.6312 454.595 15.6281 456.329 15.6194 458.062C15.562 470.27 15.9778 479.732 24.8084 489.051C31.2319 494.764 37.8399 496.123 46.2448 496.131C46.9794 496.133 47.7141 496.136 48.471 496.138C50.9462 496.143 53.4214 496.142 55.8965 496.14C57.6837 496.143 59.4709 496.146 61.2581 496.149C66.18 496.158 71.1019 496.159 76.0238 496.16C81.3279 496.162 86.6321 496.169 91.9363 496.176C103.54 496.19 115.143 496.196 126.746 496.2C133.989 496.203 141.233 496.207 148.476 496.212C168.524 496.224 188.573 496.234 208.622 496.238C210.547 496.238 210.547 496.238 212.511 496.238C213.798 496.238 215.084 496.239 216.41 496.239C219.017 496.239 221.625 496.24 224.232 496.24C225.525 496.24 226.819 496.241 228.151 496.241C249.109 496.245 270.067 496.262 291.025 496.286C312.535 496.309 334.045 496.322 355.555 496.323C367.635 496.324 379.715 496.33 391.795 496.348C402.082 496.363 412.368 496.368 422.654 496.36C427.903 496.356 433.151 496.357 438.4 496.371C443.206 496.384 448.011 496.383 452.817 496.37C454.555 496.369 456.293 496.372 458.03 496.38C470.249 496.438 479.723 496.031 489.051 487.191C494.759 480.773 496.123 474.169 496.131 465.771C496.133 465.038 496.135 464.305 496.137 463.549C496.143 461.08 496.142 458.611 496.14 456.141C496.143 454.358 496.146 452.575 496.149 450.792C496.157 445.881 496.159 440.971 496.16 436.061C496.162 430.769 496.169 425.477 496.176 420.185C496.19 408.608 496.196 397.032 496.2 385.456C496.203 378.229 496.207 371.003 496.211 363.776C496.224 343.774 496.234 323.772 496.237 303.769C496.238 302.489 496.238 301.208 496.238 299.889C496.238 298.605 496.238 297.321 496.239 295.999C496.239 293.398 496.24 290.796 496.24 288.195C496.24 286.905 496.24 285.614 496.241 284.285C496.245 263.375 496.262 242.466 496.285 221.556C496.309 200.096 496.322 178.636 496.323 157.175C496.324 145.123 496.329 133.071 496.348 121.019C496.363 110.757 496.368 100.494 496.36 90.2319C496.356 84.9954 496.357 79.7591 496.371 74.5226C496.384 69.7277 496.382 64.9331 496.37 60.1383C496.368 58.4048 496.371 56.6712 496.38 54.9377C496.438 42.7302 496.022 33.2676 487.191 23.9492C480.768 18.2355 474.16 16.8766 465.755 16.8686C465.02 16.8665 464.285 16.8645 463.528 16.8623C461.053 16.8567 458.578 16.8581 456.103 16.8596C454.316 16.857 452.529 16.854 450.741 16.8505C445.82 16.8425 440.898 16.8407 435.976 16.84C430.672 16.8381 425.367 16.8306 420.063 16.8238C408.46 16.8102 396.857 16.8042 385.253 16.7998C378.01 16.797 370.767 16.7928 363.524 16.7883C343.475 16.7761 323.426 16.7658 303.378 16.7624C301.453 16.7621 301.453 16.7621 299.488 16.7618C298.202 16.7615 296.915 16.7613 295.589 16.7611C292.982 16.7607 290.375 16.7602 287.768 16.7598C286.474 16.7595 285.181 16.7593 283.848 16.7591C262.89 16.7551 241.932 16.7377 220.974 16.7144C199.464 16.6907 177.954 16.6782 156.444 16.6771C144.364 16.6761 132.284 16.6704 120.204 16.6522C109.918 16.6368 99.6318 16.6317 89.3455 16.64C84.0969 16.6439 78.8484 16.6429 73.5997 16.6289C68.7938 16.6162 63.9881 16.6174 59.1821 16.6295C57.4446 16.6315 55.707 16.6284 53.9694 16.6197C40.5692 16.5568 30.438 17.3891 20.9998 28Z" fill="#080708"/>
<path d="M139.382 133.099C142.737 134.254 144.388 135.896 146.891 138.41C147.357 138.872 147.823 139.335 148.302 139.811C149.858 141.36 151.399 142.923 152.941 144.487C154.054 145.601 155.168 146.714 156.283 147.827C159.306 150.849 162.316 153.883 165.325 156.919C168.472 160.091 171.629 163.251 174.786 166.413C180.762 172.401 186.727 178.399 192.688 184.4C199.476 191.233 206.275 198.054 213.075 204.874C227.063 218.903 241.036 232.947 255 247C258.639 245.467 260.932 243.298 263.693 240.501C264.149 240.041 264.606 239.581 265.076 239.108C266.602 237.568 268.121 236.022 269.64 234.476C270.734 233.37 271.828 232.265 272.923 231.16C275.278 228.781 277.631 226.4 279.981 224.016C283.698 220.249 287.424 216.492 291.153 212.738C301.754 202.061 312.348 191.377 322.916 180.666C328.753 174.75 334.603 168.846 340.466 162.956C343.569 159.839 346.665 156.715 349.746 153.575C352.642 150.624 355.553 147.69 358.478 144.767C359.549 143.691 360.614 142.609 361.673 141.52C363.117 140.036 364.582 138.575 366.053 137.118C366.869 136.294 367.684 135.47 368.524 134.621C371 133 371 133 374.184 133.055C377 134 377 134 379 137C378.822 142.145 377.176 144.445 373.59 148.011C373.128 148.478 372.665 148.945 372.189 149.425C370.642 150.98 369.078 152.517 367.513 154.054C366.399 155.167 365.286 156.282 364.173 157.397C361.153 160.418 358.118 163.423 355.081 166.426C351.907 169.568 348.748 172.725 345.587 175.879C339.601 181.85 333.603 187.807 327.6 193.76C320.765 200.539 313.945 207.332 307.126 214.126C293.1 228.1 279.056 242.056 265 256C270.156 262.261 275.833 267.914 281.611 273.598C282.678 274.651 283.744 275.705 284.811 276.759C287.095 279.016 289.38 281.272 291.666 283.527C295.28 287.095 298.887 290.669 302.492 294.246C303.101 294.851 303.711 295.456 304.339 296.08C305.585 297.316 306.831 298.553 308.077 299.789C316.461 308.109 324.848 316.425 333.262 324.714C338.951 330.318 344.625 335.936 350.283 341.571C353.274 344.549 356.272 347.519 359.288 350.473C362.12 353.246 364.932 356.038 367.732 358.845C368.762 359.871 369.799 360.891 370.843 361.903C372.267 363.285 373.665 364.695 375.061 366.105C376.245 367.277 376.245 367.277 377.453 368.472C379 371 379 371 378.934 374.681C378 378 378 378 375 380C370.378 379.807 368.288 377.784 365.109 374.59C364.643 374.128 364.177 373.665 363.698 373.189C362.142 371.64 360.601 370.077 359.059 368.513C357.946 367.399 356.832 366.286 355.717 365.173C352.694 362.151 349.684 359.117 346.675 356.081C343.529 352.909 340.371 349.749 337.214 346.587C331.238 340.6 325.273 334.601 319.312 328.6C312.524 321.767 305.725 314.946 298.925 308.126C284.937 294.097 270.964 280.053 257 266C253.361 267.533 251.068 269.702 248.307 272.499C247.623 273.189 247.623 273.189 246.924 273.892C245.398 275.432 243.879 276.978 242.36 278.524C241.266 279.63 240.172 280.735 239.077 281.84C236.722 284.219 234.369 286.6 232.019 288.984C228.302 292.751 224.576 296.508 220.847 300.262C210.246 310.94 199.652 321.623 189.084 332.334C183.247 338.25 177.397 344.154 171.534 350.044C168.431 353.161 165.335 356.285 162.254 359.425C159.358 362.376 156.447 365.31 153.522 368.233C152.451 369.309 151.386 370.391 150.327 371.48C148.883 372.964 147.418 374.425 145.947 375.882C144.724 377.118 144.724 377.118 143.476 378.38C141 380 141 380 137.816 379.945C135 379 135 379 133 376C133.178 370.855 134.824 368.555 138.41 364.989C139.104 364.289 139.104 364.289 139.811 363.575C141.358 362.02 142.922 360.483 144.487 358.946C145.601 357.833 146.714 356.719 147.827 355.603C150.847 352.582 153.882 349.577 156.919 346.574C160.093 343.432 163.252 340.275 166.413 337.121C172.399 331.15 178.397 325.193 184.4 319.24C191.235 312.461 198.055 305.668 204.874 298.874C218.9 284.9 232.944 270.944 247 257C241.844 250.739 236.167 245.086 230.389 239.402C229.322 238.349 228.256 237.295 227.189 236.241C224.905 233.984 222.62 231.728 220.334 229.473C216.72 225.906 213.113 222.331 209.508 218.754C208.899 218.149 208.289 217.544 207.661 216.92C206.415 215.684 205.169 214.447 203.923 213.211C195.539 204.891 187.152 196.575 178.738 188.286C173.049 182.682 167.375 177.064 161.717 171.43C158.726 168.451 155.728 165.481 152.712 162.527C149.88 159.754 147.068 156.962 144.268 154.155C143.238 153.129 142.201 152.109 141.157 151.097C139.733 149.715 138.335 148.305 136.939 146.895C136.15 146.114 135.36 145.333 134.547 144.528C133 142 133 142 133.066 138.319C134.152 134.458 135.18 132.924 139.382 133.099Z" fill="#080708"/>
</svg>
