<svg width="512" height="512" viewBox="0 0 512 512" fill="none" xmlns="http://www.w3.org/2000/svg">
<g clip-path="url(#clip0_429_542)">
<path d="M444.555 191.141H206.555C202.413 191.141 199.055 194.499 199.055 198.641C199.055 202.783 202.413 206.141 206.555 206.141H444.555C448.697 206.141 452.055 202.783 452.055 198.641C452.055 194.499 448.697 191.141 444.555 191.141Z" fill="#080708"/>
<path d="M444.555 248.474H206.555C202.413 248.474 199.055 251.832 199.055 255.974C199.055 260.116 202.413 263.474 206.555 263.474H444.555C448.697 263.474 452.055 260.116 452.055 255.974C452.055 251.832 448.697 248.474 444.555 248.474Z" fill="#080708"/>
<path d="M444.555 305.807H206.555C202.413 305.807 199.055 309.165 199.055 313.307C199.055 317.449 202.413 320.807 206.555 320.807H444.555C448.697 320.807 452.055 317.449 452.055 313.307C452.055 309.165 448.697 305.807 444.555 305.807Z" fill="#080708"/>
<path d="M468.378 125.549H182.732C158.679 125.549 139.11 145.117 139.11 169.171V348.788C139.11 372.841 158.678 392.41 182.732 392.41H382.943C385.084 392.41 387.073 393.373 388.401 395.054L453.056 476.907C455.604 480.133 459.322 481.891 463.215 481.891C464.662 481.891 466.134 481.648 467.578 481.146C472.905 479.296 476.347 474.457 476.347 468.818V391.665C496.572 387.887 512 370.006 512 348.788V169.17C512 145.117 492.432 125.549 468.378 125.549ZM497 348.788C497 364.365 484.327 377.2 468.75 377.398C464.646 377.451 461.346 380.793 461.346 384.898V463.203L400.172 385.756C395.983 380.451 389.703 377.409 382.943 377.409H182.732C166.95 377.409 154.11 364.569 154.11 348.787V169.17C154.11 153.388 166.949 140.548 182.732 140.548H468.378C484.16 140.548 497 153.388 497 169.17V348.788Z" fill="#080708"/>
<path d="M110.494 249.561C105.364 250.289 100.77 252.93 97.558 256.996L46.037 322.222V256.851C46.037 252.746 42.737 249.404 38.633 249.351C25.602 249.185 15 238.448 15 225.416V69.0551C15 55.8521 25.742 45.1101 38.945 45.1101H287.608C300.811 45.1101 311.553 55.8521 311.553 69.0551V97.9871C311.553 102.129 314.911 105.487 319.053 105.487C323.195 105.487 326.553 102.129 326.553 97.9871V69.0551C326.553 47.5811 309.082 30.1101 287.608 30.1101H38.945C17.471 30.1101 0 47.5811 0 69.0551V225.416C0 244.083 13.371 259.854 31.038 263.54V329.906C31.038 335.234 34.29 339.807 39.324 341.555C40.689 342.029 42.079 342.259 43.447 342.259C47.124 342.259 50.639 340.597 53.046 337.55L109.33 266.294C110.142 265.265 111.305 264.597 112.603 264.412C116.704 263.83 119.557 260.033 118.974 255.932C118.392 251.831 114.601 248.976 110.494 249.561Z" fill="#080708"/>
</g>
<defs>
<clipPath id="clip0_429_542">
<rect width="512" height="512" fill="white"/>
</clipPath>
</defs>
</svg>
