<svg width="512" height="512" viewBox="0 0 512 512" fill="none" xmlns="http://www.w3.org/2000/svg">
<path fill-rule="evenodd" clip-rule="evenodd" d="M44.9994 452.946V63.8967C44.9994 56.1015 55.1567 45.9442 62.9519 45.9442H452.001C459.796 45.9442 469.953 56.1015 469.953 63.8967V452.946C469.953 456.017 467.591 460.387 465.82 462.749C463.339 466.174 456.725 470.898 452.001 470.898H62.9519C58.9362 470.898 53.1489 466.883 51.0229 464.875C48.4245 462.394 44.9994 456.607 44.9994 452.946ZM25.0391 62.9518V453.891C25.0391 472.316 43.5821 490.859 62.007 490.859H452.946C471.371 490.859 489.914 472.316 489.914 453.891V62.9518C489.914 44.5269 471.371 25.9839 452.946 25.9839H62.007C43.5821 25.9839 25.0391 44.5269 25.0391 62.9518Z" fill="#080708"/>
<path fill-rule="evenodd" clip-rule="evenodd" d="M250.036 257.949H228.068V179.997C252.634 179.997 290.311 177.517 295.626 207.398C298.46 223.343 295.862 237.162 282.87 246.847C274.366 253.224 261.611 257.949 250.036 257.949ZM175.037 392.947H228.068V300.94C252.752 300.94 279.563 303.184 302.358 294.208C334.129 281.689 351.019 251.689 351.019 217.91C351.019 200.902 351.727 191.218 344.05 175.863C338.972 165.824 336.255 162.99 327.869 155.076C318.066 145.982 292.909 135.825 274.13 135.825H175.155V392.829L175.037 392.947Z" fill="#080708"/>
</svg>
