<?xml version="1.0" standalone="no"?>
<!DOCTYPE svg PUBLIC "-//W3C//DTD SVG 20010904//EN"
 "http://www.w3.org/TR/2001/REC-SVG-20010904/DTD/svg10.dtd">
<svg version="1.0" xmlns="http://www.w3.org/2000/svg"
 width="518.000000pt" height="518.000000pt" viewBox="0 0 518.000000 518.000000"
 preserveAspectRatio="xMidYMid meet">
<metadata>
Created by potrace 1.14, written by Peter Selinger 2001-2017
</metadata>
<g transform="translate(0.000000,518.000000) scale(0.100000,-0.100000)"
fill="#000000" stroke="none">
<path d="M1911 4834 c-108 -54 -197 -173 -253 -339 -27 -77 -32 -108 -35 -220
-6 -156 10 -246 62 -351 118 -240 326 -285 499 -109 175 179 240 504 151 764
-78 231 -256 338 -424 255z"/>
<path d="M3377 4719 c-138 -33 -269 -194 -329 -404 -29 -105 -32 -306 -5 -405
43 -156 129 -277 230 -320 63 -28 151 -24 215 9 207 105 335 447 278 743 -49
255 -217 419 -389 377z"/>
<path d="M700 3781 c-84 -27 -156 -83 -215 -166 -139 -194 -179 -482 -101
-713 46 -133 119 -225 215 -270 170 -79 375 63 471 325 39 110 54 214 47 336
-7 118 -26 196 -70 286 -36 75 -114 158 -172 186 -44 20 -135 29 -175 16z"/>
<path d="M4361 3393 c-105 -52 -199 -172 -252 -321 -112 -319 -19 -697 199
-804 191 -93 419 90 503 407 30 111 30 297 0 408 -39 148 -128 274 -224 317
-64 30 -159 27 -226 -7z"/>
<path d="M2336 2935 c-135 -37 -257 -130 -367 -278 -32 -43 -109 -162 -170
-265 -164 -274 -205 -328 -399 -527 -235 -241 -326 -359 -400 -519 -53 -113
-72 -194 -72 -301 1 -158 62 -315 163 -416 85 -85 139 -104 304 -104 115 0
145 4 260 34 71 18 206 60 300 93 93 32 206 68 250 78 176 43 227 27 580 -176
181 -104 281 -152 385 -189 261 -92 432 -39 579 180 73 110 96 193 95 345 -1
106 -5 139 -28 215 -53 176 -146 355 -303 583 -106 154 -171 289 -268 559 -94
263 -122 326 -191 430 -127 190 -298 274 -556 272 -62 0 -135 -7 -162 -14z"/>
</g>
</svg>
