<svg width="512" height="513" viewBox="0 0 512 513" fill="none" xmlns="http://www.w3.org/2000/svg">
<g clip-path="url(#clip0_417_961)">
<path d="M31.9997 35.1411C-8.23497 76.9331 -0.000306368 121.328 -0.000306368 256.197C-0.000306368 368.197 -19.5416 480.474 82.7304 506.906C114.666 515.12 397.632 515.12 429.525 506.864C472.106 495.877 506.752 461.338 511.488 401.114C512.149 392.709 512.149 119.834 511.466 111.258C506.432 47.1091 466.944 10.1385 414.912 2.65047C402.986 0.922472 400.597 0.410472 339.413 0.303806C122.389 0.410472 74.8157 -9.25353 31.9997 35.1411Z" fill="url(#paint0_linear_417_961)"/>
<path d="M255.957 67.2691C178.496 67.2691 104.938 60.3784 76.8423 132.485C65.237 162.266 66.9223 200.944 66.9223 256.325C66.9223 304.922 65.365 350.597 76.8423 380.144C104.874 452.293 179.029 445.381 255.914 445.381C330.09 445.381 406.57 453.104 435.008 380.144C446.634 350.064 444.928 311.962 444.928 256.325C444.928 182.469 449.002 134.789 413.184 98.9918C376.917 62.7251 327.872 67.2691 255.872 67.2691H255.957ZM239.018 101.338C400.597 101.082 421.162 83.1198 409.813 332.656C405.781 420.912 338.581 411.226 255.978 411.226C105.365 411.226 101.034 406.917 101.034 256.24C101.034 103.813 112.981 101.424 239.018 101.296V101.338ZM356.864 132.72C344.341 132.72 334.186 142.874 334.186 155.397C334.186 167.92 344.341 178.074 356.864 178.074C369.386 178.074 379.541 167.92 379.541 155.397C379.541 142.874 369.386 132.72 356.864 132.72ZM255.957 159.237C202.346 159.237 158.89 202.714 158.89 256.325C158.89 309.936 202.346 353.392 255.957 353.392C309.568 353.392 353.002 309.936 353.002 256.325C353.002 202.714 309.568 159.237 255.957 159.237ZM255.957 193.306C339.264 193.306 339.37 319.344 255.957 319.344C172.672 319.344 172.544 193.306 255.957 193.306Z" fill="white"/>
</g>
<defs>
<linearGradient id="paint0_linear_417_961" x1="32.9815" y1="479.602" x2="508.831" y2="67.7593" gradientUnits="userSpaceOnUse">
<stop stop-color="#FFDD55"/>
<stop offset="0.5" stop-color="#FF543E"/>
<stop offset="1" stop-color="#C837AB"/>
</linearGradient>
<clipPath id="clip0_417_961">
<rect width="512" height="512" fill="white" transform="translate(0 0.303711)"/>
</clipPath>
</defs>
</svg>
