<svg width="513" height="513" viewBox="0 0 513 513" fill="none" xmlns="http://www.w3.org/2000/svg">
<path d="M444.132 258.88C444.132 246.08 442.532 234.88 440.932 222.08H260.132V294.08H364.132C359.332 318.08 346.532 337.28 325.732 351.68V399.68H388.132C423.332 367.68 444.132 318.08 444.132 258.88Z" fill="#4285F4"/>
<path d="M260.133 447.679C311.333 447.679 354.533 430.08 386.533 401.28L324.133 353.279C306.533 364.479 285.733 372.479 258.533 372.479C208.933 372.479 165.733 338.879 151.333 292.479H87.3325V342.079C120.933 404.479 184.933 447.679 260.133 447.679Z" fill="#34A853"/>
<path d="M152.932 290.88C149.732 279.68 146.532 266.88 146.532 254.08C146.532 241.28 148.132 228.48 152.932 217.28V167.68H88.9323C76.1323 193.28 68.1323 222.08 68.1323 254.08C68.1323 284.48 76.1323 314.88 88.9323 340.48L152.932 290.88Z" fill="#FBBC05"/>
<path d="M260.132 138.88C288.932 138.88 312.932 148.48 333.732 167.68L388.132 113.28C354.532 82.8797 311.332 63.6797 260.132 63.6797C184.932 63.6797 120.932 106.88 88.9321 169.28L152.932 218.88C167.332 172.48 210.532 138.88 260.132 138.88Z" fill="#EA4335"/>
</svg>
