<svg width="512" height="513" viewBox="0 0 512 513" fill="none" xmlns="http://www.w3.org/2000/svg">
<path d="M470.288 374.064C456.304 362.336 374.288 310.4 360.656 312.784C354.256 313.92 349.36 319.376 336.256 335.008C330.196 342.702 323.541 349.908 316.352 356.56C303.181 353.378 290.431 348.652 278.368 342.48C231.061 319.448 192.842 281.218 169.824 233.904C163.652 221.841 158.926 209.091 155.744 195.92C162.396 188.731 169.602 182.076 177.296 176.016C192.912 162.912 198.384 158.048 199.52 151.616C201.904 137.952 149.92 55.9677 138.24 41.9837C133.344 36.1917 128.896 32.3037 123.2 32.3037C106.688 32.3037 32 124.656 32 136.624C32 137.6 33.6 233.744 155.024 357.28C278.56 478.704 374.704 480.304 375.68 480.304C387.648 480.304 480 405.616 480 389.104C480 383.408 476.112 378.96 470.288 374.064Z" fill="#080708"/>
<path d="M368 240.304H400C399.962 206.368 386.464 173.833 362.468 149.836C338.471 125.84 305.936 112.342 272 112.304V144.304C297.453 144.329 321.856 154.452 339.854 172.45C357.852 190.448 367.975 214.851 368 240.304Z" fill="#080708"/>
<path d="M448 240.304H480C479.936 185.158 458.002 132.289 419.008 93.2957C380.014 54.3018 327.146 32.3672 272 32.3037V64.3037C318.661 64.3588 363.396 82.9192 396.39 115.914C429.384 148.908 447.945 193.643 448 240.304Z" fill="#080708"/>
</svg>
