<svg width="513" height="631" viewBox="0 0 513 631" fill="none" xmlns="http://www.w3.org/2000/svg">
<g clip-path="url(#clip0_414_279)">
<path d="M168.724 397.655L198.258 390.972C198.258 390.972 199.983 390.541 201.061 390.109C218.092 385.582 228.224 368.767 224.343 351.952V351.521C223.266 347.64 221.541 343.976 219.17 340.742C215.936 336.646 211.84 333.197 207.097 330.61C201.708 327.592 195.887 325.005 190.066 322.849L157.73 311.208C139.621 304.525 121.297 298.057 102.973 291.805C91.1157 287.709 80.9835 284.045 72.1447 281.242C70.4201 280.811 68.911 280.38 67.1864 279.733C56.623 276.499 49.0778 275.206 42.826 275.206C38.73 275.206 34.4184 275.853 30.538 277.362C26.442 279.086 22.7771 281.673 19.759 284.907C18.25 286.632 16.9565 288.356 15.663 290.081C13.0761 293.961 11.1359 298.057 9.41124 302.153C3.59061 319.831 0.788086 338.155 0.788086 356.479C0.788086 373.079 1.43482 394.421 10.7047 408.865C12.8605 412.53 15.8786 415.763 19.5435 418.35C26.2264 422.877 32.9093 423.524 39.8079 423.955C50.1557 424.602 60.2879 422.231 70.4201 419.859L168.509 397.655H168.724ZM498.129 243.731C490.152 227.132 479.158 212.041 466.007 198.891C464.283 197.166 462.558 195.657 460.618 194.364C458.893 193.07 456.953 191.777 455.013 190.699C453.073 189.621 450.917 188.759 448.977 187.896C444.881 186.387 440.569 185.525 436.042 185.741C431.946 185.956 427.634 187.034 423.97 188.974C418.365 191.777 412.328 196.088 404.136 203.634C403.058 204.712 401.549 206.005 400.256 207.083C393.573 213.335 386.243 220.88 377.189 229.719C363.607 243.3 350.026 256.882 336.66 270.679L312.731 295.039C308.419 299.566 304.323 304.309 300.874 309.483C297.856 313.794 295.7 318.753 294.622 323.711C293.975 327.592 293.975 331.688 294.838 335.568V335.999C298.934 352.814 315.749 363.378 332.78 360.144C333.858 360.144 334.72 359.713 335.798 359.497L463.421 330.61C473.553 328.238 483.685 326.298 492.739 321.124C498.775 317.675 504.596 314.226 508.477 307.327C510.632 303.447 511.926 299.351 512.141 295.039C514.082 278.008 505.027 258.606 497.698 243.516L498.129 243.731ZM269.615 296.333C278.885 284.907 278.885 267.876 279.747 254.079C282.55 207.73 285.568 161.165 287.724 114.6C288.586 96.9221 290.526 79.6758 289.448 61.7827C288.586 47.1233 288.37 30.3082 279.101 18.2358C262.501 -2.45982 226.93 -0.735185 202.786 2.4985C195.24 3.57639 187.911 4.86987 180.581 6.5945C173.251 8.31913 165.922 10.2593 158.807 12.4151C135.525 19.9604 102.973 33.5419 97.583 59.8425C94.3493 74.7174 101.895 89.808 107.5 103.389C114.398 119.773 123.884 134.648 132.507 149.954C155.358 190.699 178.641 231.228 201.708 271.757C208.606 283.829 216.151 299.135 229.517 305.387C230.38 305.818 231.242 306.034 232.32 306.465C238.356 308.621 244.823 309.052 251.075 307.758H252.153C257.974 306.034 263.148 302.8 267.244 298.704C268.106 298.057 268.753 297.41 269.399 296.548L269.615 296.333ZM258.621 420.722C251.291 410.589 237.925 406.062 225.637 409.943C224.343 410.374 222.834 411.021 221.541 411.667C219.601 412.745 217.661 413.823 215.72 415.332C210.546 419.428 205.804 423.955 201.923 429.345C200.845 430.638 199.983 432.363 198.69 433.441L178.21 461.25C166.568 476.772 155.143 492.294 143.717 508.247C136.172 518.379 129.92 527.002 124.746 534.763C123.884 536.272 122.806 537.781 121.943 539.074C115.907 548.344 112.458 555.027 110.733 561.064C109.44 565.16 109.009 569.255 109.44 573.352C110.087 577.663 111.596 581.759 113.751 585.64C115.045 587.58 116.338 589.304 117.632 591.029C120.65 594.478 124.099 597.712 127.98 600.299C142.208 610 157.73 616.898 173.898 622.288C187.479 626.815 201.708 629.402 215.936 630.264C218.307 630.264 220.894 630.264 223.266 630.264C225.421 630.264 227.793 629.833 229.949 629.402C232.104 628.971 234.26 628.324 236.416 627.462C240.512 625.953 244.392 623.581 247.626 620.563C250.644 617.545 253.015 614.096 254.309 610.216C256.68 604.395 258.189 597.065 259.267 586.071C259.267 584.562 259.483 582.621 259.698 580.897C260.561 571.842 260.992 561.064 261.423 548.56C262.501 529.158 263.148 509.971 263.794 490.785L265.088 456.508C265.303 448.531 265.088 439.908 262.932 431.932C261.854 428.267 260.345 424.602 258.189 421.368L258.621 420.722ZM490.368 474.401C486.056 469.874 480.02 465.131 470.535 459.526C469.241 458.664 467.517 457.801 466.007 456.939C458.031 452.196 448.33 447.238 437.12 441.202C419.874 431.932 402.627 422.877 385.165 413.823L354.338 397.87C352.829 397.439 351.104 396.361 349.595 395.499C343.774 392.481 337.307 390.325 330.839 389.032C328.684 388.6 326.312 388.385 324.157 388.385C322.647 388.385 321.138 388.385 319.845 388.6C307.126 390.541 297.209 400.242 295.269 412.53C294.838 416.41 295.053 420.29 295.7 423.955C297.209 431.932 300.874 439.908 304.539 446.807L320.923 476.988C329.977 494.018 339.247 511.049 348.733 527.864C354.769 538.859 359.943 548.344 364.685 556.105C365.548 557.614 366.626 559.123 367.488 560.632C373.309 570.118 378.051 575.938 382.578 580.25C389.046 586.286 397.669 589.089 406.508 588.226C408.663 588.011 411.035 587.58 413.191 587.149C417.718 585.855 422.029 584.346 426.341 582.19C438.845 575.292 450.27 566.884 460.618 556.968C472.906 545.111 483.685 532.176 492.308 517.301C493.602 515.145 494.464 512.989 495.326 510.834C496.189 508.678 496.835 506.738 497.482 504.582C497.913 502.426 498.344 500.27 498.56 497.899C498.991 493.587 498.56 489.06 497.051 484.964C495.757 481.084 493.386 477.419 490.368 474.401Z" fill="#FF1A1A"/>
</g>
<defs>
<clipPath id="clip0_414_279">
<rect width="512" height="629.491" fill="white" transform="translate(0.788086 0.55835)"/>
</clipPath>
</defs>
</svg>
