<svg width="409" height="410" viewBox="0 0 409 410" fill="none" xmlns="http://www.w3.org/2000/svg">
<g clip-path="url(#clip0_417_969)">
<path d="M353.701 0.909668H55.087C24.665 0.909668 0.00195312 25.5717 0.00195312 55.9947V354.611C0.00195312 385.034 24.664 409.696 55.087 409.696H202.362L202.613 263.618H164.662C159.73 263.618 155.727 259.63 155.708 254.698L155.526 207.611C155.507 202.652 159.522 198.622 164.481 198.622H202.363V153.124C202.363 100.324 234.61 71.5737 281.711 71.5737H320.361C325.306 71.5737 329.316 75.5827 329.316 80.5287V120.233C329.316 125.177 325.309 129.185 320.366 129.188L296.647 129.199C271.032 129.199 266.072 141.371 266.072 159.234V198.623H322.357C327.72 198.623 331.881 203.306 331.249 208.632L325.668 255.719C325.134 260.225 321.313 263.62 316.776 263.62H266.323L266.072 409.698H353.703C384.125 409.698 408.787 385.036 408.787 354.614V55.9947C408.786 25.5717 384.124 0.909668 353.701 0.909668Z" fill="#475993"/>
</g>
<defs>
<clipPath id="clip0_417_969">
<rect width="408.788" height="408.788" fill="white" transform="translate(0 0.909668)"/>
</clipPath>
</defs>
</svg>
