<svg width="512" height="512" viewBox="0 0 512 512" fill="none" xmlns="http://www.w3.org/2000/svg">
<g clip-path="url(#clip0_409_451)">
<path d="M10.6619 384C8.86991 384 7.05658 383.552 5.39258 382.592C0.272579 379.669 -1.51942 373.163 1.40325 368.043C45.4139 290.901 65.9152 217.003 65.9152 135.467V76.5867C65.9152 34.3467 100.283 0 142.502 0H208.422C232.699 0 255.099 11.1787 269.841 30.6773L279.654 43.6907C290.001 57.6213 306.513 65.8987 323.835 65.8987H340.262C364.369 65.8987 383.995 85.5253 383.995 109.632V122.219C383.995 138.603 374.566 153.899 359.974 161.195L273.361 204.501C267.195 207.595 262.886 213.184 261.563 219.861C260.411 225.643 254.758 229.397 249.019 228.245C243.238 227.093 239.483 221.483 240.635 215.701C243.281 202.496 251.729 191.467 263.803 185.429L350.417 142.123C357.862 138.411 362.662 130.624 362.662 122.24V109.653C362.662 97.088 352.827 87.2533 340.262 87.2533H323.835C299.814 87.2533 276.902 75.7547 262.566 56.512L252.795 43.5627C242.15 29.44 225.958 21.3333 208.422 21.3333H142.502C112.038 21.3333 87.2486 46.1227 87.2486 76.5867V135.467C87.2486 220.864 65.8512 298.133 19.9206 378.603C17.9579 382.08 14.3526 384 10.6619 384Z" fill="#080708"/>
<path d="M142.549 213.333C132.181 213.333 122.56 207.296 118.08 197.931L66.9866 91.904C64.4479 86.592 66.6666 80.2133 71.9786 77.6533C77.2906 75.1147 83.6479 77.3333 86.2079 82.6453L137.301 188.693C138.923 192.085 147.84 192.384 148.331 186.731L164.885 11.136C165.44 5.26933 170.496 0.746661 176.491 1.51466C182.357 2.06933 186.667 7.27466 186.112 13.12L169.579 188.693C168.299 202.709 156.693 213.333 142.549 213.333Z" fill="#080708"/>
<path d="M373.333 512C371.093 512 368.853 511.296 366.954 509.888C361.557 505.856 234.666 410.261 234.666 333.44C234.666 290.731 269.397 256 312.106 256C336.447 256 358.89 267.328 373.333 285.952C387.754 267.328 410.218 256 434.559 256C477.269 256 511.999 290.731 511.999 333.44C511.999 410.261 385.109 505.856 379.711 509.888C377.813 511.296 375.573 512 373.333 512ZM312.106 277.333C281.173 277.333 255.999 302.507 255.999 333.44C255.999 385.28 335.423 458.219 373.333 487.893C411.221 458.197 490.666 385.216 490.666 333.44C490.666 302.507 465.493 277.333 434.559 277.333C412.181 277.333 391.999 290.539 383.125 310.997C379.754 318.784 366.933 318.784 363.562 310.997C354.666 290.539 334.485 277.333 312.106 277.333Z" fill="#080708"/>
</g>
<defs>
<clipPath id="clip0_409_451">
<rect width="512" height="512" fill="white"/>
</clipPath>
</defs>
</svg>
