<svg width="512" height="512" viewBox="0 0 512 512" fill="none" xmlns="http://www.w3.org/2000/svg">
<path d="M256 451.548C148 451.548 60.4479 364 60.4479 256C60.4479 148 148 60.448 256 60.448C364.004 60.448 451.552 148 451.552 256C451.552 263.9 457.964 270.308 465.86 270.308C473.756 270.308 480.164 263.896 480.164 256C480.164 132.2 379.8 31.832 256 31.832C132.2 31.832 31.8359 132.2 31.8359 256C31.8359 379.8 132.2 480.168 256 480.168C259.754 480.105 263.333 478.57 265.965 475.893C268.597 473.216 270.073 469.612 270.073 465.858C270.073 462.104 268.597 458.5 265.965 455.823C263.333 453.146 259.754 451.611 256 451.548Z" fill="#080708"/>
<path d="M241.692 103.376V260.764H160.604C156.808 260.764 153.168 262.272 150.484 264.956C147.8 267.64 146.292 271.28 146.292 275.076C146.292 278.872 147.8 282.512 150.484 285.196C153.168 287.88 156.808 289.388 160.604 289.388H256C259.795 289.386 263.435 287.877 266.118 285.192C268.801 282.508 270.308 278.867 270.308 275.072V103.376C270.308 95.472 263.896 89.064 256 89.064C248.104 89.064 241.692 95.476 241.692 103.376ZM370.468 260.764C309.88 260.764 260.768 309.876 260.768 370.464C260.768 431.056 309.876 480.168 370.468 480.168C431.052 480.168 480.164 431.06 480.164 370.464C480.164 309.876 431.056 260.764 370.468 260.764ZM371.796 419.32C370.663 420.82 369.246 422.082 367.625 423.034C366.004 423.986 364.212 424.609 362.35 424.868C360.489 425.128 358.594 425.018 356.775 424.545C354.956 424.072 353.248 423.245 351.748 422.112L307.996 389.036C304.968 386.747 302.973 383.348 302.45 379.588C301.928 375.828 302.921 372.014 305.21 368.986C307.499 365.958 310.898 363.963 314.658 363.441C318.418 362.918 322.232 363.911 325.26 366.2L357.6 390.648L403.192 330.332C404.31 328.792 405.724 327.491 407.351 326.504C408.978 325.517 410.785 324.864 412.667 324.584C414.549 324.304 416.468 324.402 418.312 324.873C420.156 325.343 421.887 326.177 423.405 327.324C424.923 328.472 426.197 329.911 427.152 331.557C428.107 333.202 428.724 335.022 428.968 336.909C429.211 338.796 429.076 340.713 428.57 342.547C428.064 344.382 427.197 346.097 426.02 347.592L371.796 419.32Z" fill="#080708"/>
</svg>
