<svg width="512" height="512" viewBox="0 0 512 512" fill="none" xmlns="http://www.w3.org/2000/svg">
<g clip-path="url(#clip0_409_434)">
<path d="M256 511.979C261.523 511.979 266 507.502 266 501.979C266 496.456 261.523 491.979 256 491.979C250.477 491.979 246 496.456 246 501.979C246 507.502 250.477 511.979 256 511.979Z" fill="#080708"/>
<path d="M403.288 47.942C408.811 47.942 413.288 43.4649 413.288 37.942C413.288 32.4192 408.811 27.942 403.288 27.942C397.765 27.942 393.288 32.4192 393.288 37.942C393.288 43.4649 397.765 47.942 403.288 47.942Z" fill="#080708"/>
<path d="M109.38 138.75C114.903 138.75 119.38 134.273 119.38 128.75C119.38 123.227 114.903 118.75 109.38 118.75C103.857 118.75 99.3799 123.227 99.3799 128.75C99.3799 134.273 103.857 138.75 109.38 138.75Z" fill="#080708"/>
<path d="M29.5068 262.993C35.0297 262.993 39.5068 258.516 39.5068 252.993C39.5068 247.47 35.0297 242.993 29.5068 242.993C23.984 242.993 19.5068 247.47 19.5068 252.993C19.5068 258.516 23.984 262.993 29.5068 262.993Z" fill="#080708"/>
<path d="M481.585 191.624C487.108 191.624 491.585 187.147 491.585 181.624C491.585 176.101 487.108 171.624 481.585 171.624C476.062 171.624 471.585 176.101 471.585 181.624C471.585 187.147 476.062 191.624 481.585 191.624Z" fill="#080708"/>
<path d="M458.241 445.894C450.102 420.018 426.384 401.891 398.673 401.261C395.052 369.331 384.651 303.003 356.852 240.583C360.702 235.364 364.083 229.34 366.958 222.525C374.861 203.791 376.216 185.265 376.359 182.928C385.028 86.996 349.635 13.78 349.525 13.59C344.62 5.08501 335.828 0.00400708 326.008 0.00100708C326.005 0.00100708 326.003 0.00100708 325.999 0.00100708C316.178 0.00100708 307.383 5.07901 302.471 13.584C302.063 14.29 301.743 15.043 301.518 15.827L299.284 23.6C297.669 23.177 295.993 22.866 294.257 22.69C290.52 22.311 286.678 22.514 283.044 23.28C276.247 15.682 266.472 11.199 256 11.199C245.528 11.199 235.753 15.681 228.956 23.28C225.323 22.515 221.48 22.311 217.745 22.69C216.008 22.866 214.332 23.177 212.716 23.6L210.482 15.827C210.257 15.043 209.937 14.29 209.529 13.584C204.616 5.07901 195.821 0.00100708 186 0.00100708C185.997 0.00100708 185.994 0.00100708 185.991 0.00100708C176.171 0.00400708 167.379 5.08401 162.474 13.59C162.364 13.78 126.971 86.996 135.64 182.928C135.783 185.266 137.138 203.791 145.041 222.525C147.916 229.34 151.297 235.364 155.147 240.583C127.348 303.003 116.947 369.331 113.326 401.261C85.615 401.89 61.897 420.018 53.758 445.894C23.904 447.143 0 471.822 0 501.979C0 507.513 4.486 511.999 10.02 511.999H211.088C216.621 511.999 221.108 507.513 221.108 501.979C221.108 496.445 216.622 491.959 211.088 491.959H21.454C25.807 476.915 39.706 465.883 56.134 465.883C57.507 465.883 58.901 465.968 60.397 466.144C65.69 466.759 70.552 463.126 71.442 457.866C75.034 436.661 93.275 421.27 114.815 421.27C119.592 421.27 124.314 422.043 128.849 423.569C131.565 424.483 134.545 424.189 137.032 422.762C139.518 421.334 141.275 418.91 141.855 416.103C146.057 395.803 164.179 381.07 184.946 381.07C191.627 381.07 198.038 382.525 204.003 385.396C208.842 387.725 214.648 385.828 217.181 381.099C224.869 366.745 239.744 357.829 256 357.829C272.256 357.829 287.131 366.745 294.819 381.099C297.352 385.829 303.164 387.725 307.997 385.396C313.962 382.525 320.373 381.07 327.054 381.07C347.821 381.07 365.943 395.803 370.145 416.103C370.725 418.91 372.482 421.334 374.968 422.762C377.454 424.189 380.435 424.481 383.151 423.569C387.686 422.043 392.408 421.27 397.185 421.27C418.725 421.27 436.966 436.661 440.558 457.866C441.448 463.126 446.311 466.762 451.603 466.144C453.099 465.968 454.493 465.883 455.866 465.883C472.294 465.883 486.193 476.915 490.546 491.959H300.913C295.38 491.959 290.893 496.445 290.893 501.979C290.893 507.513 295.379 511.999 300.913 511.999H501.98C507.513 511.999 512 507.513 512 501.979C512 471.822 488.096 447.143 458.241 445.894ZM219.766 42.627C220.735 42.143 222.848 42.569 223.871 42.721C225.465 42.958 227.022 43.439 228.475 44.138C233.314 46.465 239.121 44.57 241.653 39.84C244.494 34.534 249.993 31.238 255.999 31.238C262.006 31.238 267.504 34.534 270.345 39.84C272.879 44.569 278.686 46.465 283.523 44.138C286.219 42.84 289.257 42.324 292.232 42.627C301.145 43.531 301.596 51.801 301.596 53.45C301.596 55.099 301.145 63.369 292.236 64.273C289.234 64.574 286.219 64.06 283.524 62.762C278.685 60.435 272.878 62.33 270.345 67.059C267.504 72.365 262.005 75.662 255.999 75.662C249.992 75.662 244.494 72.366 241.653 67.059C239.853 63.697 236.398 61.768 232.813 61.768C231.354 61.768 229.873 62.088 228.473 62.762C225.776 64.061 222.74 64.573 219.765 64.274C210.852 63.37 210.401 55.099 210.401 53.451C210.402 51.801 210.853 43.531 219.766 42.627ZM179.995 23.333C181.86 20.369 184.796 20.041 185.997 20.04H185.999C187.124 20.04 189.764 20.327 191.631 22.785L195.405 35.91C192.184 40.828 190.363 46.829 190.363 53.449C190.363 69.925 201.622 82.574 217.749 84.209C221.51 84.59 225.33 84.383 228.956 83.619C235.753 91.218 245.528 95.7 256 95.7C266.472 95.7 276.247 91.218 283.044 83.619C286.672 84.383 290.484 84.591 294.255 84.209C310.377 82.574 321.637 69.925 321.637 53.449C321.637 46.828 319.816 40.828 316.595 35.909L320.369 22.784C322.236 20.326 324.876 20.039 326.001 20.039H326.003C327.204 20.039 330.139 20.368 332.004 23.331C334.433 28.508 364.271 94.529 356.374 181.469C356.362 181.597 356.381 181.341 356.374 181.469C356.365 181.634 355.42 198.32 348.494 214.736C339.887 235.139 326.862 245.057 308.673 245.057C295.148 245.057 282.703 240.029 274.526 231.257C270.677 227.133 268.087 222.474 266.856 217.535C271.03 215.458 274.568 212.17 277.019 207.923L288.045 188.825C292.432 181.226 292.432 172.152 288.045 164.553C283.658 156.954 275.799 152.417 267.025 152.417H244.972C236.198 152.417 228.34 156.954 223.952 164.553C219.565 172.152 219.565 181.226 223.952 188.825L234.978 207.923C237.43 212.17 240.967 215.458 245.141 217.535C243.91 222.474 241.319 227.134 237.467 231.262C229.294 240.029 216.85 245.057 203.324 245.057C185.266 245.057 172.3 235.277 163.682 215.158C156.656 198.754 155.632 181.623 155.623 181.469C155.616 181.341 155.635 181.597 155.623 181.469C147.725 94.486 177.598 28.442 179.995 23.333ZM232.263 258.991C237.222 256.761 241.833 253.95 245.98 250.609V263.013C245.98 268.547 250.466 273.033 256 273.033C261.534 273.033 266.02 268.547 266.02 263.013V250.608C270.167 253.949 274.779 256.76 279.737 258.991V278.801C279.737 281.051 279.426 283.264 278.809 285.395C275.903 295.485 266.524 302.532 256 302.532C242.912 302.532 232.263 291.886 232.263 278.801V258.991ZM259.665 197.904C258.601 199.745 256.913 200.02 256 200.02C255.087 200.02 253.398 199.745 252.335 197.904L241.309 178.806C240.246 176.965 240.853 175.364 241.309 174.573C241.766 173.783 242.848 172.457 244.974 172.457H267.027C269.153 172.457 270.235 173.783 270.692 174.573C271.148 175.364 271.755 176.965 270.692 178.806L259.665 197.904ZM327.054 361.032C320.392 361.032 313.907 362.031 307.684 364.009C295.718 347.649 276.624 337.792 256 337.792C235.376 337.792 216.282 347.649 204.316 364.009C198.093 362.031 191.609 361.032 184.946 361.032C165.51 361.032 147.671 369.912 135.782 384.108C140.594 351.601 150.534 302.758 170.509 255.524C179.925 261.851 190.939 265.097 203.327 265.097C206.332 265.097 209.3 264.894 212.224 264.536V278.8C212.224 302.935 231.862 322.571 256 322.571C275.405 322.571 292.703 309.564 298.062 290.954C299.2 287.025 299.776 282.936 299.776 278.801V264.537C302.7 264.895 305.668 265.098 308.673 265.098C321.061 265.098 332.075 261.851 341.491 255.525C361.466 302.759 371.406 351.602 376.218 384.109C364.329 369.911 346.49 361.032 327.054 361.032Z" fill="#080708"/>
<path d="M174.775 142.568C180.308 142.568 184.795 138.082 184.795 132.548C184.795 123.953 191.788 116.96 200.383 116.96C208.978 116.96 215.971 123.953 215.971 132.548C215.971 138.082 220.457 142.568 225.991 142.568C231.524 142.568 236.011 138.082 236.011 132.548C236.011 112.903 220.029 96.921 200.384 96.921C180.739 96.921 164.757 112.903 164.757 132.548C164.755 138.082 169.242 142.568 174.775 142.568Z" fill="#080708"/>
<path d="M286.01 142.568C291.543 142.568 296.03 138.082 296.03 132.548C296.03 123.953 303.023 116.96 311.618 116.96C320.213 116.96 327.206 123.953 327.206 132.548C327.206 138.082 331.692 142.568 337.226 142.568C342.759 142.568 347.246 138.082 347.246 132.548C347.246 112.903 331.264 96.921 311.619 96.921C291.974 96.921 275.992 112.903 275.992 132.548C275.99 138.082 280.477 142.568 286.01 142.568Z" fill="#080708"/>
<path d="M422.659 238.298C439.233 238.298 452.718 224.814 452.718 208.239C452.718 191.664 439.234 178.18 422.659 178.18C406.084 178.18 392.6 191.665 392.6 208.239C392.6 224.813 406.084 238.298 422.659 238.298ZM422.659 198.219C428.183 198.219 432.679 202.714 432.679 208.239C432.679 213.764 428.184 218.259 422.659 218.259C417.135 218.259 412.639 213.764 412.639 208.239C412.639 202.714 417.134 198.219 422.659 198.219Z" fill="#080708"/>
<path d="M458.428 132.629C479.659 132.629 496.931 115.356 496.931 94.126C496.931 72.896 479.659 55.623 458.428 55.623C437.197 55.623 419.925 72.896 419.925 94.126C419.925 115.356 437.197 132.629 458.428 132.629ZM458.428 75.662C468.609 75.662 476.892 83.945 476.892 94.126C476.892 104.307 468.609 112.59 458.428 112.59C448.247 112.59 439.964 104.307 439.964 94.126C439.964 83.945 448.247 75.662 458.428 75.662Z" fill="#080708"/>
<path d="M89.3412 178.18C72.7672 178.18 59.2822 191.664 59.2822 208.239C59.2822 224.814 72.7662 238.298 89.3412 238.298C105.916 238.298 119.4 224.814 119.4 208.239C119.4 191.664 105.916 178.18 89.3412 178.18ZM89.3412 218.259C83.8172 218.259 79.3212 213.764 79.3212 208.239C79.3212 202.714 83.8162 198.219 89.3412 198.219C94.8652 198.219 99.3612 202.714 99.3612 208.239C99.3612 213.764 94.8662 218.259 89.3412 218.259Z" fill="#080708"/>
<path d="M53.5723 132.629C74.8033 132.629 92.0753 115.356 92.0753 94.126C92.0753 72.896 74.8033 55.623 53.5723 55.623C32.3413 55.623 15.0693 72.896 15.0693 94.126C15.0693 115.356 32.3413 132.629 53.5723 132.629ZM53.5723 75.662C63.7533 75.662 72.0363 83.945 72.0363 94.126C72.0363 104.307 63.7533 112.59 53.5723 112.59C43.3913 112.59 35.1083 104.307 35.1083 94.126C35.1083 83.945 43.3913 75.662 53.5723 75.662Z" fill="#080708"/>
<path d="M256 398.762C245.469 398.762 235.305 402.618 228.115 409.342C224.073 413.121 223.861 419.462 227.64 423.503C231.419 427.546 237.761 427.757 241.801 423.978C245.32 420.688 250.494 418.801 255.999 418.801C261.504 418.801 266.678 420.688 270.197 423.978C272.129 425.785 274.586 426.68 277.038 426.68C279.715 426.68 282.385 425.613 284.358 423.504C288.138 419.462 287.926 413.122 283.883 409.343C276.695 402.618 266.531 398.762 256 398.762Z" fill="#080708"/>
<path d="M156.93 440.86C146.398 440.86 136.234 444.716 129.044 451.44C125.003 455.22 124.791 461.56 128.57 465.602C130.544 467.712 133.213 468.778 135.89 468.778C138.342 468.778 140.8 467.883 142.732 466.076C146.249 462.786 151.424 460.899 156.929 460.899C162.435 460.899 167.609 462.785 171.126 466.075C175.166 469.856 181.508 469.644 185.287 465.603C189.068 461.561 188.855 455.221 184.814 451.441C177.627 444.716 167.463 440.86 156.93 440.86Z" fill="#080708"/>
<path d="M340.874 466.075C344.391 462.786 349.565 460.899 355.071 460.899C360.576 460.899 365.751 462.785 369.268 466.076C371.2 467.883 373.658 468.778 376.11 468.778C378.787 468.778 381.457 467.712 383.43 465.602C387.21 461.56 386.998 455.22 382.956 451.44C375.766 444.716 365.603 440.86 355.071 440.86C344.538 440.86 334.373 444.717 327.185 451.441C323.144 455.221 322.932 461.561 326.712 465.603C330.492 469.644 336.834 469.855 340.874 466.075Z" fill="#080708"/>
</g>
<defs>
<clipPath id="clip0_409_434">
<rect width="512" height="512" fill="white"/>
</clipPath>
</defs>
</svg>
