<svg xmlns="http://www.w3.org/2000/svg" version="1.1" xmlns:xlink="http://www.w3.org/1999/xlink" xmlns:svgjs="http://svgjs.dev/svgjs" width="512" height="513"><svg width="512" height="513" viewBox="0 0 512 513" fill="none" xmlns="http://www.w3.org/2000/svg">
<g clip-path="url(#clip0_500_1188)">
<path d="M378.608 291.255C344.16 249.663 300.618 226.757 256 226.757C211.382 226.757 167.839 249.663 133.393 291.255C102.43 328.64 83.9453 375.756 83.9453 417.29C83.9453 437.466 90.1133 452.834 102.277 462.969C114.283 472.973 130.134 476.357 147.818 476.356C166.635 476.356 187.529 472.524 208.058 468.758C225.997 465.467 242.941 462.359 256.001 462.359C267.273 462.359 283.166 465.309 299.989 468.432C339.306 475.732 383.87 484.004 409.613 462.6C421.851 452.425 428.056 437.18 428.056 417.29C428.057 375.756 409.572 328.64 378.608 291.255Z" fill="#0EA5E9"></path>
<path d="M382.13 65.407C369.526 46.824 351.478 36.167 332.613 36.167C313.747 36.167 295.7 46.825 283.096 65.407C271.518 82.478 265.141 104.896 265.141 128.532C265.141 152.168 271.517 174.586 283.096 191.657C295.7 210.239 313.748 220.897 332.613 220.897C351.479 220.897 369.526 210.239 382.13 191.657C393.708 174.586 400.085 152.168 400.085 128.532C400.085 104.896 393.709 82.477 382.13 65.407Z" fill="#0EA5E9"></path>
<path d="M228.905 65.406C216.301 46.823 198.254 36.166 179.388 36.166C160.522 36.166 142.474 46.824 129.871 65.406C118.293 82.477 111.916 104.895 111.916 128.531C111.916 152.167 118.292 174.585 129.871 191.656C142.475 210.239 160.522 220.897 179.388 220.897C198.254 220.897 216.301 210.239 228.905 191.656C240.483 174.585 246.86 152.168 246.86 128.531C246.859 104.895 240.483 82.476 228.905 65.406Z" fill="#0EA5E9"></path>
<path d="M509.019 210.394C503.938 193.11 493.047 180.551 478.354 175.032C466.53 170.591 453.183 171.344 440.771 177.153C423.666 185.157 409.685 201.685 402.415 222.498C396.474 239.506 395.733 257.483 400.33 273.12C405.411 290.404 416.302 302.963 430.996 308.482C436.081 310.392 441.446 311.341 446.898 311.341C454.125 311.341 461.505 309.672 468.58 306.361C485.685 298.357 499.666 281.829 506.936 261.017V261.016C512.876 244.009 513.617 226.031 509.019 210.394Z" fill="#0EA5E9"></path>
<path d="M109.587 222.496C102.316 201.683 88.3352 185.156 71.2312 177.152C58.8182 171.343 45.4702 170.591 33.6472 175.031C18.9532 180.551 8.06223 193.11 2.98123 210.393C-1.61577 226.03 -0.874766 244.008 5.06623 261.015V261.016C12.3382 281.829 26.3182 298.356 43.4222 306.36C50.4982 309.671 57.8772 311.34 65.1042 311.34C70.5562 311.34 75.9222 310.39 81.0062 308.481C95.7022 302.961 106.592 290.402 111.673 273.119C116.268 257.483 115.527 239.505 109.587 222.496Z" fill="#0EA5E9"></path>
</g>
<defs>
<clipPath id="SvgjsClipPath1012">
<rect width="512" height="512" fill="white" transform="translate(0 0.260742)"></rect>
</clipPath>
</defs>
</svg><style>@media (prefers-color-scheme: light) { :root { filter: none; } }
@media (prefers-color-scheme: dark) { :root { filter: none; } }
</style></svg>