<svg width="512" height="518" viewBox="0 0 512 518" fill="none" xmlns="http://www.w3.org/2000/svg">
<g clip-path="url(#clip0_527_1196)">
<path d="M328.321 192.002C330.182 192.19 332.027 192.284 333.856 192.284C370.085 192.284 401.153 157.306 405.828 109.851C408.08 87.0066 403.608 64.6941 393.273 47.0098C382.156 28.0121 364.862 16.0349 345.802 14.1586C326.929 12.3292 307.463 20.6632 292.843 37.1279C279.271 52.4355 270.546 73.4658 268.31 96.3256C263.416 146.173 289.763 188.203 328.321 192.002ZM299.426 99.3746C301.021 83.2696 307.134 68.1496 316.25 57.8768C320.565 52.9984 329.259 45.1647 340.408 45.1647C341.174 45.1647 341.955 45.196 342.737 45.2742C354.996 46.4782 362.751 56.7666 366.285 62.8021C373.212 74.6542 376.292 90.681 374.697 106.786C371.617 138.089 351.978 162.904 331.37 160.887C310.965 158.885 296.345 130.709 299.426 99.3746Z" fill="white"/>
<path d="M299.426 99.3746C301.021 83.2696 307.134 68.1496 316.25 57.8768C320.565 52.9984 329.259 45.1647 340.408 45.1647C341.174 45.1647 341.955 45.196 342.737 45.2742C354.996 46.4782 362.751 56.7666 366.285 62.8021C373.212 74.6542 376.292 90.681 374.697 106.786C371.617 138.089 351.978 162.904 331.37 160.887C310.965 158.885 296.345 130.709 299.426 99.3746Z" fill="#0EA5E9"/>
<path d="M511.422 241.272C513.705 218.099 509.186 195.474 498.726 177.555C487.452 158.307 469.94 146.174 450.661 144.282C411.665 140.467 377.125 177.055 372.153 227.575C369.87 250.747 374.404 273.372 384.865 291.291C396.279 310.82 413.354 322.641 432.914 324.549C434.681 324.721 436.479 324.815 438.262 324.815C455.758 324.815 473.114 316.434 486.53 301.283C500.305 285.756 509.139 264.46 511.422 241.272ZM480.307 238.207C478.681 254.64 472.442 270.073 463.138 280.549C458.401 285.897 448.675 294.653 435.979 293.449C423.392 292.214 415.464 281.691 411.868 275.514C404.785 263.428 401.658 247.073 403.268 230.639C406.286 199.868 425.19 175.288 445.22 175.288C446.017 175.288 446.814 175.319 447.596 175.397C460.183 176.633 468.111 187.171 471.723 193.332C478.79 205.418 481.917 221.789 480.307 238.207Z" fill="white"/>
<path d="M480.307 238.207C478.681 254.64 472.442 270.073 463.138 280.549C458.401 285.897 448.675 294.653 435.979 293.449C423.392 292.214 415.464 281.691 411.868 275.514C404.785 263.428 401.658 247.073 403.268 230.639C406.286 199.868 425.19 175.288 445.22 175.288C446.017 175.288 446.814 175.319 447.596 175.397C460.183 176.633 468.111 187.171 471.723 193.332C478.79 205.418 481.917 221.789 480.307 238.207Z" fill="#0EA5E9"/>
<path d="M134.973 497.323C159.693 497.323 185.211 488.379 204.146 481.734C213.653 478.403 226.021 473.619 230.649 474.056C234.542 474.572 246.473 481.609 255.182 486.737C276.462 499.309 306.874 517.259 336.942 517.259C354.126 517.259 371.201 511.395 386.414 495.337C446.457 431.902 390.98 354.613 370.09 325.515C362.304 314.663 357.05 299.606 351.499 283.657C338.146 245.38 321.541 197.753 258.45 191.546C195.437 185.323 169.778 228.838 149.248 263.784C140.68 278.341 132.612 292.085 122.855 301.217C96.7113 325.687 27.2564 390.701 73.7578 464.597C89.4406 489.489 111.863 497.323 134.988 497.323H134.973ZM144.213 324.045C157.177 311.905 166.757 295.655 176.025 279.933C176.079 279.84 176.134 279.747 176.189 279.655C176.229 279.587 176.268 279.52 176.308 279.452C195.568 246.703 212.147 218.511 255.385 222.677C298.564 226.928 309.396 257.966 321.943 293.92C321.95 293.939 321.956 293.958 321.963 293.977C328.014 311.317 334.269 329.236 344.682 343.762C387.65 403.632 393.341 442.534 363.695 473.853C340.898 497.979 308.25 481.781 271.068 459.843C271.039 459.827 271.011 459.81 270.982 459.793C256.028 450.967 244.201 443.986 233.714 442.956C223.27 441.878 210.246 446.458 193.799 452.243L193.795 452.244C153.048 466.52 117.898 476.058 100.214 447.96C77.2446 411.481 90.3944 374.424 144.198 324.061L144.213 324.045Z" fill="white"/>
<path d="M144.213 324.045C157.177 311.905 166.757 295.655 176.025 279.933L176.189 279.655L176.308 279.452C195.568 246.703 212.147 218.511 255.385 222.677C298.564 226.928 309.396 257.966 321.943 293.92L321.963 293.977C328.014 311.317 334.269 329.236 344.682 343.762C387.65 403.632 393.341 442.534 363.695 473.853C340.898 497.979 308.25 481.781 271.068 459.843L270.982 459.793C256.028 450.967 244.201 443.986 233.714 442.956C223.27 441.878 210.246 446.458 193.799 452.243L193.795 452.244C153.048 466.52 117.898 476.058 100.214 447.96C77.2446 411.481 90.3944 374.424 144.198 324.061L144.213 324.045Z" fill="#0EA5E9"/>
<path d="M187.854 178.165C189.605 178.337 191.372 178.43 193.139 178.43C210.432 178.43 227.554 170.159 240.829 155.211C254.401 139.903 263.126 118.873 265.362 96.0132C270.256 46.1657 243.909 4.12065 205.335 0.321107C166.667 -3.47843 132.737 32.625 127.843 82.4881C125.592 105.332 130.048 127.645 140.383 145.313C151.5 164.327 168.794 176.288 187.854 178.165ZM158.959 85.5371C161.914 55.391 180.396 31.3272 199.956 31.3272C200.722 31.3272 201.504 31.3585 202.27 31.4367C222.675 33.4381 237.311 61.6141 234.23 92.9485C232.635 109.054 226.522 124.174 217.406 134.446C212.793 139.669 203.256 148.347 190.903 147.049C178.645 145.845 170.905 135.557 167.371 129.521C160.444 117.685 157.364 101.642 158.959 85.5371Z" fill="white"/>
<path d="M158.959 85.5371C161.914 55.391 180.396 31.3272 199.956 31.3272C200.722 31.3272 201.504 31.3585 202.27 31.4367C222.675 33.4381 237.311 61.6141 234.23 92.9485C232.635 109.054 226.522 124.174 217.406 134.446C212.793 139.669 203.256 148.347 190.903 147.049C178.645 145.845 170.905 135.557 167.371 129.521C160.444 117.685 157.364 101.642 158.959 85.5371Z" fill="#0EA5E9"/>
<path d="M61.3698 288.012C63.2461 288.2 65.1224 288.293 66.9675 288.293C103.681 288.293 135.14 252.831 139.862 204.735C142.145 181.562 137.626 158.922 127.166 141.003C115.892 121.755 98.3801 109.621 79.101 107.729C40.1362 103.961 5.56506 140.502 0.59282 191.022C-4.36378 241.558 22.3268 284.181 61.3698 288.012ZM31.724 194.071C34.7418 163.3 53.6456 138.72 73.6753 138.72C74.4727 138.72 75.2702 138.751 76.052 138.829C88.6389 140.065 96.5664 150.603 100.178 156.764C107.246 168.85 110.373 185.206 108.762 201.639C105.635 233.63 85.4179 258.835 64.4344 256.865C43.5604 254.817 28.5812 226.047 31.724 194.04V194.071Z" fill="white"/>
<path d="M31.724 194.071C34.7418 163.3 53.6456 138.72 73.6753 138.72C74.4727 138.72 75.2702 138.751 76.052 138.829C88.6389 140.065 96.5664 150.603 100.178 156.764C107.246 168.85 110.373 185.206 108.762 201.639C105.635 233.63 85.4179 258.835 64.4344 256.865C43.5604 254.817 28.5812 226.047 31.724 194.04V194.071Z" fill="#0EA5E9"/>
</g>
<defs>
<clipPath id="clip0_527_1196">
<rect width="512" height="517.212" fill="white" transform="translate(0 0.0488281)"/>
</clipPath>
</defs>
</svg>
