<svg width="379" height="290" viewBox="0 0 379 290" fill="none" xmlns="http://www.w3.org/2000/svg">
<g clip-path="url(#clip0_480_977)">
<path d="M14.779 65.0488L2.427 23.3208H12.411L17.147 42.7768C17.531 44.2702 17.8937 45.7635 18.235 47.2568C18.619 48.7502 18.9817 50.2222 19.323 51.6728C19.707 53.1235 20.1123 54.6168 20.539 56.1528H20.795C21.179 54.6168 21.5417 53.1235 21.883 51.6728C22.2243 50.2222 22.587 48.7502 22.971 47.2568C23.355 45.7635 23.739 44.2702 24.123 42.7768L29.307 23.3208H38.907L26.107 65.0488H14.779ZM51.2375 65.7528C49.1042 65.7528 47.3975 65.3262 46.1175 64.4728C44.8802 63.5768 43.9842 62.3395 43.4295 60.7608C42.8748 59.1395 42.5975 57.2622 42.5975 55.1288V20.2488H52.0055V55.5128C52.0055 56.5368 52.1762 57.2408 52.5175 57.6248C52.9015 57.9662 53.3068 58.1368 53.7335 58.1368C53.9042 58.1368 54.0535 58.1368 54.1815 58.1368C54.3522 58.0942 54.5655 58.0515 54.8215 58.0088L55.9735 64.9848C55.4615 65.1982 54.8002 65.3688 53.9895 65.4968C53.2215 65.6675 52.3042 65.7528 51.2375 65.7528ZM68.91 65.8168C66.99 65.8168 65.3047 65.3902 63.854 64.5368C62.446 63.6835 61.358 62.5315 60.59 61.0808C59.822 59.6302 59.438 58.0088 59.438 56.2168C59.438 52.8035 60.846 50.1795 63.662 48.3448C66.478 46.4675 71.022 45.2088 77.294 44.5688C77.2513 43.6302 77.038 42.8408 76.654 42.2008C76.3127 41.5182 75.7793 41.0062 75.054 40.6648C74.3287 40.2808 73.4113 40.0888 72.302 40.0888C70.9793 40.0888 69.6353 40.3235 68.27 40.7928C66.9047 41.2622 65.4327 41.9448 63.854 42.8408L60.526 36.6968C61.8913 35.8435 63.2993 35.1182 64.75 34.5208C66.2007 33.8808 67.694 33.3902 69.23 33.0488C70.8087 32.7075 72.43 32.5368 74.094 32.5368C76.8247 32.5368 79.1073 33.0702 80.942 34.1368C82.8193 35.1608 84.2487 36.7395 85.23 38.8728C86.2113 40.9635 86.702 43.6515 86.702 46.9368V65.0488H79.022L78.382 61.7848H78.126C76.7607 62.9795 75.3313 63.9608 73.838 64.7288C72.3447 65.4542 70.702 65.8168 68.91 65.8168ZM72.046 58.4568C73.1127 58.4568 74.0513 58.2222 74.862 57.7528C75.6727 57.2835 76.4833 56.6435 77.294 55.8328V50.4568C75.0753 50.7555 73.3047 51.1395 71.982 51.6088C70.702 52.0782 69.7847 52.6542 69.23 53.3368C68.718 53.9768 68.462 54.7022 68.462 55.5128C68.462 56.4942 68.782 57.2408 69.422 57.7528C70.1047 58.2222 70.9793 58.4568 72.046 58.4568ZM105.988 65.8168C102.063 65.8168 98.9053 64.3448 96.516 61.4008C94.1693 58.4142 92.996 54.3395 92.996 49.1768C92.996 45.7208 93.6147 42.7555 94.852 40.2808C96.132 37.8062 97.7747 35.9075 99.78 34.5848C101.828 33.2195 103.961 32.5368 106.18 32.5368C107.929 32.5368 109.401 32.8355 110.596 33.4328C111.791 34.0302 112.921 34.8408 113.988 35.8648L113.604 31.0008V20.1848H123.012V65.0488H115.332L114.692 61.9128H114.436C113.327 63.0222 112.025 63.9608 110.532 64.7288C109.039 65.4542 107.524 65.8168 105.988 65.8168ZM108.42 58.1368C109.444 58.1368 110.383 57.9235 111.236 57.4968C112.089 57.0702 112.879 56.3235 113.604 55.2568V42.2648C112.793 41.4968 111.94 40.9635 111.044 40.6648C110.148 40.3662 109.252 40.2168 108.356 40.2168C107.332 40.2168 106.393 40.5368 105.54 41.1768C104.687 41.8168 103.983 42.7982 103.428 44.1208C102.916 45.4008 102.66 47.0435 102.66 49.0488C102.66 52.1635 103.172 54.4675 104.196 55.9608C105.22 57.4115 106.628 58.1368 108.42 58.1368ZM131.348 65.0488V33.3048H140.756V65.0488H131.348ZM136.02 28.6328C134.441 28.6328 133.161 28.1848 132.18 27.2888C131.198 26.3928 130.708 25.1982 130.708 23.7048C130.708 22.2115 131.198 21.0168 132.18 20.1208C133.161 19.2248 134.441 18.7768 136.02 18.7768C137.598 18.7768 138.878 19.2248 139.86 20.1208C140.841 21.0168 141.332 22.2115 141.332 23.7048C141.332 25.1982 140.841 26.3928 139.86 27.2888C138.878 28.1848 137.598 28.6328 136.02 28.6328ZM158.379 65.8168C156.288 65.8168 154.134 65.4115 151.915 64.6008C149.696 63.7902 147.798 62.6168 146.219 61.0808L150.187 55.7688C151.638 56.9208 153.067 57.7315 154.475 58.2008C155.926 58.6275 157.312 58.8408 158.635 58.8408C160.043 58.8408 161.067 58.6062 161.707 58.1368C162.347 57.6248 162.667 56.9635 162.667 56.1528C162.667 55.4275 162.368 54.8302 161.771 54.3608C161.216 53.8915 160.47 53.4862 159.531 53.1448C158.635 52.7608 157.611 52.3555 156.459 51.9288C154.923 51.3742 153.515 50.6702 152.235 49.8168C150.955 48.9635 149.91 47.9395 149.099 46.7448C148.331 45.5502 147.947 44.1208 147.947 42.4568C147.947 39.4702 149.056 37.0808 151.275 35.2888C153.536 33.4542 156.48 32.5368 160.107 32.5368C162.411 32.5368 164.502 32.9208 166.379 33.6888C168.299 34.4142 169.942 35.3742 171.307 36.5688L167.275 41.8168C166.123 41.0062 164.971 40.4302 163.819 40.0888C162.667 39.7048 161.536 39.5128 160.427 39.5128C159.19 39.5128 158.272 39.7475 157.675 40.2168C157.078 40.6862 156.779 41.2835 156.779 42.0088C156.779 42.6062 156.992 43.1182 157.419 43.5448C157.846 43.9715 158.486 44.3768 159.339 44.7608C160.235 45.1022 161.344 45.4862 162.667 45.9128C164.288 46.4675 165.76 47.1715 167.083 48.0248C168.448 48.8355 169.515 49.8595 170.283 51.0968C171.051 52.3342 171.435 53.8275 171.435 55.5768C171.435 57.4968 170.923 59.2248 169.899 60.7608C168.918 62.2968 167.467 63.5342 165.547 64.4728C163.627 65.3688 161.238 65.8168 158.379 65.8168ZM190.991 65.0488V23.3208H201.487L208.143 41.8808C208.569 43.1182 208.953 44.3768 209.295 45.6568C209.679 46.8942 210.063 48.1955 210.447 49.5608H210.703C211.087 48.1955 211.449 46.8942 211.791 45.6568C212.132 44.3768 212.516 43.1182 212.943 41.8808L219.471 23.3208H229.967V65.0488H221.326V49.7528C221.326 48.3875 221.391 46.7875 221.519 44.9528C221.689 43.0755 221.86 41.2195 222.031 39.3848C222.244 37.5075 222.436 35.8862 222.607 34.5208H222.351L218.958 45.5288L213.071 61.4648H207.567L201.743 45.5288L198.479 34.5208H198.223C198.393 35.8862 198.564 37.5075 198.735 39.3848C198.948 41.2195 199.119 43.0755 199.247 44.9528C199.375 46.7875 199.439 48.3875 199.439 49.7528V65.0488H190.991ZM252.605 65.8168C249.917 65.8168 247.399 65.1768 245.053 63.8968C242.706 62.5742 240.786 60.6755 239.293 58.2008C237.842 55.6835 237.117 52.6755 237.117 49.1768C237.117 45.6782 237.842 42.6915 239.293 40.2168C240.786 37.6995 242.706 35.8008 245.053 34.5208C247.399 33.1982 249.917 32.5368 252.605 32.5368C255.25 32.5368 257.746 33.1982 260.093 34.5208C262.439 35.8008 264.338 37.6995 265.789 40.2168C267.282 42.6915 268.029 45.6782 268.029 49.1768C268.029 52.6755 267.282 55.6835 265.789 58.2008C264.338 60.6755 262.439 62.5742 260.093 63.8968C257.746 65.1768 255.25 65.8168 252.605 65.8168ZM252.605 58.2008C253.885 58.2008 254.951 57.8382 255.805 57.1128C256.701 56.3875 257.362 55.3422 257.789 53.9768C258.215 52.6115 258.429 51.0115 258.429 49.1768C258.429 47.3422 258.215 45.7422 257.789 44.3768C257.362 43.0115 256.701 41.9662 255.805 41.2408C254.951 40.5155 253.885 40.1528 252.605 40.1528C251.282 40.1528 250.194 40.5155 249.341 41.2408C248.487 41.9662 247.847 43.0115 247.421 44.3768C246.994 45.7422 246.781 47.3422 246.781 49.1768C246.781 51.0115 246.994 52.6115 247.421 53.9768C247.847 55.3422 248.487 56.3875 249.341 57.1128C250.194 57.8382 251.282 58.2008 252.605 58.2008ZM291.113 65.8168C289.705 65.8168 288.297 65.4755 286.889 64.7928C285.481 64.0675 284.137 63.0222 282.857 61.6568H282.601L281.833 65.0488H274.473V20.1848H283.881V31.1928L283.625 36.0568C284.819 34.9475 286.142 34.0942 287.593 33.4968C289.043 32.8568 290.515 32.5368 292.009 32.5368C294.569 32.5368 296.787 33.1982 298.665 34.5208C300.542 35.8435 301.971 37.7208 302.953 40.1528C303.977 42.5422 304.489 45.3582 304.489 48.6008C304.489 52.2275 303.849 55.3422 302.569 57.9448C301.289 60.5048 299.625 62.4675 297.577 63.8328C295.571 65.1555 293.417 65.8168 291.113 65.8168ZM288.937 58.1368C290.003 58.1368 290.985 57.8168 291.881 57.1768C292.819 56.5368 293.545 55.5342 294.057 54.1688C294.569 52.7608 294.825 50.9688 294.825 48.7928C294.825 46.8728 294.611 45.2942 294.185 44.0568C293.801 42.7768 293.203 41.8168 292.393 41.1768C291.582 40.5368 290.558 40.2168 289.321 40.2168C288.382 40.2168 287.465 40.4515 286.569 40.9208C285.715 41.3475 284.819 42.0728 283.881 43.0968V56.0888C284.691 56.8142 285.545 57.3475 286.441 57.6888C287.337 57.9875 288.169 58.1368 288.937 58.1368ZM311.16 65.0488V33.3048H320.568V65.0488H311.16ZM315.832 28.6328C314.253 28.6328 312.973 28.1848 311.992 27.2888C311.011 26.3928 310.52 25.1982 310.52 23.7048C310.52 22.2115 311.011 21.0168 311.992 20.1208C312.973 19.2248 314.253 18.7768 315.832 18.7768C317.411 18.7768 318.691 19.2248 319.672 20.1208C320.653 21.0168 321.144 22.2115 321.144 23.7048C321.144 25.1982 320.653 26.3928 319.672 27.2888C318.691 28.1848 317.411 28.6328 315.832 28.6328ZM337.488 65.7528C335.354 65.7528 333.648 65.3262 332.368 64.4728C331.13 63.5768 330.234 62.3395 329.68 60.7608C329.125 59.1395 328.848 57.2622 328.848 55.1288V20.2488H338.256V55.5128C338.256 56.5368 338.426 57.2408 338.768 57.6248C339.152 57.9662 339.557 58.1368 339.984 58.1368C340.154 58.1368 340.304 58.1368 340.432 58.1368C340.602 58.0942 340.816 58.0515 341.072 58.0088L342.224 64.9848C341.712 65.1982 341.05 65.3688 340.24 65.4968C339.472 65.6675 338.554 65.7528 337.488 65.7528ZM361.368 65.8168C358.339 65.8168 355.608 65.1555 353.176 63.8328C350.744 62.5102 348.824 60.6115 347.416 58.1368C346.008 55.6622 345.304 52.6755 345.304 49.1768C345.304 45.7208 346.008 42.7555 347.416 40.2808C348.867 37.8062 350.744 35.9075 353.048 34.5848C355.352 33.2195 357.763 32.5368 360.28 32.5368C363.309 32.5368 365.827 33.2195 367.832 34.5848C369.837 35.9075 371.331 37.7208 372.312 40.0248C373.293 42.3288 373.784 44.9102 373.784 47.7688C373.784 48.5795 373.741 49.3902 373.656 50.2008C373.571 50.9688 373.485 51.5875 373.4 52.0568H352.6L352.472 45.5288H365.72C365.72 43.8648 365.315 42.4995 364.504 41.4328C363.693 40.3235 362.349 39.7688 360.472 39.7688C359.448 39.7688 358.445 40.0462 357.464 40.6008C356.483 41.1555 355.672 42.1155 355.032 43.4808C354.392 44.8462 354.093 46.7448 354.136 49.1768C354.179 51.5662 354.605 53.4435 355.416 54.8088C356.269 56.1742 357.336 57.1555 358.616 57.7528C359.896 58.3075 361.24 58.5848 362.648 58.5848C363.885 58.5848 365.059 58.4142 366.168 58.0728C367.32 57.6888 368.451 57.1768 369.56 56.5368L372.632 62.2968C371.053 63.4062 369.261 64.2808 367.256 64.9208C365.251 65.5182 363.288 65.8168 361.368 65.8168Z" fill="#0EA5E9"/>
<path d="M72.8288 263.782C69.0314 263.782 65.5754 262.992 62.4608 261.414C59.3888 259.792 56.9354 257.403 55.1008 254.246C53.3088 251.046 52.4128 247.099 52.4128 242.406C52.4128 238.95 52.9461 235.878 54.0128 233.19C55.0794 230.459 56.5514 228.155 58.4288 226.278C60.3061 224.4 62.4608 222.971 64.8928 221.99C67.3674 221.008 69.9914 220.518 72.7648 220.518C75.7941 220.518 78.3968 221.051 80.5728 222.118C82.7488 223.184 84.5194 224.464 85.8848 225.958L80.9568 231.654C79.9328 230.715 78.8021 229.99 77.5648 229.478C76.3701 228.923 74.8768 228.646 73.0848 228.646C70.9514 228.646 69.0528 229.2 67.3888 230.31C65.7248 231.376 64.4234 232.912 63.4848 234.918C62.5461 236.923 62.0768 239.312 62.0768 242.086C62.0768 244.944 62.5034 247.398 63.3568 249.446C64.2528 251.451 65.5541 252.987 67.2608 254.054C69.0101 255.12 71.1861 255.654 73.7888 255.654C74.6421 255.654 75.4741 255.547 76.2848 255.334C77.0954 255.12 77.7568 254.8 78.2688 254.374V247.206H71.3568V239.526H86.5888V258.726C85.1808 260.134 83.2608 261.328 80.8288 262.31C78.4394 263.291 75.7728 263.782 72.8288 263.782ZM94.4413 263.014V231.27H102.121L102.761 236.838H103.017C104.169 234.704 105.535 233.126 107.113 232.102C108.735 231.035 110.377 230.502 112.041 230.502C112.937 230.502 113.684 230.566 114.281 230.694C114.879 230.779 115.391 230.928 115.817 231.142L114.025 239.142C113.513 239.014 113.023 238.928 112.553 238.886C112.084 238.8 111.508 238.758 110.825 238.758C109.631 238.758 108.372 239.184 107.049 240.038C105.769 240.891 104.703 242.406 103.849 244.582V263.014H94.4413ZM132.948 263.782C130.26 263.782 127.743 263.142 125.396 261.862C123.05 260.539 121.13 258.64 119.636 256.166C118.186 253.648 117.46 250.64 117.46 247.142C117.46 243.643 118.186 240.656 119.636 238.182C121.13 235.664 123.05 233.766 125.396 232.486C127.743 231.163 130.26 230.502 132.948 230.502C135.594 230.502 138.09 231.163 140.436 232.486C142.783 233.766 144.682 235.664 146.132 238.182C147.626 240.656 148.372 243.643 148.372 247.142C148.372 250.64 147.626 253.648 146.132 256.166C144.682 258.64 142.783 260.539 140.436 261.862C138.09 263.142 135.594 263.782 132.948 263.782ZM132.948 256.166C134.228 256.166 135.295 255.803 136.148 255.078C137.044 254.352 137.706 253.307 138.132 251.942C138.559 250.576 138.772 248.976 138.772 247.142C138.772 245.307 138.559 243.707 138.132 242.342C137.706 240.976 137.044 239.931 136.148 239.206C135.295 238.48 134.228 238.118 132.948 238.118C131.626 238.118 130.538 238.48 129.684 239.206C128.831 239.931 128.191 240.976 127.764 242.342C127.338 243.707 127.124 245.307 127.124 247.142C127.124 248.976 127.338 250.576 127.764 251.942C128.191 253.307 128.831 254.352 129.684 255.078C130.538 255.803 131.626 256.166 132.948 256.166ZM168.448 263.782C165.76 263.782 163.243 263.142 160.896 261.862C158.55 260.539 156.63 258.64 155.136 256.166C153.686 253.648 152.96 250.64 152.96 247.142C152.96 243.643 153.686 240.656 155.136 238.182C156.63 235.664 158.55 233.766 160.896 232.486C163.243 231.163 165.76 230.502 168.448 230.502C171.094 230.502 173.59 231.163 175.936 232.486C178.283 233.766 180.182 235.664 181.632 238.182C183.126 240.656 183.872 243.643 183.872 247.142C183.872 250.64 183.126 253.648 181.632 256.166C180.182 258.64 178.283 260.539 175.936 261.862C173.59 263.142 171.094 263.782 168.448 263.782ZM168.448 256.166C169.728 256.166 170.795 255.803 171.648 255.078C172.544 254.352 173.206 253.307 173.632 251.942C174.059 250.576 174.272 248.976 174.272 247.142C174.272 245.307 174.059 243.707 173.632 242.342C173.206 240.976 172.544 239.931 171.648 239.206C170.795 238.48 169.728 238.118 168.448 238.118C167.126 238.118 166.038 238.48 165.184 239.206C164.331 239.931 163.691 240.976 163.264 242.342C162.838 243.707 162.624 245.307 162.624 247.142C162.624 248.976 162.838 250.576 163.264 251.942C163.691 253.307 164.331 254.352 165.184 255.078C166.038 255.803 167.126 256.166 168.448 256.166ZM190.316 263.014V231.27H197.996L198.636 235.366H198.892C200.172 234.043 201.559 232.912 203.052 231.974C204.588 230.992 206.402 230.502 208.492 230.502C210.754 230.502 212.588 230.971 213.996 231.91C215.404 232.806 216.492 234.107 217.26 235.814C218.668 234.363 220.162 233.126 221.74 232.102C223.319 231.035 225.154 230.502 227.244 230.502C230.7 230.502 233.218 231.654 234.796 233.958C236.375 236.219 237.164 239.334 237.164 243.302V263.014H227.756V244.518C227.756 242.214 227.436 240.635 226.796 239.782C226.199 238.928 225.218 238.502 223.852 238.502C223.042 238.502 222.188 238.758 221.292 239.27C220.396 239.739 219.436 240.507 218.412 241.574V263.014H209.004V244.518C209.004 242.214 208.684 240.635 208.044 239.782C207.447 238.928 206.466 238.502 205.1 238.502C203.479 238.502 201.687 239.526 199.724 241.574V263.014H190.316ZM245.191 263.014V231.27H254.599V263.014H245.191ZM249.863 226.598C248.285 226.598 247.005 226.15 246.023 225.254C245.042 224.358 244.551 223.163 244.551 221.67C244.551 220.176 245.042 218.982 246.023 218.086C247.005 217.19 248.285 216.742 249.863 216.742C251.442 216.742 252.722 217.19 253.703 218.086C254.685 218.982 255.175 220.176 255.175 221.67C255.175 223.163 254.685 224.358 253.703 225.254C252.722 226.15 251.442 226.598 249.863 226.598ZM262.879 263.014V231.27H270.559L271.199 235.302H271.455C272.777 233.979 274.271 232.848 275.935 231.91C277.599 230.971 279.497 230.502 281.631 230.502C285.129 230.502 287.647 231.654 289.183 233.958C290.719 236.219 291.487 239.334 291.487 243.302V263.014H282.079V244.518C282.079 242.214 281.759 240.635 281.119 239.782C280.521 238.928 279.54 238.502 278.175 238.502C276.98 238.502 275.956 238.779 275.103 239.334C274.249 239.846 273.311 240.592 272.287 241.574V263.014H262.879ZM310.832 276.518C308.357 276.518 306.096 276.219 304.048 275.622C302.042 275.067 300.442 274.192 299.248 272.998C298.096 271.846 297.52 270.331 297.52 268.454C297.52 267.131 297.904 265.936 298.672 264.87C299.482 263.803 300.613 262.864 302.064 262.054V261.798C301.253 261.243 300.549 260.539 299.952 259.686C299.397 258.79 299.12 257.702 299.12 256.422C299.12 255.27 299.461 254.182 300.144 253.158C300.826 252.091 301.68 251.195 302.704 250.47V250.214C301.552 249.446 300.549 248.336 299.696 246.886C298.842 245.435 298.416 243.792 298.416 241.958C298.416 239.44 299.034 237.328 300.272 235.622C301.509 233.915 303.13 232.635 305.136 231.782C307.141 230.928 309.274 230.502 311.536 230.502C312.432 230.502 313.285 230.566 314.096 230.694C314.949 230.822 315.738 231.014 316.464 231.27H328.048V238.118H322.736V238.374C323.162 238.928 323.482 239.547 323.696 240.23C323.909 240.87 324.016 241.595 324.016 242.406C324.016 244.795 323.461 246.779 322.352 248.358C321.242 249.894 319.728 251.046 317.808 251.814C315.93 252.582 313.84 252.966 311.536 252.966C310.981 252.966 310.384 252.923 309.744 252.838C309.104 252.71 308.421 252.539 307.696 252.326C307.312 252.667 307.013 253.008 306.8 253.35C306.629 253.691 306.544 254.139 306.544 254.694C306.544 255.462 306.906 256.059 307.632 256.486C308.357 256.87 309.594 257.062 311.344 257.062H316.464C320.389 257.062 323.376 257.702 325.424 258.982C327.514 260.219 328.56 262.267 328.56 265.126C328.56 267.302 327.834 269.243 326.384 270.95C324.933 272.699 322.885 274.064 320.24 275.046C317.594 276.027 314.458 276.518 310.832 276.518ZM311.536 247.27C312.389 247.27 313.136 247.078 313.776 246.694C314.416 246.267 314.928 245.67 315.312 244.902C315.696 244.134 315.888 243.152 315.888 241.958C315.888 240.251 315.461 238.971 314.608 238.118C313.797 237.264 312.773 236.838 311.536 236.838C310.298 236.838 309.253 237.264 308.4 238.118C307.589 238.971 307.184 240.251 307.184 241.958C307.184 243.152 307.376 244.134 307.76 244.902C308.186 245.67 308.72 246.267 309.36 246.694C310 247.078 310.725 247.27 311.536 247.27ZM312.304 270.63C313.712 270.63 314.949 270.459 316.016 270.118C317.125 269.776 318 269.307 318.64 268.71C319.28 268.112 319.6 267.451 319.6 266.726C319.6 265.702 319.173 265.019 318.32 264.678C317.466 264.379 316.272 264.23 314.736 264.23H311.472C310.362 264.23 309.466 264.187 308.784 264.102C308.144 264.059 307.546 263.974 306.992 263.846C306.394 264.358 305.946 264.848 305.648 265.318C305.392 265.83 305.264 266.384 305.264 266.982C305.264 268.176 305.904 269.072 307.184 269.67C308.506 270.31 310.213 270.63 312.304 270.63Z" fill="#0EA5E9"/>
<g clip-path="url(#clip1_480_977)">
<path d="M249.102 92.1721L248.573 92.0467C238.913 89.7064 228.279 91.6658 219.473 96.0133L218.841 96.3412C216.902 97.3159 215.494 97.2509 213.452 96.5984C204.788 93.8127 193.839 93.0776 184.959 95.3411L184.306 95.5133C175.845 97.6283 168.226 101.277 161.525 106.894L161.106 107.247C160.106 108.076 159.18 108.866 158.345 109.865C157.883 110.43 157.408 110.97 156.903 111.497C150.41 118.276 146.124 126.951 144.42 136.178L144.306 136.847C143.854 139.507 143.698 142.089 143.7 144.782C143.704 145.472 143.706 146.163 143.704 146.854C143.682 151.169 144.023 155.278 145.203 159.448L145.373 160.047C146.952 165.77 149.238 171.334 152.778 176.14L153.106 176.58C153.779 177.492 154.458 178.397 155.162 179.285L155.773 180.047C162.548 188.504 172.942 194.106 183.326 196.673L184.04 196.847C187.938 197.832 191.753 198.003 195.755 198.013L196.556 198.013C201.056 198.023 205.393 197.838 209.782 196.765L210.69 196.53C217.241 194.848 223.413 192.098 228.914 188.117L229.373 187.78C231.438 186.263 233.38 184.683 235.162 182.834L235.773 182.18C237.472 180.384 239.037 178.499 240.502 176.509L240.84 176.047C244.846 170.6 247.901 163.907 249.158 157.248C249.229 156.847 249.301 156.447 249.373 156.047C250.887 148.755 250.904 140.478 249.023 133.262L248.84 132.58C247.047 125.553 243.592 119.026 239.086 113.375L238.44 112.58C239.063 112.404 239.685 112.228 240.306 112.047C241.628 111.631 242.941 111.218 244.306 110.98C250.104 110.45 255.264 112.361 259.749 115.923C260.672 116.659 261.591 117.385 262.565 118.054C264.96 119.447 267.486 119.919 270.173 119.247C271.821 118.482 272.961 117.464 273.69 115.791C274.271 113.614 274.324 110.935 273.226 108.918L272.84 108.313C271.583 106.297 270.243 104.5 268.515 102.854L267.773 102.18C262.328 97.1981 256.308 93.9022 249.102 92.1721Z" fill="#0EA5E9"/>
<path d="M319.589 94.2807C319.902 94.2814 320.215 94.2821 320.538 94.2828C325.858 94.3052 330.88 94.7322 336.039 96.0473C336.337 96.1229 336.635 96.1984 336.943 96.2762C340.174 97.1235 343.217 98.2206 346.172 99.7807C346.377 99.8865 346.582 99.9924 346.794 100.101C349.728 101.623 352.446 103.283 355.06 105.306C355.771 105.851 356.496 106.373 357.222 106.897C357.458 107.069 357.695 107.24 357.938 107.417C358.103 107.537 358.269 107.657 358.439 107.781C358.004 108.808 357.315 109.583 356.589 110.414C355.51 111.667 354.468 112.94 353.456 114.247C352.487 115.494 351.487 116.692 350.426 117.863C348.442 120.089 346.645 122.476 344.839 124.847C343.84 124.411 343.069 123.778 342.222 123.097C338.73 120.361 334.689 118.019 330.42 116.742C329.906 116.581 329.906 116.581 329.295 116.32C328.42 115.99 327.557 115.811 326.639 115.631C326.308 115.564 325.976 115.498 325.635 115.43C323.259 115.004 320.917 114.924 318.506 114.914C318.189 114.908 317.873 114.903 317.547 114.897C315.337 114.888 313.366 115.19 311.239 115.781C311.045 115.832 310.852 115.884 310.653 115.937C303.51 117.929 297.676 123.105 294.033 129.467C293.068 131.209 292.139 132.932 291.674 134.882C291.522 135.453 291.331 135.974 291.115 136.524C288.991 142.12 289.484 148.97 290.706 154.714C290.766 155.017 290.827 155.32 290.89 155.632C291.307 157.496 291.996 159.139 292.839 160.847C292.973 161.142 293.108 161.436 293.246 161.739C294.36 164.107 295.706 166.043 297.372 168.047C297.545 168.264 297.717 168.48 297.895 168.704C301.792 173.39 307.726 176.295 313.639 177.381C314.054 177.463 314.054 177.463 314.478 177.546C322.594 178.944 332.438 177.525 339.337 172.782C340.039 172.314 340.039 172.314 340.572 172.314C340.572 167.474 340.572 162.634 340.572 157.647C333.268 157.647 325.964 157.647 318.439 157.647C318.439 151.311 318.439 144.975 318.439 138.447C332.871 138.447 347.303 138.447 362.172 138.447C362.271 145.586 362.37 152.725 362.472 160.081C362.538 163.454 362.538 163.454 362.605 166.896C362.626 169.656 362.626 169.656 362.63 170.95C362.635 171.849 362.653 172.747 362.679 173.645C362.902 181.61 362.902 181.61 361.147 183.575C360.177 184.426 359.148 185.054 357.987 185.611C357.184 186.007 356.46 186.491 355.72 186.992C354.871 187.559 353.988 188.068 353.106 188.581C352.917 188.691 352.729 188.8 352.535 188.914C346.274 192.543 339.877 195.154 332.839 196.847C332.601 196.907 332.362 196.967 332.117 197.029C328.09 197.945 323.841 198.008 319.731 197.998C318.99 197.997 318.249 198.004 317.508 198.01C313.192 198.026 308.92 197.567 304.722 196.531C304.495 196.475 304.268 196.419 304.034 196.361C292.864 193.496 283.207 187.13 276.306 177.914C276.135 177.689 275.965 177.464 275.79 177.233C268.045 166.609 264.918 151.932 266.756 138.997C269.016 124.677 276.212 112.417 287.926 103.818C290.082 102.275 292.341 100.975 294.706 99.7807C294.868 99.6982 295.031 99.6158 295.199 99.5309C296.971 98.6479 298.765 97.9427 300.651 97.3452C301.264 97.1488 301.858 96.9331 302.456 96.6973C307.931 94.6099 313.794 94.2445 319.589 94.2807Z" fill="#0EA5E9"/>
<path d="M36.0395 96.0467C41.7078 96.0153 47.376 95.9919 53.0443 95.9776C55.6771 95.9708 58.3099 95.9615 60.9427 95.9461C63.2415 95.9327 65.5403 95.9242 67.8392 95.9212C69.0528 95.9195 70.2662 95.9156 71.4796 95.9057C77.3358 95.8599 82.8258 96.1644 88.5729 97.38C88.8316 97.4334 89.0904 97.4868 89.357 97.5419C101.658 100.103 113.464 107.638 120.422 118.177C127.745 129.517 130.345 143.419 127.594 156.699C127.479 157.193 127.361 157.687 127.24 158.18C127.172 158.453 127.105 158.726 127.036 159.008C126.183 162.361 125.139 165.526 123.506 168.58C123.406 168.772 123.306 168.963 123.203 169.161C121.814 171.811 120.338 174.259 118.44 176.58C118.329 176.717 118.219 176.854 118.106 176.995C109.004 188.27 95.7559 194.532 81.4588 196.15C77.6815 196.511 73.8703 196.413 70.0801 196.394C68.879 196.389 67.6779 196.389 66.4767 196.388C64.2131 196.386 61.9496 196.379 59.686 196.371C56.6195 196.36 53.553 196.356 50.4865 196.351C45.6708 196.344 40.8552 196.328 36.0395 196.313C36.0395 185.401 36.0395 174.489 36.0395 163.247C33.9275 163.247 31.8155 163.247 29.6395 163.247C28.1563 163.032 26.8094 162.809 25.3729 162.447C24.8985 162.335 24.8985 162.335 24.4145 162.222C19.7787 161.032 16.098 158.717 13.1062 154.98C12.9904 154.754 12.8745 154.528 12.7552 154.295C12.1464 153.416 11.3631 153.087 10.4229 152.647C6.32979 150.585 3.65483 147.305 2.17288 142.98C1.25347 139.966 0.876696 137.036 0.683952 133.899C0.639807 133.184 0.589649 132.47 0.538509 131.755C0.375239 129.381 0.2673 127.006 0.235384 124.626C0.229932 124.411 0.224481 124.197 0.218864 123.976C0.212115 122.296 0.503975 120.817 1.56663 119.458C3.84284 117.533 6.26408 117.067 9.21058 117.1C9.49647 117.103 9.49647 117.103 9.78813 117.105C10.1998 117.109 10.6114 117.113 11.023 117.118C11.677 117.125 12.3309 117.13 12.9849 117.134C14.8438 117.145 16.7025 117.158 18.5612 117.179C19.7008 117.192 20.8403 117.2 21.9799 117.204C22.4114 117.207 22.8429 117.211 23.2744 117.218C26.6086 117.268 29.3174 116.923 31.9562 114.73C32.2267 114.508 32.4973 114.285 32.776 114.056C32.9126 113.941 33.0493 113.825 33.19 113.706C33.6395 113.38 33.6395 113.38 34.1812 113.15C34.8467 112.852 35.2739 112.583 35.7729 112.047C36.0957 110.842 36.0583 109.657 36.0395 108.416C36.0416 108.06 36.0445 107.703 36.0483 107.346C36.0559 106.41 36.0508 105.474 36.043 104.538C36.0373 103.582 36.0436 102.625 36.0489 101.669C36.0576 99.7949 36.0528 97.9209 36.0395 96.0467ZM33.7767 117.515C29.6063 121.02 25.0096 120.859 19.7729 120.58C19.3932 120.539 19.0139 120.495 18.6354 120.445C16.8933 120.227 15.133 120.254 13.38 120.249C12.7603 120.247 12.1409 120.238 11.5213 120.23C7.53487 120.109 7.53487 120.109 4.12288 121.797C2.77684 124.296 3.5567 127.86 3.83219 130.603C3.97239 132.019 4.0717 133.425 4.11787 134.846C4.27012 139.297 5.22918 143.902 8.38955 147.247C9.92755 148.654 11.5971 149.665 13.5562 150.363C14.9169 150.932 15.4099 151.946 16.1312 153.182C18.2884 156.754 22.3281 158.256 26.1729 159.247C29.1381 159.977 32.1415 160.102 35.1833 160.161C37.7756 160.249 39.9263 160.922 42.1562 162.23C42.3397 162.336 42.5233 162.442 42.7123 162.551C46.6728 164.874 50.0751 167.909 53.3229 171.13C53.5044 171.309 53.686 171.488 53.873 171.673C54.0507 171.851 54.2284 172.03 54.4114 172.214C54.5831 172.387 54.7548 172.559 54.9317 172.736C55.5062 173.38 55.5062 173.38 55.9718 174.125C56.7972 175.387 57.4174 176.186 58.9123 176.575C60.1538 176.699 61.3914 176.658 62.6364 176.619C63.0976 176.614 63.5589 176.612 64.0201 176.61C65.2306 176.602 66.4401 176.576 67.6502 176.546C68.6315 176.525 69.6127 176.517 70.5942 176.509C71.775 176.5 72.9557 176.485 74.1364 176.469C74.4681 176.464 74.4681 176.464 74.8064 176.459C82.7675 176.333 90.2882 174.25 96.3062 168.847C96.4915 168.683 96.6768 168.52 96.8677 168.352C102.342 163.227 105.153 155.42 105.467 148.056C105.72 138.544 102.939 130.651 96.4093 123.632C95.5302 122.731 94.6034 121.921 93.6395 121.113C93.3776 120.881 93.1157 120.649 92.8458 120.41C89.4122 117.376 85.7754 114.697 81.7343 112.528C81.2038 112.243 80.6784 111.947 80.1666 111.629C75.5319 108.946 69.3384 107.776 64.0395 107.513C63.7933 107.5 63.5471 107.487 63.2935 107.474C52.8285 106.997 41.82 110.725 33.7767 117.515Z" fill="#0EA5E9"/>
<path d="M239.889 94.6141L240.47 94.6123C248.033 94.615 255.173 96.7602 261.372 101.114L262.069 101.599C265.334 104.051 269.378 107.53 270.706 111.514C270.814 112.743 270.851 113.833 270.372 114.981C269.678 115.775 269.136 116.024 268.08 116.107C264.951 115.951 263.222 114.606 260.922 112.597C255.998 108.407 250.04 107.502 243.772 107.781C238.805 108.195 233.777 111.051 230.403 114.65C226.378 119.492 224.297 125.109 224.736 131.427C225.061 134.223 225.81 136.965 226.487 139.692C227.029 141.894 227.336 143.924 227.322 146.197L227.319 147.007C227.283 149.379 226.977 151.609 226.439 153.914L226.214 154.941C224.998 160.004 222.375 164.883 218.706 168.581L218.056 169.264L217.372 169.914L216.831 170.452C210.94 176.075 202.826 177.898 194.922 177.741C192.622 177.653 190.499 177.262 188.306 176.581L187.326 176.288C183.807 175.134 180.691 173.419 177.906 170.981L177.354 170.535C175.807 169.262 174.59 167.765 173.372 166.181L172.881 165.55C171.542 163.743 170.563 161.776 169.609 159.748C169.408 159.322 169.199 158.899 168.988 158.478C165.558 151.113 165.77 141.901 168.506 134.364C171.353 127.067 176.563 120.683 183.746 117.36C187.696 115.627 191.887 114.75 196.095 113.895C200.187 113.049 204.502 111.703 207.272 108.397C208.446 107.028 209.815 105.946 211.239 104.847L211.939 104.306C213.924 102.817 216.015 101.534 218.172 100.314L218.652 100.039C225.154 96.3636 232.477 94.6295 239.889 94.6141Z" fill="white"/>
<path d="M72.8397 112.313C73.5152 112.961 73.9096 113.553 74.3231 114.397C74.4334 114.619 74.5437 114.84 74.6574 115.069C76.7475 119.78 75.5761 125.124 73.8262 129.751C72.8217 132.26 71.6943 134.708 70.5324 137.148C69.9431 138.403 69.3885 139.673 68.8397 140.947C68.7433 141.167 68.6469 141.387 68.5475 141.614C67.4943 144.066 66.8207 146.293 66.8397 148.98C66.8409 149.225 66.842 149.47 66.8432 149.722C66.8989 151.936 67.3785 153.439 68.8897 155.08C71.6823 156.694 74.2139 156.989 77.3731 156.263C77.9088 156.111 78.4422 155.949 78.9731 155.78C79.2439 155.696 79.5148 155.611 79.7939 155.524C84.0507 154.046 87.4334 151.328 90.7064 148.313C90.8665 148.167 91.0266 148.02 91.1915 147.868C91.7975 147.312 92.4032 146.755 93.0035 146.192C93.9006 145.352 94.8232 144.559 95.7731 143.78C95.3294 144.784 94.6918 145.619 94.0231 146.48C93.8466 146.709 93.8466 146.709 93.6666 146.942C92.7265 148.145 91.7297 149.287 90.6939 150.409C90.272 150.872 89.8772 151.339 89.4897 151.83C86.2143 155.609 81.1045 159.181 75.9964 159.556C72.3296 159.733 69.5535 159.495 66.6064 157.097C64.7902 155.351 63.6648 153.121 63.4522 150.606C63.4004 147.806 64.0227 145.214 65.0074 142.609C65.0765 142.426 65.1456 142.243 65.2168 142.054C65.9624 140.113 66.8313 138.234 67.7138 136.353C73.1299 124.828 73.1299 124.828 72.8397 112.313Z" fill="#0EA5E9"/>
<path d="M44.035 119.462C46.5783 120.891 48.0201 123.446 48.8392 126.181C48.7512 126.357 48.6632 126.533 48.5725 126.714C48.4532 126.553 48.334 126.392 48.2111 126.227C47.349 125.087 46.5576 124.073 45.3725 123.248C45.3065 123.413 45.2405 123.578 45.1725 123.748C44.7666 124.438 44.5278 124.596 43.7725 124.848C42.6947 125.008 42.3113 124.949 41.4225 124.298C40.7343 123.373 40.5937 122.792 40.5725 121.648C40.7485 121.384 40.9245 121.12 41.1059 120.848C40.5779 120.848 40.0499 120.848 39.5059 120.848C40.8049 119.456 42.0933 118.675 44.035 119.462Z" fill="#0EA5E9"/>
<path d="M95.5057 143.78C95.5057 144.911 94.8714 145.489 94.189 146.33C94.0564 146.496 93.9239 146.662 93.7873 146.833C92.2402 148.752 90.6113 150.598 88.839 152.314C88.839 152.138 88.839 151.962 88.839 151.78C88.663 151.78 88.487 151.78 88.3057 151.78C88.4341 150.635 89.1642 149.963 89.9223 149.164C90.0548 149.022 90.1872 148.88 90.3236 148.733C91.2164 147.787 92.1463 146.91 93.1432 146.074C93.9764 145.356 94.7393 144.568 95.5057 143.78Z" fill="#0EA5E9"/>
<path d="M46.973 122.181C47.2362 122.685 47.4968 123.191 47.7564 123.697C47.9018 123.979 48.0472 124.26 48.197 124.55C48.5323 125.291 48.7226 125.915 48.8397 126.714C47.5689 125.494 46.351 124.181 45.373 122.714C46.173 122.181 46.173 122.181 46.973 122.181Z" fill="#0EA5E9"/>
<path d="M95.5062 143.78C95.5062 144.681 95.4065 144.804 94.8646 145.475C94.7322 145.641 94.5999 145.807 94.4635 145.978C94.3236 146.149 94.1837 146.32 94.0396 146.497C93.8297 146.759 93.8297 146.759 93.6156 147.026C93.2698 147.456 92.9216 147.885 92.5729 148.314C92.3089 148.226 92.0449 148.138 91.7729 148.047C91.3329 148.487 90.8929 148.927 90.4396 149.38C90.2636 149.292 90.0876 149.204 89.9062 149.114C90.038 148.99 90.1697 148.866 90.3055 148.739C90.9059 148.175 91.5061 147.611 92.1062 147.047C92.3135 146.852 92.5208 146.658 92.7344 146.457C93.036 146.174 93.036 146.174 93.3437 145.884C93.6203 145.625 93.6203 145.625 93.9023 145.36C94.4455 144.841 94.9774 144.313 95.5062 143.78Z" fill="#0EA5E9"/>
<path d="M72.8389 112.313C73.5209 112.976 74.0259 113.58 74.4389 114.447C74.3573 114.893 74.2664 115.337 74.1722 115.78C74.1012 116.562 74.0623 117.346 74.0222 118.13C74.0107 118.34 73.9992 118.551 73.9873 118.767C73.9592 119.283 73.9322 119.798 73.9055 120.313C73.8175 120.313 73.7295 120.313 73.6389 120.313C73.6336 120.166 73.6283 120.018 73.6229 119.866C73.4945 116.058 73.4945 116.058 72.8389 112.313Z" fill="#0EA5E9"/>
<path d="M218.706 168.313C218.97 168.313 219.234 168.313 219.506 168.313C219.506 168.489 219.506 168.665 219.506 168.847C218.981 169.307 218.981 169.307 218.306 169.813C218.083 169.982 217.86 170.15 217.631 170.324C217.457 170.452 217.284 170.581 217.106 170.713C216.93 170.625 216.754 170.537 216.572 170.447C216.972 170.126 217.371 169.804 217.77 169.483C218.24 169.081 218.24 169.081 218.706 168.313Z" fill="#0EA5E9"/>
<path d="M91.7727 147.78C91.9487 147.868 92.1247 147.956 92.306 148.047C91.8393 149.347 91.8393 149.347 91.2393 149.647C91.056 149.164 91.056 149.164 90.9727 148.58C91.356 148.114 91.356 148.114 91.7727 147.78Z" fill="#0EA5E9"/>
<path d="M68.8391 133.914C68.9271 134.09 69.0151 134.266 69.1057 134.447C69.2817 134.535 69.4577 134.623 69.6391 134.714C69.2976 135.169 68.941 135.614 68.5724 136.047C68.3964 136.047 68.2204 136.047 68.0391 136.047C68.5391 134.514 68.5391 134.514 68.8391 133.914Z" fill="#0EA5E9"/>
</g>
</g>
<defs>
<clipPath id="clip0_480_977">
<rect width="379" height="288.965" fill="white" transform="translate(0 0.0488281)"/>
</clipPath>
<clipPath id="clip1_480_977">
<rect width="362.562" height="106.965" fill="white" transform="translate(0.21875 91.0488)"/>
</clipPath>
</defs>
</svg>
