<svg width="512" height="512" viewBox="0 0 512 512" fill="none" xmlns="http://www.w3.org/2000/svg">
<g clip-path="url(#clip0_468_856)">
<path d="M423.172 5.32032C431.611 11.126 436.684 19.0444 439 29C440.215 39.1802 438.051 47.2362 433.312 56.1875C426.791 64.1193 419.466 68.7067 410.125 72.75C409.004 73.2517 407.883 73.7534 406.728 74.2703C403.159 75.8632 399.58 77.4328 396 79C392.405 80.5889 388.811 82.1817 385.218 83.7764C382.985 84.7654 380.75 85.7495 378.512 86.7275C376.461 87.629 374.416 88.5447 372.379 89.4766C370.241 90.4404 368.086 91.3677 365.911 92.2431C354.472 97.2518 346.726 105.376 338.102 114.215C336.531 115.798 334.959 117.38 333.386 118.96C329.284 123.089 325.202 127.239 321.126 131.394C316.948 135.643 312.751 139.872 308.555 144.104C300.35 152.383 292.168 160.684 284 169C285.423 173.421 287.132 177.333 289.312 181.438C297.788 197.946 302.135 216.371 302.161 234.907C302.166 235.758 302.171 236.61 302.176 237.487C302.191 240.277 302.198 243.066 302.203 245.855C302.206 246.813 302.209 247.77 302.212 248.756C302.227 253.813 302.236 258.87 302.24 263.927C302.246 269.145 302.27 274.364 302.298 279.583C302.317 283.603 302.322 287.624 302.324 291.645C302.327 293.57 302.335 295.494 302.348 297.419C302.365 300.106 302.363 302.793 302.356 305.481C302.366 306.274 302.375 307.066 302.384 307.882C302.35 312.436 301.822 315.377 299 319C295.353 321.526 292.358 321.132 288.125 320.547C285.142 319.779 283.758 318.491 282 316C280.758 312.274 280.847 308.808 280.842 304.927C280.837 304.104 280.832 303.28 280.827 302.432C280.816 300.641 280.808 298.851 280.801 297.06C280.789 294.211 280.769 291.363 280.748 288.514C280.686 280.414 280.632 272.313 280.599 264.213C280.577 259.255 280.542 254.298 280.498 249.341C280.484 247.465 280.475 245.588 280.472 243.712C280.443 228.443 279.155 214.173 273.5 199.813C273.205 199.02 272.91 198.228 272.605 197.412C271.061 193.354 269.397 189.647 267 186C258.576 192.638 258.576 192.638 252 201C251.821 206.058 253.278 209.526 255.307 214.082C258.265 222.273 257.149 232.274 257.145 240.838C257.148 242.311 257.152 243.784 257.155 245.257C257.164 249.23 257.167 253.203 257.167 257.176C257.168 259.664 257.17 262.151 257.173 264.639C257.182 273.332 257.186 282.026 257.185 290.719C257.185 298.8 257.195 306.881 257.211 314.962C257.224 321.922 257.229 328.882 257.229 335.842C257.229 339.989 257.231 344.136 257.242 348.284C257.252 352.184 257.252 356.085 257.244 359.985C257.243 361.41 257.246 362.834 257.252 364.259C257.302 376.873 256.763 389.384 247.988 399.266C239.268 407.483 230.255 410.424 218.445 410.266C207.707 409.438 201.453 404.323 194 397C192.381 395.556 190.756 394.118 189.125 392.688C184.695 388.71 180.505 384.534 176.321 380.304C173.032 376.993 169.665 373.855 166.113 370.832C163.944 368.951 161.835 367.011 159.731 365.057C154.623 360.317 149.401 355.808 143.969 351.438C140.477 348.571 137.085 345.602 133.687 342.625C127.265 337.02 120.673 331.694 113.923 326.489C111.812 324.854 109.712 323.206 107.613 321.555C100.649 316.087 93.6669 310.677 86.4375 305.562C85.5827 304.955 85.5827 304.955 84.7107 304.336C82.2756 302.607 79.8361 300.886 77.3828 299.184C69.9788 293.811 64.329 286.977 62 278C61.0929 267.326 61.0935 257.602 67.707 248.703C74.7349 240.479 83.0478 233.308 91 226C91.5618 225.482 92.1237 224.965 92.7026 224.431C96.126 221.277 99.5616 218.137 103 215C104.98 213.188 106.959 211.376 108.937 209.563C109.431 209.11 109.924 208.658 110.433 208.192C114.108 204.823 117.774 201.444 121.437 198.063C121.976 197.566 122.515 197.069 123.07 196.558C125.83 194.011 128.583 191.457 131.324 188.891C134.524 185.899 137.751 182.938 141 180C141.914 179.172 142.828 178.345 143.77 177.492C159.676 163.752 176.807 159.79 197.385 160.797C213.946 162.081 227.455 170.509 239 182C244.29 177.592 249.188 172.924 254 168C245.214 152.424 226.231 143.166 209.824 138C185.878 131.797 161.879 135.631 140.488 147.848C131.03 153.521 123.21 161.492 115.211 169.004C112.242 171.787 109.202 174.472 106.121 177.129C103.202 179.704 100.354 182.353 97.5 185C93.4398 188.766 89.3459 192.472 85.1562 196.094C82.2276 198.683 79.366 201.342 76.5 204C72.4163 207.787 68.303 211.521 64.0859 215.16C61.9007 217.088 59.7639 219.063 57.6301 221.047C55.1059 223.386 52.5551 225.695 50 228C48.7683 229.12 48.7683 229.12 47.5117 230.262C44.1088 233.159 41.3764 235.414 36.8125 235.75C31.8962 234.783 30.3234 233.729 27 230C25.6605 226.375 25.8945 224.43 26.8125 220.688C29.4321 215.295 34.5316 211.809 39 208C41.0579 206.143 43.091 204.259 45.125 202.375C48.361 199.397 51.6114 196.44 54.9375 193.563C59.1211 189.938 63.1643 186.166 67.2224 182.403C70.7107 179.173 74.2473 176.015 77.8437 172.906C80.7724 170.317 83.634 167.658 86.5 165C90.5677 161.227 94.6646 157.509 98.8711 153.891C101.102 151.909 103.259 149.857 105.421 147.8C131.016 123.632 158.578 113.202 193.793 113.688C221.891 114.565 247.29 128.447 267 148C267.66 148.99 268.32 149.98 269 151C273.267 149.325 276.228 146.156 279.458 143.023C280.098 142.409 280.738 141.795 281.397 141.163C288.157 134.659 294.846 128.081 301.53 121.499C304.678 118.405 307.846 115.333 311.035 112.282C329.789 94.3184 345.134 78.0204 354.582 53.5667C356.658 48.3446 359.043 43.2774 361.424 38.1892C363.006 34.8074 364.555 31.4118 366.098 28.0117C371.823 15.8254 378.011 6.0755 391 1.00001C401.685 -2.53809 413.827 -0.360769 423.172 5.32032ZM394 23C390.381 27.0028 387.874 30.7866 385.52 35.6836C385.221 36.3022 384.922 36.9208 384.614 37.5581C383.989 38.8562 383.368 40.1563 382.751 41.4583C381.814 43.4339 380.862 45.4018 379.908 47.3692C377.121 53.1796 374.638 58.7615 373 65C380.473 62.6936 387.599 59.7228 394.739 56.5491C396.689 55.687 398.646 54.8446 400.603 54.002C407.084 51.1592 412.571 48.6575 417 43C418.357 38.9295 418.525 35.2561 418 31C415.78 26.6432 413.145 23.6029 409 21C403.522 19.4496 398.794 19.9259 394 23ZM152.424 198.636C150.392 200.582 148.292 202.446 146.187 204.313C141.288 208.709 136.481 213.202 131.675 217.7C125.822 223.176 119.918 228.594 114 234C111.027 236.72 108.057 239.442 105.09 242.168C102.923 244.158 100.747 246.138 98.5664 248.113C88.6509 256.342 88.6509 256.342 81.9375 266.938C82.0527 272.582 83.1904 276.19 87.1601 280.16C92.7245 284.807 98.6715 288.958 104.595 293.131C110.652 297.411 116.451 301.992 122.25 306.613C123.991 307.993 125.743 309.358 127.5 310.719C134.137 315.868 140.61 321.159 146.959 326.66C150.441 329.676 153.969 332.615 157.562 335.5C162.931 339.855 167.969 344.52 173.02 349.234C175.266 351.329 177.545 353.373 179.875 355.375C189.54 363.758 198.831 372.605 207.7 381.825C211.135 385.342 214.299 388.479 219.246 389.434C224.656 389.443 227.746 388.646 232 385C235.996 380.591 236.125 376.55 236.127 370.751C236.13 369.467 236.133 368.183 236.135 366.859C236.134 365.438 236.132 364.017 236.129 362.596C236.131 361.098 236.133 359.6 236.135 358.102C236.139 354.033 236.137 349.965 236.134 345.897C236.132 341.638 236.134 337.38 236.136 333.121C236.137 325.967 236.135 318.813 236.13 311.659C236.125 303.393 236.127 295.127 236.132 286.861C236.137 279.762 236.137 272.663 236.135 265.564C236.133 261.325 236.133 257.086 236.136 252.847C236.139 248.86 236.137 244.872 236.131 240.885C236.13 239.423 236.13 237.962 236.133 236.5C236.135 234.501 236.131 232.502 236.127 230.503C236.127 229.386 236.126 228.268 236.126 227.117C236 224 235.581 221.061 235 218C230.335 222.063 228.155 226.274 225.707 231.902C225.319 232.769 224.931 233.635 224.532 234.528C223.707 236.374 222.888 238.223 222.073 240.074C220.806 242.953 219.523 245.825 218.237 248.695C214.717 256.561 211.232 264.441 207.812 272.352C207.376 273.348 206.939 274.345 206.489 275.371C205.742 277.08 205.009 278.795 204.294 280.517C200.703 288.715 195.081 295.742 186.812 299.5C185.337 300.196 185.337 300.196 183.832 300.906C174.622 304.463 165.031 303.757 156 300C153.816 298.787 151.748 297.503 149.691 296.086C147.874 294.821 147.874 294.821 145 294C143.969 292.176 143.969 292.176 143 290C142.178 288.722 141.344 287.451 140.5 286.188C135.187 277.615 134.494 267.724 136.687 257.93C140.903 245.317 148.588 239.138 160.204 233.31C162.856 232.006 165.518 230.724 168.185 229.452C170.355 228.417 172.521 227.372 174.685 226.326C181.785 222.906 188.914 219.562 196.109 216.348C197.381 215.775 198.653 215.202 199.925 214.629C202.281 213.574 204.644 212.534 207.015 211.513C214.026 208.373 219.003 204.859 224 199C220.438 191.538 213.673 187.133 206.176 184.012C185.124 177.305 167.806 183.755 152.424 198.636ZM200 237C196.211 238.737 192.425 240.478 188.641 242.225C187.359 242.816 186.076 243.405 184.793 243.993C167.939 250.571 167.939 250.571 156 263C155.331 268.382 155.643 272.906 158.672 277.492C162.034 281.309 165.57 282.824 170.562 283.438C176.598 282.669 179.936 280.474 183.738 275.775C185.945 272.671 187.466 269.293 189.023 265.828C189.374 265.064 189.724 264.301 190.085 263.514C190.817 261.913 191.545 260.309 192.268 258.704C193.381 256.238 194.511 253.781 195.645 251.324C196.355 249.764 197.065 248.202 197.773 246.641C198.283 245.536 198.283 245.536 198.802 244.409C199.596 242.632 200.306 240.818 201 239C200.505 238.01 200.505 238.01 200 237Z" fill="#080708"/>
<path d="M391.738 186.823C392.722 186.81 393.707 186.797 394.722 186.784C395.789 186.777 396.857 186.769 397.957 186.762C399.052 186.754 400.147 186.746 401.276 186.737C403.597 186.723 405.918 186.713 408.239 186.705C411.788 186.688 415.336 186.644 418.885 186.6C421.138 186.589 423.391 186.581 425.645 186.574C426.706 186.557 427.768 186.539 428.862 186.521C436.202 186.543 436.202 186.543 440.136 188.796C443.192 192.409 443.621 196.634 444.348 201.168C446.316 211.965 452.364 219.49 461 226C463.093 227.341 465.186 228.614 467.371 229.797C469.49 231.362 470.044 232.534 471 235C471.193 238.009 471.193 238.009 471.116 241.569C471.105 242.22 471.094 242.871 471.083 243.542C471.059 244.952 471.03 246.362 470.998 247.772C470.949 250.009 470.917 252.246 470.89 254.483C470.814 260.844 470.725 267.204 470.582 273.563C470.495 277.458 470.444 281.353 470.414 285.248C470.396 286.727 470.365 288.205 470.321 289.683C469.906 299.441 469.906 299.441 474.432 307.786C475.615 308.863 476.804 309.936 478 311C485.374 323.705 486.15 336.652 486.145 350.968C486.148 352.372 486.152 353.776 486.156 355.179C486.164 358.973 486.167 362.766 486.167 366.56C486.168 368.934 486.17 371.309 486.173 373.684C486.182 381.982 486.186 390.28 486.185 398.578C486.185 406.292 486.195 414.005 486.211 421.719C486.224 428.361 486.23 435.002 486.229 441.644C486.229 445.602 486.231 449.561 486.242 453.519C486.252 457.244 486.252 460.969 486.245 464.693C486.243 466.698 486.251 468.702 486.26 470.706C486.216 483.493 484.662 493.994 475.875 503.75C465.005 513.427 453.019 512.727 439.277 512.629C437.165 512.63 435.052 512.632 432.939 512.636C428.527 512.639 424.116 512.624 419.704 512.597C414.07 512.563 408.436 512.569 402.802 512.588C398.445 512.598 394.087 512.589 389.73 512.574C387.653 512.569 385.577 512.569 383.5 512.576C380.591 512.581 377.682 512.561 374.773 512.533C373.507 512.543 373.507 512.543 372.214 512.553C363.747 512.419 356.033 509.643 349.688 503.937C348.908 503.266 348.128 502.594 347.324 501.902C340.058 492.829 339.274 483.547 339.369 472.346C339.364 470.797 339.357 469.249 339.347 467.7C339.329 463.524 339.342 459.349 339.361 455.173C339.378 450.784 339.369 446.395 339.364 442.005C339.359 434.636 339.375 427.267 339.403 419.897C339.435 411.403 339.435 402.91 339.418 394.416C339.402 386.213 339.409 378.01 339.426 369.807C339.433 366.331 339.432 362.855 339.424 359.379C339.417 355.277 339.429 351.176 339.456 347.074C339.463 345.578 339.463 344.081 339.456 342.585C339.406 331.031 340.969 320.717 347.563 310.937C348.431 309.621 348.431 309.621 349.316 308.277C351 306 351 306 352.587 304.757C354.717 302.108 354.338 299.962 354.293 296.604C354.286 295.638 354.286 295.638 354.28 294.652C354.268 293.254 354.25 291.856 354.226 290.458C354.187 288.242 354.168 286.027 354.153 283.811C354.113 278.306 354.041 272.801 353.969 267.296C353.91 262.647 353.863 257.998 353.832 253.349C353.813 251.171 353.775 248.995 353.737 246.818C353.726 245.473 353.716 244.129 353.707 242.784C353.691 241.616 353.676 240.448 353.66 239.245C354.158 234.494 355.639 231.147 359.305 228.059C360.153 227.524 361.001 226.989 361.875 226.437C365.706 223.889 368.983 221.519 372 218C372.503 217.424 373.006 216.848 373.524 216.254C377.799 210.737 379.031 205.456 379.887 198.673C380.531 194.02 381.706 191.357 385 188C387.429 186.786 389.023 186.854 391.738 186.823ZM401 207C399.68 210.3 398.36 213.6 397 217C393.52 225.38 388.514 233.048 381.026 238.415C376.694 241.637 376.694 241.637 374.295 246.324C374.077 249.018 374.098 251.609 374.219 254.309C374.227 255.166 374.235 256.024 374.243 256.908C374.285 260.086 374.397 263.262 374.5 266.437C374.665 273.553 374.83 280.669 375 288C399.75 288 424.5 288 450 288C450.268 280.967 450.536 273.934 450.813 266.687C450.931 264.49 451.049 262.294 451.171 260.03C451.776 249.415 451.776 249.415 447.189 240.303C444.998 238.319 442.698 236.68 440.206 235.097C432.396 229.989 428.174 220.537 425 212C424.505 209.525 424.505 209.525 424 207C416.41 207 408.82 207 401 207ZM365.465 321.914C361.154 328.223 360 334.448 360 342C394.65 342 429.3 342 465 342C463.955 330.502 462.368 323.31 453.899 315.469C448.026 310.925 442.031 308.9 434.656 308.823C433.587 308.81 432.519 308.797 431.418 308.784C430.267 308.777 429.116 308.769 427.93 308.762C426.738 308.754 425.547 308.746 424.319 308.737C421.796 308.723 419.273 308.713 416.749 308.705C412.911 308.688 409.073 308.644 405.234 308.6C402.779 308.589 400.323 308.581 397.867 308.574C396.728 308.557 395.589 308.539 394.416 308.521C382.291 308.554 373.116 312.375 365.465 321.914ZM360 363C360 389.4 360 415.8 360 443C394.65 443 429.3 443 465 443C465 416.6 465 390.2 465 363C430.35 363 395.7 363 360 363ZM360 464C358.733 479.584 358.733 479.584 363 487C368.317 492.044 372.699 492.15 379.779 492.161C380.558 492.166 381.337 492.171 382.14 492.176C384.715 492.191 387.289 492.198 389.863 492.203C391.657 492.209 393.45 492.215 395.244 492.22C399.004 492.231 402.764 492.237 406.524 492.24C411.333 492.246 416.141 492.27 420.949 492.298C424.654 492.317 428.36 492.322 432.065 492.324C433.837 492.327 435.609 492.335 437.381 492.348C439.866 492.365 442.349 492.363 444.833 492.356C445.559 492.366 446.285 492.375 447.033 492.384C452.148 492.343 455.539 491.323 460 489C467.448 481.16 465 476.452 465 464C430.35 464 395.7 464 360 464Z" fill="#080708"/>
<path d="M295 388C297.747 389.221 299.423 390.153 301.119 392.645C302.334 395.894 302.283 399.003 302.271 402.424C302.276 403.166 302.281 403.908 302.287 404.673C302.297 406.282 302.303 407.892 302.305 409.501C302.308 412.059 302.325 414.617 302.345 417.174C302.401 424.446 302.431 431.717 302.456 438.989C302.472 443.442 302.502 447.894 302.541 452.347C302.552 454.034 302.558 455.721 302.558 457.408C302.559 471.035 304.134 482.518 310.746 494.639C313.052 499.168 313.256 502.094 312 507C309.942 510.022 308.5 511.69 304.843 512.445C300.939 512.64 298.813 512.519 295.441 510.367C285.338 500.571 281.352 482.667 280.859 469.148C280.847 467.8 280.841 466.451 280.838 465.103C280.831 463.987 280.831 463.987 280.823 462.848C280.809 460.415 280.802 457.983 280.796 455.551C280.794 454.715 280.791 453.879 280.788 453.018C280.773 448.603 280.764 444.188 280.759 439.773C280.754 435.22 280.73 430.668 280.701 426.115C280.683 422.603 280.678 419.092 280.676 415.581C280.673 413.902 280.665 412.223 280.652 410.544C280.635 408.199 280.637 405.854 280.643 403.509C280.634 402.82 280.625 402.13 280.615 401.42C280.661 396.106 282.098 392.97 285.75 389.187C289.001 387.471 291.374 387.618 295 388Z" fill="#080708"/>
<path d="M303.386 335.449C308.428 339.596 311.449 343.745 312.308 350.383C312.613 356.416 311.572 361.08 308 366C304.419 369.763 300.484 372.695 295.265 373.336C287.154 373.441 281.598 372.501 275.687 366.75C271.945 360.652 270.319 355.661 271.371 348.457C273.137 341.557 276.916 337.491 282.937 333.91C289.605 330.968 297.171 331.675 303.386 335.449Z" fill="#080708"/>
</g>
<defs>
<clipPath id="clip0_468_856">
<rect width="512" height="512" fill="white"/>
</clipPath>
</defs>
</svg>
