<svg width="512" height="512" viewBox="0 0 512 512" fill="none" xmlns="http://www.w3.org/2000/svg">
<g clip-path="url(#clip0_409_497)">
<path d="M440.792 240.638C422.459 234.3 402.885 232.405 383.677 235.109L316.417 167.857L336.348 147.926L409.922 221.5C413.269 224.733 418.591 224.686 421.882 221.396C425.174 218.104 425.22 212.783 421.986 209.435L348.412 135.862L368.344 115.93L441.917 189.504C445.265 192.738 450.587 192.691 453.878 189.4C457.168 186.109 457.215 180.787 453.982 177.44L380.408 103.866L393.659 90.6151C395.58 88.6876 398.19 87.6041 400.911 87.6041C403.632 87.6041 406.242 88.6876 408.163 90.6151L467.889 150.341C475.01 156.899 485.992 156.832 493.033 150.188C518.253 124.901 518.253 83.9742 493.033 58.6874L453.359 19.0126C441.226 6.87791 424.769 0.0611347 407.61 0.0611347C390.45 0.0611347 373.993 6.87791 361.859 19.0118L246.801 133.984L183.287 20.5048C181.498 17.2584 179.254 14.2842 176.623 11.6742C163.909 -0.97549 144.327 -3.60892 128.723 5.23254C125.137 7.26895 123.521 11.5787 124.884 15.4715L183.45 183.473L15.4572 124.923C11.5653 123.56 7.25465 125.176 5.21825 128.762C-3.65838 144.337 -1.01658 163.926 11.6683 176.594C14.2339 179.219 17.1612 181.462 20.3624 183.257L133.995 246.789L18.9724 361.796C-6.24743 387.082 -6.24743 428.009 18.9724 453.296L58.622 492.971C70.7509 505.12 87.2138 511.947 104.381 511.947C121.548 511.947 138.011 505.12 150.14 492.971C153.506 489.622 155.399 485.07 155.399 480.322C155.399 475.574 153.507 471.022 150.14 467.673L90.5841 408.117C88.6565 406.196 87.573 403.586 87.573 400.865C87.573 398.144 88.6565 395.534 90.5841 393.613L103.835 380.362L177.409 453.936C180.756 457.169 186.078 457.122 189.369 453.832C192.661 450.541 192.707 445.219 189.473 441.871L115.908 368.365L135.839 348.434L209.413 422.008C212.76 425.242 218.082 425.195 221.373 421.904C224.665 418.612 224.711 413.291 221.477 409.943L147.903 336.37L167.834 316.439L235.12 383.725C232.429 402.921 234.294 422.481 240.563 440.823C254.735 483.228 287.542 511.965 318.574 511.965C323.743 511.973 328.88 511.149 333.787 509.525C347.565 504.65 358.78 494.399 364.869 481.112C376.106 454.986 376.848 425.537 366.943 398.878C355.066 363.375 329.52 336.149 302.311 329.366L288.088 292.958L292.636 288.163L329.324 302.361C336.09 329.664 363.309 355.15 398.811 366.959C412.006 371.425 425.836 373.73 439.766 373.785C454.048 374.033 468.195 370.981 481.105 364.869C494.364 358.785 504.591 347.584 509.449 333.829C521.242 298.376 491.072 257.437 440.792 240.638ZM364.607 240.168C361.86 241.235 359.182 242.469 356.587 243.862L296.553 222.924L283.926 200.348L304.352 179.912L364.607 240.168ZM373.864 31.0586C382.8 22.1158 394.924 17.0909 407.567 17.0909C420.209 17.0909 432.334 22.1158 441.27 31.0586L480.945 70.7334C489.907 79.7356 494.891 91.9515 494.783 104.653C494.676 117.356 489.486 129.485 480.374 138.334C480.147 138.327 479.928 138.246 479.751 138.104L420.195 78.5231C409.534 67.8688 392.256 67.8688 381.594 78.5231L275.291 184.827L255.479 149.417L373.864 31.0586ZM143.697 17.5866C151.242 16.0007 159.078 18.3151 164.55 23.7469C166.053 25.2248 167.335 26.9112 168.356 28.7551L272.254 214.46L204.047 190.68L143.697 17.5866ZM78.5021 381.616C67.8478 392.277 67.8478 409.555 78.5021 420.217L138.058 479.773V480.933C129.128 489.887 117.001 494.918 104.355 494.918C91.7086 494.918 79.5831 489.887 70.6521 480.933L30.9773 441.258C12.3867 422.635 12.3867 392.476 30.9773 373.853L149.482 255.442L184.892 275.245L78.5021 381.616ZM179.9 304.373L200.377 283.896L222.936 296.507L243.849 356.608C242.466 359.21 241.238 361.891 240.171 364.638L179.9 304.373ZM288.098 339.826C289.197 342.666 291.727 344.705 294.736 345.175C317.629 348.759 340.137 372.478 350.759 404.253C359.249 426.612 358.837 451.377 349.607 473.441C345.506 482.645 337.859 489.803 328.404 493.287C302.867 501.82 270.06 475.25 256.733 435.421C247.671 408.229 249.054 380.107 260.402 362.043C261.786 359.854 262.1 357.154 261.255 354.706L244.634 306.925C254.532 309.515 265.034 308.417 274.181 303.836L288.098 339.826ZM493.256 328.444C489.785 337.874 482.649 345.499 473.47 349.586C451.397 358.823 426.62 359.23 404.256 350.721C372.49 340.15 348.797 317.649 345.221 294.724C344.755 291.707 342.711 289.169 339.863 288.069L298.798 272.207C292.591 269.828 285.566 271.334 280.879 276.046L272.757 284.135C264.895 291.908 252.854 293.575 243.176 288.23C243.176 288.23 25.1704 166.005 23.7251 164.504C18.2791 159.076 15.9621 151.254 17.5732 143.736L354.684 261.276C357.142 262.115 359.846 261.801 362.048 260.423C380.111 249.041 408.198 247.625 435.366 256.806C475.911 270.364 501.882 302.496 493.256 328.444Z" fill="#080708"/>
<path d="M430.365 272.087C413.855 265.792 395.583 265.932 379.171 272.48C373.286 275.065 368.691 279.912 366.423 285.927C360.724 303.102 380.357 325.798 409.299 335.491C418.049 338.457 427.218 340.001 436.457 340.064C444.748 340.267 452.976 338.568 460.509 335.099C466.379 332.52 470.967 327.69 473.239 321.695C478.939 304.476 459.306 281.78 430.365 272.087ZM457.037 316.276C456.107 317.915 454.63 319.174 452.864 319.834C440.509 324.404 426.897 324.216 414.674 319.305C391.501 311.549 381.006 296.046 382.584 291.302C383.514 289.663 384.991 288.404 386.757 287.744C391.967 285.46 397.623 284.366 403.309 284.544C410.667 284.614 417.965 285.873 424.922 288.273C448.129 296.029 458.615 311.532 457.037 316.276Z" fill="#080708"/>
<path d="M272.475 379.16C265.928 395.571 265.787 413.844 272.083 430.354C280.615 455.907 299.343 474.201 315.426 474.201C317.54 474.212 319.641 473.878 321.646 473.211C327.654 470.946 332.498 466.357 335.085 460.481C341.634 444.07 341.774 425.797 335.477 409.287C325.794 380.337 303.004 360.73 285.922 366.421C279.909 368.685 275.062 373.277 272.475 379.16ZM287.74 386.795C288.403 385.032 289.662 383.556 291.298 382.623C291.64 382.515 291.997 382.463 292.356 382.47C298.03 382.47 312.049 393.049 319.301 414.713C324.197 426.931 324.382 440.531 319.822 452.878C319.159 454.636 317.903 456.108 316.272 457.042C311.605 458.637 296.034 448.143 288.269 424.96C283.374 412.743 283.186 399.144 287.74 386.795Z" fill="#080708"/>
<path d="M236.511 248.598C234.07 251.038 233.34 254.708 234.66 257.897C235.981 261.086 239.092 263.165 242.543 263.165C245.995 263.165 249.105 261.086 250.426 257.897C251.746 254.708 251.016 251.038 248.575 248.598C245.243 245.267 239.843 245.267 236.511 248.598Z" fill="#080708"/>
</g>
<defs>
<clipPath id="clip0_409_497">
<rect width="512" height="512" fill="white"/>
</clipPath>
</defs>
</svg>
