<svg width="512" height="512" viewBox="0 0 512 512" fill="none" xmlns="http://www.w3.org/2000/svg">
<path d="M504.469 51.797C498.768 31.221 477.512 19.182 456.935 24.88C437.782 30.184 400.205 40.589 380.887 45.939C373.333 48.031 368.905 55.838 370.999 63.397L371.957 66.856L348.854 73.255L346.572 70.094C340.743 62.015 330.383 58.377 320.791 61.033L137.148 111.885C129.103 114.113 124.369 122.471 126.595 130.52L139.925 178.656C141.78 185.355 147.886 189.758 154.524 189.758C157.397 189.758 337.842 139.566 342.2 138.355C351.795 135.699 358.808 127.247 359.652 117.324L359.982 113.44L383.085 107.043L384.043 110.503C386.14 118.071 393.96 122.478 401.501 120.389L477.549 99.33C498.12 93.634 510.166 72.374 504.469 51.797ZM493.437 54.852C501.38 83.539 470.227 89.304 469.845 89.586L455.338 37.2C455.721 37.256 485.289 25.414 493.437 54.852ZM285.268 142.243L252.911 91.705L288.116 81.956L320.473 132.494L285.268 142.243ZM238.52 155.189L206.163 104.65L241.369 94.901L273.726 145.439L238.52 155.189ZM191.773 168.134L159.416 117.595L194.622 107.846L226.979 158.385L191.773 168.134ZM155.509 178.177C153.542 178.728 151.502 177.566 150.958 175.601L137.628 127.467C137.084 125.502 138.239 123.46 140.204 122.916L147.874 120.792L180.231 171.331L155.509 178.177ZM353.089 103.472C350.783 104.111 349.116 106.119 348.915 108.505L348.25 116.357C347.81 121.532 344.154 125.939 339.148 127.323L332.015 129.298L299.658 78.76L323.847 72.061C328.904 70.663 334.284 72.619 337.292 76.787L341.902 83.178C343.303 85.121 345.767 85.987 348.07 85.346L375.011 77.884L380.031 96.011L353.089 103.472ZM398.447 109.358C397 109.762 395.478 108.905 395.074 107.447C380.346 54.265 394.559 105.587 382.029 60.341C381.627 58.883 382.479 57.373 383.938 56.969H383.94L444.308 40.253L458.813 92.64L398.447 109.358Z" fill="#080708"/>
<path d="M213.994 213.413C214.616 216.509 217.63 218.526 220.733 217.891C229.675 216.09 223.051 201.797 217.896 194.901C214.1 189.81 209.037 185.637 203.255 182.832C201.392 181.93 199.192 182.1 197.493 183.281C195.794 184.46 194.865 186.463 195.06 188.521C195.837 196.7 196.174 204.718 196.064 212.353C196.019 215.512 198.543 218.111 201.704 218.157H201.788C204.91 218.157 207.462 215.65 207.509 212.517C207.567 208.439 207.505 204.263 207.323 200.018C207.815 200.577 208.282 201.152 208.726 201.747C211.338 205.241 213.16 209.275 213.994 213.413Z" fill="#080708"/>
<path d="M309.055 277.917C308.263 280.978 310.102 284.098 313.162 284.889C316.221 285.683 319.344 283.84 320.134 280.782C320.248 280.211 321.689 275.744 321.689 269.699C321.689 260.266 318.36 251.068 312.317 243.799C310.998 242.21 308.925 241.454 306.887 241.828C304.855 242.201 303.18 243.64 302.506 245.595C299.682 253.797 296.702 261.196 293.393 268.213C292.046 271.072 293.27 274.481 296.129 275.83C298.986 277.179 302.399 275.953 303.746 273.094C305.566 269.231 307.291 265.265 308.945 261.133C309.798 263.894 310.243 266.781 310.243 269.7C310.245 274.079 309.16 277.396 309.055 277.917Z" fill="#080708"/>
<path d="M130.317 183.282C128.616 182.095 126.416 181.93 124.554 182.831C118.772 185.636 113.709 189.809 109.933 194.874C103.039 204.006 102.199 213.828 101.992 214.567C101.463 217.683 103.56 220.638 106.677 221.167C109.82 221.691 112.75 219.58 113.277 216.482C113.587 215.351 113.838 208.698 119.089 201.74C119.532 201.146 120 200.57 120.49 200.011C120.302 204.467 120.239 208.937 120.3 213.391C120.345 216.552 122.941 218.927 126.103 219.033C129.262 218.988 131.788 216.392 131.745 213.23C131.63 204.98 131.967 196.668 132.749 188.524C132.945 186.468 132.016 184.462 130.317 183.282Z" fill="#080708"/>
<path d="M8.58516 284.353C9.36116 287.391 12.4552 289.267 15.5462 288.479C18.6082 287.697 20.4562 284.578 19.6722 281.518C18.9332 278.196 17.5632 274.81 17.5632 269.66C17.5632 266.767 17.9972 263.906 18.8332 261.173C20.8622 266.219 23.0412 271.124 25.3562 275.842C26.7472 278.679 30.1772 279.851 33.0142 278.459C35.8512 277.067 37.0232 273.638 35.6312 270.801C31.7512 262.892 28.2642 254.418 25.2672 245.613C24.6002 243.651 22.9252 242.206 20.8882 241.83C18.8542 241.463 16.7712 242.21 15.4472 243.803C9.43216 251.049 6.11816 260.233 6.11816 269.66C6.11816 276.586 7.91416 281.263 8.58516 284.353Z" fill="#080708"/>
<path d="M130.661 353.681L84.7441 399.596C48.9151 435.425 86.0931 508.038 139.431 480.23C158.122 470.478 172.396 469.908 184.354 478.423C233.081 513.135 292.302 451.007 250.167 404.745L204.788 354.929C183.037 331.038 150.989 333.344 130.661 353.681ZM196.328 362.635L241.707 412.453C274.507 448.459 228.831 496.052 190.993 469.102C173.175 456.41 153.375 460.052 134.138 470.082C92.5421 491.775 66.3951 434.143 92.8371 407.689L138.756 361.774C154.464 346.056 178.973 343.574 196.328 362.635Z" fill="#080708"/>
<path d="M122.221 230.278C102.345 230.278 86.1758 251.718 86.1758 278.073C86.1758 304.428 102.345 325.87 122.221 325.87C142.095 325.87 158.264 304.428 158.264 278.073C158.264 251.718 142.095 230.278 122.221 230.278ZM122.221 314.425C108.887 314.425 97.6208 297.777 97.6208 278.073C97.6208 258.369 108.887 241.723 122.221 241.723C135.555 241.723 146.819 258.369 146.819 278.073C146.819 297.777 135.555 314.425 122.221 314.425Z" fill="#080708"/>
<path d="M175.031 274.506C175.031 299.801 191.2 320.379 211.074 320.379C230.95 320.379 247.119 299.801 247.119 274.506C247.119 249.211 230.95 228.632 211.074 228.632C191.199 228.632 175.031 249.211 175.031 274.506ZM211.073 240.076C224.638 240.076 235.673 255.52 235.673 274.506C235.673 293.489 224.638 308.934 211.073 308.934C197.51 308.934 186.475 293.49 186.475 274.506C186.475 255.521 197.51 240.076 211.073 240.076Z" fill="#080708"/>
<path d="M245.613 321.286C238.823 345.651 248.873 369.817 268.02 375.152C288.488 380.863 308.747 363.276 315.053 340.639C321.036 319.169 313.936 292.702 292.648 286.773C271.563 280.885 251.756 299.243 245.613 321.286ZM304.029 337.564V337.566C298.936 355.851 284.153 367.763 271.092 364.127C258.025 360.485 251.54 342.646 256.637 324.359C260.922 308.99 274.707 293.666 289.576 297.796C304.405 301.928 308.237 322.462 304.029 337.564Z" fill="#080708"/>
<path d="M16.5334 344.935C24.3144 367.295 45.6674 383.371 65.6504 376.414C86.3984 369.196 92.1024 342.763 84.6154 321.246C77.0544 299.513 56.0894 282.596 35.4984 289.765C14.8204 296.96 9.01339 323.32 16.5334 344.935ZM73.8084 325.007C79.1194 340.273 76.2744 360.598 61.8884 365.606C49.0804 370.069 33.5794 359.103 27.3414 341.172C22.0304 325.906 24.8754 305.581 39.2614 300.573C53.6444 295.574 68.4374 309.574 73.8084 325.007Z" fill="#080708"/>
</svg>
