<svg width="512" height="512" viewBox="0 0 512 512" fill="none" xmlns="http://www.w3.org/2000/svg">
<path d="M474.073 261H115V91.3001C115 82.6805 118.424 74.414 124.519 68.3191C130.614 62.2241 138.88 58.8 147.5 58.8C156.119 58.8 164.386 62.2241 170.481 68.3191C176.576 74.414 180 82.6805 180 91.3001V98H164.82C164.038 98.0104 163.267 98.1758 162.55 98.4866C161.833 98.7975 161.185 99.2477 160.644 99.811C160.103 100.374 159.678 101.04 159.396 101.768C159.114 102.497 158.979 103.274 159 104.055V122H146.692C145.931 121.984 145.174 122.124 144.469 122.411C143.764 122.698 143.125 123.126 142.592 123.67C142.059 124.213 141.643 124.86 141.369 125.57C141.095 126.281 140.969 127.039 141 127.8V153.774C141 157.088 143.379 159.998 146.692 159.998H226.779C228.416 159.956 229.974 159.287 231.132 158.129C232.29 156.971 232.958 155.413 233 153.776V127.8C232.941 126.207 232.253 124.703 231.087 123.616C229.921 122.529 228.372 121.948 226.779 122H215V104.055C214.923 102.423 214.22 100.883 213.038 99.7559C211.856 98.6283 210.285 97.9995 208.651 98H192V91.3001C192 79.4979 187.311 68.1792 178.966 59.8338C170.621 51.4884 159.302 46.8 147.5 46.8C135.698 46.8 124.379 51.4884 116.034 59.8338C107.688 68.1792 103 79.4979 103 91.3001V261H37.9268C29.5724 261 21.5603 264.319 15.6529 270.226C9.7455 276.134 6.42676 284.146 6.42676 292.5C6.42676 300.854 9.7455 308.867 15.6529 314.774C21.5603 320.681 29.5724 324 37.9268 324H49.9998V361.568C49.987 377.487 54.082 393.14 61.8887 407.014C69.6955 420.887 80.95 432.512 94.5638 440.763L80.3898 454.883C79.8209 455.434 79.3671 456.093 79.0548 456.821C78.7426 457.549 78.578 458.332 78.5707 459.124C78.5633 459.916 78.7134 460.702 79.0122 461.436C79.3109 462.17 79.7524 462.837 80.3111 463.398C80.8697 463.96 81.5343 464.405 82.2663 464.708C82.9984 465.011 83.7833 465.165 84.5755 465.163C85.3677 465.16 86.1514 464.999 86.8812 464.691C87.611 464.383 88.2723 463.933 88.8268 463.367L105.645 446.467C117.237 451.471 129.736 454.035 142.363 454H369.637C382.541 454.038 395.308 451.361 407.11 446.142L423.18 462.248C423.732 462.817 424.392 463.271 425.121 463.582C425.85 463.894 426.634 464.058 427.427 464.065C428.22 464.071 429.007 463.92 429.741 463.621C430.475 463.321 431.142 462.878 431.704 462.318C432.266 461.759 432.711 461.093 433.013 460.36C433.315 459.627 433.469 458.841 433.465 458.048C433.462 457.255 433.301 456.47 432.991 455.74C432.682 455.01 432.231 454.349 431.664 453.794L418.1 440.345C431.531 432.051 442.616 420.458 450.3 406.669C457.985 392.88 462.012 377.354 462 361.568V324H474.073C482.427 324 490.439 320.681 496.347 314.774C502.254 308.867 505.573 300.854 505.573 292.5C505.573 284.146 502.254 276.134 496.347 270.226C490.439 264.319 482.427 261 474.073 261ZM221 148H153V134H221V148ZM203 122H171V110H203V122ZM450 361.568C450.007 376.382 445.928 390.912 438.212 403.558C430.497 416.204 419.443 426.478 406.267 433.249C405.72 433.413 405.203 433.662 404.735 433.988C393.798 439.298 381.792 442.038 369.635 442H142.363C131.803 442 121.348 439.92 111.593 435.877C101.838 431.834 92.9756 425.909 85.5122 418.439C78.0489 410.969 72.1308 402.102 68.0964 392.343C64.062 382.585 61.9903 372.127 61.9998 361.568V324H450V361.568ZM474.073 312H37.9268C32.755 312 27.7951 309.946 24.1382 306.289C20.4812 302.632 18.4268 297.672 18.4268 292.5C18.4268 287.328 20.4812 282.368 24.1382 278.711C27.7951 275.055 32.755 273 37.9268 273H474.073C479.244 273 484.204 275.055 487.861 278.711C491.518 282.368 493.573 287.328 493.573 292.5C493.573 297.672 491.518 302.632 487.861 306.289C484.204 309.946 479.244 312 474.073 312Z" fill="#080708"/>
<path d="M193 174.339C193 172.748 192.368 171.222 191.243 170.096C190.117 168.971 188.591 168.339 187 168.339C185.409 168.339 183.883 168.971 182.757 170.096C181.632 171.222 181 172.748 181 174.339V180.832C181 182.423 181.632 183.95 182.757 185.075C183.883 186.2 185.409 186.832 187 186.832C188.591 186.832 190.117 186.2 191.243 185.075C192.368 183.95 193 182.423 193 180.832V174.339Z" fill="#080708"/>
<path d="M171 174.339C171 172.748 170.368 171.222 169.243 170.096C168.117 168.971 166.591 168.339 165 168.339C163.409 168.339 161.883 168.971 160.757 170.096C159.632 171.222 159 172.748 159 174.339V180.832C159 182.423 159.632 183.95 160.757 185.075C161.883 186.2 163.409 186.832 165 186.832C166.591 186.832 168.117 186.2 169.243 185.075C170.368 183.95 171 182.423 171 180.832V174.339Z" fill="#080708"/>
<path d="M214 174.339C214 172.748 213.368 171.222 212.243 170.096C211.117 168.971 209.591 168.339 208 168.339C206.409 168.339 204.883 168.971 203.757 170.096C202.632 171.222 202 172.748 202 174.339V180.832C202 182.423 202.632 183.95 203.757 185.075C204.883 186.2 206.409 186.832 208 186.832C209.591 186.832 211.117 186.2 212.243 185.075C213.368 183.95 214 182.423 214 180.832V174.339Z" fill="#080708"/>
<path d="M187 196.478C185.409 196.478 183.883 197.11 182.757 198.235C181.632 199.361 181 200.887 181 202.478V208.971C181 210.562 181.632 212.088 182.757 213.214C183.883 214.339 185.409 214.971 187 214.971C188.591 214.971 190.117 214.339 191.243 213.214C192.368 212.088 193 210.562 193 208.971V202.478C193 200.887 192.368 199.361 191.243 198.235C190.117 197.11 188.591 196.478 187 196.478Z" fill="#080708"/>
<path d="M165 196.478C163.409 196.478 161.883 197.11 160.757 198.235C159.632 199.361 159 200.887 159 202.478V208.971C159 210.562 159.632 212.088 160.757 213.214C161.883 214.339 163.409 214.971 165 214.971C166.591 214.971 168.117 214.339 169.243 213.214C170.368 212.088 171 210.562 171 208.971V202.478C171 200.887 170.368 199.361 169.243 198.235C168.117 197.11 166.591 196.478 165 196.478Z" fill="#080708"/>
<path d="M208 196.478C206.409 196.478 204.883 197.11 203.757 198.235C202.632 199.361 202 200.887 202 202.478V208.971C202 210.562 202.632 212.088 203.757 213.214C204.883 214.339 206.409 214.971 208 214.971C209.591 214.971 211.117 214.339 212.243 213.214C213.368 212.088 214 210.562 214 208.971V202.478C214 200.887 213.368 199.361 212.243 198.235C211.117 197.11 209.591 196.478 208 196.478Z" fill="#080708"/>
</svg>
