<svg width="512" height="512" viewBox="0 0 512 512" fill="none" xmlns="http://www.w3.org/2000/svg">
<g clip-path="url(#clip0_468_851)">
<path d="M108.337 55.051C109.247 55.3633 110.157 55.6755 111.095 55.9972C113.064 56.6731 115.032 57.3514 116.999 58.032C120.127 59.1118 123.258 60.1805 126.391 61.2457C135.295 64.2737 144.198 67.3065 153.086 70.383C158.533 72.2676 163.989 74.1263 169.45 75.9691C171.516 76.6714 173.578 77.3829 175.638 78.1043C193.889 84.491 207.814 85.1694 226.957 81.9531C227.63 81.8438 228.302 81.7346 228.995 81.622C243.891 79.2019 258.615 76.0293 273.336 72.725C280.085 71.2099 286.842 69.7296 293.599 68.2464C295.844 67.7533 298.089 67.2593 300.334 66.7653C312.096 64.1804 323.874 61.6799 335.68 59.3048C337.471 58.9444 339.262 58.5815 341.052 58.2157C393.693 47.4816 451.589 45.7978 499 75C502.216 77.1383 505.248 79.2864 508 82C508.684 82.666 509.368 83.332 510.073 84.0182C512.761 88.1779 512.562 91.5223 512.517 96.3767C512.528 97.7825 512.528 97.7825 512.539 99.2167C512.556 102.31 512.545 105.403 512.531 108.496C512.534 110.649 512.538 112.803 512.543 114.956C512.549 119.467 512.54 123.979 512.521 128.49C512.499 134.269 512.512 140.046 512.536 145.825C512.55 150.271 512.546 154.717 512.535 159.164C512.533 161.294 512.536 163.424 512.545 165.554C512.555 168.535 512.54 171.514 512.517 174.494C512.526 175.371 512.534 176.249 512.542 177.153C512.448 183.948 510.338 187.51 505.66 192.492C498.918 198.677 492.016 203.545 484 208C482.909 208.607 481.819 209.214 480.695 209.84C472.075 214.389 463.25 217.397 453.993 220.352C444.365 223.482 438.177 226.351 433.113 235.391C429.96 242.781 429.707 249.756 429.691 257.68C429.666 259.996 429.641 262.312 429.615 264.629C429.587 268.221 429.563 271.814 429.544 275.407C429.382 300.812 426.873 325.263 421 350C420.796 350.872 420.592 351.745 420.382 352.644C417.002 366.834 412.171 377.226 400 386C393.552 389.636 388.727 391.137 381.25 391.062C380.079 391.053 378.909 391.044 377.703 391.035C376.811 391.024 375.919 391.012 375 391C375.009 391.805 375.018 392.611 375.027 393.441C375.107 401.033 375.168 408.625 375.207 416.218C375.228 420.121 375.256 424.024 375.302 427.927C375.345 431.694 375.369 435.461 375.379 439.229C375.387 440.666 375.401 442.103 375.423 443.539C375.452 445.552 375.454 447.566 375.454 449.579C375.463 450.725 375.472 451.871 375.481 453.051C374.892 456.659 373.863 457.799 371 460C367.438 461.137 365.727 461.297 362.25 459.875C358.895 457.079 358.122 454.31 357.721 450.007C357.701 448.345 357.701 448.345 357.681 446.649C357.651 444.758 357.651 444.758 357.621 442.828C357.609 441.462 357.597 440.096 357.586 438.73C357.567 437.325 357.548 435.92 357.527 434.514C357.476 430.827 357.436 427.14 357.399 423.452C357.359 419.685 357.308 415.918 357.258 412.15C357.161 404.767 357.077 397.384 357 390C356.31 389.662 355.62 389.324 354.91 388.975C354.007 388.529 353.103 388.082 352.173 387.622C351.277 387.181 350.381 386.74 349.458 386.285C342.151 382.465 336.601 376.357 333 369C332.681 368.359 332.363 367.719 332.035 367.059C328.961 359.594 328.448 348.654 331 341C329.824 340.629 329.824 340.629 328.625 340.25C325.548 338.785 325.192 338.1 324 335C323.586 331.531 323.675 328.054 323.687 324.562C323.671 323.621 323.655 322.679 323.639 321.709C323.635 316.684 323.649 313.04 327 309C330.251 306.646 333.089 306.941 337 307C337.06 306.108 337.121 305.216 337.183 304.297C337.267 303.126 337.351 301.956 337.437 300.75C337.559 299.01 337.559 299.01 337.683 297.234C337.932 294.69 338.281 292.44 339 290C338.408 290.046 337.817 290.093 337.207 290.141C333.021 290.332 330.667 290.403 327 288.187C323.013 283.827 323.782 278.703 323.75 273.125C323.729 272.226 323.709 271.328 323.687 270.402C323.658 265.47 323.687 261.948 327 258C330.204 255.864 331.019 255.769 334.687 255.875C335.496 255.893 336.304 255.911 337.137 255.93C337.751 255.953 338.366 255.976 339 256C338.947 252.54 338.852 249.083 338.75 245.625C338.736 244.659 338.722 243.694 338.707 242.699C338.424 234.261 336.668 226.578 330.937 220.125C322.041 212.142 307.434 210.857 296.125 208.312C292.262 207.433 288.4 206.549 284.539 205.664C283.568 205.442 282.597 205.22 281.597 204.992C272.974 203.013 264.389 200.895 255.804 198.759C244.272 195.898 232.734 193.177 221.062 190.937C220.034 190.733 219.005 190.529 217.945 190.319C200.775 187.19 188.38 190.599 172.223 196.254C170.04 196.998 167.858 197.741 165.674 198.481C159.961 200.421 154.256 202.385 148.554 204.356C139.405 207.518 130.25 210.66 121.085 213.773C117.895 214.863 114.711 215.972 111.528 217.082C109.572 217.75 107.616 218.418 105.66 219.084C104.342 219.552 104.342 219.552 102.998 220.03C97.9446 221.728 94.3231 222.357 88.9999 221C86.4153 219.105 86.0371 218.112 84.9999 215C84.8998 212.908 84.8605 210.813 84.8527 208.719C84.8456 207.403 84.8384 206.086 84.831 204.73C84.8282 203.267 84.8255 201.805 84.8229 200.342C84.8166 198.805 84.81 197.268 84.803 195.73C84.7819 190.678 84.7716 185.626 84.7616 180.574C84.7576 178.835 84.7534 177.096 84.7493 175.356C84.7302 167.186 84.716 159.016 84.7076 150.846C84.6979 141.414 84.6715 131.983 84.6311 122.551C84.601 115.261 84.5862 107.971 84.5829 100.681C84.5805 96.3265 84.5715 91.9725 84.5464 87.6184C84.5231 83.5217 84.5189 79.4255 84.5292 75.3288C84.5297 73.8268 84.5233 72.3247 84.5096 70.8228C84.4919 68.7686 84.499 66.7159 84.5121 64.6616C84.5097 63.5133 84.5074 62.365 84.5049 61.1818C85.1169 57.2475 86.4994 55.0674 88.9999 52C95.4988 49.8337 102.139 52.8844 108.337 55.051ZM350.93 73.6172C350.229 73.7443 349.529 73.8715 348.807 74.0024C331.25 77.2061 313.849 81.0947 296.437 85C278.718 88.971 261.001 92.9188 243.16 96.3125C241.967 96.5427 240.774 96.773 239.545 97.0102C228.052 99.1468 216.649 100.481 205 102C205 124.77 205 147.54 205 171C215.89 172.98 226.78 174.96 238 177C243.997 178.321 249.953 179.666 255.902 181.164C257.381 181.528 258.86 181.891 260.34 182.253C264.117 183.18 267.892 184.118 271.666 185.059C277.738 186.571 283.816 188.064 289.892 189.56C292.059 190.094 294.225 190.63 296.391 191.167C305.093 193.319 313.809 195.342 322.595 197.126C335.013 200.312 343.486 207.185 350 218C353.271 224.787 355.108 231.072 355.161 238.631C355.171 239.742 355.18 240.852 355.19 241.996C355.197 243.794 355.197 243.794 355.203 245.629C355.209 246.887 355.214 248.145 355.22 249.442C355.23 252.119 355.237 254.796 355.24 257.474C355.247 261.468 355.281 265.461 355.312 269.455C355.403 291.265 354.043 312.609 349.312 333.937C345.686 348.965 345.686 348.965 349.562 363.5C353.466 369.118 357.535 372.547 364.187 374.312C373.888 376.031 383.751 376.11 392.191 370.559C399.794 364.524 402.28 356.178 404.5 347C404.708 346.144 404.916 345.288 405.13 344.406C410.862 319.969 412.815 295.215 413.199 270.176C413.215 269.242 413.231 268.308 413.247 267.346C413.324 262.719 413.379 258.093 413.395 253.465C413.531 238.708 415.897 227.375 426 216C428.505 213.665 431.078 211.778 434 210C434.555 209.647 435.111 209.294 435.683 208.93C441.763 205.491 448.686 203.922 455.367 202.051C458.794 201.178 458.794 201.178 461 200C461 159.08 461 118.16 461 76C444.086 71.8187 444.086 71.8187 427.062 69.1875C425.974 69.0713 424.885 68.9551 423.764 68.8354C399.074 66.3945 375.254 69.1819 350.93 73.6172ZM102 72C102 114.57 102 157.14 102 201C107.816 199.707 113.277 198.385 118.875 196.494C119.969 196.13 119.969 196.13 121.086 195.759C123.463 194.967 125.839 194.169 128.215 193.371C129.878 192.815 131.542 192.26 133.206 191.705C136.676 190.547 140.145 189.386 143.612 188.223C148.062 186.73 152.514 185.243 156.966 183.757C160.393 182.613 163.82 181.468 167.247 180.322C168.889 179.772 170.531 179.223 172.174 178.674C174.46 177.91 176.746 177.144 179.031 176.377C180.051 176.036 180.051 176.036 181.091 175.689C184.611 174.506 184.611 174.506 188 173C188 148.91 188 124.82 188 100C167.488 92.9715 146.974 85.9513 126.415 79.0611C124.556 78.4374 122.698 77.8122 120.84 77.1855C118.241 76.3093 115.64 75.439 113.039 74.5703C112.266 74.3085 111.493 74.0466 110.696 73.7769C107.68 72.7756 105.201 72 102 72ZM478 84C478 119.31 478 154.62 478 191C487.554 186.352 487.554 186.352 495 179C497.043 172.8 496.55 165.998 496.461 159.555C496.468 157.656 496.479 155.758 496.493 153.859C496.509 149.893 496.486 145.929 496.434 141.962C496.371 136.889 496.407 131.821 496.473 126.748C496.513 122.832 496.5 118.917 496.472 115.001C496.465 113.131 496.473 111.262 496.499 109.392C496.946 99.1385 496.946 99.1385 492.664 90.3306C487.982 87.2351 483.339 85.7797 478 84Z" fill="#080708"/>
<path d="M41.3594 134.07C44.9818 135.629 46.8731 136.023 50.8125 135.312C54.0776 134.09 54.0776 134.09 57 132C60.8037 132.138 63.2513 132.501 66.4375 134.625C68.6595 138.002 68.626 140.035 68 144C63.7983 149.646 57.9166 152.271 51.25 153.937C43.5313 154.557 36.0876 151.647 29.3125 148.25C24.3006 145.835 20.3487 145.317 15 147C14.01 147.66 13.02 148.32 12 149C7.59815 149.571 5.70163 149.508 2.0625 146.875C0 144 0 144 -0.5625 141C0.157242 137.161 1.1634 135.695 4 133C17.1165 124.99 27.9546 127.989 41.3594 134.07Z" fill="#080708"/>
<path d="M39 81.9999C43.4951 83.9805 47.1215 84.6869 52 83.9999C53.6875 83.0356 55.3566 82.0378 57 80.9999C60 80.4999 60 80.4999 63 80.9999C66.6352 83.6078 67.8339 85.0702 68.625 89.4999C67.8162 94.0288 66.6595 95.2366 63 97.9999C56.1234 102.375 48.9952 103.341 41 102C37.454 100.762 34.0683 99.2125 30.7321 97.4909C25.8881 95.0543 22.4355 94.5365 17 94.9999C15.9893 95.5156 14.9787 96.0312 13.9375 96.5624C10.1395 98.421 8.03862 98.0668 3.99997 96.9999C2.12497 95.8749 2.12497 95.8749 0.999968 93.9999C-0.389786 88.1202 -0.389786 88.1202 0.714812 84.9453C2.30797 82.5337 3.8281 81.6536 6.37497 80.3124C7.14583 79.8961 7.91669 79.4797 8.71091 79.0507C19.1709 74.2491 29.1631 77.2885 39 81.9999Z" fill="#080708"/>
<path d="M43.1406 186.109C47.8984 187.591 51.1133 186.428 55.5 184.313C59 183 59 183 62.25 183.625C66.65 185.825 66.65 185.825 68 188C68.5102 191.936 68.4471 194.199 66.5 197.688C60.2874 203.434 53.4101 205.295 45 205C39.2457 203.986 34.1208 201.614 28.8125 199.25C23.8751 197.139 21.1308 196.397 16 198C15.34 198.351 14.68 198.701 14 199.063C10.8326 200.547 8.44168 200.423 5 200C1.61323 197.55 0.213014 196.136 -0.5625 192C0.164581 188.122 1.09417 186.693 4 184C18.1167 176.281 29.2165 179.561 43.1406 186.109Z" fill="#080708"/>
</g>
<defs>
<clipPath id="clip0_468_851">
<rect width="512" height="512" fill="white"/>
</clipPath>
</defs>
</svg>
