<svg width="512" height="512" viewBox="0 0 512 512" fill="none" xmlns="http://www.w3.org/2000/svg">
<path d="M490.952 89.908L482.472 81.424C480.225 79.1548 477.437 77.4963 474.37 76.6053C471.304 75.7143 468.061 75.6202 464.948 76.332L439.348 50.756C440.416 50.488 441.48 50.224 442.548 50.02C443.819 49.7785 444.999 49.1895 445.955 48.3182C446.912 47.4469 447.608 46.3275 447.967 45.0843C448.326 43.8412 448.333 42.5229 447.988 41.2758C447.643 40.0288 446.959 38.9018 446.012 38.02C430.344 23.44 412.94 17.036 395.672 19.528C373.476 22.728 352.388 40.168 334.684 69.992C310.472 110.792 296.652 115.86 285.548 119.94C283.776 120.592 282.084 121.22 280.448 121.94C279.493 122.35 278.641 122.967 277.954 123.747C277.267 124.527 276.762 125.45 276.476 126.449C276.191 127.448 276.131 128.499 276.302 129.524C276.473 130.549 276.87 131.523 277.464 132.376C287.244 146.404 299.064 153.516 312.56 153.516H312.984C316.335 153.464 319.666 153 322.904 152.136L353.94 183.144L350.296 186.788L296.204 196.448C290.241 197.51 284.722 200.3 280.332 204.472L27.832 444.072C23.7213 447.974 20.8746 453.019 19.6596 458.555C18.4445 464.091 18.9168 469.864 21.0156 475.129C23.1143 480.394 26.7431 484.909 31.4334 488.091C36.1237 491.273 41.6601 492.976 47.328 492.98H47.728C51.516 492.941 55.257 492.137 58.7268 490.616C62.1965 489.096 65.3234 486.89 67.92 484.132L305.52 233.364L359.16 223.764C365.389 222.663 371.128 219.673 375.6 215.2L490.952 99.82C491.603 99.1695 492.12 98.3969 492.473 97.5465C492.825 96.6962 493.007 95.7846 493.007 94.864C493.007 93.9434 492.825 93.0318 492.473 92.1814C492.12 91.331 491.603 90.5585 490.952 89.908ZM452.92 84.108L443.016 94L413.04 64.028C416.833 61.1167 420.861 58.5264 425.084 56.284L452.92 84.108ZM383.624 153.42L358.468 128.26C361.776 124.732 364.812 121.116 367.588 117.58L393.524 143.52L383.624 153.42ZM403.42 133.62L375.928 106.124C376.16 105.776 376.416 105.408 376.644 105.072C379.116 101.352 381.596 97.836 384.088 94.484L413.32 123.716L403.42 133.62ZM423.216 113.816L392.852 83.452C396.052 79.74 399.252 76.36 402.452 73.244L433.124 103.916L423.216 113.816ZM312.816 139.496C309.418 139.442 306.066 138.698 302.964 137.307C299.863 135.917 297.077 133.91 294.776 131.408C306.836 126.576 322.976 117.116 346.708 77.14C362.172 51.084 379.788 35.94 397.648 33.388C407.717 32.1102 417.904 34.5742 426.276 40.312C425.476 40.632 424.676 40.996 423.896 41.348L423.84 41.372C403.468 50.4 383.728 69.12 364.984 97.32C350.752 118.724 335.68 132.836 322.296 137.648L322.132 137.712C319.148 138.812 316.003 139.415 312.824 139.496H312.816ZM336.76 146.18C340.837 143.755 344.7 140.987 348.308 137.908L373.72 163.32L363.832 173.2L336.76 146.18ZM365.692 205.292C363.239 207.747 360.092 209.391 356.676 210L300.776 220C299.304 220.265 297.955 220.992 296.924 222.076L57.748 474.516C56.432 475.915 54.8486 477.035 53.0915 477.811C51.3345 478.586 49.4395 479.001 47.5192 479.03C45.5988 479.06 43.6921 478.703 41.9122 477.982C40.1322 477.26 38.5152 476.189 37.1572 474.831C35.7991 473.473 34.7276 471.856 34.0062 470.076C33.2848 468.296 32.9282 466.389 32.9576 464.469C32.987 462.548 33.4017 460.654 34.1771 458.896C34.9526 457.139 36.073 455.556 37.472 454.24L289.972 214.64C292.379 212.353 295.404 210.823 298.672 210.24L354.916 200.16C356.325 199.909 357.624 199.232 358.636 198.22L465.504 91.324C466.454 90.4131 467.72 89.9045 469.036 89.9045C470.352 89.9045 471.618 90.4131 472.568 91.324L476.1 94.856L365.692 205.292Z" fill="#080708"/>
</svg>
