<svg width="445" height="445" viewBox="0 0 445 445" fill="none" xmlns="http://www.w3.org/2000/svg">
<g clip-path="url(#clip0_409_455)">
<path d="M437.264 303.948L381.094 252.958C375.923 248.275 374.247 240.972 376.816 234.338C380.523 225.349 379.172 214.811 373.282 206.817L330.558 148.888C337.964 136.481 359.046 94.917 340.901 49.218C340.062 47.107 338.103 45.65 335.839 45.454C333.579 45.261 331.396 46.359 330.208 48.297L328.499 51.095C316.042 71.512 303.182 92.572 271.61 99.12C271.266 81.249 268.238 59.666 257.275 46.173C256.238 44.897 254.724 44.103 253.085 43.975C251.451 43.847 249.827 44.397 248.605 45.497C239.663 53.545 179.965 132.589 129.819 201.366C96.9602 246.433 18.5912 355.185 0.621238 391.586C-0.845762 394.558 0.374238 398.155 3.34524 399.622C4.19924 400.044 5.10524 400.244 5.99724 400.244C8.20824 400.244 10.3362 399.016 11.3812 396.898C36.5332 345.949 188.71 139.529 240.327 74.005C235.724 88.661 229.109 103.245 220.564 117.512C213.502 129.303 211.106 142.722 213.636 156.318C214.173 159.205 216.694 161.222 219.528 161.222C219.892 161.222 220.261 161.189 220.632 161.12C223.89 160.514 226.04 157.382 225.434 154.124C223.419 143.296 225.245 133.053 230.859 123.679C241.983 105.104 250.036 85.969 254.834 66.758C263.284 91.379 258.028 127.578 257.962 128.014C257.47 131.29 259.726 134.345 263.002 134.839C266.279 135.328 269.335 133.076 269.829 129.8C269.953 128.978 271.02 121.652 271.459 111.372C299.865 106.288 315.623 91.368 327.356 74.991C324.807 94.605 319.447 118.629 309.202 129.253C306.902 131.639 306.971 135.437 309.356 137.737C310.521 138.86 312.022 139.418 313.521 139.418C315.093 139.418 316.663 138.804 317.84 137.583C326.127 128.989 331.498 114.776 334.979 100.352C331.309 126.575 318.561 145.447 318.366 145.73C316.902 147.839 316.943 150.646 318.467 152.712L363.624 213.94C366.994 218.514 367.812 224.74 365.707 229.802C365.69 229.842 365.674 229.883 365.658 229.923C361.233 241.252 364.131 253.786 373.034 261.85L429.205 312.84C431.081 314.539 432.144 316.869 432.199 319.401C432.254 321.939 431.289 324.319 429.494 326.092L425.978 329.544C400.669 354.535 362.05 361.123 329.874 345.931L309.115 336.168C293.183 328.647 274.77 329.797 259.858 339.248C244.989 348.671 236.112 364.777 236.112 382.331V394.106C236.112 397.42 238.799 400.106 242.112 400.106C245.425 400.106 248.112 397.42 248.112 394.106V382.331C248.112 368.91 254.904 356.593 266.281 349.383C277.7 342.145 291.798 341.262 303.999 347.023L324.758 356.786C337.927 363.003 352.04 366.023 366.061 366.022C391.123 366.021 415.886 356.373 434.395 338.094L437.911 334.642C442.029 330.576 444.319 324.926 444.194 319.141C444.068 313.275 441.605 307.878 437.264 303.948Z" fill="#080708"/>
<path d="M318.415 243.077C323.191 243.077 327.062 239.206 327.062 234.43C327.062 229.654 323.191 225.783 318.415 225.783C313.639 225.783 309.768 229.654 309.768 234.43C309.768 239.206 313.639 243.077 318.415 243.077Z" fill="#080708"/>
</g>
<defs>
<clipPath id="clip0_409_455">
<rect width="444.2" height="444.2" fill="white"/>
</clipPath>
</defs>
</svg>
