<svg width="512" height="512" viewBox="0 0 512 512" fill="none" xmlns="http://www.w3.org/2000/svg">
<g clip-path="url(#clip0_409_478)">
<path d="M66.7453 479.808C76.3815 479.808 76.3975 464.832 66.7453 464.832C57.1092 464.832 57.0932 479.808 66.7453 479.808Z" fill="#080708"/>
<path d="M478.237 173.696L444.889 140.35C459.034 116.45 434.525 86.7644 408.348 96.5014C405.961 83.6176 400.63 69.6386 392.422 54.777C387.891 46.5755 374.578 53.4402 379.313 62.0171C388.374 78.4251 393.509 93.3356 394.601 106.4L362.903 138.164C358.438 128.64 352.413 118.547 344.89 108.026C339.44 100.403 327.01 108.766 332.709 116.736C341.08 128.444 347.405 139.453 351.561 149.53L339.977 161.135C324.739 142.187 303.33 121.183 302.335 120.21C295.417 113.437 284.942 124.139 291.861 130.912C292.103 131.15 314.596 153.219 329.329 171.806L272.99 228.261C262.273 222.917 249.538 214.465 235.053 203.066C227.69 197.272 218.093 208.778 225.793 214.835C239.172 225.364 251.273 233.576 261.91 239.365L239.567 261.754C204.883 258.822 165.831 227.768 150.325 214.239C147.661 211.359 147.565 208.391 150.038 205.335L176.391 178.916L190.797 183.925C196.594 185.943 202.339 180.204 200.332 174.404L195.886 161.555L208.677 166.001C214.476 168.018 220.219 162.281 218.213 156.481L213.208 142.015L284.099 71.0053L298.507 76.0141C304.304 78.0318 310.049 72.2932 308.042 66.4937L303.035 52.0255L338.361 16.6137C341.393 14.1437 344.336 14.2396 347.193 16.9022C349.834 19.9462 352.457 23.088 354.985 26.2409C360.846 33.5518 372.797 24.5157 366.669 16.8722C364.019 13.5677 361.271 10.2751 358.5 7.08432C350.685 -1.91689 336.195 -2.41707 327.76 6.03704L289.129 44.7624C285.973 47.9262 286.843 53.2535 288.842 56.7987C284.926 55.4379 280.351 53.566 276.822 57.0992L199.304 134.748C196.145 137.91 197.015 143.241 199.014 146.787C195.469 144.784 190.152 143.922 186.992 147.089L181.421 152.673C178.265 155.837 179.135 161.164 181.134 164.709C177.588 162.707 172.271 161.845 169.112 165.012L139.438 194.759C131.036 203.182 131.487 217.674 140.482 225.523C158.964 241.65 192.632 267.37 226.517 274.841L212.173 289.216C204.127 297.282 197 302.298 189.742 305.002C110.508 334.522 57.9389 387.506 33.498 462.483C22.9574 494.826 57.3578 530.252 86.2654 501.273L133.34 454.07C140.177 447.215 129.571 436.64 122.736 443.495L75.6628 490.697C57.9938 508.409 42.011 484.692 47.7366 467.124C70.6919 396.705 120.229 346.882 194.971 319.035C204.319 315.552 213.155 309.438 222.775 299.793L407.575 114.603C421.789 100.388 443.901 121.469 429.672 135.732L155.204 410.937C148.367 417.792 158.97 428.364 165.808 421.512L272.013 315.019L304.462 347.468C311.309 354.313 321.898 343.725 315.052 336.88L282.588 304.416L292.383 294.594L324.859 327.071C331.706 333.915 342.296 323.328 335.449 316.482L302.957 283.99L312.752 274.17L345.256 306.673C352.103 313.518 362.692 302.93 355.846 296.085L323.327 263.566L333.122 253.744L365.653 286.276C372.5 293.12 383.09 282.533 376.243 275.687L343.697 243.141L353.491 233.319L386.051 265.877C392.898 272.722 403.487 262.134 396.641 255.289L364.067 222.715L373.862 212.893L406.448 245.48C413.295 252.324 423.885 241.737 417.038 234.891L384.437 202.29L394.232 192.468L426.846 225.082C433.692 231.928 444.282 221.339 437.436 214.494L404.807 181.864L414.602 172.042L447.244 204.684C454.091 211.529 464.681 200.941 457.834 194.095L425.178 161.439L434.973 151.617L467.643 184.286C474.492 191.131 485.081 180.54 478.237 173.696Z" fill="#080708"/>
</g>
<defs>
<clipPath id="clip0_409_478">
<rect width="512" height="512" fill="white"/>
</clipPath>
</defs>
</svg>
