<svg width="512" height="631" viewBox="0 0 512 631" fill="none" xmlns="http://www.w3.org/2000/svg">
<g clip-path="url(#clip0_414_279)">
<path d="M167.936 397.655L197.47 390.972C197.47 390.972 199.195 390.541 200.273 390.109C217.304 385.582 227.436 368.767 223.555 351.952V351.521C222.477 347.64 220.753 343.976 218.381 340.742C215.148 336.646 211.052 333.197 206.309 330.61C200.92 327.592 195.099 325.005 189.278 322.849L156.941 311.208C138.833 304.525 120.509 298.057 102.184 291.805C90.3276 287.709 80.1954 284.045 71.3566 281.242C69.632 280.811 68.1229 280.38 66.3983 279.733C55.8349 276.499 48.2897 275.206 42.0379 275.206C37.9419 275.206 33.6303 275.853 29.7499 277.362C25.6539 279.086 21.9891 281.673 18.9709 284.907C17.4619 286.632 16.1684 288.356 14.8749 290.081C12.288 293.961 10.3478 298.057 8.62316 302.153C2.80253 319.831 0 338.155 0 356.479C0 373.079 0.646737 394.421 9.91663 408.865C12.0724 412.53 15.0905 415.763 18.7554 418.35C25.4383 422.877 32.1213 423.524 39.0198 423.955C49.3676 424.602 59.4998 422.231 69.632 419.859L167.72 397.655H167.936ZM497.341 243.731C489.364 227.132 478.37 212.041 465.219 198.891C463.495 197.166 461.77 195.657 459.83 194.364C458.105 193.07 456.165 191.777 454.225 190.699C452.285 189.621 450.129 188.759 448.189 187.896C444.093 186.387 439.781 185.525 435.254 185.741C431.158 185.956 426.846 187.034 423.181 188.974C417.576 191.777 411.54 196.088 403.348 203.634C402.27 204.712 400.761 206.005 399.468 207.083C392.785 213.335 385.455 220.88 376.401 229.719C362.819 243.3 349.238 256.882 335.872 270.679L311.943 295.039C307.631 299.566 303.535 304.309 300.086 309.483C297.068 313.794 294.912 318.753 293.834 323.711C293.187 327.592 293.187 331.688 294.05 335.568V335.999C298.146 352.814 314.961 363.378 331.992 360.144C333.069 360.144 333.932 359.713 335.01 359.497L462.632 330.61C472.765 328.238 482.897 326.298 491.951 321.124C497.987 317.675 503.808 314.226 507.688 307.327C509.844 303.447 511.138 299.351 511.353 295.039C513.293 278.008 504.239 258.606 496.909 243.516L497.341 243.731ZM268.827 296.333C278.097 284.907 278.097 267.876 278.959 254.079C281.762 207.73 284.78 161.165 286.936 114.6C287.798 96.9221 289.738 79.6758 288.66 61.7827C287.798 47.1233 287.582 30.3082 278.312 18.2358C261.713 -2.45982 226.142 -0.735185 201.997 2.4985C194.452 3.57639 187.123 4.86987 179.793 6.5945C172.463 8.31913 165.133 10.2593 158.019 12.4151C134.737 19.9604 102.184 33.5419 96.7949 59.8425C93.5613 74.7174 101.107 89.808 106.712 103.389C113.61 119.773 123.096 134.648 131.719 149.954C154.57 190.699 177.853 231.228 200.92 271.757C207.818 283.829 215.363 299.135 228.729 305.387C229.592 305.818 230.454 306.034 231.532 306.465C237.568 308.621 244.035 309.052 250.287 307.758H251.365C257.186 306.034 262.36 302.8 266.456 298.704C267.318 298.057 267.965 297.41 268.611 296.548L268.827 296.333ZM257.832 420.722C250.503 410.589 237.137 406.062 224.849 409.943C223.555 410.374 222.046 411.021 220.753 411.667C218.813 412.745 216.872 413.823 214.932 415.332C209.758 419.428 205.016 423.955 201.135 429.345C200.057 430.638 199.195 432.363 197.901 433.441L177.421 461.25C165.78 476.772 154.355 492.294 142.929 508.247C135.384 518.379 129.132 527.002 123.958 534.763C123.096 536.272 122.018 537.781 121.155 539.074C115.119 548.344 111.67 555.027 109.945 561.064C108.652 565.16 108.221 569.255 108.652 573.352C109.299 577.663 110.808 581.759 112.963 585.64C114.257 587.58 115.55 589.304 116.844 591.029C119.862 594.478 123.311 597.712 127.192 600.299C141.42 610 156.941 616.898 173.11 622.288C186.691 626.815 200.92 629.402 215.148 630.264C217.519 630.264 220.106 630.264 222.477 630.264C224.633 630.264 227.005 629.833 229.16 629.402C231.316 628.971 233.472 628.324 235.628 627.462C239.724 625.953 243.604 623.581 246.838 620.563C249.856 617.545 252.227 614.096 253.521 610.216C255.892 604.395 257.401 597.065 258.479 586.071C258.479 584.562 258.695 582.621 258.91 580.897C259.773 571.842 260.204 561.064 260.635 548.56C261.713 529.158 262.36 509.971 263.006 490.785L264.3 456.508C264.515 448.531 264.3 439.908 262.144 431.932C261.066 428.267 259.557 424.602 257.401 421.368L257.832 420.722ZM489.58 474.401C485.268 469.874 479.232 465.131 469.747 459.526C468.453 458.664 466.728 457.801 465.219 456.939C457.243 452.196 447.542 447.238 436.332 441.202C419.085 431.932 401.839 422.877 384.377 413.823L353.549 397.87C352.04 397.439 350.316 396.361 348.807 395.499C342.986 392.481 336.519 390.325 330.051 389.032C327.896 388.6 325.524 388.385 323.368 388.385C321.859 388.385 320.35 388.385 319.057 388.6C306.338 390.541 296.421 400.242 294.481 412.53C294.05 416.41 294.265 420.29 294.912 423.955C296.421 431.932 300.086 439.908 303.751 446.807L320.135 476.988C329.189 494.018 338.459 511.049 347.944 527.864C353.981 538.859 359.155 548.344 363.897 556.105C364.76 557.614 365.837 559.123 366.7 560.632C372.52 570.118 377.263 575.938 381.79 580.25C388.258 586.286 396.881 589.089 405.72 588.226C407.875 588.011 410.247 587.58 412.403 587.149C416.93 585.855 421.241 584.346 425.553 582.19C438.056 575.292 449.482 566.884 459.83 556.968C472.118 545.111 482.897 532.176 491.52 517.301C492.813 515.145 493.676 512.989 494.538 510.834C495.4 508.678 496.047 506.738 496.694 504.582C497.125 502.426 497.556 500.27 497.772 497.899C498.203 493.587 497.772 489.06 496.263 484.964C494.969 481.084 492.598 477.419 489.58 474.401Z" fill="#FF1A1A"/>
</g>
<defs>
<clipPath id="clip0_414_279">
<rect width="512" height="629.491" fill="white" transform="translate(0 0.55835)"/>
</clipPath>
</defs>
</svg>
