<svg width="512" height="513" viewBox="0 0 512 513" fill="none" xmlns="http://www.w3.org/2000/svg">
<path d="M443.344 258.88C443.344 246.08 441.744 234.88 440.144 222.08H259.344V294.08H363.344C358.544 318.08 345.744 337.28 324.944 351.68V399.68H387.344C422.544 367.68 443.344 318.08 443.344 258.88Z" fill="#4285F4"/>
<path d="M259.344 447.679C310.544 447.679 353.744 430.08 385.744 401.28L323.344 353.279C305.744 364.479 284.944 372.479 257.744 372.479C208.144 372.479 164.944 338.879 150.544 292.479H86.5444V342.079C120.144 404.479 184.144 447.679 259.344 447.679Z" fill="#34A853"/>
<path d="M152.144 290.88C148.944 279.68 145.744 266.88 145.744 254.08C145.744 241.28 147.344 228.48 152.144 217.28V167.68H88.1442C75.3442 193.28 67.3442 222.08 67.3442 254.08C67.3442 284.48 75.3442 314.88 88.1442 340.48L152.144 290.88Z" fill="#FBBC05"/>
<path d="M259.344 138.88C288.144 138.88 312.144 148.48 332.944 167.68L387.344 113.28C353.744 82.8797 310.544 63.6797 259.344 63.6797C184.144 63.6797 120.144 106.88 88.144 169.28L152.144 218.88C166.544 172.48 209.744 138.88 259.344 138.88Z" fill="#EA4335"/>
</svg>
