<svg width="512" height="513" viewBox="0 0 512 513" fill="none" xmlns="http://www.w3.org/2000/svg">
<g clip-path="url(#clip0_417_969)">
<path d="M443.005 0.303711H68.996C30.8929 0.303711 0.00292969 31.1924 0.00292969 69.2967V443.308C0.00292969 481.412 30.8917 512.301 68.996 512.301H253.455L253.77 329.341H206.237C200.06 329.341 195.046 324.346 195.022 318.169L194.794 259.193C194.77 252.982 199.799 247.935 206.01 247.935H253.457V190.949C253.457 124.818 293.845 88.8092 352.839 88.8092H401.247C407.441 88.8092 412.463 93.8304 412.463 100.025V149.754C412.463 155.946 407.444 160.966 401.253 160.97L371.546 160.984C339.463 160.984 333.251 176.229 333.251 198.602V247.936H403.747C410.464 247.936 415.676 253.801 414.884 260.472L407.894 319.448C407.225 325.091 402.439 329.344 396.757 329.344H333.565L333.251 512.304H443.007C481.11 512.304 511.999 481.415 511.999 443.312V69.2967C511.998 31.1924 481.109 0.303711 443.005 0.303711Z" fill="#475993"/>
</g>
<defs>
<clipPath id="clip0_417_969">
<rect width="512" height="512" fill="white" transform="translate(0 0.303711)"/>
</clipPath>
</defs>
</svg>
