<?xml version="1.0" standalone="no"?>
<!DOCTYPE svg PUBLIC "-//W3C//DTD SVG 1.1//EN" "http://www.w3.org/Graphics/SVG/1.1/DTD/svg11.dtd" >
<svg xmlns="http://www.w3.org/2000/svg" xmlns:xlink="http://www.w3.org/1999/xlink" version="1.1">
<metadata>
Created by FontForge 20201107 at Fri Apr 19 12:31:40 2024
 By 
Copyright 2019 The Calistoga Project Authors (https://github.com/SorkinType/Calistoga)
</metadata>
<defs>
<font id="Calistoga-Regular" horiz-adv-x="0" >
  <font-face 
    font-family="Calistoga"
    font-weight="400"
    font-stretch="normal"
    units-per-em="1000"
    panose-1="0 0 0 0 0 0 0 0 0 0"
    ascent="800"
    descent="-200"
    x-height="530"
    cap-height="698"
    bbox="-594 -396 1423 1199"
    underline-thickness="102"
    underline-position="-141"
    unicode-range="U+000D-FB02"
  />
<missing-glyph horiz-adv-x="1182" 
d="M101 25v980h980v-980h-980zM365 199l225 245l233 -245l78 79l-241 237l241 231l-83 80l-226 -243l-230 244l-79 -80l238 -234l-237 -220z" />
    <glyph glyph-name="fi" unicode="fi" horiz-adv-x="679" 
d="M55 0q-23 23 -23 54q30 0 42.5 13t12.5 42v331h-61v62q22 5 35 12t24 15q-4 23 -6 42t-2 44q0 104 55 155.5t149 51.5q48 0 79 -19.5t46 -47.5t15 -53q0 -37 -19.5 -62t-52.5 -25q-30 0 -53 21.5t-23 49.5q0 12 5 27.5t25 30.5q-3 5 -10.5 8.5t-13.5 3.5q-16 0 -30 -15.5
t-22.5 -40.5t-8.5 -53q0 -30 5.5 -57t13.5 -43.5t14 -16.5h96q0 -22 -3 -47.5t-14 -42.5h-85v-322q0 -22 7 -36.5t28 -21t62 -6.5q0 -31 -23 -54h-264zM526 613q-43 0 -68.5 25.5t-25.5 68.5q0 42 26.5 68t69.5 26q44 0 69.5 -26t25.5 -68q0 -43 -26.5 -68.5t-70.5 -25.5z
M414 0q-11 11 -17 24t-6 30q29 0 43 12.5t14 42.5v290q0 26 -12.5 39t-53.5 13v44q15 9 46 20.5t67.5 19.5t65.5 8q23 0 33 -10.5t10 -35.5v-389q0 -30 15 -42t44 -12q0 -17 -6 -30t-17 -24h-226z" />
    <glyph glyph-name="fl" unicode="fl" horiz-adv-x="679" 
d="M55 0q-23 23 -23 54q30 0 42.5 13t12.5 42v331h-61v62q22 5 35 12t24 15q-4 23 -6 42t-2 44q0 104 55 155.5t149 51.5q48 0 79 -19.5t46 -47.5t15 -53q0 -37 -19.5 -62t-52.5 -25q-30 0 -53 21.5t-23 49.5q0 12 5 27.5t25 30.5q-3 5 -10.5 8.5t-13.5 3.5q-16 0 -30 -15.5
t-22.5 -40.5t-8.5 -53q0 -30 5.5 -57t13.5 -43.5t14 -16.5h96q0 -22 -3 -47.5t-14 -42.5h-85v-322q0 -22 7 -36.5t28 -21t62 -6.5q0 -31 -23 -54h-264zM412 0q-11 12 -17 25t-6 29q29 0 42 12.5t13 42.5v531q0 23 -13 36.5t-55 13.5v40q25 14 58.5 24.5t66.5 17t55 6.5
q23 0 33.5 -10t10.5 -35v-624q0 -31 12.5 -43t42.5 -12q0 -16 -6.5 -29t-17.5 -25h-219z" />
    <glyph glyph-name="f_f" unicode="ff" horiz-adv-x="724" 
d="M56 0q-23 25 -23 54q29 0 41.5 13t12.5 42v341h-61v62q21 5 33.5 11t22.5 14q-3 14 -4 33t-1 25q0 77 27 124.5t75.5 69.5t110.5 22q65 0 98.5 -30t33.5 -69t-20 -64.5t-56 -25.5q-29 0 -54 18t-25 48q0 14 5 28t15 21q-5 4 -8.5 5.5t-9.5 1.5q-15 0 -30.5 -13.5
t-26.5 -36.5t-11 -53q0 -47 11 -74t45 -27h185q-2 13 -3.5 31t-1.5 31q0 64 28 113.5t76.5 78t107.5 28.5q65 0 100.5 -29t35.5 -69q0 -38 -22 -64.5t-57 -26.5q-28 0 -54 16t-26 47q0 13 5 27t16 22q-10 6 -18 6q-20 0 -39.5 -28.5t-19.5 -71.5q0 -30 2 -55t12 -40.5
t33 -15.5h114q0 -22 -2.5 -47.5t-14.5 -42.5h-103v-332q0 -34 21.5 -49t81.5 -15q0 -16 -6.5 -29t-17.5 -25h-274q-10 12 -16.5 25t-6.5 29q30 0 42.5 13t12.5 42v341h-200v-332q0 -34 17.5 -49t77.5 -15q0 -30 -24 -54h-263z" />
    <glyph glyph-name="f_f_i" unicode="ffi" horiz-adv-x="1050" 
d="M56 0q-23 25 -23 54q29 0 41.5 13t12.5 42v341h-61v62q21 5 33.5 11t22.5 14q-3 14 -4 33t-1 25q0 77 27 124.5t75.5 69.5t110.5 22q65 0 98.5 -30t33.5 -69t-20 -64.5t-56 -25.5q-29 0 -54 18t-25 48q0 14 5 28t15 21q-5 4 -8.5 5.5t-9.5 1.5q-15 0 -30.5 -13.5
t-26.5 -36.5t-11 -53q0 -47 11 -74t45 -27h185q-2 13 -3.5 31t-1.5 31q0 64 28 113.5t76.5 78t107.5 28.5q65 0 100.5 -29t35.5 -69q0 -38 -22 -64.5t-57 -26.5q-28 0 -54 16t-26 47q0 13 5 27t16 22q-10 6 -18 6q-20 0 -39.5 -28.5t-19.5 -71.5q0 -30 2 -55t12 -40.5
t33 -15.5h114q0 -22 -2.5 -47.5t-14.5 -42.5h-103v-332q0 -34 21.5 -49t81.5 -15q0 -16 -6.5 -29t-17.5 -25h-274q-10 12 -16.5 25t-6.5 29q30 0 42.5 13t12.5 42v341h-200v-332q0 -34 17.5 -49t77.5 -15q0 -30 -24 -54h-263zM897 613q-43 0 -68.5 25.5t-25.5 68.5
q0 42 26.5 68t69.5 26q44 0 69.5 -26t25.5 -68q0 -43 -26.5 -68.5t-70.5 -25.5zM785 0q-11 11 -17 24t-6 30q29 0 43 12.5t14 42.5v290q0 26 -12.5 39t-53.5 13v44q15 9 46 20.5t67.5 19.5t65.5 8q23 0 33 -10.5t10 -35.5v-389q0 -30 15 -42t44 -12q0 -17 -6 -30t-17 -24
h-226z" />
    <glyph glyph-name="f_f_l" unicode="ffl" horiz-adv-x="1043" 
d="M56 0q-23 25 -23 54q29 0 41.5 13t12.5 42v341h-61v62q21 5 33.5 11t22.5 14q-3 14 -4 33t-1 25q0 77 27 124.5t75.5 69.5t110.5 22q65 0 98.5 -30t33.5 -69t-20 -64.5t-56 -25.5q-29 0 -54 18t-25 48q0 14 5 28t15 21q-5 4 -8.5 5.5t-9.5 1.5q-15 0 -30.5 -13.5
t-26.5 -36.5t-11 -53q0 -47 11 -74t45 -27h185q-2 13 -3.5 31t-1.5 31q0 64 28 113.5t76.5 78t107.5 28.5q65 0 100.5 -29t35.5 -69q0 -38 -22 -64.5t-57 -26.5q-28 0 -54 16t-26 47q0 13 5 27t16 22q-10 6 -18 6q-20 0 -39.5 -28.5t-19.5 -71.5q0 -30 2 -55t12 -40.5
t33 -15.5h114q0 -22 -2.5 -47.5t-14.5 -42.5h-103v-332q0 -34 21.5 -49t81.5 -15q0 -16 -6.5 -29t-17.5 -25h-274q-10 12 -16.5 25t-6.5 29q30 0 42.5 13t12.5 42v341h-200v-332q0 -34 17.5 -49t77.5 -15q0 -30 -24 -54h-263zM776 0q-11 12 -17 25t-6 29q29 0 42 12.5
t13 42.5v531q0 23 -13 36.5t-55 13.5v40q25 14 58.5 24.5t66.5 17t55 6.5q23 0 33.5 -10t10.5 -35v-624q0 -31 12.5 -43t42.5 -12q0 -16 -6.5 -29t-17.5 -25h-219z" />
    <glyph glyph-name=".notdef" horiz-adv-x="1182" 
d="M101 25v980h980v-980h-980zM365 199l225 245l233 -245l78 79l-241 237l241 231l-83 80l-226 -243l-230 244l-79 -80l238 -234l-237 -220z" />
    <glyph glyph-name=".null" 
 />
    <glyph glyph-name="nonmarkingreturn" horiz-adv-x="333" 
 />
    <glyph glyph-name="CR" unicode="&#xd;" 
 />
    <glyph glyph-name="space" unicode=" " horiz-adv-x="190" 
 />
    <glyph glyph-name="exclam" unicode="!" horiz-adv-x="272" 
d="M94 308l-49 391q-1 6 -1 11.5v9.5q0 36 18 52t52 16h43q34 0 52.5 -16t18.5 -52q0 -4 -0.5 -9.5t-1.5 -11.5l-50 -391h-82zM135 -13q-45 0 -72.5 27.5t-27.5 71.5q0 45 27.5 72t72.5 27q47 0 74.5 -27t27.5 -72q0 -44 -27.5 -71.5t-74.5 -27.5z" />
    <glyph glyph-name="quotedbl" unicode="&#x22;" horiz-adv-x="555" 
d="M101 434q-22 0 -41 16q4 21 10 57.5t12.5 80t12 86t10.5 77.5t7 53q8 6 29.5 11t40.5 5q38 0 51 -12.5t13 -40.5q0 -7 -0.5 -15.5t-1.5 -17.5q-2 -16 -10 -46.5t-19.5 -67t-24 -71t-23.5 -59.5t-18 -32q-11 -10 -23 -17t-25 -7zM355 434q-22 0 -41 16q4 21 10 57.5
t12.5 80t12 86t10.5 77.5t7 53q8 6 29.5 11t40.5 5q38 0 51 -12.5t13 -40.5q0 -7 -0.5 -15.5t-1.5 -17.5q-2 -16 -10 -46.5t-19.5 -67t-24 -71t-23.5 -59.5t-18 -32q-11 -10 -23 -17t-25 -7z" />
    <glyph glyph-name="numbersign" unicode="#" horiz-adv-x="722" 
d="M158 -1l32 205h-128q6 47 27 82h114l22 137h-134q3 21 10.5 43t16.5 38h119l31 194q17 7 44.5 10.5t49.5 3.5l-32 -208h110l31 194q17 7 44 10.5t49 3.5l-32 -208h128q-6 -46 -27 -81h-114l-22 -137h134q-3 -22 -10 -44t-17 -38h-119l-30 -190q-18 -7 -45 -11t-49 -4
l32 205h-110l-30 -190q-18 -7 -45 -11t-50 -4zM295 286h111l22 137h-111z" />
    <glyph glyph-name="dollar" unicode="$" horiz-adv-x="593" 
d="M304 -117q-27 0 -45 8v132q-21 5 -43 11t-44 14l-76 -32q-12 24 -23 64t-17.5 84t-6.5 80h104q22 -67 67 -108t106 -41q52 0 68.5 20t16.5 42q0 30 -24.5 57t-60 49.5t-69.5 38.5q-56 27 -95.5 54.5t-60.5 63t-21 85.5q0 58 25 97t67.5 59.5t96.5 21.5v113q6 3 13.5 4
t14.5 1q27 0 45 -9v-115q35 -6 60 -18l105 24q14 -22 20 -56.5t7.5 -71t1.5 -66.5v-16h-88q-21 67 -57.5 99t-80.5 32q-46 0 -67.5 -19t-21.5 -52q0 -30 21 -53t52.5 -40t60.5 -31q33 -15 66.5 -33.5t61 -42.5t44.5 -56.5t17 -76.5q0 -80 -52.5 -132t-155.5 -52h-3v-128
q-6 -3 -13.5 -4t-15.5 -1z" />
    <glyph glyph-name="percent" unicode="%" horiz-adv-x="1078" 
d="M377 -106q-18 1 -38.5 10t-34.5 23l397 812q20 -1 40 -10t34 -22zM272 242q-85 0 -136.5 53t-51.5 172q0 120 52 172.5t137 52.5q86 0 137 -52.5t51 -172.5q0 -121 -52 -173t-137 -52zM272 300q14 0 25.5 13.5t18.5 50t7 105.5q0 70 -7 105t-18 47t-25 12
q-13 0 -24.5 -12t-18.5 -47.5t-7 -106.5q0 -68 6.5 -104.5t18 -49.5t24.5 -13zM805 -53q-86 0 -137 53t-51 172q0 121 51.5 173t136.5 52q86 0 137.5 -53t51.5 -172q0 -120 -52 -172.5t-137 -52.5zM805 6q14 0 25 13t18 49.5t7 105.5q0 70 -7 105.5t-18 47.5t-25 12
q-13 0 -24.5 -12t-18.5 -47.5t-7 -106.5q0 -69 6.5 -105t18 -49t25.5 -13z" />
    <glyph glyph-name="ampersand" unicode="&#x26;" horiz-adv-x="806" 
d="M410 -8q-103 0 -179.5 28.5t-118 75.5t-41.5 102q0 27 6.5 55.5t26 55.5t56.5 48.5t98 32.5q-51 19 -78 44t-36.5 54.5t-9.5 59.5q0 42 31.5 78.5t91 58.5t141.5 22q79 0 131.5 -19.5t79 -50.5t26.5 -66q0 -37 -25.5 -56t-59.5 -19q-35 0 -56 18.5t-21 43.5
q0 18 11.5 32.5t33.5 21.5q-40 34 -100 34q-52 0 -83.5 -24.5t-31.5 -62.5q0 -39 23.5 -74.5t70.5 -57.5v-46q-44 0 -71.5 -16t-42.5 -42t-20.5 -57t-5.5 -60q0 -58 35.5 -99.5t105.5 -41.5q35 0 65.5 11.5t49 35t18.5 59.5q0 51 -37.5 79t-95.5 28v8q0 17 6 35.5t16 28.5
q71 0 112.5 19t73.5 41q27 18 55 32t70 14q28 0 39 -11t13.5 -24.5t2.5 -22.5q0 -6 -1 -15.5t-4 -15.5q-29 2 -53 3t-45 1q-25 0 -47 -6.5t-45 -29.5q35 -8 60.5 -34t39.5 -60t14 -66q0 -49 -32.5 -90.5t-97.5 -67t-165 -25.5z" />
    <glyph glyph-name="quotesingle" unicode="'" horiz-adv-x="301" 
d="M101 434q-22 0 -41 16q4 21 10 57.5t12.5 80t12 86t10.5 77.5t7 53q8 6 29.5 11t40.5 5q38 0 51 -12.5t13 -40.5q0 -7 -0.5 -15.5t-1.5 -17.5q-2 -16 -10 -46.5t-19.5 -67t-24 -71t-23.5 -59.5t-18 -32q-11 -10 -23 -17t-25 -7z" />
    <glyph glyph-name="parenleft" unicode="(" horiz-adv-x="442" 
d="M405 -146q-84 3 -151 44t-114.5 108.5t-72.5 151.5t-25 174t25 174t72.5 151.5t114.5 108.5t151 44v-43q-45 -13 -81.5 -55.5t-62 -104.5t-39.5 -133t-14 -142q0 -70 14 -141.5t39.5 -133.5t62 -104.5t81.5 -56.5v-42z" />
    <glyph glyph-name="parenright" unicode=")" horiz-adv-x="442" 
d="M37 -146v42q45 14 81.5 56.5t62 104.5t39.5 133.5t14 141.5q0 71 -14 142t-39.5 133t-62 104.5t-81.5 55.5v43q84 -3 151 -44t114.5 -108.5t72.5 -151.5t25 -174t-25 -174t-72.5 -151.5t-114.5 -108.5t-151 -44z" />
    <glyph glyph-name="asterisk" unicode="*" horiz-adv-x="490" 
d="M165 538q-18 0 -43 17l-29 21l118 156l-112 -10q-34 -3 -56.5 14t-22.5 48q0 5 1 12t3 14l12 35l182 -63l-41 98q-8 19 -8 36q0 26 17 44t51 18h34v-182l76 68q25 22 54 22q19 0 34.5 -11.5t23.5 -37.5l11 -34l-179 -56l99 -59q19 -11 29 -28t10 -34q0 -14 -7 -28
t-24 -25l-29 -20l-113 159l-28 -114q-6 -25 -23 -42.5t-40 -17.5z" />
    <glyph glyph-name="plus" unicode="+" horiz-adv-x="629" 
d="M58 267q-4 11 -6 26t-2 29q0 18 2.5 34t7.5 25h197v199q11 5 26.5 7t31.5 2q17 0 32 -2t24 -7v-199h200q5 -10 6.5 -26t1.5 -33q0 -16 -1.5 -31t-6.5 -24h-200v-199q-10 -4 -25 -6t-30 -2q-16 0 -32.5 2t-26.5 7v198h-199z" />
    <glyph glyph-name="comma" unicode="," horiz-adv-x="259" 
d="M68 -218q-12 4 -22 17.5t-10 29.5q46 26 74 66t28 81q0 3 -0.5 6t-1.5 7q-4 -1 -7.5 -1.5t-7.5 -0.5q-46 0 -69.5 28.5t-23.5 64.5q0 45 28 72t71 27q50 0 83.5 -36.5t33.5 -110.5q0 -65 -25.5 -117t-66 -86.5t-84.5 -46.5z" />
    <glyph glyph-name="hyphen" unicode="-" horiz-adv-x="487" 
d="M67 214q-4 8 -5.5 20t-1.5 24q0 14 1.5 31.5t5.5 24.5h353q4 -8 5.5 -25.5t1.5 -30.5t-1.5 -25t-4.5 -19h-354z" />
    <glyph glyph-name="period" unicode="." horiz-adv-x="259" 
d="M130 -13q-46 0 -74 27.5t-28 71.5q0 45 28 72t74 27q45 0 73 -27t28 -72q0 -44 -28 -71.5t-73 -27.5z" />
    <glyph glyph-name="slash" unicode="/" horiz-adv-x="480" 
d="M135 -208q-19 1 -46.5 10.5t-42.5 22.5l300 925q19 -1 46 -10.5t42 -23.5z" />
    <glyph glyph-name="zero" unicode="0" horiz-adv-x="663" 
d="M330 -10q-87 0 -151 35t-99 112.5t-35 204.5q0 135 36 215.5t100.5 115.5t150.5 35q87 0 151.5 -35.5t99.5 -116t35 -215.5q0 -128 -36 -205.5t-100.5 -111.5t-151.5 -34zM330 60q22 0 42 11t35 40.5t23.5 85.5t8.5 146q0 96 -8.5 155t-23.5 89t-34 40.5t-41 10.5
t-41.5 -10.5t-34.5 -41t-24 -89.5t-9 -157q0 -89 8.5 -144t23.5 -84.5t34.5 -40.5t40.5 -11z" />
    <glyph glyph-name="one" unicode="1" horiz-adv-x="480" 
d="M92 0q-11 11 -17.5 32t-6.5 36q49 0 79.5 18.5t30.5 70.5v362q0 32 -45 32q-14 0 -31.5 -3.5t-31.5 -9.5l-27 50l156 91q34 20 53 25.5t32 5.5q28 0 37.5 -18.5t9.5 -35.5v-499q0 -53 29.5 -71t81.5 -18q0 -15 -6 -36t-17 -32h-327z" />
    <glyph glyph-name="two" unicode="2" horiz-adv-x="585" 
d="M66 -11l-32 25q11 59 38 106t63 87t73.5 76.5t69.5 73t52 78t20 90.5q0 60 -28.5 87t-70.5 27q-58 0 -90 -44q26 -7 42 -30t16 -47q0 -37 -29 -59.5t-65 -22.5q-37 0 -66 26.5t-29 75.5q0 46 31.5 84.5t88 62.5t132.5 24q69 0 125 -22t89.5 -66.5t33.5 -112.5
q0 -54 -21 -95.5t-55.5 -74t-76.5 -60t-84.5 -54t-79 -54.5t-60.5 -63q29 13 71.5 22.5t78.5 9.5h53q48 0 86 22.5t49 62.5h28q16 -14 26 -40t10 -55q0 -31 -15.5 -62.5t-52.5 -52t-104 -20.5q-35 0 -64 4t-59 8t-70 4q-32 0 -64 -5t-59 -16l1 1z" />
    <glyph glyph-name="three" unicode="3" horiz-adv-x="624" 
d="M283 -8q-69 0 -124 18t-87 51.5t-32 80.5q0 43 24 65.5t59 22.5t56 -20.5t21 -48.5q0 -14 -6 -32t-22 -32q13 -10 39.5 -12t55.5 -2q62 0 94.5 31t32.5 83q0 35 -11.5 66.5t-38 52t-69.5 20.5q-28 -7 -59 -14l-20 60q63 17 96.5 38t46 47t12.5 56q0 47 -27.5 77.5
t-72.5 30.5q-24 0 -41.5 -6.5t-32.5 -25.5q13 -5 24 -19.5t11 -34.5q0 -22 -20 -44.5t-58 -22.5q-39 0 -59.5 24.5t-20.5 61.5q0 46 32.5 77.5t86.5 48.5t118 17q69 0 122.5 -19t84.5 -54.5t31 -86.5q0 -32 -13.5 -63.5t-47.5 -60.5t-95 -54q58 4 105 -13.5t74 -57
t27 -102.5q0 -61 -38 -107t-105 -71.5t-153 -25.5z" />
    <glyph glyph-name="four" unicode="4" horiz-adv-x="663" 
d="M238 0q-11 11 -16.5 31.5t-5.5 35.5q47 0 78 12t31 43v70h-297l-18 62l266 444h203v-424h16q40 0 61 16t34 51h23q17 -5 28.5 -22t11.5 -39q0 -28 -12 -47.5t-49.5 -30t-112.5 -10.5v-71q0 -31 26 -42.5t78 -11.5q0 -15 -6.5 -35.5t-17.5 -31.5h-321zM150 274h175v334z
" />
    <glyph glyph-name="five" unicode="5" horiz-adv-x="603" 
d="M274 -8q-70 0 -123 18.5t-82 51t-29 74.5t25.5 65.5t60.5 23.5t57.5 -21t22.5 -53q0 -19 -9.5 -33.5t-32.5 -27.5q12 -6 31.5 -10t42.5 -4q68 0 105 40.5t37 97.5q0 70 -39.5 103.5t-106.5 33.5q-28 0 -59 -5.5t-54 -16.5l-39 45l34 324h220q108 0 154 30h23
q14 -10 21.5 -31.5t7.5 -44.5q0 -46 -32.5 -69t-78.5 -23q-43 0 -78.5 13t-68.5 27.5t-69 18.5l-24 -212q27 12 62 22.5t76 10.5q73 0 125.5 -27.5t80.5 -75.5t28 -110q0 -61 -33 -114.5t-97.5 -87t-158.5 -33.5z" />
    <glyph glyph-name="six" unicode="6" horiz-adv-x="635" 
d="M322 -8q-82 0 -144.5 38.5t-97.5 114.5t-35 190q0 128 42 210.5t112 122t154 39.5q59 0 107 -15.5t77 -47t29 -78.5q0 -38 -22 -64t-62 -26q-36 0 -60 21t-24 53q0 16 10.5 32t27.5 25q-13 15 -35.5 22.5t-47.5 7.5q-36 0 -66.5 -23t-49 -76t-18.5 -145q0 -8 1 -11
q26 25 68.5 38.5t88.5 13.5q62 0 111.5 -25t78 -70.5t28.5 -109.5q0 -66 -34.5 -119.5t-96 -85.5t-142.5 -32zM325 67q26 0 49.5 12.5t38.5 42.5t15 83q0 80 -32.5 113.5t-76.5 33.5q-34 0 -60 -13t-40 -39q-1 -10 -1 -20.5v-20.5q0 -73 15.5 -115t40 -59.5t51.5 -17.5z" />
    <glyph glyph-name="seven" unicode="7" horiz-adv-x="542" 
d="M230 -10q-20 0 -42.5 3.5t-40.5 11.5q7 100 35.5 193.5t84.5 190t144 203.5q-35 -10 -79 -17.5t-94 -7.5q-58 0 -83.5 -17t-36.5 -62h-56q-16 15 -29 41.5t-13 64.5q0 50 29.5 82t97.5 32q27 0 73 -7t98 -14.5t96 -7.5q23 0 36.5 2.5t25.5 9.5t30 20l36 -49
q-86 -109 -127.5 -206.5t-54.5 -182t-13 -154.5v-56q0 -17 -8 -34t-32.5 -28t-76.5 -11z" />
    <glyph glyph-name="eight" unicode="8" horiz-adv-x="636" 
d="M304 -8q-94 0 -153 26t-87 67.5t-28 88.5q0 59 38.5 107t102.5 73q-46 33 -78 74t-32 97q0 52 29.5 93.5t88 66t144.5 24.5t136.5 -23.5t73 -58.5t22.5 -72q0 -48 -34.5 -86.5t-85.5 -64.5q83 -43 121 -94.5t38 -112.5q0 -59 -35 -105.5t-101 -73t-160 -26.5zM364 437
q75 48 75 116q0 37 -24.5 63t-76.5 26q-47 0 -79 -21.5t-32 -56.5q0 -30 30.5 -61.5t106.5 -65.5zM303 66q55 0 90 26.5t35 69.5q0 27 -15.5 52t-54.5 49t-109 48q-38 -19 -59 -51.5t-21 -70.5q0 -52 36 -87.5t98 -35.5z" />
    <glyph glyph-name="nine" unicode="9" horiz-adv-x="632" 
d="M295 -11q-100 0 -160.5 39t-60.5 109q0 41 22.5 65.5t62.5 24.5q31 0 55.5 -17.5t24.5 -52.5q0 -20 -10 -37t-35 -26q16 -19 39.5 -25t50.5 -6q70 0 98 57t28 167v23q-27 -21 -64.5 -32.5t-80.5 -11.5q-63 0 -114 26t-81 74t-30 114q0 60 32.5 112.5t92.5 84.5t142 32
q102 0 163.5 -46t89 -126.5t27.5 -186.5q0 -112 -37 -193t-102.5 -124.5t-152.5 -43.5zM202 499q0 -77 36.5 -114t85.5 -37q28 0 51.5 9.5t36.5 28.5q1 19 1 37q0 89 -16.5 135.5t-41.5 63.5t-49 17t-48 -11.5t-40 -42t-16 -86.5z" />
    <glyph glyph-name="colon" unicode=":" horiz-adv-x="295" 
d="M148 342q-46 0 -74 27.5t-28 71.5q0 45 28 72t74 27q45 0 73 -27t28 -72q0 -44 -28 -71.5t-73 -27.5zM148 -7q-46 0 -74 27.5t-28 71.5q0 45 28 72t74 27q45 0 73 -27t28 -72q0 -44 -28 -71.5t-73 -27.5z" />
    <glyph glyph-name="semicolon" unicode=";" horiz-adv-x="295" 
d="M86 -218q-12 4 -22 17.5t-10 29.5q46 26 74 66t28 81q0 3 -0.5 6t-1.5 7q-4 -1 -7.5 -1.5t-7.5 -0.5q-46 0 -69.5 28.5t-23.5 64.5q0 45 28 72t71 27q50 0 83.5 -36.5t33.5 -110.5q0 -65 -25.5 -117t-66 -86.5t-84.5 -46.5zM148 342q-46 0 -74 27.5t-28 71.5q0 45 28 72
t74 27q45 0 73 -27t28 -72q0 -44 -28 -71.5t-73 -27.5z" />
    <glyph glyph-name="less" unicode="&#x3c;" horiz-adv-x="629" 
d="M473 -1l-373 282v53l373 274q15 -5 28.5 -21t24 -35t15.5 -34l-289 -210l289 -219q-5 -14 -15.5 -33t-24 -35t-28.5 -22z" />
    <glyph glyph-name="equal" unicode="=" horiz-adv-x="629" 
d="M58 413q-4 11 -6 25.5t-2 29.5q0 17 2.5 33t7.5 26h511q5 -11 6.5 -27t1.5 -32t-1.5 -31.5t-6.5 -23.5h-513zM58 184q-4 11 -6 25.5t-2 29.5q0 18 2.5 33.5t7.5 25.5h511q5 -11 6.5 -27t1.5 -32t-1.5 -31t-6.5 -24h-513z" />
    <glyph glyph-name="greater" unicode="&#x3e;" horiz-adv-x="629" 
d="M168 -1q-14 6 -28 22t-24.5 35t-15.5 33l289 219l-289 210q5 15 15.5 34t24.5 35t28 21l373 -274v-53z" />
    <glyph glyph-name="question" unicode="?" horiz-adv-x="532" 
d="M214 267l-27 127q62 38 104.5 89.5t42.5 120.5q0 55 -26.5 79t-64.5 24q-31 0 -57 -13.5t-41 -38.5q25 -8 46 -29t21 -53q0 -37 -27 -60.5t-62 -23.5q-24 0 -47.5 12.5t-39.5 37t-16 60.5q0 49 31 91t88 68t135 26q72 0 125.5 -23t83 -64t29.5 -94q0 -55 -29.5 -99
t-79.5 -77t-112 -56l19 -104h-96zM267 -13q-46 0 -73 27.5t-27 71.5q0 45 27 72t73 27q47 0 74 -27t27 -72q0 -44 -27 -71.5t-74 -27.5z" />
    <glyph glyph-name="at" unicode="@" horiz-adv-x="1019" 
d="M470 -313q-110 0 -198.5 44t-140 129.5t-51.5 208.5q0 105 38 195t105.5 156.5t156 104t190.5 37.5q108 0 191 -44t130 -125.5t47 -195.5q0 -82 -26.5 -148.5t-81 -106.5t-139.5 -40q-43 0 -75.5 11.5t-61.5 36.5q-23 -17 -57 -30t-75 -13q-74 0 -109 47.5t-35 123.5
q0 69 26.5 125t74 88.5t111.5 32.5q62 0 110 -29q16 8 35 12.5t33 4.5h67l-39 -243q-2 -9 -2.5 -17.5t-0.5 -16.5q0 -50 39 -50q32 0 57.5 29t40.5 77t15 106q0 98 -39 160t-103.5 91.5t-139.5 29.5q-79 0 -148.5 -29t-123 -83t-84 -128.5t-30.5 -164.5q0 -148 85.5 -225.5
t239.5 -77.5q68 0 121 13t86 31l10 -16q5 -7 6 -13.5t1 -11.5q0 -14 -7 -19q-38 -25 -103 -46t-146 -21zM498 -12q14 0 24 4t17 10l33 229q-20 10 -39 10q-36 0 -63.5 -42t-27.5 -117q0 -49 14 -71.5t42 -22.5z" />
    <glyph glyph-name="A" unicode="A" horiz-adv-x="677" 
d="M3 0q-23 25 -23 64q27 0 50.5 16t34.5 49l164 484q-40 13 -101 13q0 43 24 72h274l186 -566q11 -33 35 -50.5t50 -17.5q0 -39 -23 -64h-271q-23 25 -23 64q26 0 41.5 11.5t15.5 36.5q0 9 -1.5 21t-5.5 26l-6 21h-224l-6 -21q-4 -13 -6.5 -24t-2.5 -20q0 -27 17 -39
t47 -12q0 -39 -23 -64h-223zM222 258h180l-71 248q-9 30 -23 51z" />
    <glyph glyph-name="B" unicode="B" horiz-adv-x="633" 
d="M311 -8q-47 0 -109 4t-154 4q-22 27 -22 63q34 0 48 11.5t14 39.5v470q0 28 -14 39.5t-48 11.5q0 36 22 63q71 0 113 1.5t71.5 2.5t59.5 1q87 0 143 -15.5t87.5 -40t44 -54t12.5 -58.5q0 -56 -29 -96t-98 -69q86 -18 125.5 -56t39.5 -118q0 -39 -13 -75.5t-46.5 -65.5
t-93.5 -46t-153 -17zM283 394q73 0 103.5 32t30.5 86t-29.5 86t-93.5 32q-10 0 -21.5 -1t-19.5 -3v-230q7 -1 15 -1.5t15 -0.5zM295 65q140 0 140 121q0 68 -34.5 102t-114.5 34q-8 0 -17.5 -0.5t-15.5 -0.5v-253q7 -1 18 -2t24 -1z" />
    <glyph glyph-name="C" unicode="C" horiz-adv-x="574" 
d="M344 -14q-85 0 -158 40t-117 121.5t-44 204.5q0 118 39.5 197t110 119.5t163.5 40.5q22 0 50 -6t49 -16q10 5 27 9.5t34.5 8.5t27.5 4q13 -32 19 -75.5t8 -86t2 -72.5h-113q-8 65 -35.5 106t-71.5 41q-58 0 -95.5 -55t-37.5 -180q0 -103 28 -164.5t74 -88t99 -26.5
q46 0 78 17.5t45 36.5q13 -9 20.5 -27.5t7.5 -32.5q0 -23 -24.5 -50.5t-71 -46.5t-114.5 -19z" />
    <glyph glyph-name="D" unicode="D" horiz-adv-x="668" 
d="M292 -11q-23 0 -52 3t-74 5.5t-118 2.5q-22 28 -22 64q33 0 47.5 11.5t14.5 39.5v470q0 27 -14.5 38.5t-47.5 11.5q0 38 22 63q99 0 167.5 6t90.5 6q87 0 150 -27.5t104 -75t61 -110t20 -133.5q0 -77 -20 -145t-62.5 -119.5t-108.5 -81t-158 -29.5zM284 72q55 0 95 27
t62 88t22 162q0 146 -51 213.5t-136 67.5h-13t-11 -2v-554q8 -1 16.5 -1.5t15.5 -0.5z" />
    <glyph glyph-name="E" unicode="E" horiz-adv-x="615" 
d="M554 -16l-15 5t-27 11h-463q-10 13 -16.5 29.5t-6.5 33.5q33 0 49.5 12t16.5 40v469q0 28 -16 39.5t-49 11.5q0 17 6.5 33.5t16.5 29.5h388q18 8 40 12.5t41 4.5q9 -16 20.5 -46.5t20.5 -60.5t9 -47q-8 -8 -25.5 -16t-35.5 -14t-30 -9q-11 33 -38.5 62t-67.5 29h-113
v-211h72q28 0 46.5 16.5t18.5 56.5q45 0 81 -21v-186q-34 -21 -80 -21q0 40 -18.5 58t-46.5 18h-73v-235h121q44 0 74.5 36.5t37.5 86.5h107q0 -15 -4.5 -46.5t-11 -68t-14.5 -67.5t-15 -45z" />
    <glyph glyph-name="F" unicode="F" horiz-adv-x="564" 
d="M49 0q-23 25 -23 64q41 0 54.5 11t13.5 39v470q0 28 -16 39t-48 11q0 37 23 63h382q39 17 76 17q9 -16 16.5 -45.5t12 -59t4.5 -46.5q-13 -12 -39 -23t-46 -15q-10 33 -36.5 60t-76.5 27h-88v-232h82q29 0 40.5 19t11.5 59q22 0 46 -5.5t40 -16.5v-185q-16 -10 -39.5 -16
t-46.5 -6q0 41 -11.5 58.5t-39.5 17.5h-83v-178q0 -28 12 -43.5t54 -15.5h80q0 -18 -3.5 -37t-14.5 -31h-337z" />
    <glyph glyph-name="G" unicode="G" horiz-adv-x="664" 
d="M370 -14q-106 0 -183.5 45t-119.5 125t-42 183q0 123 42 205t116 123.5t170 41.5q23 0 53.5 -4t67.5 -18q10 5 27 9.5t34 8.5t27 4q13 -32 19 -73.5t8 -82t2 -70.5h-97q-10 65 -50 99.5t-94 34.5q-40 0 -72 -22t-50.5 -76.5t-18.5 -153.5q0 -106 17.5 -167.5t51 -88
t81.5 -26.5q54 0 79 26v114q0 26 -23 37.5t-70 11.5q0 17 7 41t17 36h216q30 0 45 -13.5t19.5 -29.5t4.5 -24q0 -10 -5 -18q-16 0 -30.5 -1.5t-25.5 -6.5v-115q0 -22 3.5 -31t7.5 -14q3 -3 5 -6.5t2 -11.5q0 -18 -32 -39.5t-86.5 -37t-122.5 -15.5z" />
    <glyph glyph-name="H" unicode="H" horiz-adv-x="727" 
d="M48 0q-22 25 -22 64q33 0 46.5 11t13.5 39v470q0 28 -13.5 39.5t-46.5 11.5q0 38 22 63h244q10 -12 16 -29t6 -34q-33 0 -46.5 -11.5t-13.5 -39.5v-187h218v187q0 28 -14 39.5t-46 11.5q0 38 22 63h245q22 -25 22 -63q-32 0 -46.5 -11.5t-14.5 -39.5v-470q0 -28 14.5 -39
t46.5 -11q0 -39 -22 -64h-245q-22 25 -22 64q32 0 46 11t14 39v199h-218v-199q0 -28 13.5 -39t46.5 -11q0 -18 -6 -35t-16 -29h-244z" />
    <glyph glyph-name="I" unicode="I" horiz-adv-x="345" 
d="M51 0q-22 25 -22 64q33 0 46.5 11t13.5 39v470q0 28 -13.5 39.5t-46.5 11.5q0 38 22 63h243q10 -12 16 -29t6 -34q-33 0 -46.5 -11.5t-13.5 -39.5v-470q0 -28 13.5 -39t46.5 -11q0 -18 -6 -35t-16 -29h-243z" />
    <glyph glyph-name="J" unicode="J" horiz-adv-x="573" 
d="M100 -13q-16 18 -35 46.5t-32 72t-13 104.5q0 20 1.5 33.5t3.5 24.5h152q-4 -16 -6 -31.5t-2 -32.5q0 -55 21 -92t70 -37q18 0 36 8t29.5 29t11.5 58v394q0 36 -19 53t-73 17q0 37 23 63h274q11 -12 17 -29t6 -34q-34 0 -50 -11.5t-16 -39.5v-355q0 -70 -19.5 -116.5
t-53 -74t-76.5 -39t-90 -11.5q-16 0 -38.5 3t-44 8t-34.5 12z" />
    <glyph glyph-name="K" unicode="K" horiz-adv-x="665" 
d="M563 -14q-42 0 -71 14t-48 36.5t-32.5 48t-24.5 47.5q-10 21 -25 49.5t-32.5 57t-36.5 50t-38 29.5v-204q0 -28 13.5 -39t46.5 -11q0 -18 -6 -35t-16 -29h-245q-22 25 -22 64q33 0 46.5 11t13.5 39v470q0 28 -13.5 39.5t-46.5 11.5q0 38 22 63h245q10 -12 16 -29t6 -34
q-33 0 -46.5 -11.5t-13.5 -39.5v-198h17t20 -2l141 187q7 8 10 18t3 18q0 13 -19 20.5t-39 7.5q0 35 23 63h233q10 -13 16 -29.5t6 -33.5q-43 0 -66 -17t-34 -31l-189 -224q49 -22 80.5 -53.5t60.5 -76.5q30 -45 51 -80.5t43 -56.5t52 -25v-40q-16 -21 -38.5 -33t-62.5 -12z
" />
    <glyph glyph-name="L" unicode="L" horiz-adv-x="550" 
d="M49 0q-23 25 -23 64q34 0 48 11t14 39v470q0 28 -14 39.5t-48 11.5q0 17 6 34t17 29h257q11 -12 16.5 -29t5.5 -34q-40 0 -58 -11.5t-18 -39.5v-499h62q56 0 87.5 49.5t31.5 133.5h70q13 -9 21 -33.5t12 -53.5t4 -53q0 -60 -21 -94t-73 -34h-397z" />
    <glyph glyph-name="M" unicode="M" horiz-adv-x="913" 
d="M48 0q-22 25 -22 64q36 0 53.5 11t17.5 39v470q0 28 -18.5 39.5t-52.5 11.5q0 37 23 63h157q43 0 72.5 -12t47.5 -55l106 -261l40 -124l38 124l126 328h228q23 -26 23 -63q-34 0 -50.5 -11.5t-16.5 -39.5v-470q0 -28 15.5 -39t51.5 -11q0 -38 -23 -64h-248q-10 12 -16 29
t-6 35q34 0 51.5 11t17.5 39v414l-170 -429q-13 -33 -37.5 -43.5t-58.5 -10.5l-198 483v-414q0 -28 20.5 -39t58.5 -11q0 -18 -6 -35t-16 -29h-208z" />
    <glyph glyph-name="N" unicode="N" horiz-adv-x="724" 
d="M606 -6q-52 0 -74.5 14t-41.5 42l-280 425v-361q0 -28 19.5 -39.5t53.5 -11.5q0 -35 -23 -63h-208q-22 27 -22 63q34 0 51.5 11.5t17.5 39.5v470q0 28 -19.5 39.5t-53.5 11.5q0 38 22 63h139q29 0 58.5 -22.5t54.5 -62.5l227 -359v330q0 28 -18.5 39.5t-52.5 11.5
q0 17 6 34t17 29h213q23 -26 23 -63q-33 0 -51 -11.5t-18 -39.5v-590h-40z" />
    <glyph glyph-name="O" unicode="O" horiz-adv-x="669" 
d="M334 -13q-97 0 -166 45t-106 126.5t-37 189.5q0 115 38 195.5t107.5 123.5t162.5 43q97 0 166.5 -45t107 -126.5t37.5 -190.5q0 -114 -38.5 -194.5t-108 -123.5t-163.5 -43zM334 60q23 0 45 12t40 43t28.5 88.5t10.5 148.5q0 113 -16 174.5t-43.5 85.5t-62.5 24
q-23 0 -45 -12t-40 -43t-28.5 -88t-10.5 -148q0 -113 16 -175t44 -86t62 -24z" />
    <glyph glyph-name="P" unicode="P" horiz-adv-x="602" 
d="M49 0q-23 26 -23 64q34 0 48.5 11t14.5 39v470q0 28 -14.5 39.5t-48.5 11.5q0 17 6 33.5t16 29.5q98 0 157 3.5t101 3.5q106 0 168.5 -26t90 -76.5t27.5 -123.5q0 -65 -32.5 -118t-98 -83.5t-166.5 -30.5h-42v-88q0 -39 8.5 -59.5t32.5 -28t68 -7.5q0 -39 -22 -64h-291z
M279 327q47 0 74.5 14.5t41.5 37.5t18.5 50.5t4.5 52.5q0 38 -11.5 71t-39 53t-77.5 20q-22 0 -37 -4v-293q7 -1 13 -1.5t13 -0.5z" />
    <glyph glyph-name="Q" unicode="Q" horiz-adv-x="669" 
d="M605 -182q-47 0 -78.5 17.5t-57.5 36.5q-24 18 -48.5 32t-59.5 14q-36 0 -56.5 -5t-49.5 -23l-29 34q11 20 29 37t44 28q-87 8 -148 54.5t-93.5 124.5t-32.5 180q0 115 38 195.5t107.5 123.5t162.5 43q97 0 166.5 -45t107 -126.5t37.5 -190.5q0 -136 -54.5 -224
t-148.5 -120q29 -6 57.5 -18t52.5 -24.5t38 -20.5q14 -7 30 -10.5t34 -3.5q16 0 32.5 2.5t32.5 8.5q5 -6 9.5 -18t4.5 -20q0 -16 -13 -35.5t-41 -33t-73 -13.5zM334 60q23 0 45 12t40 43t28.5 88.5t10.5 148.5q0 113 -16 174.5t-43.5 85.5t-62.5 24q-23 0 -45 -12t-40 -43
t-28.5 -88t-10.5 -148q0 -113 16 -175t44 -86t62 -24z" />
    <glyph glyph-name="R" unicode="R" horiz-adv-x="653" 
d="M572 -7q-64 0 -98 21.5t-50 57.5t-28 79q-7 29 -17.5 60t-24.5 55t-34 31h-66v-183q0 -28 20 -39.5t49 -11.5q0 -36 -22 -63h-251q-23 28 -23 63q34 0 49.5 11.5t15.5 39.5v470q0 28 -16 39.5t-50 11.5q0 17 5 34t15 29q43 0 80 1.5t68 2.5q27 2 59.5 3t63.5 1
q104 0 165.5 -24t88.5 -67t27 -102q0 -146 -161 -179q44 -13 85.5 -62t62.5 -118q11 -37 28.5 -56t45.5 -23v-50q-13 -19 -37 -25.5t-50 -6.5zM298 366q61 0 94.5 38t33.5 99q0 62 -29 94.5t-94 32.5q-10 0 -25.5 -1t-23.5 -3v-258q7 -1 22 -1.5t22 -0.5z" />
    <glyph glyph-name="S" unicode="S" horiz-adv-x="589" 
d="M85 -15q-13 26 -23.5 72.5t-17 97.5t-6.5 91h100q16 -85 63.5 -133t110.5 -48q31 0 48.5 12.5t25.5 30.5t8 34q0 33 -22 57t-55.5 43.5t-67.5 35.5q-88 43 -139 98.5t-51 139.5q0 61 30 103.5t80.5 65.5t113.5 23q29 0 68.5 -6t64.5 -20l85 26q14 -23 19.5 -60.5t7 -77.5
t1.5 -73v-15h-83q-21 85 -59 115.5t-82 30.5q-41 0 -60.5 -23.5t-19.5 -58.5q0 -32 17.5 -54t45.5 -38.5t59 -32.5q34 -16 71 -36.5t68.5 -47.5t51 -64t19.5 -87q0 -55 -28 -100.5t-80 -73t-126 -27.5q-34 0 -74.5 7.5t-86.5 26.5z" />
    <glyph glyph-name="T" unicode="T" horiz-adv-x="638" 
d="M150 0q-22 25 -22 64q54 0 83.5 13t29.5 41v501h-22q-26 0 -51.5 -16t-44 -58.5t-25.5 -123.5q-12 1 -30 2t-34.5 3.5t-25.5 5.5q0 21 2 59t6 81t10.5 80.5t15.5 57.5q18 0 41 -3t41 -9h390q19 6 41 9t41 3q9 -20 15.5 -57.5t10.5 -80.5t6 -81t2 -59q-13 -5 -41.5 -8
t-48.5 -3q-6 81 -20 123.5t-37 58.5t-59 16h-17v-501q0 -54 106 -54q0 -39 -23 -64h-340z" />
    <glyph glyph-name="U" unicode="U" horiz-adv-x="671" 
d="M340 -13q-128 0 -203 70t-75 206v322q0 27 -14 38.5t-48 11.5q0 38 23 63h250q23 -25 23 -63q-34 0 -48 -11.5t-14 -38.5v-343q0 -67 29 -113t95 -46q45 0 71 19.5t37.5 52t11.5 71.5v359q0 27 -16.5 38.5t-54.5 11.5q0 18 5.5 34.5t16.5 28.5h220q22 -25 22 -63
q-38 0 -54.5 -11.5t-16.5 -38.5v-312q0 -138 -64.5 -212t-195.5 -74z" />
    <glyph glyph-name="V" unicode="V" horiz-adv-x="630" 
d="M276 -7l-233 595q-10 26 -29 36.5t-54 10.5q0 18 3.5 33t12.5 30h296q7 -12 12.5 -28.5t5.5 -34.5q-59 0 -59 -45q0 -5 2 -11t4 -13l84 -271l30 -110l30 108l80 276q2 6 3 11.5t1 9.5q0 20 -15 32.5t-44 12.5q0 18 3 33t13 30h232q9 -14 12.5 -29.5t3.5 -33.5
q-34 0 -54.5 -10t-29.5 -37l-170 -499q-17 -51 -40.5 -73.5t-68.5 -22.5h-31z" />
    <glyph glyph-name="W" unicode="W" horiz-adv-x="992" 
d="M226 -7l-177 595q-7 26 -21 36.5t-48 10.5q0 17 3 32.5t12 30.5h270q6 -12 11.5 -29t5.5 -34q-38 0 -49.5 -13.5t-11.5 -30.5l86 -323l16 -82l95 365q7 38 25 68t49 30h105l99 -381l22 -86l23 88l74 288q3 11 3 20q0 26 -19 41.5t-51 15.5q0 17 3 32.5t11 30.5h235
q8 -14 11.5 -30t3.5 -33q-34 0 -53.5 -10.5t-27.5 -36.5l-126 -458q-19 -70 -49.5 -103.5t-80.5 -33.5h-56l-92 322l-39 147l-32 -148l-51 -184q-19 -70 -47 -103.5t-78 -33.5h-54z" />
    <glyph glyph-name="X" unicode="X" horiz-adv-x="685" 
d="M25 0q-24 26 -24 64q41 0 60 11t38 38l168 230l-160 231q-22 32 -47.5 46.5t-54.5 14.5q0 38 22 63h295q24 -26 24 -63q-31 0 -43.5 -7.5t-12.5 -18.5q0 -8 5 -17.5t11 -19.5l75 -121l64 117q4 7 7 15.5t3 14.5q0 16 -14 26.5t-37 10.5q0 38 23 63h228q24 -26 24 -63
q-41 0 -60.5 -12t-37.5 -38l-147 -213l163 -246q18 -27 43 -44.5t57 -17.5q0 -39 -22 -64h-288q-24 26 -24 64q30 0 42 7.5t12 19.5q0 8 -4 17t-10 19l-79 128l-89 -128q-9 -13 -9 -26q0 -16 13 -26.5t36 -10.5q0 -39 -23 -64h-227z" />
    <glyph glyph-name="Y" unicode="Y" horiz-adv-x="661" 
d="M193 0q-22 25 -22 64q33 0 62.5 11t29.5 39v132l-199 345q-11 20 -32.5 32t-41.5 12q0 37 24 63h270q23 -25 23 -63q-60 0 -60 -39q0 -18 16 -50l96 -181l110 207q5 10 5 19q0 19 -18 31.5t-41 12.5q0 38 23 63h209q24 -26 24 -63q-25 0 -38 -4.5t-20.5 -15t-18.5 -30.5
l-174 -316v-155q0 -28 30.5 -39t65.5 -11q0 -39 -22 -64h-301z" />
    <glyph glyph-name="Z" unicode="Z" horiz-adv-x="616" 
d="M559 -16q-18 0 -37.5 4t-37.5 12h-452l-25 38l375 583h-108q-65 0 -93.5 -35t-39.5 -109h-99q0 68 9 128t25 93h489l25 -37l-363 -582h150q34 0 59 25t42.5 62t26.5 73h96q0 -12 -2.5 -38t-7 -58.5t-10 -64.5t-11.5 -57.5t-11 -36.5z" />
    <glyph glyph-name="bracketleft" unicode="[" horiz-adv-x="365" 
d="M70 -154v954h266q0 -20 -4 -35.5t-12 -33.5h-99v-816h99q8 -17 12 -33t4 -36h-266z" />
    <glyph glyph-name="backslash" unicode="\" horiz-adv-x="447" 
d="M321 -160l-276 853l81 31l277 -853z" />
    <glyph glyph-name="bracketright" unicode="]" horiz-adv-x="365" 
d="M29 -154q0 20 4 36t12 33h99v816h-99q-8 18 -12 33.5t-4 35.5h266v-954h-266z" />
    <glyph glyph-name="asciicircum" unicode="^" horiz-adv-x="890" 
d="M270 130q-26 5 -54 16.5t-38 32.5l223 519h87l223 -519q-10 -21 -38 -32.5t-54 -16.5l-174 429z" />
    <glyph glyph-name="underscore" unicode="_" horiz-adv-x="500" 
d="M-7 -182v111h516v-111h-516z" />
    <glyph glyph-name="grave" unicode="`" horiz-adv-x="339" 
d="M206 597q-20 0 -49 10.5t-60 28t-57.5 39t-43 45t-16.5 44.5q0 17 10.5 35.5t30.5 31.5t46 13q22 -41 54.5 -79.5t69 -69.5t68.5 -52q-3 -24 -18 -35t-35 -11z" />
    <glyph glyph-name="a" unicode="a" horiz-adv-x="537" 
d="M190 -7q-75 0 -121.5 41.5t-46.5 106.5t42.5 105t131.5 40q29 0 61 -5.5t52 -16.5v133q0 42 -21.5 58.5t-52.5 16.5q-33 0 -54 -16q20 -7 29 -21.5t9 -31.5q0 -33 -23.5 -52.5t-57.5 -19.5q-38 0 -61 22.5t-23 56.5t23 64.5t71.5 50.5t125.5 20q201 0 201 -159v-265
q0 -48 46 -58v-32q-13 -19 -44 -28.5t-60 -9.5q-68 0 -96 47q-20 -18 -53 -32.5t-78 -14.5zM255 74q14 0 29 4.5t25 11.5v97q-10 7 -25.5 12t-30.5 5q-26 0 -45 -16.5t-19 -51.5q0 -27 18 -44.5t48 -17.5z" />
    <glyph glyph-name="b" unicode="b" horiz-adv-x="569" 
d="M268 -11q-29 0 -67 4t-74 11.5t-60 19.5v622q0 23 -14 36t-47 13v32q23 16 55 28.5t64.5 20.5t53.5 8q24 0 34 -10.5t10 -35.5v-142l-3 -95q20 21 48 30t62 9q55 0 103 -28t78 -84.5t30 -144.5q0 -96 -37 -161.5t-99 -99t-137 -33.5zM271 62q27 0 49.5 17.5t35.5 58.5
t13 111q0 110 -31 158t-77 48q-22 0 -38 -11v-363q19 -19 48 -19z" />
    <glyph glyph-name="c" unicode="c" horiz-adv-x="465" 
d="M276 -15q-73 0 -128.5 33t-87 94.5t-31.5 147.5q0 89 34 152.5t93 97t133 33.5q77 0 117 -36.5t40 -89.5q0 -48 -24 -74t-62 -26q-31 0 -52 23t-21 56q0 24 8.5 39t21.5 25q-10 6 -16.5 7.5t-12.5 1.5q-19 0 -39 -15t-33.5 -53t-13.5 -106q0 -110 32 -154.5t90 -44.5
q27 0 54.5 8t46.5 23q8 -10 13.5 -24.5t5.5 -25.5q0 -21 -22.5 -42.5t-60.5 -35.5t-85 -14z" />
    <glyph glyph-name="d" unicode="d" horiz-adv-x="566" 
d="M235 -13q-54 0 -101.5 27.5t-76.5 83.5t-29 141q0 101 37.5 168t98 100t129.5 33q13 0 29 -1t32 -3l-3 60v50q0 23 -13 36t-54 13v41q25 14 59 25t67 17.5t53 6.5q23 0 33.5 -10.5t10.5 -35.5v-628q0 -49 48 -58l1 -28q-14 -19 -43 -28.5t-59 -9.5q-26 0 -55 11.5
t-41 35.5q-21 -28 -51.5 -37.5t-71.5 -9.5zM304 72q31 0 47 18v350q-21 29 -56 29q-27 0 -49 -18.5t-35 -61t-13 -115.5q0 -103 30.5 -152.5t75.5 -49.5z" />
    <glyph glyph-name="e" unicode="e" horiz-adv-x="505" 
d="M274 -9q-112 0 -178.5 71t-66.5 198q0 87 33 150.5t89.5 97.5t128.5 34q90 0 144.5 -52.5t54.5 -147.5q0 -38 -12.5 -66.5t-51.5 -28.5h-216q3 -79 36.5 -112t87.5 -33q34 0 63 10.5t54 29.5q9 -8 14.5 -24.5t5.5 -27.5q0 -16 -22.5 -39.5t-64 -41.5t-99.5 -18zM199 323
h101q17 0 21.5 13t4.5 32q0 64 -15.5 84.5t-36.5 20.5q-17 0 -34 -13t-28 -45.5t-13 -91.5z" />
    <glyph glyph-name="f" unicode="f" horiz-adv-x="360" 
d="M55 0q-23 23 -23 54q30 0 42.5 13t12.5 42v331h-61v62q22 5 35 12t24 15q-4 23 -6 42t-2 44q0 104 55 155.5t149 51.5q48 0 79 -19.5t46 -47.5t15 -53q0 -37 -19.5 -62t-52.5 -25q-30 0 -53 21.5t-23 49.5q0 12 5 27.5t25 30.5q-3 5 -10.5 8.5t-13.5 3.5q-16 0 -30 -15.5
t-22.5 -40.5t-8.5 -53q0 -30 5.5 -57t13.5 -43.5t14 -16.5h96q0 -22 -3 -47.5t-14 -42.5h-85v-322q0 -22 7 -36.5t28 -21t62 -6.5q0 -31 -23 -54h-264z" />
    <glyph glyph-name="g" unicode="g" horiz-adv-x="529" 
d="M245 164q-33 0 -63 7v-3q0 -25 19.5 -35t68.5 -14q127 -9 191.5 -46t64.5 -111q0 -39 -22 -73t-60.5 -59t-87.5 -39t-102 -14q-124 0 -180.5 44.5t-56.5 111.5q0 37 24.5 67t70.5 46q-22 16 -27.5 36t-5.5 44q0 16 13 35t40 29q-47 25 -73.5 69t-26.5 95t25 92.5t74 66.5
t122 25h1q9 0 27.5 -1t34.5 -4q69 0 105.5 1.5t55.5 3.5t37 5q11 0 16 -14.5t5 -27.5q0 -19 -9 -32t-30 -13q-9 0 -33 10t-46 18q34 -27 51.5 -62t17.5 -66q0 -94 -64 -143t-177 -49zM262 230q33 0 46.5 35t13.5 103q0 56 -15.5 80t-44.5 24q-33 0 -46 -34.5t-13 -94.5
q0 -55 14 -84t45 -29zM168 -41q0 -42 26 -71t93 -29q50 0 70 24t20 53q0 23 -20.5 36t-54.5 21t-76 15q-25 4 -45 9q-7 -13 -10 -28.5t-3 -29.5z" />
    <glyph glyph-name="h" unicode="h" horiz-adv-x="602" 
d="M473 -6q-49 0 -75 15t-26 48v322q0 32 -18 49.5t-47 17.5q-19 0 -40.5 -12.5t-32.5 -33.5v-292q0 -29 12.5 -41.5t42.5 -12.5q0 -31 -23 -54h-221q-23 23 -23 54q30 0 42.5 12.5t12.5 41.5v542q0 23 -13 36t-54 13v41q25 13 58.5 24t67 17.5t55.5 6.5q23 0 33 -10.5
t10 -35.5v-197l-2 -80q26 33 67 56t93 23q142 0 142 -148v-280q0 -51 48 -60l1 -29q-36 -33 -110 -33z" />
    <glyph glyph-name="i" unicode="i" horiz-adv-x="312" 
d="M159 613q-43 0 -68.5 25.5t-25.5 68.5q0 42 26.5 68t69.5 26q44 0 69.5 -26t25.5 -68q0 -43 -26.5 -68.5t-70.5 -25.5zM47 0q-11 11 -17 24t-6 30q29 0 43 12.5t14 42.5v290q0 26 -12.5 39t-53.5 13v44q15 9 46 20.5t67.5 19.5t65.5 8q23 0 33 -10.5t10 -35.5v-389
q0 -30 15 -42t44 -12q0 -17 -6 -30t-17 -24h-226z" />
    <glyph glyph-name="j" unicode="j" horiz-adv-x="300" 
d="M159 613q-43 0 -68.5 25.5t-25.5 68.5q0 42 26.5 68t69.5 26q44 0 69.5 -26t25.5 -68q0 -43 -26.5 -68.5t-70.5 -25.5zM84 -195q-46 0 -67.5 17.5t-21.5 36.5q0 7 3 16t6 13q39 0 61 23.5t22 85.5v405q0 23 -12.5 36t-53.5 13v45q25 13 59 23.5t67 17t54 6.5
q24 0 33.5 -10t9.5 -35v-508q0 -63 -22 -104t-58 -61t-80 -20z" />
    <glyph glyph-name="k" unicode="k" horiz-adv-x="585" 
d="M493 -10q-55 0 -88 23.5t-53.5 59.5t-36.5 73q-16 38 -34 69t-47 42v-153q0 -29 12.5 -41.5t43.5 -12.5q0 -16 -6.5 -29t-17.5 -24h-220q-24 21 -24 53q30 0 42.5 12.5t12.5 41.5v542q0 23 -13 36.5t-54 13.5v40q25 13 58.5 24t66.5 18t54 7q24 0 34.5 -10.5t10.5 -36.5
v-445l110 114q6 6 12.5 14.5t6.5 15.5q0 14 -21.5 26t-41.5 12q0 36 23 61h225q12 -12 15.5 -28t3.5 -33q-27 0 -40.5 -8.5t-24.5 -18.5l-152 -150q37 -6 62 -24t47 -57q31 -55 48.5 -86.5t33 -47.5t41.5 -25l1 -24q-3 -21 -28 -32.5t-62 -11.5z" />
    <glyph glyph-name="l" unicode="l" horiz-adv-x="319" 
d="M52 0q-11 12 -17 25t-6 29q29 0 42 12.5t13 42.5v531q0 23 -13 36.5t-55 13.5v40q25 14 58.5 24.5t66.5 17t55 6.5q23 0 33.5 -10t10.5 -35v-624q0 -31 12.5 -43t42.5 -12q0 -16 -6.5 -29t-17.5 -25h-219z" />
    <glyph glyph-name="m" unicode="m" horiz-adv-x="906" 
d="M764 -6q-37 0 -63.5 10.5t-26.5 41.5v333q0 32 -17.5 49.5t-46.5 17.5q-16 0 -32.5 -6t-29.5 -18q1 -4 1 -7.5v-7.5v-299q0 -29 12 -41.5t38 -12.5q0 -16 -6.5 -29.5t-17.5 -24.5h-213q-10 11 -16.5 24.5t-6.5 29.5q26 0 36.5 12.5t10.5 41.5v271q0 32 -18.5 49.5
t-44.5 17.5q-19 0 -39 -9t-34 -26v-303q0 -29 10.5 -41.5t35.5 -12.5q0 -31 -24 -54h-217q-11 11 -17.5 24.5t-6.5 29.5q30 0 43 12.5t13 41.5v293q0 26 -14.5 38t-52.5 12v44q23 14 58.5 25t69 17.5t51.5 6.5q20 0 33.5 -12.5t17.5 -51.5q26 29 65.5 46.5t89.5 17.5
q100 0 130 -67q26 32 67.5 49.5t92.5 17.5q72 0 107.5 -35t35.5 -102v-299q0 -23 13 -35t36 -17v-29q-18 -16 -47 -24.5t-76 -8.5z" />
    <glyph glyph-name="n" unicode="n" horiz-adv-x="611" 
d="M55 0q-11 11 -17.5 24t-6.5 29q30 0 43 13t13 42v292q0 26 -14.5 38t-52.5 12v45q23 13 58.5 24t69 17.5t51.5 6.5q21 0 34.5 -13t15.5 -56q25 31 63.5 50t89.5 19q70 0 105.5 -35.5t35.5 -120.5v-273q0 -49 48 -58l1 -29q-10 -10 -32 -17.5t-47.5 -11.5t-47.5 -4
q-43 0 -63.5 16t-20.5 51v312q0 41 -18 57t-44 16q-41 0 -69 -33v-305q0 -29 12.5 -42t42.5 -13q0 -30 -23 -53h-227z" />
    <glyph glyph-name="o" unicode="o" horiz-adv-x="552" 
d="M271 -13q-71 0 -126 30.5t-85.5 90t-30.5 147.5q0 94 32 158t89 97t131 33q72 0 126.5 -31t85 -91.5t30.5 -149.5q0 -93 -32 -156.5t-89 -95.5t-131 -32zM279 59q21 0 36.5 15t24 55.5t8.5 117.5q0 94 -9 142.5t-26 65.5t-40 17q-21 0 -37 -15t-24.5 -56t-8.5 -119
q0 -93 9.5 -141t26.5 -65t40 -17z" />
    <glyph glyph-name="p" unicode="p" horiz-adv-x="568" 
d="M50 -190q-11 11 -17.5 24t-6.5 29q30 0 38.5 13t8.5 42v479q0 26 -14.5 38t-52.5 12v45q22 13 52.5 24t59.5 17.5t46 6.5q20 0 33.5 -8t19.5 -32q23 22 54.5 31t66.5 9q53 0 99 -27.5t74.5 -82.5t28.5 -140q0 -95 -36.5 -162.5t-98 -103t-136.5 -35.5q-8 0 -18 0.5
t-21 1.5v-73q0 -29 21 -42t43 -13q0 -30 -23 -53h-221zM268 62q41 0 70 48t29 156q0 69 -14.5 109.5t-39.5 58t-55 17.5q-16 0 -28 -6v-373q17 -10 38 -10z" />
    <glyph glyph-name="q" unicode="q" horiz-adv-x="561" 
d="M430 -218q-37 0 -62 10.5t-25 41.5v190q-19 -19 -46 -28t-59 -9q-55 0 -103 27.5t-77.5 83.5t-29.5 141q0 96 36 163t97 102.5t135 35.5q30 0 60 -5.5t58 -14.5q11 2 21 3.5t22 1.5h63q12 -11 18 -27t6 -33q-30 0 -36 -13t-6 -43v-512q0 -24 13 -36.5t36 -17.5v-27
q-18 -16 -46 -25t-75 -9zM307 74q11 0 20 2.5t16 6.5v372q-19 13 -46 13t-49 -18t-35 -60.5t-13 -116.5q0 -103 31 -151t76 -48z" />
    <glyph glyph-name="r" unicode="r" horiz-adv-x="450" 
d="M50 0q-11 11 -17 24t-6 30q29 0 41.5 12.5t12.5 42.5v289q0 26 -14 37.5t-52 11.5v45q24 14 57 24.5t65 17t50 6.5q23 0 33.5 -16t10.5 -69q11 21 32.5 41.5t48.5 33.5t56 13q47 0 67 -24t20 -62q0 -43 -22 -70t-61 -27q-34 0 -54 19.5t-20 44.5q0 16 3 25
q-16 -4 -31 -10.5t-30 -20.5v-300q0 -23 7 -37t27.5 -20.5t61.5 -6.5q0 -17 -4 -30t-15 -24h-267z" />
    <glyph glyph-name="s" unicode="s" horiz-adv-x="475" 
d="M231 -10q-36 0 -72.5 8t-67 23t-49.5 37.5t-19 51.5q0 35 20 56.5t51 21.5q28 0 47.5 -18t19.5 -47q0 -13 -4 -22.5t-12 -20.5q9 -9 32 -13t45 -4q35 0 54 13t19 32q0 30 -32 51.5t-73 43.5q-37 20 -73.5 42.5t-61 56.5t-24.5 86q0 66 55 109t156 43q70 0 112 -17.5
t61 -44t19 -55.5q0 -31 -19.5 -49.5t-47.5 -18.5q-25 0 -44 15.5t-19 40.5q0 12 4 26t11 23q-11 9 -25.5 12.5t-34.5 3.5q-33 0 -50.5 -15.5t-17.5 -37.5q0 -34 32.5 -56t72.5 -43q37 -19 72.5 -41t59.5 -55t24 -85q0 -56 -32 -89.5t-82.5 -48.5t-106.5 -15z" />
    <glyph glyph-name="t" unicode="t" horiz-adv-x="377" 
d="M228 -7q-42 0 -77 15.5t-56.5 53.5t-21.5 104v275h-63v61q27 4 51 34t41.5 74t22.5 88q18 3 33 3q40 0 55.5 -23t15.5 -43v-105h116q0 -24 -2.5 -47.5t-13.5 -41.5h-98v-282q0 -32 13 -42.5t33 -10.5t40.5 10.5t32.5 24.5q11 -9 15 -26.5t4 -26.5q0 -22 -15 -44
t-46.5 -36.5t-79.5 -14.5z" />
    <glyph glyph-name="u" unicode="u" horiz-adv-x="572" 
d="M216 -7q-70 0 -109 43t-39 116v275q0 17 -13 24t-36 7v44q13 11 54.5 23.5t93.5 12.5q39 0 51.5 -9t12.5 -44v-336q0 -30 10 -46t35 -16q21 0 40.5 13t32.5 30v297q0 17 -15 24t-41 7v44q14 11 55 23.5t97 12.5q39 0 53 -9t14 -44v-368q0 -24 12.5 -40t35.5 -18v-28
q-16 -19 -50.5 -28.5t-66.5 -9.5q-33 0 -57.5 17.5t-32.5 50.5q-49 -68 -137 -68z" />
    <glyph glyph-name="v" unicode="v" horiz-adv-x="528" 
d="M187 -7l-158 426q-10 27 -21 39.5t-37 12.5q0 16 5 32.5t16 27.5h228q11 -11 17 -27.5t6 -32.5q-20 0 -33.5 -11t-13.5 -34q0 -4 1.5 -10t2.5 -11l41 -136l46 -175l46 175l39 136q2 6 3 12.5t1 11.5q0 21 -14 31.5t-38 10.5q0 16 4 32.5t15 27.5h194q11 -11 15.5 -27.5
t4.5 -32.5q-26 0 -38.5 -12.5t-21.5 -39.5l-104 -319q-16 -55 -36.5 -81t-65.5 -26h-104z" />
    <glyph glyph-name="w" unicode="w" horiz-adv-x="796" 
d="M165 -7l-136 426q-9 27 -20.5 39.5t-37.5 12.5q0 16 5 32.5t16 27.5h225q11 -11 17 -27.5t6 -32.5q-20 0 -33.5 -11t-13.5 -34q0 -4 1.5 -10t2.5 -11l26 -136l30 -141l44 141l29 104q12 47 26.5 79.5t50.5 32.5h77l52 -215l44 -138l22 138l33 141q4 15 4 27q0 33 -40 33
q0 16 4 32.5t15 27.5h191q12 -11 16 -27.5t4 -32.5q-28 0 -43.5 -9.5t-23.5 -36.5l-89 -323q-10 -39 -21 -63t-28.5 -35t-50.5 -11h-79l-94 300l-54 -193q-13 -49 -27 -74.5t-48 -31.5v-1h-102z" />
    <glyph glyph-name="x" unicode="x" horiz-adv-x="541" 
d="M15 0q-11 11 -18 26.5t-7 31.5q22 3 45 19t37 35l121 148l-115 150q-11 11 -21 25.5t-22 25t-31 10.5q0 17 4 33.5t17 26.5h223q13 -10 16.5 -26.5t3.5 -33.5q-33 0 -33 -21q0 -7 3 -16t11 -20l51 -70l42 53q14 38 14 47q0 14 -10 20.5t-21 6.5q0 17 4 33.5t16 26.5h173
q13 -10 17 -26.5t4 -33.5q-25 0 -45 -11.5t-42 -39.5l-110 -132l120 -166q20 -28 39.5 -46t41.5 -18q0 -16 -4.5 -31.5t-15.5 -26.5h-239q-12 11 -16.5 26.5t-4.5 31.5q20 0 30 8t10 20q0 16 -11 32l-57 76l-53 -71q-11 -15 -11 -29q0 -16 12 -26t34 -10q0 -16 -4.5 -31.5
t-15.5 -26.5h-182z" />
    <glyph glyph-name="y" unicode="y" horiz-adv-x="530" 
d="M161 -211q-62 0 -93 26t-31 62q0 24 11.5 43t29.5 27q27 -32 80 -32q30 0 61.5 29.5t52.5 92.5h-82l-154 374q-12 29 -21 44t-40 15q0 17 5 33t16 28h236q24 -26 24 -61q-25 0 -35.5 -13t-10.5 -33q0 -7 1 -15.5t4 -17.5l93 -271l66 284q3 14 3 24q0 42 -49 42q0 17 4 33
t15 28h193q11 -12 15.5 -28t4.5 -33q-25 0 -38.5 -12t-22.5 -40l-114 -355q-44 -142 -94.5 -208t-129.5 -66z" />
    <glyph glyph-name="z" unicode="z" horiz-adv-x="507" 
d="M36 0l-28 38l248 372l48 53h-84q-47 0 -68 -26t-21 -86h-80q-13 36 -14.5 83t-2.5 96h425l30 -41l-229 -358l-60 -63h66q51 0 79 16t42 44.5t24 67.5h75v-35q0 -39 -4 -82.5t-22 -78.5h-424z" />
    <glyph glyph-name="braceleft" unicode="{" horiz-adv-x="490" 
d="M394 -154q-141 0 -207.5 70.5t-66.5 193.5v95q0 41 -24 68t-52 27v49q28 0 52 27t24 69v94q0 123 66.5 193.5t207.5 70.5h55q0 -33 -16 -62h-36q-52 0 -82 -30t-30 -110v-123q0 -54 -31 -91.5t-93 -61.5q62 -25 93 -62.5t31 -91.5v-123q0 -80 30 -109.5t82 -29.5h36
q16 -31 16 -63h-55z" />
    <glyph glyph-name="bar" unicode="|" horiz-adv-x="112" 
d="M65 -258q-28 0 -49 8v964q12 6 31 6q14 0 27 -2.5t22 -6.5v-964q-6 -3 -14 -4t-17 -1z" />
    <glyph glyph-name="braceright" unicode="}" horiz-adv-x="490" 
d="M41 -154q0 32 16 63h36q52 0 82 29.5t30 109.5v123q0 54 31.5 91.5t92.5 62.5q-61 24 -92.5 61.5t-31.5 91.5v123q0 80 -30 110t-82 30h-36q-16 29 -16 62h55q141 0 207.5 -70.5t66.5 -193.5v-94q0 -42 24 -69t52 -27v-49q-28 0 -52 -27t-24 -68v-95q0 -123 -66.5 -193.5
t-207.5 -70.5h-55z" />
    <glyph glyph-name="asciitilde" unicode="~" horiz-adv-x="628" 
d="M405 213q-36 0 -61.5 11t-46 26t-39.5 26t-42 11q-22 0 -46 -11.5t-53 -40.5q-10 -7 -28 2t-30.5 26.5t-7.5 34.5q8 25 33.5 50.5t62 42.5t76.5 17q41 0 68.5 -11t48 -25.5t37.5 -25.5t35 -11q22 0 46.5 12t52.5 40q11 8 28.5 -1.5t30 -27t7.5 -35.5q-7 -24 -30 -49.5
t-59.5 -43t-82.5 -17.5z" />
    <glyph glyph-name="uni00A0" unicode="&#xa0;" horiz-adv-x="190" 
 />
    <glyph glyph-name="exclamdown" unicode="&#xa1;" horiz-adv-x="272" 
d="M136 331q-46 0 -73.5 27t-27.5 71q0 45 27.5 72.5t73.5 27.5t73.5 -27.5t27.5 -72.5q0 -44 -27.5 -71t-73.5 -27zM115 -272q-34 0 -52.5 16t-18.5 52v10t1 11l50 391h82l49 -391q1 -6 1.5 -11t0.5 -10q0 -36 -18.5 -52t-51.5 -16h-43z" />
    <glyph glyph-name="cent" unicode="&#xa2;" horiz-adv-x="495" 
d="M279 -260q-21 0 -40 8v117q-90 15 -144 85.5t-54 184.5t55.5 186t142.5 91v137q6 3 12.5 4t13.5 1q20 0 39 -9v-126q76 0 113.5 -31t37.5 -81q0 -46 -24 -71t-62 -25q-34 0 -55 21t-21 51q0 20 10 34t23 23q-10 6 -17 7t-13 1q-19 0 -39 -16t-33.5 -54.5t-13.5 -106.5
q0 -76 15 -119.5t43.5 -61.5t66.5 -18q56 0 96 29q8 -9 13 -23.5t5 -25.5q0 -18 -17 -38t-49.5 -35t-78.5 -17v-117q-5 -3 -11.5 -4t-13.5 -1z" />
    <glyph glyph-name="sterling" unicode="&#xa3;" horiz-adv-x="632" 
d="M60 5q-10 11 -19.5 21.5t-9.5 27.5q64 41 87.5 93t23.5 109q0 18 -2 34t-5 32h-78v68h58q-12 35 -22.5 69.5t-10.5 72.5q0 56 27.5 100t84 70t143.5 26q85 0 137 -23.5t75.5 -59t23.5 -72.5q0 -40 -24.5 -69t-66.5 -29q-34 0 -58.5 20.5t-24.5 54.5q0 26 13.5 44.5
t32.5 26.5q-14 19 -38 27.5t-51 8.5q-46 0 -72.5 -26t-26.5 -83q0 -30 6 -73t11 -85h138q0 -19 -2.5 -36.5t-16.5 -31.5h-113v-12q0 -58 -22.5 -112.5t-67.5 -92.5q36 15 74 22.5t73 7.5h46q37 0 58.5 12.5t32.5 33t15.5 43.5t8.5 44h48q18 -3 32 -18.5t22 -35.5t8 -39
q0 -47 -23 -85.5t-67 -61t-107 -22.5q-37 0 -71.5 7t-67.5 14t-69 7q-37 0 -76 -9t-67 -20z" />
    <glyph glyph-name="currency" unicode="&#xa4;" horiz-adv-x="681" 
d="M116 0q-16 10 -33.5 27t-25.5 30l98 94q-20 28 -31.5 61.5t-11.5 70.5t11.5 70.5t31.5 61.5l-97 93q9 17 26 34t30 24l94 -98q28 20 61.5 31t70.5 11q73 0 131 -42l94 98q15 -9 31.5 -25t26.5 -33l-97 -93q20 -28 31 -61.5t11 -70.5t-11 -70t-31 -61l97 -94
q-9 -15 -25 -31t-33 -27l-93 98q-28 -19 -61.5 -30.5t-70.5 -11.5q-73 0 -131 42zM340 137q40 0 73 20t53 53t20 73t-20 73t-53 53t-73 20t-73 -20t-53 -53t-20 -73t20 -73t53 -53t73 -20z" />
    <glyph glyph-name="yen" unicode="&#xa5;" horiz-adv-x="808" 
d="M282 30q-23 26 -23 64q33 0 55.5 11t22.5 39v32h-211v69h211v80l-20 30h-191v69h155l-143 196q-12 16 -35 30.5t-43 14.5q0 37 23 63h300q24 -26 24 -63q-67 0 -67 -45q0 -9 2 -21t11 -24l90 -126l96 152q3 5 3.5 11t0.5 10q0 18 -13.5 30.5t-36.5 12.5q0 37 23 63h208
q24 -26 24 -63q-41 0 -58.5 -14.5t-26.5 -35.5l-118 -191h182q0 -42 -27 -69h-194l-11 -18v-92h232q0 -40 -27 -69h-205v-32q0 -28 22.5 -39t56.5 -11q0 -39 -23 -64h-269z" />
    <glyph glyph-name="brokenbar" unicode="&#xa6;" horiz-adv-x="112" 
d="M16 302v413q12 6 31 6q14 0 26.5 -2.5t22.5 -6.5v-410h-80zM65 -257q-28 0 -49 8v411h80v-414q-6 -3 -14 -4t-17 -1z" />
    <glyph glyph-name="section" unicode="&#xa7;" horiz-adv-x="625" 
d="M99 -265q-7 29 -12.5 70t-8.5 83.5t-3 73.5h91q21 -85 58.5 -120.5t82.5 -35.5q37 0 63.5 20.5t26.5 58.5q0 33 -19.5 58t-50.5 45t-64 38q-36 20 -73 42t-68.5 50t-50.5 63.5t-19 81.5q0 125 137 154q-52 37 -81 81t-29 103q0 65 33 106t86.5 60t114.5 19q55 0 85.5 -11
t53.5 -24l67 35q8 -22 13 -55t8 -69.5t3 -69.5v-16.5t-1 -16.5h-90q-19 78 -50.5 117t-83.5 39q-40 0 -64.5 -21.5t-24.5 -56.5q0 -32 20 -57.5t51 -45.5t64 -38q36 -19 73 -41.5t68 -50t50 -63t19 -82.5q0 -64 -35.5 -101t-105.5 -50q54 -37 84.5 -82t30.5 -105
q0 -66 -34 -107t-88 -60t-115 -19q-49 0 -83 10.5t-62 24.5zM372 145q28 10 39 31t11 41q0 34 -22.5 60.5t-56.5 48t-70 40.5l-18 10q-28 -10 -39.5 -30.5t-11.5 -41.5q0 -34 19.5 -59t57.5 -48t91 -52z" />
    <glyph glyph-name="dieresis" unicode="&#xa8;" horiz-adv-x="466" 
d="M355 613q-40 0 -60 28.5t-20 66.5t20 65.5t60 27.5q41 0 61 -27t20 -65t-20 -67t-61 -29zM111 613q-40 0 -60.5 28.5t-20.5 66.5t20.5 65.5t60.5 27.5t60 -27t20 -65t-20 -67t-60 -29z" />
    <glyph glyph-name="copyright" unicode="&#xa9;" horiz-adv-x="872" 
d="M436 3q-79 0 -145.5 27t-115 75.5t-75 115t-26.5 144.5t26.5 144t75 114.5t115 75.5t145.5 27q80 0 146 -27t114.5 -75.5t75 -114.5t26.5 -144t-26.5 -144.5t-75 -115t-114.5 -75.5t-146 -27zM436 67q89 0 156 39t104.5 106.5t37.5 152.5t-37.5 152.5t-104.5 106.5
t-156 39q-88 0 -155 -39t-104.5 -106.5t-37.5 -152.5t37.5 -152.5t104.5 -106.5t155 -39zM449 152q-52 0 -94 24.5t-66.5 71.5t-24.5 116q0 72 25.5 118.5t66 69t85.5 22.5q20 0 34.5 -4t26.5 -10q9 4 24.5 8t24.5 5q8 -20 11.5 -46.5t4.5 -53t1 -46.5h-51q-5 40 -25.5 59.5
t-46.5 19.5q-29 0 -49.5 -25t-20.5 -90q0 -82 33 -118.5t76 -36.5q26 0 45 10t26 22q7 -7 11 -20t4 -23q0 -24 -31 -48.5t-90 -24.5z" />
    <glyph glyph-name="ordfeminine" unicode="&#xaa;" horiz-adv-x="459" 
d="M167 387q-56 0 -91.5 32t-35.5 80q0 47 35.5 78.5t96.5 31.5q22 0 43.5 -4t35.5 -12v98q0 29 -12.5 40.5t-33.5 11.5q-11 0 -21.5 -2.5t-18.5 -9.5q28 -12 28 -40q0 -23 -17.5 -37t-43.5 -14q-30 0 -48 18t-18 44q0 36 39.5 67t124.5 31q153 0 153 -118v-200
q0 -35 35 -43l1 -24q-11 -13 -35 -20.5t-48 -7.5q-54 0 -75 35q-16 -15 -39 -25t-55 -10zM216 452q10 0 19.5 3t15.5 9v67q-7 5 -16.5 9t-20.5 4q-16 0 -29 -11t-13 -34q0 -22 12.5 -34.5t31.5 -12.5z" />
    <glyph glyph-name="guillemotleft" unicode="&#xab;" horiz-adv-x="562" 
d="M212 107l-185 189v61l185 187q15 -6 27.5 -15.5t20.5 -26.5l-87 -176l87 -176q-8 -16 -20.5 -26t-27.5 -17zM483 107l-195 189v61l195 187q15 -6 27.5 -15.5t20.5 -26.5l-95 -176l95 -176q-8 -16 -20.5 -26t-27.5 -17z" />
    <glyph glyph-name="logicalnot" unicode="&#xac;" horiz-adv-x="629" 
d="M67 279q-4 9 -5.5 22.5t-1.5 27.5q0 15 2 29t6 23h500v-274q-10 -4 -24.5 -5.5t-29.5 -1.5q-16 0 -29.5 2t-23.5 5v172h-394z" />
    <glyph glyph-name="registered" unicode="&#xae;" horiz-adv-x="872" 
d="M436 3q-79 0 -145.5 27t-115 75.5t-75 115t-26.5 144.5t26.5 144t75 114.5t115 75.5t145.5 27q80 0 146 -27t114.5 -75.5t75 -114.5t26.5 -144t-26.5 -144.5t-75 -115t-114.5 -75.5t-146 -27zM436 67q89 0 156 39t104.5 106.5t37.5 152.5t-37.5 152.5t-104.5 106.5
t-156 39q-88 0 -155 -39t-104.5 -106.5t-37.5 -152.5t37.5 -152.5t104.5 -106.5t155 -39zM278 177q-12 17 -12 43q34 0 34 27v235q0 27 -34 27q0 13 3.5 24t8.5 19q23 2 54.5 4.5t67.5 2.5q74 0 114.5 -12.5t56.5 -36.5t16 -57q0 -35 -16.5 -63t-59.5 -44q10 -7 20 -18
t22 -29q16 -22 27 -38.5t24.5 -28.5t35.5 -21v-19q-20 -23 -61 -23q-43 0 -67 19t-38 46t-27 54t-34 43h-7v-84q0 -15 11.5 -21t29.5 -6q0 -25 -13 -43h-156zM417 385q60 0 60 61q0 25 -12.5 40t-51.5 15h-7v-114q4 -2 11 -2z" />
    <glyph glyph-name="macron" unicode="&#xaf;" horiz-adv-x="386" 
d="M36 617q-3 8 -4.5 22.5t-1.5 26.5q0 14 1.5 29t5.5 22h313q3 -8 4.5 -23t1.5 -28t-1.5 -27.5t-3.5 -21.5h-315z" />
    <glyph glyph-name="degree" unicode="&#xb0;" horiz-adv-x="412" 
d="M205 503q-79 0 -123.5 45.5t-44.5 113.5q0 71 46.5 115.5t122.5 44.5q80 0 124.5 -46t44.5 -114q0 -70 -46.5 -114.5t-123.5 -44.5zM206 556q19 0 34 21t15 85q0 62 -14.5 84.5t-34.5 22.5q-19 0 -35 -21t-16 -86q0 -62 16 -84t35 -22z" />
    <glyph glyph-name="plusminus" unicode="&#xb1;" horiz-adv-x="629" 
d="M58 0q-4 11 -6 26t-2 29q0 18 2.5 34t7.5 25h511q5 -10 6.5 -26t1.5 -33q0 -16 -1.5 -31t-6.5 -24h-513zM58 307q-4 11 -6 26t-2 29q0 18 2.5 34t7.5 25h197v199q11 5 26.5 7t31.5 2q17 0 32 -2t24 -7v-199h200q5 -10 6.5 -26t1.5 -33q0 -16 -1.5 -31t-6.5 -24h-200v-199
q-10 -4 -25 -6t-30 -2q-16 0 -32.5 2t-26.5 7v198h-199z" />
    <glyph glyph-name="uni00B2" unicode="&#xb2;" horiz-adv-x="427" 
d="M136 549q-22 0 -43.5 -2.5t-39.5 -8.5l-23 14q11 52 45.5 90.5t72.5 69.5q39 32 68.5 61.5t29.5 74.5q0 35 -19.5 55t-48.5 20q-19 0 -36 -8.5t-26 -25.5q17 -5 25.5 -18t8.5 -27q0 -20 -16.5 -33t-39.5 -13q-26 0 -44 15t-18 41q0 48 45.5 79.5t122.5 31.5
q47 0 85.5 -14.5t61.5 -42t23 -67.5t-22.5 -67t-57 -47.5t-71.5 -41.5q-30 -17 -59 -35t-48 -40q47 16 95 16h47q33 0 59 13.5t33 36.5h15q11 -7 18.5 -22.5t7.5 -33.5t-9 -36.5t-33.5 -31.5t-69.5 -13q-17 0 -32 1.5t-30 3.5q-33 5 -77 5z" />
    <glyph glyph-name="uni00B3" unicode="&#xb3;" horiz-adv-x="418" 
d="M187 533q-68 0 -112.5 23.5t-44.5 64.5q0 26 14.5 37.5t36.5 11.5t35 -11t13 -26q0 -7 -3 -15.5t-14 -15.5q20 -18 63 -18q38 0 61 19t23 50q0 30 -22 51.5t-65 21.5h-18l-13 37q41 11 60.5 25.5t25.5 32t6 34.5q0 30 -16 49t-45 19q-16 0 -30 -7.5t-23 -18.5
q8 -3 15 -12t7 -20q0 -13 -12 -25t-36 -12q-25 0 -38 13.5t-13 34.5q0 27 20.5 47t55 31t75.5 11q68 0 112 -27t44 -71q0 -37 -21 -61.5t-65 -41.5q54 -8 84.5 -36.5t30.5 -71.5q0 -36 -24.5 -63.5t-67.5 -43.5t-99 -16z" />
    <glyph glyph-name="acute" unicode="&#xb4;" horiz-adv-x="339" 
d="M113 611q-19 0 -34.5 11t-18.5 35q32 21 68 52t69 69.5t55 79.5q27 0 46.5 -13t30 -31.5t10.5 -35.5q0 -27 -25 -56t-62 -54.5t-75 -41t-64 -15.5z" />
    <glyph glyph-name="uni00B5" unicode="&#xb5;" horiz-adv-x="959" 
d="M184 -396l10 392v395q0 25 28.5 37.5t62.5 12.5q35 0 63.5 -13t28.5 -39v-406q0 -34 19 -52t45 -18q25 0 47 14t37 35v429q0 25 28.5 37.5t62.5 12.5q35 0 64 -13t29 -39v-437q0 -40 28 -40q12 0 26 7l30 -36q-33 -46 -68.5 -61t-66.5 -15q-42 0 -78 20t-49 58
q-29 -40 -66.5 -59t-73.5 -19q-27 0 -47.5 8.5t-36.5 21.5l18 -152q0 -4 0.5 -7t0.5 -6q0 -31 -19 -49.5t-54 -18.5h-69z" />
    <glyph glyph-name="paragraph" unicode="&#xb6;" horiz-adv-x="790" 
d="M203 38q-12 12 -17.5 29t-5.5 35q45 0 69 7.5t32.5 28t8.5 59.5v195q-12 -5 -30.5 -7t-29.5 -2q-54 0 -90 28.5t-54 78.5t-18 114q0 41 7.5 80.5t31.5 71t72.5 50.5t130.5 19q21 0 51.5 -3t64.5 -6t62 -3h215q11 -12 17 -29t6 -34q-33 0 -47.5 -12t-14.5 -39v-547
q0 -28 14.5 -39t47.5 -11q0 -39 -23 -64h-176v652q0 28 -7 39.5t-40 11.5q-34 0 -43.5 -11.5t-9.5 -39.5v-652h-224z" />
    <glyph glyph-name="periodcentered" unicode="&#xb7;" horiz-adv-x="255" 
d="M128 233q-46 0 -74 27.5t-28 71.5q0 45 28 72t74 27q45 0 73 -27t28 -72q0 -44 -28 -71.5t-73 -27.5z" />
    <glyph glyph-name="cedilla" unicode="&#xb8;" horiz-adv-x="362" 
d="M361 -300q-51 0 -87 13.5t-52 28.5q0 15 7.5 29.5t16.5 22.5q48 -34 98 -34q29 0 42 13.5t13 35.5q0 20 -9.5 33t-35.5 13q-7 0 -15.5 -1t-22.5 -5l-43 21l66 182h69l-39 -144q24 8 55 8q34 0 56 -14t33 -35.5t11 -43.5q0 -29 -18.5 -57.5t-54.5 -47t-90 -18.5z" />
    <glyph glyph-name="uni00B9" unicode="&#xb9;" horiz-adv-x="350" 
d="M63 546q-8 5 -12.5 24.5t-4.5 26.5q39 0 64.5 9.5t25.5 40.5v200q0 8 -8 24t-26 16q-10 0 -23.5 -2.5t-23.5 -5.5l-17 50l51 13q15 4 38.5 9.5t44.5 10t27 4.5q23 0 31 -11t8 -22v-286q0 -31 24 -40.5t58 -9.5q0 -7 -3.5 -26.5t-11.5 -24.5h-242z" />
    <glyph glyph-name="ordmasculine" unicode="&#xba;" horiz-adv-x="447" 
d="M220 384q-80 0 -130 52t-50 146q0 67 23.5 115.5t66 75.5t97.5 27q80 0 130 -50t50 -144q0 -66 -23.5 -116t-65.5 -78t-98 -28zM226 439q23 0 34.5 34.5t11.5 115.5q0 65 -6 98.5t-17 46t-28 12.5q-22 0 -34 -33t-12 -113q0 -64 6 -99t17.5 -48.5t27.5 -13.5z" />
    <glyph glyph-name="guillemotright" unicode="&#xbb;" horiz-adv-x="564" 
d="M352 106q-15 7 -27.5 17t-20.5 26l87 176l-87 176q8 17 20.5 26.5t27.5 15.5l185 -187v-61zM79 106q-15 7 -27.5 17t-20.5 26l95 176l-95 176q8 17 20.5 26.5t27.5 15.5l195 -187v-61z" />
    <glyph glyph-name="onequarter" unicode="&#xbc;" horiz-adv-x="887" 
d="M63 384q-8 5 -12.5 24.5t-4.5 26.5q39 0 64.5 9.5t25.5 40.5v200q0 8 -8 24t-26 16q-10 0 -23.5 -2.5t-23.5 -5.5l-17 50l51 13q15 4 38.5 9.5t44.5 10t27 4.5q23 0 31 -11t8 -22v-286q0 -31 24 -40.5t58 -9.5q0 -7 -3.5 -26.5t-11.5 -24.5h-242zM150 -11l433 742h66
l-434 -742h-65zM598 0q-7 6 -10.5 16.5t-3.5 17.5q32 0 53 7.5t21 26.5v44h-193l-16 29l199 272h122v-251q57 0 74 44h16q12 -3 19.5 -13.5t7.5 -22.5q0 -24 -25 -40t-92 -18v-44q0 -19 18.5 -26.5t53.5 -7.5q0 -7 -4.5 -17.5t-12.5 -16.5h-227zM534 162h124v184z" />
    <glyph glyph-name="onehalf" unicode="&#xbd;" horiz-adv-x="876" 
d="M63 384q-8 5 -12.5 24.5t-4.5 26.5q39 0 64.5 9.5t25.5 40.5v200q0 8 -8 24t-26 16q-10 0 -23.5 -2.5t-23.5 -5.5l-17 50l51 13q15 4 38.5 9.5t44.5 10t27 4.5q23 0 31 -11t8 -22v-286q0 -31 24 -40.5t58 -9.5q0 -7 -3.5 -26.5t-11.5 -24.5h-242zM150 -11l433 742h66
l-434 -742h-65zM585 5q-22 0 -43.5 -2.5t-39.5 -8.5l-23 14q11 52 45.5 90.5t72.5 69.5q39 32 68.5 61.5t29.5 74.5q0 35 -19.5 55t-48.5 20q-19 0 -36 -8.5t-26 -25.5q17 -5 25.5 -18t8.5 -27q0 -20 -16.5 -33t-39.5 -13q-26 0 -44 15t-18 41q0 48 45.5 79.5t122.5 31.5
q47 0 85.5 -14.5t61.5 -42t23 -67.5t-22.5 -67t-57 -47.5t-71.5 -41.5q-30 -17 -59 -35t-48 -40q47 16 95 16h47q33 0 59 13.5t33 36.5h15q11 -7 18.5 -22.5t7.5 -33.5t-9 -36.5t-33.5 -31.5t-69.5 -13q-17 0 -32 1.5t-30 3.5q-33 5 -77 5z" />
    <glyph glyph-name="threequarters" unicode="&#xbe;" horiz-adv-x="955" 
d="M187 373q-68 0 -112.5 23.5t-44.5 64.5q0 26 14.5 37.5t36.5 11.5t35 -11t13 -26q0 -7 -3 -15.5t-14 -15.5q20 -18 63 -18q38 0 61 19t23 50q0 30 -22 51.5t-65 21.5h-18l-13 37q41 11 60.5 25.5t25.5 32t6 34.5q0 30 -16 49t-45 19q-16 0 -30 -7.5t-23 -18.5
q8 -3 15 -12t7 -20q0 -13 -12 -25t-36 -12q-25 0 -38 13.5t-13 34.5q0 27 20.5 47t55 31t75.5 11q68 0 112 -27t44 -71q0 -37 -21 -61.5t-65 -41.5q54 -8 84.5 -36.5t30.5 -71.5q0 -36 -24.5 -63.5t-67.5 -43.5t-99 -16zM218 -11l433 742h66l-434 -742h-65zM666 0
q-7 6 -10.5 16.5t-3.5 17.5q32 0 53 7.5t21 26.5v44h-193l-16 29l199 272h122v-251q57 0 74 44h16q12 -3 19.5 -13.5t7.5 -22.5q0 -24 -25 -40t-92 -18v-44q0 -19 18.5 -26.5t53.5 -7.5q0 -7 -4.5 -17.5t-12.5 -16.5h-227zM602 162h124v184z" />
    <glyph glyph-name="questiondown" unicode="&#xbf;" horiz-adv-x="532" 
d="M248 331q-46 0 -73.5 27t-27.5 72t27.5 72t73.5 27q45 0 73 -27t28 -72t-28 -72t-73 -27zM258 -272q-72 0 -125.5 23t-83 64t-29.5 94q0 55 30 99t80 77.5t111 55.5l-18 104h95l27 -127q-62 -38 -104 -89.5t-42 -120.5q0 -55 26 -79t65 -24q30 0 56.5 13.5t41.5 38.5
q-25 8 -46.5 29t-21.5 53q0 37 27.5 60t61.5 23q24 0 47.5 -12t39.5 -36.5t16 -60.5q0 -48 -31 -90.5t-87.5 -68.5t-135.5 -26z" />
    <glyph glyph-name="Agrave" unicode="&#xc0;" horiz-adv-x="677" 
d="M3 0q-23 25 -23 64q27 0 50.5 16t34.5 49l164 484q-40 13 -101 13q0 43 24 72h274l186 -566q11 -33 35 -50.5t50 -17.5q0 -39 -23 -64h-271q-23 25 -23 64q26 0 41.5 11.5t15.5 36.5q0 9 -1.5 21t-5.5 26l-6 21h-224l-6 -21q-4 -13 -6.5 -24t-2.5 -20q0 -27 17 -39
t47 -12q0 -39 -23 -64h-223zM222 258h180l-71 248q-9 30 -23 51zM417 751q-20 0 -49 10.5t-60 28t-57.5 39t-43 45t-16.5 44.5q0 17 10.5 35.5t30.5 31.5t46 13q22 -41 54.5 -79.5t69 -69.5t68.5 -52q-3 -24 -18 -35t-35 -11z" />
    <glyph glyph-name="Aacute" unicode="&#xc1;" horiz-adv-x="677" 
d="M3 0q-23 25 -23 64q27 0 50.5 16t34.5 49l164 484q-40 13 -101 13q0 43 24 72h274l186 -566q11 -33 35 -50.5t50 -17.5q0 -39 -23 -64h-271q-23 25 -23 64q26 0 41.5 11.5t15.5 36.5q0 9 -1.5 21t-5.5 26l-6 21h-224l-6 -21q-4 -13 -6.5 -24t-2.5 -20q0 -27 17 -39
t47 -12q0 -39 -23 -64h-223zM222 258h180l-71 248q-9 30 -23 51zM299 737q-19 0 -34.5 11t-18.5 35q32 21 68 52t69 69.5t55 79.5q27 0 46.5 -13t30 -31.5t10.5 -35.5q0 -27 -25 -56t-62 -54.5t-75 -41t-64 -15.5z" />
    <glyph glyph-name="Acircumflex" unicode="&#xc2;" horiz-adv-x="677" 
d="M3 0q-23 25 -23 64q27 0 50.5 16t34.5 49l164 484q-40 13 -101 13q0 43 24 72h274l186 -566q11 -33 35 -50.5t50 -17.5q0 -39 -23 -64h-271q-23 25 -23 64q26 0 41.5 11.5t15.5 36.5q0 9 -1.5 21t-5.5 26l-6 21h-224l-6 -21q-4 -13 -6.5 -24t-2.5 -20q0 -27 17 -39
t47 -12q0 -39 -23 -64h-223zM222 258h180l-71 248q-9 30 -23 51zM198 732q-19 7 -34 21t-20 30l148 164h76l149 -164q-6 -16 -21 -30t-34 -21l-132 99z" />
    <glyph glyph-name="Atilde" unicode="&#xc3;" horiz-adv-x="677" 
d="M3 0q-23 25 -23 64q27 0 50.5 16t34.5 49l164 484q-40 13 -101 13q0 43 24 72h274l186 -566q11 -33 35 -50.5t50 -17.5q0 -39 -23 -64h-271q-23 25 -23 64q26 0 41.5 11.5t15.5 36.5q0 9 -1.5 21t-5.5 26l-6 21h-224l-6 -21q-4 -13 -6.5 -24t-2.5 -20q0 -27 17 -39
t47 -12q0 -39 -23 -64h-223zM222 258h180l-71 248q-9 30 -23 51zM395 747q-27 0 -45 9.5t-31 22.5t-26 22.5t-31 9.5q-16 0 -32.5 -7t-38.5 -32q-8 -6 -21.5 2t-23.5 23t-6 30q6 22 24 42.5t45.5 34t58.5 13.5t50.5 -9.5t32.5 -22.5t24.5 -22.5t25.5 -9.5q17 0 32.5 6.5
t37.5 31.5q8 7 22 -1.5t23.5 -23.5t5.5 -30q-8 -32 -41 -60.5t-86 -28.5z" />
    <glyph glyph-name="Adieresis" unicode="&#xc4;" horiz-adv-x="677" 
d="M3 0q-23 25 -23 64q27 0 50.5 16t34.5 49l164 484q-40 13 -101 13q0 43 24 72h274l186 -566q11 -33 35 -50.5t50 -17.5q0 -39 -23 -64h-271q-23 25 -23 64q26 0 41.5 11.5t15.5 36.5q0 9 -1.5 21t-5.5 26l-6 21h-224l-6 -21q-4 -13 -6.5 -24t-2.5 -20q0 -27 17 -39
t47 -12q0 -39 -23 -64h-223zM222 258h180l-71 248q-9 30 -23 51zM453 751q-38 0 -59 28.5t-21 66.5t21 65.5t59 27.5q39 0 60 -27.5t21 -65.5t-21 -66.5t-60 -28.5zM209 751q-39 0 -60 28.5t-21 66.5t21 65.5t60 27.5q38 0 59 -27.5t21 -65.5t-21 -66.5t-59 -28.5z" />
    <glyph glyph-name="Aring" unicode="&#xc5;" horiz-adv-x="677" 
d="M3 0q-23 25 -23 64q27 0 50.5 16t34.5 49l164 484q-40 13 -101 13q0 43 24 72h274l186 -566q11 -33 35 -50.5t50 -17.5q0 -39 -23 -64h-271q-23 25 -23 64q26 0 41.5 11.5t15.5 36.5q0 9 -1.5 21t-5.5 26l-6 21h-224l-6 -21q-4 -13 -6.5 -24t-2.5 -20q0 -27 17 -39
t47 -12q0 -39 -23 -64h-223zM222 258h180l-71 248q-9 30 -23 51zM330 751q-64 0 -102.5 38t-38.5 100t38.5 100.5t102.5 38.5q65 0 103.5 -38.5t38.5 -100.5t-38.5 -100t-103.5 -38zM330 833q26 0 41 15.5t15 39.5q0 26 -15 41t-41 15q-25 0 -40 -15t-15 -41q0 -24 15 -39.5
t40 -15.5z" />
    <glyph glyph-name="AE" unicode="&#xc6;" horiz-adv-x="900" 
d="M839 -16l-15 5t-27 11h-456q-23 28 -23 63q33 0 47 12t14 40v49h-203q-6 -13 -11 -28t-5 -27q0 -23 17 -34t45 -11q0 -38 -23 -64h-232q-22 27 -22 64q26 0 49.5 17.5t37.5 46.5l220 442q-4 27 -34.5 43t-77.5 16q-19 0 -39 -3q0 44 22 72h600q18 8 40 12.5t41 4.5
q9 -16 20.5 -46.5t20.5 -60.5t9 -47q-8 -8 -25.5 -16t-35.5 -14t-30 -9q-11 33 -38.5 62t-67.5 29h-113v-211h72q28 0 46.5 16.5t18.5 56.5q45 0 81 -21v-186q-34 -21 -80 -21q0 40 -18.5 58t-46.5 18h-73v-235h121q44 0 74.5 36.5t37.5 86.5h107q0 -15 -4.5 -46.5t-11 -68
t-14.5 -67.5t-15 -45zM213 242h166v374z" />
    <glyph glyph-name="Ccedilla" unicode="&#xc7;" horiz-adv-x="574" 
d="M344 -14q-85 0 -158 40t-117 121.5t-44 204.5q0 118 39.5 197t110 119.5t163.5 40.5q22 0 50 -6t49 -16q10 5 27 9.5t34.5 8.5t27.5 4q13 -32 19 -75.5t8 -86t2 -72.5h-113q-8 65 -35.5 106t-71.5 41q-58 0 -95.5 -55t-37.5 -180q0 -103 28 -164.5t74 -88t99 -26.5
q46 0 78 17.5t45 36.5q13 -9 20.5 -27.5t7.5 -32.5q0 -23 -24.5 -50.5t-71 -46.5t-114.5 -19zM345 -300q-51 0 -87 13.5t-52 28.5q0 15 7.5 29.5t16.5 22.5q48 -34 98 -34q29 0 42 14t13 35q0 20 -9.5 33t-35.5 13q-7 0 -15.5 -1t-22.5 -5l-43 21l61 162h69l-34 -124
q24 8 55 8q34 0 56 -14t33 -35.5t11 -43.5q0 -29 -18.5 -57.5t-54.5 -47t-90 -18.5z" />
    <glyph glyph-name="Egrave" unicode="&#xc8;" horiz-adv-x="615" 
d="M554 -16l-15 5t-27 11h-463q-10 13 -16.5 29.5t-6.5 33.5q33 0 49.5 12t16.5 40v469q0 28 -16 39.5t-49 11.5q0 17 6.5 33.5t16.5 29.5h388q18 8 40 12.5t41 4.5q9 -16 20.5 -46.5t20.5 -60.5t9 -47q-8 -8 -25.5 -16t-35.5 -14t-30 -9q-11 33 -38.5 62t-67.5 29h-113
v-211h72q28 0 46.5 16.5t18.5 56.5q45 0 81 -21v-186q-34 -21 -80 -21q0 40 -18.5 58t-46.5 18h-73v-235h121q44 0 74.5 36.5t37.5 86.5h107q0 -15 -4.5 -46.5t-11 -68t-14.5 -67.5t-15 -45zM394 751q-20 0 -49 10.5t-60 28t-57.5 39t-43 45t-16.5 44.5q0 17 10.5 35.5
t30.5 31.5t46 13q22 -41 54.5 -79.5t69 -69.5t68.5 -52q-3 -24 -18 -35t-35 -11z" />
    <glyph glyph-name="Eacute" unicode="&#xc9;" horiz-adv-x="615" 
d="M554 -16l-15 5t-27 11h-463q-10 13 -16.5 29.5t-6.5 33.5q33 0 49.5 12t16.5 40v469q0 28 -16 39.5t-49 11.5q0 17 6.5 33.5t16.5 29.5h388q18 8 40 12.5t41 4.5q9 -16 20.5 -46.5t20.5 -60.5t9 -47q-8 -8 -25.5 -16t-35.5 -14t-30 -9q-11 33 -38.5 62t-67.5 29h-113
v-211h72q28 0 46.5 16.5t18.5 56.5q45 0 81 -21v-186q-34 -21 -80 -21q0 40 -18.5 58t-46.5 18h-73v-235h121q44 0 74.5 36.5t37.5 86.5h107q0 -15 -4.5 -46.5t-11 -68t-14.5 -67.5t-15 -45zM276 737q-19 0 -34.5 11t-18.5 35q32 21 68 52t69 69.5t55 79.5q27 0 46.5 -13
t30 -31.5t10.5 -35.5q0 -27 -25 -56t-62 -54.5t-75 -41t-64 -15.5z" />
    <glyph glyph-name="Ecircumflex" unicode="&#xca;" horiz-adv-x="615" 
d="M554 -16l-15 5t-27 11h-463q-10 13 -16.5 29.5t-6.5 33.5q33 0 49.5 12t16.5 40v469q0 28 -16 39.5t-49 11.5q0 17 6.5 33.5t16.5 29.5h388q18 8 40 12.5t41 4.5q9 -16 20.5 -46.5t20.5 -60.5t9 -47q-8 -8 -25.5 -16t-35.5 -14t-30 -9q-11 33 -38.5 62t-67.5 29h-113
v-211h72q28 0 46.5 16.5t18.5 56.5q45 0 81 -21v-186q-34 -21 -80 -21q0 40 -18.5 58t-46.5 18h-73v-235h121q44 0 74.5 36.5t37.5 86.5h107q0 -15 -4.5 -46.5t-11 -68t-14.5 -67.5t-15 -45zM175 732q-19 7 -34 21t-20 30l148 164h76l149 -164q-6 -16 -21 -30t-34 -21
l-132 99z" />
    <glyph glyph-name="Edieresis" unicode="&#xcb;" horiz-adv-x="615" 
d="M554 -16l-15 5t-27 11h-463q-10 13 -16.5 29.5t-6.5 33.5q33 0 49.5 12t16.5 40v469q0 28 -16 39.5t-49 11.5q0 17 6.5 33.5t16.5 29.5h388q18 8 40 12.5t41 4.5q9 -16 20.5 -46.5t20.5 -60.5t9 -47q-8 -8 -25.5 -16t-35.5 -14t-30 -9q-11 33 -38.5 62t-67.5 29h-113
v-211h72q28 0 46.5 16.5t18.5 56.5q45 0 81 -21v-186q-34 -21 -80 -21q0 40 -18.5 58t-46.5 18h-73v-235h121q44 0 74.5 36.5t37.5 86.5h107q0 -15 -4.5 -46.5t-11 -68t-14.5 -67.5t-15 -45zM430 751q-38 0 -59 28.5t-21 66.5t21 65.5t59 27.5q39 0 60 -27.5t21 -65.5
t-21 -66.5t-60 -28.5zM186 751q-39 0 -60 28.5t-21 66.5t21 65.5t60 27.5q38 0 59 -27.5t21 -65.5t-21 -66.5t-59 -28.5z" />
    <glyph glyph-name="Igrave" unicode="&#xcc;" horiz-adv-x="345" 
d="M51 0q-22 25 -22 64q33 0 46.5 11t13.5 39v470q0 28 -13.5 39.5t-46.5 11.5q0 38 22 63h243q10 -12 16 -29t6 -34q-33 0 -46.5 -11.5t-13.5 -39.5v-470q0 -28 13.5 -39t46.5 -11q0 -18 -6 -35t-16 -29h-243zM259 751q-20 0 -49 10.5t-60 28t-57.5 39t-43 45t-16.5 44.5
q0 17 10.5 35.5t30.5 31.5t46 13q22 -41 54.5 -79.5t69 -69.5t68.5 -52q-3 -24 -18 -35t-35 -11z" />
    <glyph glyph-name="Iacute" unicode="&#xcd;" horiz-adv-x="345" 
d="M51 0q-22 25 -22 64q33 0 46.5 11t13.5 39v470q0 28 -13.5 39.5t-46.5 11.5q0 38 22 63h243q10 -12 16 -29t6 -34q-33 0 -46.5 -11.5t-13.5 -39.5v-470q0 -28 13.5 -39t46.5 -11q0 -18 -6 -35t-16 -29h-243zM141 737q-19 0 -34.5 11t-18.5 35q32 21 68 52t69 69.5
t55 79.5q27 0 46.5 -13t30 -31.5t10.5 -35.5q0 -27 -25 -56t-62 -54.5t-75 -41t-64 -15.5z" />
    <glyph glyph-name="Icircumflex" unicode="&#xce;" horiz-adv-x="345" 
d="M51 0q-22 25 -22 64q33 0 46.5 11t13.5 39v470q0 28 -13.5 39.5t-46.5 11.5q0 38 22 63h243q10 -12 16 -29t6 -34q-33 0 -46.5 -11.5t-13.5 -39.5v-470q0 -28 13.5 -39t46.5 -11q0 -18 -6 -35t-16 -29h-243zM40 732q-19 7 -34 21t-20 30l148 164h76l149 -164
q-6 -16 -21 -30t-34 -21l-132 99z" />
    <glyph glyph-name="Idieresis" unicode="&#xcf;" horiz-adv-x="345" 
d="M51 0q-22 25 -22 64q33 0 46.5 11t13.5 39v470q0 28 -13.5 39.5t-46.5 11.5q0 38 22 63h243q10 -12 16 -29t6 -34q-33 0 -46.5 -11.5t-13.5 -39.5v-470q0 -28 13.5 -39t46.5 -11q0 -18 -6 -35t-16 -29h-243zM295 751q-38 0 -59 28.5t-21 66.5t21 65.5t59 27.5
q39 0 60 -27.5t21 -65.5t-21 -66.5t-60 -28.5zM51 751q-39 0 -60 28.5t-21 66.5t21 65.5t60 27.5q38 0 59 -27.5t21 -65.5t-21 -66.5t-59 -28.5z" />
    <glyph glyph-name="Eth" unicode="&#xd0;" horiz-adv-x="668" 
d="M292 -11q-23 0 -52 3t-74 5.5t-118 2.5q-22 28 -22 64q33 0 47.5 11.5t14.5 39.5v218h-49v78h49v174q0 27 -14.5 38.5t-47.5 11.5q0 38 22 63q99 0 167.5 6t90.5 6q87 0 150 -27.5t104 -75t61 -110t20 -133.5q0 -77 -20 -145t-62.5 -119.5t-108.5 -81t-158 -29.5zM284 72
q55 0 95 27t62 88t22 162q0 146 -51 213.5t-136 67.5h-13t-11 -2v-217h108q0 -19 -1.5 -41.5t-14.5 -36.5h-92v-259q8 -1 16.5 -1.5t15.5 -0.5z" />
    <glyph glyph-name="Ntilde" unicode="&#xd1;" horiz-adv-x="724" 
d="M606 -6q-52 0 -74.5 14t-41.5 42l-280 425v-361q0 -28 19.5 -39.5t53.5 -11.5q0 -35 -23 -63h-208q-22 27 -22 63q34 0 51.5 11.5t17.5 39.5v470q0 28 -19.5 39.5t-53.5 11.5q0 38 22 63h139q29 0 58.5 -22.5t54.5 -62.5l227 -359v330q0 28 -18.5 39.5t-52.5 11.5
q0 17 6 34t17 29h213q23 -26 23 -63q-33 0 -51 -11.5t-18 -39.5v-590h-40zM426 747q-27 0 -45 9.5t-31 22.5t-26 22.5t-31 9.5q-16 0 -32.5 -7t-38.5 -32q-8 -6 -21.5 2t-23.5 23t-6 30q6 22 24 42.5t45.5 34t58.5 13.5t50.5 -9.5t32.5 -22.5t24.5 -22.5t25.5 -9.5
q17 0 32.5 6.5t37.5 31.5q8 7 22 -1.5t23.5 -23.5t5.5 -30q-8 -32 -41 -60.5t-86 -28.5z" />
    <glyph glyph-name="Ograve" unicode="&#xd2;" horiz-adv-x="669" 
d="M334 -13q-97 0 -166 45t-106 126.5t-37 189.5q0 115 38 195.5t107.5 123.5t162.5 43q97 0 166.5 -45t107 -126.5t37.5 -190.5q0 -114 -38.5 -194.5t-108 -123.5t-163.5 -43zM334 60q23 0 45 12t40 43t28.5 88.5t10.5 148.5q0 113 -16 174.5t-43.5 85.5t-62.5 24
q-23 0 -45 -12t-40 -43t-28.5 -88t-10.5 -148q0 -113 16 -175t44 -86t62 -24zM421 761q-20 0 -49 10.5t-60 28t-57.5 39t-43 45t-16.5 44.5q0 17 10.5 35.5t30.5 31.5t46 13q22 -41 54.5 -79.5t69 -69.5t68.5 -52q-3 -24 -18 -35t-35 -11z" />
    <glyph glyph-name="Oacute" unicode="&#xd3;" horiz-adv-x="669" 
d="M334 -13q-97 0 -166 45t-106 126.5t-37 189.5q0 115 38 195.5t107.5 123.5t162.5 43q97 0 166.5 -45t107 -126.5t37.5 -190.5q0 -114 -38.5 -194.5t-108 -123.5t-163.5 -43zM334 60q23 0 45 12t40 43t28.5 88.5t10.5 148.5q0 113 -16 174.5t-43.5 85.5t-62.5 24
q-23 0 -45 -12t-40 -43t-28.5 -88t-10.5 -148q0 -113 16 -175t44 -86t62 -24zM303 747q-19 0 -34.5 11t-18.5 35q32 21 68 52t69 69.5t55 79.5q27 0 46.5 -13t30 -31.5t10.5 -35.5q0 -27 -25 -56t-62 -54.5t-75 -41t-64 -15.5z" />
    <glyph glyph-name="Ocircumflex" unicode="&#xd4;" horiz-adv-x="669" 
d="M334 -13q-97 0 -166 45t-106 126.5t-37 189.5q0 115 38 195.5t107.5 123.5t162.5 43q97 0 166.5 -45t107 -126.5t37.5 -190.5q0 -114 -38.5 -194.5t-108 -123.5t-163.5 -43zM334 60q23 0 45 12t40 43t28.5 88.5t10.5 148.5q0 113 -16 174.5t-43.5 85.5t-62.5 24
q-23 0 -45 -12t-40 -43t-28.5 -88t-10.5 -148q0 -113 16 -175t44 -86t62 -24zM202 742q-19 7 -34 21t-20 30l148 164h76l149 -164q-6 -16 -21 -30t-34 -21l-132 99z" />
    <glyph glyph-name="Otilde" unicode="&#xd5;" horiz-adv-x="669" 
d="M334 -13q-97 0 -166 45t-106 126.5t-37 189.5q0 115 38 195.5t107.5 123.5t162.5 43q97 0 166.5 -45t107 -126.5t37.5 -190.5q0 -114 -38.5 -194.5t-108 -123.5t-163.5 -43zM334 60q23 0 45 12t40 43t28.5 88.5t10.5 148.5q0 113 -16 174.5t-43.5 85.5t-62.5 24
q-23 0 -45 -12t-40 -43t-28.5 -88t-10.5 -148q0 -113 16 -175t44 -86t62 -24zM399 757q-27 0 -45 9.5t-31 22.5t-26 22.5t-31 9.5q-16 0 -32.5 -7t-38.5 -32q-8 -6 -21.5 2t-23.5 23t-6 30q6 22 24 42.5t45.5 34t58.5 13.5t50.5 -9.5t32.5 -22.5t24.5 -22.5t25.5 -9.5
q17 0 32.5 6.5t37.5 31.5q8 7 22 -1.5t23.5 -23.5t5.5 -30q-8 -32 -41 -60.5t-86 -28.5z" />
    <glyph glyph-name="Odieresis" unicode="&#xd6;" horiz-adv-x="669" 
d="M334 -13q-97 0 -166 45t-106 126.5t-37 189.5q0 115 38 195.5t107.5 123.5t162.5 43q97 0 166.5 -45t107 -126.5t37.5 -190.5q0 -114 -38.5 -194.5t-108 -123.5t-163.5 -43zM334 60q23 0 45 12t40 43t28.5 88.5t10.5 148.5q0 113 -16 174.5t-43.5 85.5t-62.5 24
q-23 0 -45 -12t-40 -43t-28.5 -88t-10.5 -148q0 -113 16 -175t44 -86t62 -24zM457 761q-38 0 -59 28.5t-21 66.5t21 65.5t59 27.5q39 0 60 -27.5t21 -65.5t-21 -66.5t-60 -28.5zM213 761q-39 0 -60 28.5t-21 66.5t21 65.5t60 27.5q38 0 59 -27.5t21 -65.5t-21 -66.5
t-59 -28.5z" />
    <glyph glyph-name="multiply" unicode="&#xd7;" horiz-adv-x="629" 
d="M160 88q-15 7 -33 22.5t-32 33t-20 29.5l155 156l-155 154q7 16 22 33.5t32.5 32t30.5 19.5l154 -155l155 155q16 -6 33.5 -21.5t31.5 -33t20 -30.5l-155 -156l153 -154q-6 -14 -21 -31.5t-32 -31.5t-30 -19l-154 153z" />
    <glyph glyph-name="Oslash" unicode="&#xd8;" horiz-adv-x="669" 
d="M84 -26q-16 2 -32 15q-6 5 -9 10t-5 11l63 83q-76 97 -76 255q0 115 38.5 195.5t107.5 123.5t162 43q58 0 106 -16.5t86 -46.5l60 79q6 -1 13.5 -4t13.5 -8q8 -6 13 -12.5t8 -12.5l-66 -85q77 -97 77 -256q0 -114 -38.5 -194.5t-108 -123.5t-163.5 -43q-58 0 -106 16.5
t-85 47.5zM212 345q0 -65 6 -114l219 314q-17 52 -43 71.5t-58 19.5q-23 0 -45 -12t-40 -43t-28.5 -88t-10.5 -148zM334 60q23 0 45 12t40 43t28.5 88.5t10.5 148.5q0 68 -6 118l-220 -315q17 -54 43.5 -74.5t58.5 -20.5z" />
    <glyph glyph-name="Ugrave" unicode="&#xd9;" horiz-adv-x="671" 
d="M340 -13q-128 0 -203 70t-75 206v322q0 27 -14 38.5t-48 11.5q0 38 23 63h250q23 -25 23 -63q-34 0 -48 -11.5t-14 -38.5v-343q0 -67 29 -113t95 -46q45 0 71 19.5t37.5 52t11.5 71.5v359q0 27 -16.5 38.5t-54.5 11.5q0 18 5.5 34.5t16.5 28.5h220q22 -25 22 -63
q-38 0 -54.5 -11.5t-16.5 -38.5v-312q0 -138 -64.5 -212t-195.5 -74zM432 751q-20 0 -49 10.5t-60 28t-57.5 39t-43 45t-16.5 44.5q0 17 10.5 35.5t30.5 31.5t46 13q22 -41 54.5 -79.5t69 -69.5t68.5 -52q-3 -24 -18 -35t-35 -11z" />
    <glyph glyph-name="Uacute" unicode="&#xda;" horiz-adv-x="671" 
d="M340 -13q-128 0 -203 70t-75 206v322q0 27 -14 38.5t-48 11.5q0 38 23 63h250q23 -25 23 -63q-34 0 -48 -11.5t-14 -38.5v-343q0 -67 29 -113t95 -46q45 0 71 19.5t37.5 52t11.5 71.5v359q0 27 -16.5 38.5t-54.5 11.5q0 18 5.5 34.5t16.5 28.5h220q22 -25 22 -63
q-38 0 -54.5 -11.5t-16.5 -38.5v-312q0 -138 -64.5 -212t-195.5 -74zM314 737q-19 0 -34.5 11t-18.5 35q32 21 68 52t69 69.5t55 79.5q27 0 46.5 -13t30 -31.5t10.5 -35.5q0 -27 -25 -56t-62 -54.5t-75 -41t-64 -15.5z" />
    <glyph glyph-name="Ucircumflex" unicode="&#xdb;" horiz-adv-x="671" 
d="M340 -13q-128 0 -203 70t-75 206v322q0 27 -14 38.5t-48 11.5q0 38 23 63h250q23 -25 23 -63q-34 0 -48 -11.5t-14 -38.5v-343q0 -67 29 -113t95 -46q45 0 71 19.5t37.5 52t11.5 71.5v359q0 27 -16.5 38.5t-54.5 11.5q0 18 5.5 34.5t16.5 28.5h220q22 -25 22 -63
q-38 0 -54.5 -11.5t-16.5 -38.5v-312q0 -138 -64.5 -212t-195.5 -74zM213 732q-19 7 -34 21t-20 30l148 164h76l149 -164q-6 -16 -21 -30t-34 -21l-132 99z" />
    <glyph glyph-name="Udieresis" unicode="&#xdc;" horiz-adv-x="671" 
d="M340 -13q-128 0 -203 70t-75 206v322q0 27 -14 38.5t-48 11.5q0 38 23 63h250q23 -25 23 -63q-34 0 -48 -11.5t-14 -38.5v-343q0 -67 29 -113t95 -46q45 0 71 19.5t37.5 52t11.5 71.5v359q0 27 -16.5 38.5t-54.5 11.5q0 18 5.5 34.5t16.5 28.5h220q22 -25 22 -63
q-38 0 -54.5 -11.5t-16.5 -38.5v-312q0 -138 -64.5 -212t-195.5 -74zM468 751q-38 0 -59 28.5t-21 66.5t21 65.5t59 27.5q39 0 60 -27.5t21 -65.5t-21 -66.5t-60 -28.5zM224 751q-39 0 -60 28.5t-21 66.5t21 65.5t60 27.5q38 0 59 -27.5t21 -65.5t-21 -66.5t-59 -28.5z" />
    <glyph glyph-name="Yacute" unicode="&#xdd;" horiz-adv-x="661" 
d="M193 0q-22 25 -22 64q33 0 62.5 11t29.5 39v132l-199 345q-11 20 -32.5 32t-41.5 12q0 37 24 63h270q23 -25 23 -63q-60 0 -60 -39q0 -18 16 -50l96 -181l110 207q5 10 5 19q0 19 -18 31.5t-41 12.5q0 38 23 63h209q24 -26 24 -63q-25 0 -38 -4.5t-20.5 -15t-18.5 -30.5
l-174 -316v-155q0 -28 30.5 -39t65.5 -11q0 -39 -22 -64h-301zM319 737q-19 0 -34.5 11t-18.5 35q32 21 68 52t69 69.5t55 79.5q27 0 46.5 -13t30 -31.5t10.5 -35.5q0 -27 -25 -56t-62 -54.5t-75 -41t-64 -15.5z" />
    <glyph glyph-name="Thorn" unicode="&#xde;" horiz-adv-x="609" 
d="M48 0q-22 25 -22 64q33 0 46.5 11t13.5 39v470q0 28 -13.5 39.5t-46.5 11.5q0 38 22 63h235q10 -12 16 -29t6 -34q-33 0 -46.5 -11.5t-13.5 -39.5v-15q38 3 69 3q142 0 213.5 -60t71.5 -156q0 -69 -34 -117.5t-93 -74.5t-134 -26q-19 0 -46 2.5t-47 6.5v-33
q0 -28 13.5 -39t46.5 -11q0 -18 -6 -35t-16 -29h-235zM295 218q59 0 94.5 36.5t35.5 101.5q0 68 -38 100t-105 32q-9 0 -19 -0.5t-18 -1.5v-263q12 -3 26 -4t24 -1z" />
    <glyph glyph-name="germandbls" unicode="&#xdf;" horiz-adv-x="657" 
d="M447 -15q-79 0 -119 36t-40 82q0 32 19 55t51 23q24 0 40 -17.5t16 -44.5t-17 -46q8 -8 19.5 -13.5t27.5 -5.5q50 0 50 49q0 44 -22 75t-51 59q-22 23 -43.5 48.5t-35.5 59.5t-14 81q0 42 15 69.5t34 53.5q12 17 21 41t9 55q0 29 -18.5 47.5t-50.5 18.5q-19 0 -41 -11
t-38 -37t-16 -71v-597h-193q-24 23 -24 58q29 0 42 12.5t13 42.5v326h-61v62q24 7 41.5 16.5t31.5 19.5q9 82 45.5 137.5t93 84t123.5 28.5q87 0 138.5 -34.5t51.5 -111.5q0 -31 -10.5 -56t-23.5 -45q-10 -16 -17.5 -31t-7.5 -35q0 -43 20 -71t45 -54q21 -21 41.5 -46.5
t33.5 -60.5t13 -86q0 -62 -28 -98.5t-72 -52t-92 -15.5z" />
    <glyph glyph-name="agrave" unicode="&#xe0;" horiz-adv-x="537" 
d="M190 -7q-75 0 -121.5 41.5t-46.5 106.5t42.5 105t131.5 40q29 0 61 -5.5t52 -16.5v133q0 42 -21.5 58.5t-52.5 16.5q-33 0 -54 -16q20 -7 29 -21.5t9 -31.5q0 -33 -23.5 -52.5t-57.5 -19.5q-38 0 -61 22.5t-23 56.5t23 64.5t71.5 50.5t125.5 20q201 0 201 -159v-265
q0 -48 46 -58v-32q-13 -19 -44 -28.5t-60 -9.5q-68 0 -96 47q-20 -18 -53 -32.5t-78 -14.5zM255 74q14 0 29 4.5t25 11.5v97q-10 7 -25.5 12t-30.5 5q-26 0 -45 -16.5t-19 -51.5q0 -27 18 -44.5t48 -17.5zM311 597q-20 0 -49 10.5t-60 28t-57.5 39t-43 45t-16.5 44.5
q0 17 10.5 35.5t30.5 31.5t46 13q22 -41 54.5 -79.5t69 -69.5t68.5 -52q-3 -24 -18 -35t-35 -11z" />
    <glyph glyph-name="aacute" unicode="&#xe1;" horiz-adv-x="537" 
d="M190 -7q-75 0 -121.5 41.5t-46.5 106.5t42.5 105t131.5 40q29 0 61 -5.5t52 -16.5v133q0 42 -21.5 58.5t-52.5 16.5q-33 0 -54 -16q20 -7 29 -21.5t9 -31.5q0 -33 -23.5 -52.5t-57.5 -19.5q-38 0 -61 22.5t-23 56.5t23 64.5t71.5 50.5t125.5 20q201 0 201 -159v-265
q0 -48 46 -58v-32q-13 -19 -44 -28.5t-60 -9.5q-68 0 -96 47q-20 -18 -53 -32.5t-78 -14.5zM255 74q14 0 29 4.5t25 11.5v97q-10 7 -25.5 12t-30.5 5q-26 0 -45 -16.5t-19 -51.5q0 -27 18 -44.5t48 -17.5zM217 611q-19 0 -34.5 11t-18.5 35q32 21 68 52t69 69.5t55 79.5
q27 0 46.5 -13t30 -31.5t10.5 -35.5q0 -27 -25 -56t-62 -54.5t-75 -41t-64 -15.5z" />
    <glyph glyph-name="acircumflex" unicode="&#xe2;" horiz-adv-x="537" 
d="M190 -7q-75 0 -121.5 41.5t-46.5 106.5t42.5 105t131.5 40q29 0 61 -5.5t52 -16.5v133q0 42 -21.5 58.5t-52.5 16.5q-33 0 -54 -16q20 -7 29 -21.5t9 -31.5q0 -33 -23.5 -52.5t-57.5 -19.5q-38 0 -61 22.5t-23 56.5t23 64.5t71.5 50.5t125.5 20q201 0 201 -159v-265
q0 -48 46 -58v-32q-13 -19 -44 -28.5t-60 -9.5q-68 0 -96 47q-20 -18 -53 -32.5t-78 -14.5zM255 74q14 0 29 4.5t25 11.5v97q-10 7 -25.5 12t-30.5 5q-26 0 -45 -16.5t-19 -51.5q0 -27 18 -44.5t48 -17.5zM141 599q-19 7 -34 21t-20 30l148 164h76l149 -164q-6 -16 -21 -30
t-34 -21l-132 99z" />
    <glyph glyph-name="atilde" unicode="&#xe3;" horiz-adv-x="537" 
d="M190 -7q-75 0 -121.5 41.5t-46.5 106.5t42.5 105t131.5 40q29 0 61 -5.5t52 -16.5v133q0 42 -21.5 58.5t-52.5 16.5q-33 0 -54 -16q20 -7 29 -21.5t9 -31.5q0 -33 -23.5 -52.5t-57.5 -19.5q-38 0 -61 22.5t-23 56.5t23 64.5t71.5 50.5t125.5 20q201 0 201 -159v-265
q0 -48 46 -58v-32q-13 -19 -44 -28.5t-60 -9.5q-68 0 -96 47q-20 -18 -53 -32.5t-78 -14.5zM255 74q14 0 29 4.5t25 11.5v97q-10 7 -25.5 12t-30.5 5q-26 0 -45 -16.5t-19 -51.5q0 -27 18 -44.5t48 -17.5zM344 598q-30 0 -47.5 10.5t-34.5 23.5q-14 11 -27.5 19t-29.5 8
t-35 -10t-41 -35q-3 -3 -8 -3q-13 0 -28.5 16t-15.5 34q0 5 1 8q7 21 25 42.5t44 36t57 14.5q37 0 57 -11.5t37 -26.5q11 -10 22.5 -16.5t22.5 -6.5q17 0 35.5 10t40.5 35q3 3 8 3q13 0 28.5 -16t15.5 -35q0 -5 -1 -7q-10 -20 -26 -41.5t-40 -36.5t-60 -15z" />
    <glyph glyph-name="adieresis" unicode="&#xe4;" horiz-adv-x="537" 
d="M190 -7q-75 0 -121.5 41.5t-46.5 106.5t42.5 105t131.5 40q29 0 61 -5.5t52 -16.5v133q0 42 -21.5 58.5t-52.5 16.5q-33 0 -54 -16q20 -7 29 -21.5t9 -31.5q0 -33 -23.5 -52.5t-57.5 -19.5q-38 0 -61 22.5t-23 56.5t23 64.5t71.5 50.5t125.5 20q201 0 201 -159v-265
q0 -48 46 -58v-32q-13 -19 -44 -28.5t-60 -9.5q-68 0 -96 47q-20 -18 -53 -32.5t-78 -14.5zM255 74q14 0 29 4.5t25 11.5v97q-10 7 -25.5 12t-30.5 5q-26 0 -45 -16.5t-19 -51.5q0 -27 18 -44.5t48 -17.5zM396 613q-40 0 -60 28.5t-20 66.5t20 65.5t60 27.5q41 0 61 -27
t20 -65t-20 -67t-61 -29zM152 613q-40 0 -60.5 28.5t-20.5 66.5t20.5 65.5t60.5 27.5t60 -27t20 -65t-20 -67t-60 -29z" />
    <glyph glyph-name="aring" unicode="&#xe5;" horiz-adv-x="537" 
d="M190 -7q-75 0 -121.5 41.5t-46.5 106.5t42.5 105t131.5 40q29 0 61 -5.5t52 -16.5v133q0 42 -21.5 58.5t-52.5 16.5q-33 0 -54 -16q20 -7 29 -21.5t9 -31.5q0 -33 -23.5 -52.5t-57.5 -19.5q-38 0 -61 22.5t-23 56.5t23 64.5t71.5 50.5t125.5 20q201 0 201 -159v-265
q0 -48 46 -58v-32q-13 -19 -44 -28.5t-60 -9.5q-68 0 -96 47q-20 -18 -53 -32.5t-78 -14.5zM255 74q14 0 29 4.5t25 11.5v97q-10 7 -25.5 12t-30.5 5q-26 0 -45 -16.5t-19 -51.5q0 -27 18 -44.5t48 -17.5zM274 612q-64 0 -102.5 38t-38.5 101q0 62 38.5 100t102.5 38
q65 0 103 -38t38 -100q0 -63 -38 -101t-103 -38zM274 695q26 0 40.5 15t14.5 40t-14.5 40.5t-40.5 15.5q-25 0 -40 -15.5t-15 -40.5t15 -40t40 -15z" />
    <glyph glyph-name="ae" unicode="&#xe6;" horiz-adv-x="772" 
d="M191 -15q-78 0 -123.5 43t-45.5 108t46 107t127 42q29 0 60.5 -5.5t50.5 -16.5v132q0 41 -18.5 59t-50.5 18t-53 -16q20 -6 28.5 -22t8.5 -34q0 -32 -23.5 -52.5t-57.5 -20.5q-37 0 -60 23.5t-23 57.5q0 33 23 64t69.5 51t114.5 20q51 0 88.5 -12t62.5 -34q58 46 140 46
q88 0 139.5 -52.5t51.5 -147.5q0 -38 -12.5 -66.5t-52.5 -28.5h-210q4 -84 37.5 -118t87.5 -34q34 0 62.5 10.5t54.5 29.5q8 -7 13.5 -24.5t5.5 -25.5q0 -17 -22.5 -41t-64 -42t-99.5 -18q-55 0 -99.5 19t-76.5 54q-34 -38 -79.5 -55.5t-99.5 -17.5zM471 324h103
q17 0 21.5 12.5t4.5 32.5q0 62 -16.5 82.5t-37.5 20.5q-17 0 -34 -12.5t-28 -44.5t-13 -91zM251 66q35 0 55 22v98q-10 7 -25 12t-29 5q-27 0 -46 -17t-19 -51t19.5 -51.5t44.5 -17.5z" />
    <glyph glyph-name="ccedilla" unicode="&#xe7;" horiz-adv-x="465" 
d="M276 -15q-73 0 -128.5 33t-87 94.5t-31.5 147.5q0 89 34 152.5t93 97t133 33.5q77 0 117 -36.5t40 -89.5q0 -48 -24 -74t-62 -26q-31 0 -52 23t-21 56q0 24 8.5 39t21.5 25q-10 6 -16.5 7.5t-12.5 1.5q-19 0 -39 -15t-33.5 -53t-13.5 -106q0 -110 32 -154.5t90 -44.5
q27 0 54.5 8t46.5 23q8 -10 13.5 -24.5t5.5 -25.5q0 -21 -22.5 -42.5t-60.5 -35.5t-85 -14zM268 -300q-51 0 -87 13.5t-52 28.5q0 15 7.5 29.5t16.5 22.5q48 -34 98 -34q29 0 42 13.5t13 35.5q0 20 -9.5 33t-35.5 13q-7 0 -15.5 -1t-22.5 -5l-43 21l66 182h69l-39 -144
q24 8 55 8q34 0 56 -14t33 -35.5t11 -43.5q0 -29 -18.5 -57.5t-54.5 -47t-90 -18.5z" />
    <glyph glyph-name="egrave" unicode="&#xe8;" horiz-adv-x="505" 
d="M274 -9q-112 0 -178.5 71t-66.5 198q0 87 33 150.5t89.5 97.5t128.5 34q90 0 144.5 -52.5t54.5 -147.5q0 -38 -12.5 -66.5t-51.5 -28.5h-216q3 -79 36.5 -112t87.5 -33q34 0 63 10.5t54 29.5q9 -8 14.5 -24.5t5.5 -27.5q0 -16 -22.5 -39.5t-64 -41.5t-99.5 -18zM199 323
h101q17 0 21.5 13t4.5 32q0 64 -15.5 84.5t-36.5 20.5q-17 0 -34 -13t-28 -45.5t-13 -91.5zM319 597q-20 0 -49 10.5t-60 28t-57.5 39t-43 45t-16.5 44.5q0 17 10.5 35.5t30.5 31.5t46 13q22 -41 54.5 -79.5t69 -69.5t68.5 -52q-3 -24 -18 -35t-35 -11z" />
    <glyph glyph-name="eacute" unicode="&#xe9;" horiz-adv-x="505" 
d="M274 -9q-112 0 -178.5 71t-66.5 198q0 87 33 150.5t89.5 97.5t128.5 34q90 0 144.5 -52.5t54.5 -147.5q0 -38 -12.5 -66.5t-51.5 -28.5h-216q3 -79 36.5 -112t87.5 -33q34 0 63 10.5t54 29.5q9 -8 14.5 -24.5t5.5 -27.5q0 -16 -22.5 -39.5t-64 -41.5t-99.5 -18zM199 323
h101q17 0 21.5 13t4.5 32q0 64 -15.5 84.5t-36.5 20.5q-17 0 -34 -13t-28 -45.5t-13 -91.5zM225 611q-19 0 -34.5 11t-18.5 35q32 21 68 52t69 69.5t55 79.5q27 0 46.5 -13t30 -31.5t10.5 -35.5q0 -27 -25 -56t-62 -54.5t-75 -41t-64 -15.5z" />
    <glyph glyph-name="ecircumflex" unicode="&#xea;" horiz-adv-x="505" 
d="M274 -9q-112 0 -178.5 71t-66.5 198q0 87 33 150.5t89.5 97.5t128.5 34q90 0 144.5 -52.5t54.5 -147.5q0 -38 -12.5 -66.5t-51.5 -28.5h-216q3 -79 36.5 -112t87.5 -33q34 0 63 10.5t54 29.5q9 -8 14.5 -24.5t5.5 -27.5q0 -16 -22.5 -39.5t-64 -41.5t-99.5 -18zM199 323
h101q17 0 21.5 13t4.5 32q0 64 -15.5 84.5t-36.5 20.5q-17 0 -34 -13t-28 -45.5t-13 -91.5zM149 599q-19 7 -34 21t-20 30l148 164h76l149 -164q-6 -16 -21 -30t-34 -21l-132 99z" />
    <glyph glyph-name="edieresis" unicode="&#xeb;" horiz-adv-x="505" 
d="M274 -9q-112 0 -178.5 71t-66.5 198q0 87 33 150.5t89.5 97.5t128.5 34q90 0 144.5 -52.5t54.5 -147.5q0 -38 -12.5 -66.5t-51.5 -28.5h-216q3 -79 36.5 -112t87.5 -33q34 0 63 10.5t54 29.5q9 -8 14.5 -24.5t5.5 -27.5q0 -16 -22.5 -39.5t-64 -41.5t-99.5 -18zM199 323
h101q17 0 21.5 13t4.5 32q0 64 -15.5 84.5t-36.5 20.5q-17 0 -34 -13t-28 -45.5t-13 -91.5zM404 613q-40 0 -60 28.5t-20 66.5t20 65.5t60 27.5q41 0 61 -27t20 -65t-20 -67t-61 -29zM160 613q-40 0 -60.5 28.5t-20.5 66.5t20.5 65.5t60.5 27.5t60 -27t20 -65t-20 -67
t-60 -29z" />
    <glyph glyph-name="igrave" unicode="&#xec;" horiz-adv-x="312" 
d="M47 0q-11 11 -17 24t-6 30q29 0 43 12.5t14 42.5v290q0 26 -12.5 39t-53.5 13v44q15 9 46.5 20.5t68 19.5t64.5 8q23 0 33 -10.5t10 -35.5v-389q0 -30 15 -42t44 -12q0 -17 -6 -30t-17 -24h-226zM193 597q-20 0 -49 10.5t-60 28t-57.5 39t-43 45t-16.5 44.5
q0 17 10.5 35.5t30.5 31.5t46 13q22 -41 54.5 -79.5t69 -69.5t68.5 -52q-3 -24 -18 -35t-35 -11z" />
    <glyph glyph-name="iacute" unicode="&#xed;" horiz-adv-x="312" 
d="M47 0q-11 11 -17 24t-6 30q29 0 43 12.5t14 42.5v290q0 26 -12.5 39t-53.5 13v44q15 9 46.5 20.5t68 19.5t64.5 8q23 0 33 -10.5t10 -35.5v-389q0 -30 15 -42t44 -12q0 -17 -6 -30t-17 -24h-226zM99 611q-19 0 -34.5 11t-18.5 35q32 21 68 52t69 69.5t55 79.5
q27 0 46.5 -13t30 -31.5t10.5 -35.5q0 -27 -25 -56t-62 -54.5t-75 -41t-64 -15.5z" />
    <glyph glyph-name="icircumflex" unicode="&#xee;" horiz-adv-x="312" 
d="M47 0q-11 11 -17 24t-6 30q29 0 43 12.5t14 42.5v290q0 26 -12.5 39t-53.5 13v44q15 9 46.5 20.5t68 19.5t64.5 8q23 0 33 -10.5t10 -35.5v-389q0 -30 15 -42t44 -12q0 -17 -6 -30t-17 -24h-226zM23 599q-19 7 -34 21t-20 30l148 164h76l149 -164q-6 -16 -21 -30t-34 -21
l-132 99z" />
    <glyph glyph-name="idieresis" unicode="&#xef;" horiz-adv-x="312" 
d="M47 0q-11 11 -17 24t-6 30q29 0 43 12.5t14 42.5v290q0 26 -12.5 39t-53.5 13v44q15 9 46.5 20.5t68 19.5t64.5 8q23 0 33 -10.5t10 -35.5v-389q0 -30 15 -42t44 -12q0 -17 -6 -30t-17 -24h-226zM278 613q-40 0 -60 28.5t-20 66.5t20 65.5t60 27.5q41 0 61 -27t20 -65
t-20 -67t-61 -29zM34 613q-40 0 -60.5 28.5t-20.5 66.5t20.5 65.5t60.5 27.5t60 -27t20 -65t-20 -67t-60 -29z" />
    <glyph glyph-name="eth" unicode="&#xf0;" horiz-adv-x="561" 
d="M282 -9q-73 0 -130.5 29t-90 84.5t-32.5 135.5q0 90 32.5 150t84.5 90t108 30q31 0 56 -8.5t44 -23.5q-10 44 -27 86t-46 79l-72 -48q-18 3 -32 22t-14 29l72 47q-21 19 -46 35.5t-54 29.5q9 26 22.5 35.5t38.5 9.5q64 0 132 -48l86 56q15 -8 26.5 -18.5t15.5 -32.5
l-76 -51q64 -65 108 -170.5t44 -242.5q0 -154 -68.5 -229.5t-181.5 -75.5zM287 63q21 0 36 9t25 36.5t14.5 82.5t4.5 148q0 41 -13 62t-32 29t-38 8q-24 0 -40.5 -15t-25.5 -55.5t-9 -119.5q0 -78 10.5 -117.5t28.5 -53.5t39 -14z" />
    <glyph glyph-name="ntilde" unicode="&#xf1;" horiz-adv-x="611" 
d="M55 0q-11 11 -17.5 24t-6.5 29q30 0 43 13t13 42v292q0 26 -14.5 38t-52.5 12v45q23 13 58.5 24t69 17.5t51.5 6.5q21 0 34.5 -13t15.5 -56q25 31 63.5 50t89.5 19q70 0 105.5 -35.5t35.5 -120.5v-273q0 -49 48 -58l1 -29q-10 -10 -32 -17.5t-47.5 -11.5t-47.5 -4
q-43 0 -63.5 16t-20.5 51v312q0 41 -18 57t-44 16q-41 0 -69 -33v-305q0 -29 12.5 -42t42.5 -13q0 -30 -23 -53h-227zM386 611q-30 0 -47.5 10.5t-34.5 23.5q-14 11 -27.5 19t-29.5 8t-35 -10t-41 -35q-3 -3 -8 -3q-13 0 -28.5 16t-15.5 34q0 5 1 8q7 21 25 42.5t44 36
t57 14.5q37 0 57 -11.5t37 -26.5q11 -10 22.5 -16.5t22.5 -6.5q17 0 35.5 10t40.5 35q3 3 8 3q13 0 28.5 -16t15.5 -35q0 -5 -1 -7q-10 -20 -26 -41.5t-40 -36.5t-60 -15z" />
    <glyph glyph-name="ograve" unicode="&#xf2;" horiz-adv-x="552" 
d="M271 -13q-71 0 -126 30.5t-85.5 90t-30.5 147.5q0 94 32 158t89 97t131 33q72 0 126.5 -31t85 -91.5t30.5 -149.5q0 -93 -32 -156.5t-89 -95.5t-131 -32zM279 59q21 0 36.5 15t24 55.5t8.5 117.5q0 94 -9 142.5t-26 65.5t-40 17q-21 0 -37 -15t-24.5 -56t-8.5 -119
q0 -93 9.5 -141t26.5 -65t40 -17zM313 597q-20 0 -49 10.5t-60 28t-57.5 39t-43 45t-16.5 44.5q0 17 10.5 35.5t30.5 31.5t46 13q22 -41 54.5 -79.5t69 -69.5t68.5 -52q-3 -24 -18 -35t-35 -11z" />
    <glyph glyph-name="oacute" unicode="&#xf3;" horiz-adv-x="552" 
d="M271 -13q-71 0 -126 30.5t-85.5 90t-30.5 147.5q0 94 32 158t89 97t131 33q72 0 126.5 -31t85 -91.5t30.5 -149.5q0 -93 -32 -156.5t-89 -95.5t-131 -32zM279 59q21 0 36.5 15t24 55.5t8.5 117.5q0 94 -9 142.5t-26 65.5t-40 17q-21 0 -37 -15t-24.5 -56t-8.5 -119
q0 -93 9.5 -141t26.5 -65t40 -17zM219 611q-19 0 -34.5 11t-18.5 35q32 21 68 52t69 69.5t55 79.5q27 0 46.5 -13t30 -31.5t10.5 -35.5q0 -27 -25 -56t-62 -54.5t-75 -41t-64 -15.5z" />
    <glyph glyph-name="ocircumflex" unicode="&#xf4;" horiz-adv-x="552" 
d="M271 -13q-71 0 -126 30.5t-85.5 90t-30.5 147.5q0 94 32 158t89 97t131 33q72 0 126.5 -31t85 -91.5t30.5 -149.5q0 -93 -32 -156.5t-89 -95.5t-131 -32zM279 59q21 0 36.5 15t24 55.5t8.5 117.5q0 94 -9 142.5t-26 65.5t-40 17q-21 0 -37 -15t-24.5 -56t-8.5 -119
q0 -93 9.5 -141t26.5 -65t40 -17zM143 599q-19 7 -34 21t-20 30l148 164h76l149 -164q-6 -16 -21 -30t-34 -21l-132 99z" />
    <glyph glyph-name="otilde" unicode="&#xf5;" horiz-adv-x="552" 
d="M271 -13q-71 0 -126 30.5t-85.5 90t-30.5 147.5q0 94 32 158t89 97t131 33q72 0 126.5 -31t85 -91.5t30.5 -149.5q0 -93 -32 -156.5t-89 -95.5t-131 -32zM279 59q21 0 36.5 15t24 55.5t8.5 117.5q0 94 -9 142.5t-26 65.5t-40 17q-21 0 -37 -15t-24.5 -56t-8.5 -119
q0 -93 9.5 -141t26.5 -65t40 -17zM346 598q-30 0 -47.5 10.5t-34.5 23.5q-14 11 -27.5 19t-29.5 8t-35 -10t-41 -35q-3 -3 -8 -3q-13 0 -28.5 16t-15.5 34q0 5 1 8q7 21 25 42.5t44 36t57 14.5q37 0 57 -11.5t37 -26.5q11 -10 22.5 -16.5t22.5 -6.5q17 0 35.5 10t40.5 35
q3 3 8 3q13 0 28.5 -16t15.5 -35q0 -5 -1 -7q-10 -20 -26 -41.5t-40 -36.5t-60 -15z" />
    <glyph glyph-name="odieresis" unicode="&#xf6;" horiz-adv-x="552" 
d="M271 -13q-71 0 -126 30.5t-85.5 90t-30.5 147.5q0 94 32 158t89 97t131 33q72 0 126.5 -31t85 -91.5t30.5 -149.5q0 -93 -32 -156.5t-89 -95.5t-131 -32zM279 59q21 0 36.5 15t24 55.5t8.5 117.5q0 94 -9 142.5t-26 65.5t-40 17q-21 0 -37 -15t-24.5 -56t-8.5 -119
q0 -93 9.5 -141t26.5 -65t40 -17zM398 613q-40 0 -60 28.5t-20 66.5t20 65.5t60 27.5q41 0 61 -27t20 -65t-20 -67t-61 -29zM154 613q-40 0 -60.5 28.5t-20.5 66.5t20.5 65.5t60.5 27.5t60 -27t20 -65t-20 -67t-60 -29z" />
    <glyph glyph-name="divide" unicode="&#xf7;" horiz-adv-x="629" 
d="M320 471q-42 0 -67 25.5t-25 66.5t25 66.5t67 25.5q43 0 68.5 -25.5t25.5 -66.5t-25.5 -66.5t-68.5 -25.5zM58 267q-4 11 -6 26t-2 29q0 18 2.5 34t7.5 25h511q5 -10 6.5 -26t1.5 -33q0 -16 -1.5 -31t-6.5 -24h-513zM320 -10q-42 0 -67 26t-25 67t25 66t67 25
q43 0 68.5 -25t25.5 -66t-25.5 -67t-68.5 -26z" />
    <glyph glyph-name="oslash" unicode="&#xf8;" horiz-adv-x="552" 
d="M96 -29q-16 2 -32 15q-6 5 -9 10t-5 11l41 54q-30 34 -46 82.5t-16 111.5q0 94 32 158t89 97t131 33q75 0 130 -33l37 51q6 -1 13.5 -4t13.5 -8q8 -6 13 -12.5t8 -12.5l-39 -52q31 -34 48.5 -84.5t17.5 -116.5q0 -93 -32 -156.5t-89 -95.5t-131 -32q-79 0 -135 36z
M203 282q0 -42 2 -75l130 201q-10 38 -25.5 51t-36.5 13t-37 -15t-24.5 -56t-8.5 -119zM279 59q21 0 36.5 15t24 55.5t8.5 117.5q0 48 -3 85l-130 -202q10 -42 26 -56.5t38 -14.5z" />
    <glyph glyph-name="ugrave" unicode="&#xf9;" horiz-adv-x="572" 
d="M216 -7q-70 0 -109 43t-39 116v275q0 17 -13 24t-36 7v44q13 11 54.5 23.5t93.5 12.5q39 0 51.5 -9t12.5 -44v-336q0 -30 10 -46t35 -16q21 0 40.5 13t32.5 30v297q0 17 -15 24t-41 7v44q14 11 55 23.5t97 12.5q39 0 53 -9t14 -44v-368q0 -24 12.5 -40t35.5 -18v-28
q-16 -19 -50.5 -28.5t-66.5 -9.5q-33 0 -57.5 17.5t-32.5 50.5q-49 -68 -137 -68zM323 597q-20 0 -49 10.5t-60 28t-57.5 39t-43 45t-16.5 44.5q0 17 10.5 35.5t30.5 31.5t46 13q22 -41 54.5 -79.5t69 -69.5t68.5 -52q-3 -24 -18 -35t-35 -11z" />
    <glyph glyph-name="uacute" unicode="&#xfa;" horiz-adv-x="572" 
d="M216 -7q-70 0 -109 43t-39 116v275q0 17 -13 24t-36 7v44q13 11 54.5 23.5t93.5 12.5q39 0 51.5 -9t12.5 -44v-336q0 -30 10 -46t35 -16q21 0 40.5 13t32.5 30v297q0 17 -15 24t-41 7v44q14 11 55 23.5t97 12.5q39 0 53 -9t14 -44v-368q0 -24 12.5 -40t35.5 -18v-28
q-16 -19 -50.5 -28.5t-66.5 -9.5q-33 0 -57.5 17.5t-32.5 50.5q-49 -68 -137 -68zM229 611q-19 0 -34.5 11t-18.5 35q32 21 68 52t69 69.5t55 79.5q27 0 46.5 -13t30 -31.5t10.5 -35.5q0 -27 -25 -56t-62 -54.5t-75 -41t-64 -15.5z" />
    <glyph glyph-name="ucircumflex" unicode="&#xfb;" horiz-adv-x="572" 
d="M216 -7q-70 0 -109 43t-39 116v275q0 17 -13 24t-36 7v44q13 11 54.5 23.5t93.5 12.5q39 0 51.5 -9t12.5 -44v-336q0 -30 10 -46t35 -16q21 0 40.5 13t32.5 30v297q0 17 -15 24t-41 7v44q14 11 55 23.5t97 12.5q39 0 53 -9t14 -44v-368q0 -24 12.5 -40t35.5 -18v-28
q-16 -19 -50.5 -28.5t-66.5 -9.5q-33 0 -57.5 17.5t-32.5 50.5q-49 -68 -137 -68zM153 599q-19 7 -34 21t-20 30l148 164h76l149 -164q-6 -16 -21 -30t-34 -21l-132 99z" />
    <glyph glyph-name="udieresis" unicode="&#xfc;" horiz-adv-x="572" 
d="M216 -7q-70 0 -109 43t-39 116v275q0 17 -13 24t-36 7v44q13 11 54.5 23.5t93.5 12.5q39 0 51.5 -9t12.5 -44v-336q0 -30 10 -46t35 -16q21 0 40.5 13t32.5 30v297q0 17 -15 24t-41 7v44q14 11 55 23.5t97 12.5q39 0 53 -9t14 -44v-368q0 -24 12.5 -40t35.5 -18v-28
q-16 -19 -50.5 -28.5t-66.5 -9.5q-33 0 -57.5 17.5t-32.5 50.5q-49 -68 -137 -68zM408 613q-40 0 -60 28.5t-20 66.5t20 65.5t60 27.5q41 0 61 -27t20 -65t-20 -67t-61 -29zM164 613q-40 0 -60.5 28.5t-20.5 66.5t20.5 65.5t60.5 27.5t60 -27t20 -65t-20 -67t-60 -29z" />
    <glyph glyph-name="yacute" unicode="&#xfd;" horiz-adv-x="530" 
d="M161 -211q-62 0 -93 26t-31 62q0 24 11.5 43t29.5 27q27 -32 80 -32q30 0 61.5 29.5t52.5 92.5h-82l-154 374q-12 29 -21 44t-40 15q0 17 5 33t16 28h236q24 -26 24 -61q-25 0 -35.5 -13t-10.5 -33q0 -7 1 -15.5t4 -17.5l93 -271l66 284q3 14 3 24q0 42 -49 42q0 17 4 33
t15 28h193q11 -12 15.5 -28t4.5 -33q-25 0 -38.5 -12t-22.5 -40l-114 -355q-44 -142 -94.5 -208t-129.5 -66zM234 611q-19 0 -34.5 11t-18.5 35q32 21 68 52t69 69.5t55 79.5q27 0 46.5 -13t30 -31.5t10.5 -35.5q0 -27 -25 -56t-62 -54.5t-75 -41t-64 -15.5z" />
    <glyph glyph-name="thorn" unicode="&#xfe;" horiz-adv-x="569" 
d="M46 -190q-11 11 -17.5 24t-6.5 29q30 0 37.5 13t7.5 42v728q0 23 -14 36t-47 13v32q23 16 54.5 28.5t63 20.5t52.5 8q24 0 34 -10.5t10 -35.5v-142l-3 -95q20 21 49.5 30t63.5 9q55 0 103 -28t78 -84.5t30 -144.5q0 -96 -37 -160.5t-99 -97.5t-137 -33q-11 0 -24.5 1
t-23.5 3v-78q0 -29 24 -42t46 -13q0 -30 -23 -53h-221zM271 65q27 0 49.5 16t35.5 56.5t13 111.5q0 110 -31 158t-77 48q-25 0 -41 -11v-360q10 -10 23.5 -14.5t27.5 -4.5z" />
    <glyph glyph-name="ydieresis" unicode="&#xff;" horiz-adv-x="530" 
d="M161 -211q-62 0 -93 26t-31 62q0 24 11.5 43t29.5 27q27 -32 80 -32q30 0 61.5 29.5t52.5 92.5h-82l-154 374q-12 29 -21 44t-40 15q0 17 5 33t16 28h236q24 -26 24 -61q-25 0 -35.5 -13t-10.5 -33q0 -7 1 -15.5t4 -17.5l93 -271l66 284q3 14 3 24q0 42 -49 42q0 17 4 33
t15 28h193q11 -12 15.5 -28t4.5 -33q-25 0 -38.5 -12t-22.5 -40l-114 -355q-44 -142 -94.5 -208t-129.5 -66zM413 613q-40 0 -60 28.5t-20 66.5t20 65.5t60 27.5q41 0 61 -27t20 -65t-20 -67t-61 -29zM169 613q-40 0 -60.5 28.5t-20.5 66.5t20.5 65.5t60.5 27.5t60 -27
t20 -65t-20 -67t-60 -29z" />
    <glyph glyph-name="Amacron" unicode="&#x100;" horiz-adv-x="677" 
d="M3 0q-23 25 -23 64q27 0 50.5 16t34.5 49l164 484q-40 13 -101 13q0 43 24 72h274l186 -566q11 -33 35 -50.5t50 -17.5q0 -39 -23 -64h-271q-23 25 -23 64q26 0 41.5 11.5t15.5 36.5q0 9 -1.5 21t-5.5 26l-6 21h-224l-6 -21q-4 -13 -6.5 -24t-2.5 -20q0 -27 17 -39
t47 -12q0 -39 -23 -64h-223zM222 258h180l-71 248q-9 30 -23 51zM174 768q-3 8 -4.5 20t-1.5 24q0 14 1.5 26.5t5.5 19.5h313q3 -8 4.5 -20.5t1.5 -25.5q0 -29 -5 -44h-315z" />
    <glyph glyph-name="amacron" unicode="&#x101;" horiz-adv-x="537" 
d="M190 -7q-75 0 -121.5 41.5t-46.5 106.5t42.5 105t131.5 40q29 0 61 -5.5t52 -16.5v133q0 42 -21.5 58.5t-52.5 16.5q-33 0 -54 -16q20 -7 29 -21.5t9 -31.5q0 -33 -23.5 -52.5t-57.5 -19.5q-38 0 -61 22.5t-23 56.5t23 64.5t71.5 50.5t125.5 20q201 0 201 -159v-265
q0 -48 46 -58v-32q-13 -19 -44 -28.5t-60 -9.5q-68 0 -96 47q-20 -18 -53 -32.5t-78 -14.5zM255 74q14 0 29 4.5t25 11.5v97q-10 7 -25.5 12t-30.5 5q-26 0 -45 -16.5t-19 -51.5q0 -27 18 -44.5t48 -17.5zM117 617q-3 8 -4.5 22.5t-1.5 26.5q0 14 1.5 29t5.5 22h313
q3 -8 4.5 -23t1.5 -28t-1.5 -27.5t-3.5 -21.5h-315z" />
    <glyph glyph-name="Abreve" unicode="&#x102;" horiz-adv-x="677" 
d="M3 0q-23 25 -23 64q27 0 50.5 16t34.5 49l164 484q-40 13 -101 13q0 43 24 72h274l186 -566q11 -33 35 -50.5t50 -17.5q0 -39 -23 -64h-271q-23 25 -23 64q26 0 41.5 11.5t15.5 36.5q0 9 -1.5 21t-5.5 26l-6 21h-224l-6 -21q-4 -13 -6.5 -24t-2.5 -20q0 -27 17 -39
t47 -12q0 -39 -23 -64h-223zM222 258h180l-71 248q-9 30 -23 51zM331 751q-83 0 -131.5 44t-48.5 128q3 10 15.5 15t26.5 5q13 0 27 -4t19 -12q0 -34 24.5 -55.5t67.5 -21.5t67.5 21.5t24.5 55.5q5 8 19.5 12t26.5 4q15 0 27.5 -5t14.5 -15q0 -84 -48.5 -128t-131.5 -44z
" />
    <glyph glyph-name="abreve" unicode="&#x103;" horiz-adv-x="537" 
d="M190 -7q-75 0 -121.5 41.5t-46.5 106.5t42.5 105t131.5 40q29 0 61 -5.5t52 -16.5v133q0 42 -21.5 58.5t-52.5 16.5q-33 0 -54 -16q20 -7 29 -21.5t9 -31.5q0 -33 -23.5 -52.5t-57.5 -19.5q-38 0 -61 22.5t-23 56.5t23 64.5t71.5 50.5t125.5 20q201 0 201 -159v-265
q0 -48 46 -58v-32q-13 -19 -44 -28.5t-60 -9.5q-68 0 -96 47q-20 -18 -53 -32.5t-78 -14.5zM255 74q14 0 29 4.5t25 11.5v97q-10 7 -25.5 12t-30.5 5q-26 0 -45 -16.5t-19 -51.5q0 -27 18 -44.5t48 -17.5zM274 608q-83 0 -131.5 49t-48.5 133q3 10 15.5 15t26.5 5
q13 0 27 -4t19 -12q0 -34 23.5 -61.5t68.5 -27.5t68.5 27.5t23.5 61.5q5 8 19.5 12t26.5 4q15 0 27 -5t15 -15q0 -84 -48.5 -133t-131.5 -49z" />
    <glyph glyph-name="Aogonek" unicode="&#x104;" horiz-adv-x="678" 
d="M3 0q-23 25 -23 64q27 0 50.5 16t34.5 49l164 484q-40 13 -101 13q0 43 24 72h274l186 -566q11 -33 35 -50.5t50 -17.5q0 -39 -23 -64h-44q-44 -12 -65.5 -38.5t-21.5 -58.5q0 -22 20 -30.5t43 -8.5q21 0 40 5.5t28 12.5q5 -7 6.5 -18t1.5 -20q0 -14 -3.5 -27.5
t-14.5 -24.5q-13 -13 -41.5 -22.5t-63.5 -9.5q-31 0 -61 11t-49.5 36t-19.5 66q0 45 23.5 76.5t54.5 50.5h-104q-23 25 -23 64q26 0 41.5 11.5t15.5 36.5q0 9 -1.5 21t-5.5 26l-6 21h-224l-6 -21q-4 -13 -6.5 -24t-2.5 -20q0 -27 17 -39t47 -12q0 -39 -23 -64h-223zM222 258
h180l-71 248q-9 30 -23 51z" />
    <glyph glyph-name="aogonek" unicode="&#x105;" horiz-adv-x="522" 
d="M190 -7q-75 0 -121.5 41.5t-46.5 106.5t42.5 105t131.5 40q29 0 61 -5.5t52 -16.5v133q0 42 -21.5 58.5t-52.5 16.5q-33 0 -54 -16q20 -7 29 -21.5t9 -31.5q0 -33 -23.5 -52.5t-57.5 -19.5q-38 0 -61 22.5t-23 56.5t23 64.5t71.5 50.5t125.5 20q201 0 201 -159v-265
q0 -48 46 -58v-32q-10 -14 -30.5 -23t-42.5 -12q-34 -14 -51 -38.5t-17 -52.5q0 -22 20 -30.5t43 -8.5q21 0 40 5.5t28 12.5q5 -7 6.5 -18t1.5 -20q0 -14 -3.5 -27.5t-14.5 -24.5q-13 -13 -41.5 -22.5t-63.5 -9.5q-31 0 -61 11t-49.5 36t-19.5 66q0 49 26.5 81.5t61.5 51.5
q-21 12 -33 32q-20 -18 -53 -32.5t-78 -14.5zM255 74q14 0 29 4.5t25 11.5v97q-10 7 -25.5 12t-30.5 5q-26 0 -45 -16.5t-19 -51.5q0 -27 18 -44.5t48 -17.5z" />
    <glyph glyph-name="Cacute" unicode="&#x106;" horiz-adv-x="574" 
d="M344 -14q-85 0 -158 40t-117 121.5t-44 204.5q0 118 39.5 197t110 119.5t163.5 40.5q22 0 50 -6t49 -16q10 5 27 9.5t34.5 8.5t27.5 4q13 -32 19 -75.5t8 -86t2 -72.5h-113q-8 65 -35.5 106t-71.5 41q-58 0 -95.5 -55t-37.5 -180q0 -103 28 -164.5t74 -88t99 -26.5
q46 0 78 17.5t45 36.5q13 -9 20.5 -27.5t7.5 -32.5q0 -23 -24.5 -50.5t-71 -46.5t-114.5 -19zM307 737q-19 0 -34.5 11t-18.5 35q32 21 68 52t69 69.5t55 79.5q27 0 46.5 -13t30 -31.5t10.5 -35.5q0 -27 -25 -56t-62 -54.5t-75 -41t-64 -15.5z" />
    <glyph glyph-name="cacute" unicode="&#x107;" horiz-adv-x="465" 
d="M276 -15q-73 0 -128.5 33t-87 94.5t-31.5 147.5q0 89 34 152.5t93 97t133 33.5q77 0 117 -36.5t40 -89.5q0 -48 -24 -74t-62 -26q-31 0 -52 23t-21 56q0 24 8.5 39t21.5 25q-10 6 -16.5 7.5t-12.5 1.5q-19 0 -39 -15t-33.5 -53t-13.5 -106q0 -110 32 -154.5t90 -44.5
q27 0 54.5 8t46.5 23q8 -10 13.5 -24.5t5.5 -25.5q0 -21 -22.5 -42.5t-60.5 -35.5t-85 -14zM230 611q-19 0 -34.5 11t-18.5 35q32 21 68 52t69 69.5t55 79.5q27 0 46.5 -13t30 -31.5t10.5 -35.5q0 -27 -25 -56t-62 -54.5t-75 -41t-64 -15.5z" />
    <glyph glyph-name="Ccircumflex" unicode="&#x108;" horiz-adv-x="574" 
d="M344 -14q-85 0 -158 40t-117 121.5t-44 204.5q0 118 39.5 197t110 119.5t163.5 40.5q22 0 50 -6t49 -16q10 5 27 9.5t34.5 8.5t27.5 4q13 -32 19 -75.5t8 -86t2 -72.5h-113q-8 65 -35.5 106t-71.5 41q-58 0 -95.5 -55t-37.5 -180q0 -103 28 -164.5t74 -88t99 -26.5
q46 0 78 17.5t45 36.5q13 -9 20.5 -27.5t7.5 -32.5q0 -23 -24.5 -50.5t-71 -46.5t-114.5 -19zM206 732q-19 7 -34 21t-20 30l148 164h76l149 -164q-6 -16 -21 -30t-34 -21l-132 99z" />
    <glyph glyph-name="ccircumflex" unicode="&#x109;" horiz-adv-x="465" 
d="M276 -15q-73 0 -128.5 33t-87 94.5t-31.5 147.5q0 89 34 152.5t93 97t133 33.5q77 0 117 -36.5t40 -89.5q0 -48 -24 -74t-62 -26q-31 0 -52 23t-21 56q0 24 8.5 39t21.5 25q-10 6 -16.5 7.5t-12.5 1.5q-19 0 -39 -15t-33.5 -53t-13.5 -106q0 -110 32 -154.5t90 -44.5
q27 0 54.5 8t46.5 23q8 -10 13.5 -24.5t5.5 -25.5q0 -21 -22.5 -42.5t-60.5 -35.5t-85 -14zM154 599q-19 7 -34 21t-20 30l148 164h76l149 -164q-6 -16 -21 -30t-34 -21l-132 99z" />
    <glyph glyph-name="Cdotaccent" unicode="&#x10a;" horiz-adv-x="574" 
d="M344 -14q-85 0 -158 40t-117 121.5t-44 204.5q0 118 39.5 197t110 119.5t163.5 40.5q22 0 50 -6t49 -16q10 5 27 9.5t34.5 8.5t27.5 4q13 -32 19 -75.5t8 -86t2 -72.5h-113q-8 65 -35.5 106t-71.5 41q-58 0 -95.5 -55t-37.5 -180q0 -103 28 -164.5t74 -88t99 -26.5
q46 0 78 17.5t45 36.5q13 -9 20.5 -27.5t7.5 -32.5q0 -23 -24.5 -50.5t-71 -46.5t-114.5 -19zM338 751q-43 0 -68.5 25.5t-25.5 68.5q0 42 26.5 68t69.5 26q44 0 69 -26t25 -68q0 -43 -26 -68.5t-70 -25.5z" />
    <glyph glyph-name="cdotaccent" unicode="&#x10b;" horiz-adv-x="465" 
d="M276 -15q-73 0 -128.5 33t-87 94.5t-31.5 147.5q0 89 34 152.5t93 97t133 33.5q77 0 117 -36.5t40 -89.5q0 -48 -24 -74t-62 -26q-31 0 -52 23t-21 56q0 24 8.5 39t21.5 25q-10 6 -16.5 7.5t-12.5 1.5q-19 0 -39 -15t-33.5 -53t-13.5 -106q0 -110 32 -154.5t90 -44.5
q27 0 54.5 8t46.5 23q8 -10 13.5 -24.5t5.5 -25.5q0 -21 -22.5 -42.5t-60.5 -35.5t-85 -14zM287 613q-43 0 -69 25.5t-26 68.5q0 42 26 68t69 26q44 0 69.5 -26t25.5 -68q0 -43 -25.5 -68.5t-69.5 -25.5z" />
    <glyph glyph-name="Ccaron" unicode="&#x10c;" horiz-adv-x="574" 
d="M344 -14q-85 0 -158 40t-117 121.5t-44 204.5q0 118 39.5 197t110 119.5t163.5 40.5q22 0 50 -6t49 -16q10 5 27 9.5t34.5 8.5t27.5 4q13 -32 19 -75.5t8 -86t2 -72.5h-113q-8 65 -35.5 106t-71.5 41q-58 0 -95.5 -55t-37.5 -180q0 -103 28 -164.5t74 -88t99 -26.5
q46 0 78 17.5t45 36.5q13 -9 20.5 -27.5t7.5 -32.5q0 -23 -24.5 -50.5t-71 -46.5t-114.5 -19zM301 751l-148 163q5 17 20 31t34 21l132 -101l131 101q19 -7 34 -21t21 -31l-148 -163h-76z" />
    <glyph glyph-name="ccaron" unicode="&#x10d;" horiz-adv-x="465" 
d="M276 -15q-73 0 -128.5 33t-87 94.5t-31.5 147.5q0 89 34 152.5t93 97t133 33.5q77 0 117 -36.5t40 -89.5q0 -48 -24 -74t-62 -26q-31 0 -52 23t-21 56q0 24 8.5 39t21.5 25q-10 6 -16.5 7.5t-12.5 1.5q-19 0 -39 -15t-33.5 -53t-13.5 -106q0 -110 32 -154.5t90 -44.5
q27 0 54.5 8t46.5 23q8 -10 13.5 -24.5t5.5 -25.5q0 -21 -22.5 -42.5t-60.5 -35.5t-85 -14zM249 607l-148 163q5 17 20 31t34 21l132 -101l131 101q19 -7 34 -21t21 -31l-148 -163h-76z" />
    <glyph glyph-name="Dcaron" unicode="&#x10e;" horiz-adv-x="668" 
d="M292 -11q-23 0 -52 3t-74 5.5t-118 2.5q-22 28 -22 64q33 0 47.5 11.5t14.5 39.5v470q0 27 -14.5 38.5t-47.5 11.5q0 38 22 63q99 0 167.5 6t90.5 6q87 0 150 -27.5t104 -75t61 -110t20 -133.5q0 -77 -20 -145t-62.5 -119.5t-108.5 -81t-158 -29.5zM284 72q55 0 95 27
t62 88t22 162q0 146 -51 213.5t-136 67.5h-13t-11 -2v-554q8 -1 16.5 -1.5t15.5 -0.5zM266 751l-148 163q5 17 20 31t34 21l132 -101l131 101q19 -7 34 -21t21 -31l-148 -163h-76z" />
    <glyph glyph-name="dcaron" unicode="&#x10f;" horiz-adv-x="696" 
d="M235 -13q-54 0 -101.5 27.5t-76.5 83.5t-29 141q0 101 37.5 168t98 100t129.5 33q13 0 29 -1t32 -3l-3 60v50q0 23 -13 36t-54 13v41q25 14 59 25t67 17.5t53 6.5q23 0 33.5 -10.5t10.5 -35.5v-628q0 -49 48 -58l1 -28q-14 -19 -43 -28.5t-59 -9.5q-26 0 -55 11.5
t-41 35.5q-21 -28 -51.5 -37.5t-71.5 -9.5zM304 72q31 0 47 18v350q-21 29 -56 29q-27 0 -49 -18.5t-35 -61t-13 -115.5q0 -103 30.5 -152.5t75.5 -49.5zM591 519q-19 0 -35 13q3 35 3.5 75.5t0.5 79.5v69q8 8 30 15t39 7q35 0 44 -19.5t9 -60.5q0 -27 -9 -57.5t-20.5 -56
t-20.5 -37.5q-9 -13 -19.5 -20.5t-21.5 -7.5z" />
    <glyph glyph-name="Dcroat" unicode="&#x110;" horiz-adv-x="668" 
d="M292 -11q-23 0 -52 3t-74 5.5t-118 2.5q-22 28 -22 64q33 0 47.5 11.5t14.5 39.5v218h-49v78h49v174q0 27 -14.5 38.5t-47.5 11.5q0 38 22 63q99 0 167.5 6t90.5 6q87 0 150 -27.5t104 -75t61 -110t20 -133.5q0 -77 -20 -145t-62.5 -119.5t-108.5 -81t-158 -29.5zM284 72
q55 0 95 27t62 88t22 162q0 146 -51 213.5t-136 67.5h-13t-11 -2v-217h108q0 -19 -1.5 -41.5t-14.5 -36.5h-92v-259q8 -1 16.5 -1.5t15.5 -0.5z" />
    <glyph glyph-name="dcroat" unicode="&#x111;" horiz-adv-x="568" 
d="M235 -13q-54 0 -101.5 27.5t-76.5 83.5t-29 141q0 101 37.5 168t98 100t129.5 33q13 0 29 -1t32 -3l-2 44h-112q-7 14 -7 31t7 31h111v4q0 23 -13 36t-54 13v41q25 14 59 25t67 17.5t53 6.5q23 0 33.5 -10.5t10.5 -35.5v-97h50q7 -14 7 -31t-7 -31h-50v-469q0 -49 48 -58
l1 -28q-14 -19 -43 -28.5t-59 -9.5q-26 0 -55 11.5t-41 35.5q-21 -28 -51.5 -37.5t-71.5 -9.5zM304 72q31 0 47 18v350q-21 29 -56 29q-27 0 -49 -18.5t-35 -61t-13 -115.5q0 -103 30.5 -152.5t75.5 -49.5z" />
    <glyph glyph-name="Emacron" unicode="&#x112;" horiz-adv-x="615" 
d="M554 -16l-15 5t-27 11h-463q-10 13 -16.5 29.5t-6.5 33.5q33 0 49.5 12t16.5 40v469q0 28 -16 39.5t-49 11.5q0 17 6.5 33.5t16.5 29.5h388q18 8 40 12.5t41 4.5q9 -16 20.5 -46.5t20.5 -60.5t9 -47q-8 -8 -25.5 -16t-35.5 -14t-30 -9q-11 33 -38.5 62t-67.5 29h-113
v-211h72q28 0 46.5 16.5t18.5 56.5q45 0 81 -21v-186q-34 -21 -80 -21q0 40 -18.5 58t-46.5 18h-73v-235h121q44 0 74.5 36.5t37.5 86.5h107q0 -15 -4.5 -46.5t-11 -68t-14.5 -67.5t-15 -45zM151 768q-3 8 -4.5 20t-1.5 24q0 14 1.5 26.5t5.5 19.5h313q3 -8 4.5 -20.5
t1.5 -25.5q0 -29 -5 -44h-315z" />
    <glyph glyph-name="emacron" unicode="&#x113;" horiz-adv-x="505" 
d="M274 -9q-112 0 -178.5 71t-66.5 198q0 87 33 150.5t89.5 97.5t128.5 34q90 0 144.5 -52.5t54.5 -147.5q0 -38 -12.5 -66.5t-51.5 -28.5h-216q3 -79 36.5 -112t87.5 -33q34 0 63 10.5t54 29.5q9 -8 14.5 -24.5t5.5 -27.5q0 -16 -22.5 -39.5t-64 -41.5t-99.5 -18zM199 323
h101q17 0 21.5 13t4.5 32q0 64 -15.5 84.5t-36.5 20.5q-17 0 -34 -13t-28 -45.5t-13 -91.5zM125 617q-3 8 -4.5 22.5t-1.5 26.5q0 14 1.5 29t5.5 22h313q3 -8 4.5 -23t1.5 -28t-1.5 -27.5t-3.5 -21.5h-315z" />
    <glyph glyph-name="Ebreve" unicode="&#x114;" horiz-adv-x="615" 
d="M554 -16l-15 5t-27 11h-463q-10 13 -16.5 29.5t-6.5 33.5q33 0 49.5 12t16.5 40v469q0 28 -16 39.5t-49 11.5q0 17 6.5 33.5t16.5 29.5h388q18 8 40 12.5t41 4.5q9 -16 20.5 -46.5t20.5 -60.5t9 -47q-8 -8 -25.5 -16t-35.5 -14t-30 -9q-11 33 -38.5 62t-67.5 29h-113
v-211h72q28 0 46.5 16.5t18.5 56.5q45 0 81 -21v-186q-34 -21 -80 -21q0 40 -18.5 58t-46.5 18h-73v-235h121q44 0 74.5 36.5t37.5 86.5h107q0 -15 -4.5 -46.5t-11 -68t-14.5 -67.5t-15 -45zM308 751q-83 0 -131.5 44t-48.5 128q3 10 15.5 15t26.5 5q13 0 27 -4t19 -12
q0 -34 24.5 -55.5t67.5 -21.5t67.5 21.5t24.5 55.5q5 8 19.5 12t26.5 4q15 0 27.5 -5t14.5 -15q0 -84 -48.5 -128t-131.5 -44z" />
    <glyph glyph-name="ebreve" unicode="&#x115;" horiz-adv-x="505" 
d="M274 -9q-112 0 -178.5 71t-66.5 198q0 87 33 150.5t89.5 97.5t128.5 34q90 0 144.5 -52.5t54.5 -147.5q0 -38 -12.5 -66.5t-51.5 -28.5h-216q3 -79 36.5 -112t87.5 -33q34 0 63 10.5t54 29.5q9 -8 14.5 -24.5t5.5 -27.5q0 -16 -22.5 -39.5t-64 -41.5t-99.5 -18zM199 323
h101q17 0 21.5 13t4.5 32q0 64 -15.5 84.5t-36.5 20.5q-17 0 -34 -13t-28 -45.5t-13 -91.5zM282 608q-83 0 -131.5 49t-48.5 133q3 10 15.5 15t26.5 5q13 0 27 -4t19 -12q0 -34 23.5 -61.5t68.5 -27.5t68.5 27.5t23.5 61.5q5 8 19.5 12t26.5 4q15 0 27 -5t15 -15
q0 -84 -48.5 -133t-131.5 -49z" />
    <glyph glyph-name="Edotaccent" unicode="&#x116;" horiz-adv-x="615" 
d="M554 -16l-15 5t-27 11h-463q-10 13 -16.5 29.5t-6.5 33.5q33 0 49.5 12t16.5 40v469q0 28 -16 39.5t-49 11.5q0 17 6.5 33.5t16.5 29.5h388q18 8 40 12.5t41 4.5q9 -16 20.5 -46.5t20.5 -60.5t9 -47q-8 -8 -25.5 -16t-35.5 -14t-30 -9q-11 33 -38.5 62t-67.5 29h-113
v-211h72q28 0 46.5 16.5t18.5 56.5q45 0 81 -21v-186q-34 -21 -80 -21q0 40 -18.5 58t-46.5 18h-73v-235h121q44 0 74.5 36.5t37.5 86.5h107q0 -15 -4.5 -46.5t-11 -68t-14.5 -67.5t-15 -45zM307 751q-43 0 -68.5 25.5t-25.5 68.5q0 42 26.5 68t69.5 26q44 0 69 -26t25 -68
q0 -43 -26 -68.5t-70 -25.5z" />
    <glyph glyph-name="edotaccent" unicode="&#x117;" horiz-adv-x="505" 
d="M274 -9q-112 0 -178.5 71t-66.5 198q0 87 33 150.5t89.5 97.5t128.5 34q90 0 144.5 -52.5t54.5 -147.5q0 -38 -12.5 -66.5t-51.5 -28.5h-216q3 -79 36.5 -112t87.5 -33q34 0 63 10.5t54 29.5q9 -8 14.5 -24.5t5.5 -27.5q0 -16 -22.5 -39.5t-64 -41.5t-99.5 -18zM199 323
h101q17 0 21.5 13t4.5 32q0 64 -15.5 84.5t-36.5 20.5q-17 0 -34 -13t-28 -45.5t-13 -91.5zM282 613q-43 0 -69 25.5t-26 68.5q0 42 26 68t69 26q44 0 69.5 -26t25.5 -68q0 -43 -25.5 -68.5t-69.5 -25.5z" />
    <glyph glyph-name="Eogonek" unicode="&#x118;" horiz-adv-x="615" 
d="M422 -240q-31 0 -61 11t-49.5 36t-19.5 66q0 45 26 77.5t57 49.5h-326q-10 13 -16.5 29.5t-6.5 33.5q33 0 47 12t14 40v469q0 28 -14 39.5t-47 11.5q0 17 6.5 33.5t16.5 29.5h384q18 8 40 12.5t41 4.5q9 -16 18 -46.5t15.5 -60.5t6.5 -47q-8 -8 -26.5 -16t-37.5 -14
t-31 -9q-11 33 -33.5 62t-62.5 29h-109v-211h72q28 0 46.5 16.5t18.5 56.5q45 0 81 -21v-184q-34 -21 -80 -21q0 40 -18.5 58t-46.5 18h-73v-237h121q29 0 48.5 19t32.5 47t22 56h107q0 -15 -3 -46.5t-8 -68t-11.5 -67t-13.5 -44.5l-15 5t-27 11h-14q-43 -12 -65 -38.5
t-22 -58.5q0 -22 20 -30.5t43 -8.5q21 0 40 5.5t28 12.5q5 -7 6.5 -18t1.5 -20q0 -14 -3.5 -27.5t-14.5 -24.5q-13 -12 -41.5 -22t-63.5 -10z" />
    <glyph glyph-name="eogonek" unicode="&#x119;" horiz-adv-x="494" 
d="M300 -228q-31 0 -61 11t-49.5 36t-19.5 66q0 36 15.5 63.5t38.5 46.5q-90 15 -142.5 84t-52.5 181q0 87 33 150.5t89.5 97.5t128.5 34q90 0 144.5 -52.5t54.5 -147.5q0 -38 -12.5 -66.5t-51.5 -28.5h-216q3 -79 36.5 -112t87.5 -33q34 0 63 10.5t54 29.5q9 -8 14.5 -24.5
t5.5 -27.5q0 -13 -15 -31.5t-43 -35.5t-67 -25q-25 -15 -38 -36.5t-13 -46.5q0 -22 20 -30.5t43 -8.5q21 0 40 5.5t28 12.5q5 -7 6.5 -18t1.5 -20q0 -14 -3.5 -27.5t-14.5 -24.5q-13 -13 -41.5 -22.5t-63.5 -9.5zM199 323h101q17 0 21.5 13t4.5 32q0 64 -15.5 84.5
t-36.5 20.5q-17 0 -34 -13t-28 -45.5t-13 -91.5z" />
    <glyph glyph-name="Ecaron" unicode="&#x11a;" horiz-adv-x="615" 
d="M554 -16l-15 5t-27 11h-463q-10 13 -16.5 29.5t-6.5 33.5q33 0 49.5 12t16.5 40v469q0 28 -16 39.5t-49 11.5q0 17 6.5 33.5t16.5 29.5h388q18 8 40 12.5t41 4.5q9 -16 20.5 -46.5t20.5 -60.5t9 -47q-8 -8 -25.5 -16t-35.5 -14t-30 -9q-11 33 -38.5 62t-67.5 29h-113
v-211h72q28 0 46.5 16.5t18.5 56.5q45 0 81 -21v-186q-34 -21 -80 -21q0 40 -18.5 58t-46.5 18h-73v-235h121q44 0 74.5 36.5t37.5 86.5h107q0 -15 -4.5 -46.5t-11 -68t-14.5 -67.5t-15 -45zM270 751l-148 163q5 17 20 31t34 21l132 -101l131 101q19 -7 34 -21t21 -31
l-148 -163h-76z" />
    <glyph glyph-name="ecaron" unicode="&#x11b;" horiz-adv-x="505" 
d="M274 -9q-112 0 -178.5 71t-66.5 198q0 87 33 150.5t89.5 97.5t128.5 34q90 0 144.5 -52.5t54.5 -147.5q0 -38 -12.5 -66.5t-51.5 -28.5h-216q3 -79 36.5 -112t87.5 -33q34 0 63 10.5t54 29.5q9 -8 14.5 -24.5t5.5 -27.5q0 -16 -22.5 -39.5t-64 -41.5t-99.5 -18zM199 323
h101q17 0 21.5 13t4.5 32q0 64 -15.5 84.5t-36.5 20.5q-17 0 -34 -13t-28 -45.5t-13 -91.5zM244 607l-148 163q5 17 20 31t34 21l132 -101l131 101q19 -7 34 -21t21 -31l-148 -163h-76z" />
    <glyph glyph-name="Gcircumflex" unicode="&#x11c;" horiz-adv-x="664" 
d="M370 -14q-106 0 -183.5 45t-119.5 125t-42 183q0 123 42 205t116 123.5t170 41.5q23 0 53.5 -4t67.5 -18q10 5 27 9.5t34 8.5t27 4q13 -32 19 -73.5t8 -82t2 -70.5h-97q-10 65 -50 99.5t-94 34.5q-40 0 -72 -22t-50.5 -76.5t-18.5 -153.5q0 -106 17.5 -167.5t51 -88
t81.5 -26.5q54 0 79 26v114q0 26 -23 37.5t-70 11.5q0 17 7 41t17 36h216q30 0 45 -13.5t19.5 -29.5t4.5 -24q0 -10 -5 -18q-16 0 -30.5 -1.5t-25.5 -6.5v-115q0 -22 3.5 -31t7.5 -14q3 -3 5 -6.5t2 -11.5q0 -18 -32 -39.5t-86.5 -37t-122.5 -15.5zM223 732q-19 7 -34 21
t-20 30l148 164h76l149 -164q-6 -16 -21 -30t-34 -21l-132 99z" />
    <glyph glyph-name="gcircumflex" unicode="&#x11d;" horiz-adv-x="529" 
d="M245 164q-33 0 -63 7v-3q0 -25 19.5 -35t68.5 -14q127 -9 191.5 -46t64.5 -111q0 -39 -22 -73t-60.5 -59t-87.5 -39t-102 -14q-124 0 -180.5 44.5t-56.5 111.5q0 37 24.5 67t70.5 46q-22 16 -27.5 36t-5.5 44q0 16 13 35t40 29q-47 25 -73.5 69t-26.5 95t25 92.5t74 66.5
t122 25h1q9 0 27.5 -1t34.5 -4q69 0 105.5 1.5t55.5 3.5t37 5q11 0 16 -14.5t5 -27.5q0 -19 -9 -32t-30 -13q-9 0 -33 10t-46 18q34 -27 51.5 -62t17.5 -66q0 -94 -64 -143t-177 -49zM262 230q33 0 46.5 35t13.5 103q0 56 -15.5 80t-44.5 24q-33 0 -46 -34.5t-13 -94.5
q0 -55 14 -84t45 -29zM168 -41q0 -42 26 -71t93 -29q50 0 70 24t20 53q0 23 -20.5 36t-54.5 21t-76 15q-25 4 -45 9q-7 -13 -10 -28.5t-3 -29.5zM132 599q-19 7 -34 21t-20 30l148 164h76l149 -164q-6 -16 -21 -30t-34 -21l-132 99z" />
    <glyph glyph-name="Gbreve" unicode="&#x11e;" horiz-adv-x="664" 
d="M370 -14q-106 0 -183.5 45t-119.5 125t-42 183q0 123 42 205t116 123.5t170 41.5q23 0 53.5 -4t67.5 -18q10 5 27 9.5t34 8.5t27 4q13 -32 19 -73.5t8 -82t2 -70.5h-97q-10 65 -50 99.5t-94 34.5q-40 0 -72 -22t-50.5 -76.5t-18.5 -153.5q0 -106 17.5 -167.5t51 -88
t81.5 -26.5q54 0 79 26v114q0 26 -23 37.5t-70 11.5q0 17 7 41t17 36h216q30 0 45 -13.5t19.5 -29.5t4.5 -24q0 -10 -5 -18q-16 0 -30.5 -1.5t-25.5 -6.5v-115q0 -22 3.5 -31t7.5 -14q3 -3 5 -6.5t2 -11.5q0 -18 -32 -39.5t-86.5 -37t-122.5 -15.5zM356 751q-83 0 -131.5 44
t-48.5 128q3 10 15.5 15t26.5 5q13 0 27 -4t19 -12q0 -34 24.5 -55.5t67.5 -21.5t67.5 21.5t24.5 55.5q5 8 19.5 12t26.5 4q15 0 27.5 -5t14.5 -15q0 -84 -48.5 -128t-131.5 -44z" />
    <glyph glyph-name="gbreve" unicode="&#x11f;" horiz-adv-x="529" 
d="M245 164q-33 0 -63 7v-3q0 -25 19.5 -35t68.5 -14q127 -9 191.5 -46t64.5 -111q0 -39 -22 -73t-60.5 -59t-87.5 -39t-102 -14q-124 0 -180.5 44.5t-56.5 111.5q0 37 24.5 67t70.5 46q-22 16 -27.5 36t-5.5 44q0 16 13 35t40 29q-47 25 -73.5 69t-26.5 95t25 92.5t74 66.5
t122 25h1q9 0 27.5 -1t34.5 -4q69 0 105.5 1.5t55.5 3.5t37 5q11 0 16 -14.5t5 -27.5q0 -19 -9 -32t-30 -13q-9 0 -33 10t-46 18q34 -27 51.5 -62t17.5 -66q0 -94 -64 -143t-177 -49zM262 230q33 0 46.5 35t13.5 103q0 56 -15.5 80t-44.5 24q-33 0 -46 -34.5t-13 -94.5
q0 -55 14 -84t45 -29zM168 -41q0 -42 26 -71t93 -29q50 0 70 24t20 53q0 23 -20.5 36t-54.5 21t-76 15q-25 4 -45 9q-7 -13 -10 -28.5t-3 -29.5zM265 608q-83 0 -131.5 49t-48.5 133q3 10 15.5 15t26.5 5q13 0 27 -4t19 -12q0 -34 23.5 -61.5t68.5 -27.5t68.5 27.5
t23.5 61.5q5 8 19.5 12t26.5 4q15 0 27 -5t15 -15q0 -84 -48.5 -133t-131.5 -49z" />
    <glyph glyph-name="Gdotaccent" unicode="&#x120;" horiz-adv-x="664" 
d="M370 -14q-106 0 -183.5 45t-119.5 125t-42 183q0 123 42 205t116 123.5t170 41.5q23 0 53.5 -4t67.5 -18q10 5 27 9.5t34 8.5t27 4q13 -32 19 -73.5t8 -82t2 -70.5h-97q-10 65 -50 99.5t-94 34.5q-40 0 -72 -22t-50.5 -76.5t-18.5 -153.5q0 -106 17.5 -167.5t51 -88
t81.5 -26.5q54 0 79 26v114q0 26 -23 37.5t-70 11.5q0 17 7 41t17 36h216q30 0 45 -13.5t19.5 -29.5t4.5 -24q0 -10 -5 -18q-16 0 -30.5 -1.5t-25.5 -6.5v-115q0 -22 3.5 -31t7.5 -14q3 -3 5 -6.5t2 -11.5q0 -18 -32 -39.5t-86.5 -37t-122.5 -15.5zM355 751
q-43 0 -68.5 25.5t-25.5 68.5q0 42 26.5 68t69.5 26q44 0 69 -26t25 -68q0 -43 -26 -68.5t-70 -25.5z" />
    <glyph glyph-name="gdotaccent" unicode="&#x121;" horiz-adv-x="529" 
d="M245 164q-33 0 -63 7v-3q0 -25 19.5 -35t68.5 -14q127 -9 191.5 -46t64.5 -111q0 -39 -22 -73t-60.5 -59t-87.5 -39t-102 -14q-124 0 -180.5 44.5t-56.5 111.5q0 37 24.5 67t70.5 46q-22 16 -27.5 36t-5.5 44q0 16 13 35t40 29q-47 25 -73.5 69t-26.5 95t25 92.5t74 66.5
t122 25h1q9 0 27.5 -1t34.5 -4q69 0 105.5 1.5t55.5 3.5t37 5q11 0 16 -14.5t5 -27.5q0 -19 -9 -32t-30 -13q-9 0 -33 10t-46 18q34 -27 51.5 -62t17.5 -66q0 -94 -64 -143t-177 -49zM262 230q33 0 46.5 35t13.5 103q0 56 -15.5 80t-44.5 24q-33 0 -46 -34.5t-13 -94.5
q0 -55 14 -84t45 -29zM168 -41q0 -42 26 -71t93 -29q50 0 70 24t20 53q0 23 -20.5 36t-54.5 21t-76 15q-25 4 -45 9q-7 -13 -10 -28.5t-3 -29.5zM265 613q-43 0 -69 25.5t-26 68.5q0 42 26 68t69 26q44 0 69.5 -26t25.5 -68q0 -43 -25.5 -68.5t-69.5 -25.5z" />
    <glyph glyph-name="uni0122" unicode="&#x122;" horiz-adv-x="664" 
d="M370 -14q-106 0 -183.5 45t-119.5 125t-42 183q0 123 42 205t116 123.5t170 41.5q23 0 53.5 -4t67.5 -18q10 5 27 9.5t34 8.5t27 4q13 -32 19 -73.5t8 -82t2 -70.5h-97q-10 65 -50 99.5t-94 34.5q-40 0 -72 -22t-50.5 -76.5t-18.5 -153.5q0 -106 17.5 -167.5t51 -88
t81.5 -26.5q54 0 79 26v114q0 26 -23 37.5t-70 11.5q0 17 7 41t17 36h216q30 0 45 -13.5t19.5 -29.5t4.5 -24q0 -10 -5 -18q-16 0 -30.5 -1.5t-25.5 -6.5v-115q0 -22 3.5 -31t7.5 -14q3 -3 5 -6.5t2 -11.5q0 -18 -32 -39.5t-86.5 -37t-122.5 -15.5zM312 -345q-10 3 -18 14
t-8 24q22 12 35 28.5t13 40.5q0 3 -2 11q-3 -1 -6 -1.5t-6 -0.5q-37 0 -56.5 23.5t-19.5 52.5q0 37 22.5 58.5t58.5 21.5q40 0 67.5 -26.5t27.5 -85.5q0 -21 -8.5 -53t-32 -61.5t-67.5 -45.5z" />
    <glyph glyph-name="uni0123" unicode="&#x123;" horiz-adv-x="529" 
d="M245 164q-33 0 -63 7v-3q0 -25 19.5 -35t68.5 -14q127 -9 191.5 -46t64.5 -111q0 -39 -22 -73t-60.5 -59t-87.5 -39t-102 -14q-124 0 -180.5 44.5t-56.5 111.5q0 37 24.5 67t70.5 46q-22 16 -27.5 36t-5.5 44q0 16 13 35t40 29q-47 25 -73.5 69t-26.5 95t25 92.5t74 66.5
t122 25h1q9 0 27.5 -1t34.5 -4q69 0 105.5 1.5t55.5 3.5t37 5q11 0 16 -14.5t5 -27.5q0 -19 -9 -32t-30 -13q-9 0 -33 10t-46 18q34 -27 51.5 -62t17.5 -66q0 -94 -64 -143t-177 -49zM262 230q33 0 46.5 35t13.5 103q0 56 -15.5 80t-44.5 24q-33 0 -46 -34.5t-13 -94.5
q0 -55 14 -84t45 -29zM168 -41q0 -42 26 -71t93 -29q50 0 70 24t20 53q0 23 -20.5 36t-54.5 21t-76 15q-25 4 -45 9q-7 -13 -10 -28.5t-3 -29.5zM272 617q-40 0 -67.5 26.5t-27.5 85.5q0 22 8.5 53.5t32 61.5t67.5 45q10 -3 18 -14t8 -24q-22 -12 -35 -28.5t-13 -40.5
q0 -3 2 -11q3 1 6 1.5t6 0.5q38 0 57 -23.5t19 -52.5q0 -37 -22.5 -58.5t-58.5 -21.5z" />
    <glyph glyph-name="Hcircumflex" unicode="&#x124;" horiz-adv-x="727" 
d="M48 0q-22 25 -22 64q33 0 46.5 11t13.5 39v470q0 28 -13.5 39.5t-46.5 11.5q0 38 22 63h244q10 -12 16 -29t6 -34q-33 0 -46.5 -11.5t-13.5 -39.5v-187h218v187q0 28 -14 39.5t-46 11.5q0 38 22 63h245q22 -25 22 -63q-32 0 -46.5 -11.5t-14.5 -39.5v-470q0 -28 14.5 -39
t46.5 -11q0 -39 -22 -64h-245q-22 25 -22 64q32 0 46 11t14 39v199h-218v-199q0 -28 13.5 -39t46.5 -11q0 -18 -6 -35t-16 -29h-244zM231 732q-19 7 -34 21t-20 30l148 164h76l149 -164q-6 -16 -21 -30t-34 -21l-132 99z" />
    <glyph glyph-name="hcircumflex" unicode="&#x125;" horiz-adv-x="602" 
d="M473 -6q-49 0 -75 15t-26 48v322q0 32 -18 49.5t-47 17.5q-19 0 -40.5 -12.5t-32.5 -33.5v-292q0 -29 12.5 -41.5t42.5 -12.5q0 -31 -23 -54h-221q-23 23 -23 54q30 0 42.5 12.5t12.5 41.5v542q0 23 -13 36t-54 13v41q25 13 58.5 24t67 17.5t55.5 6.5q23 0 33 -10.5
t10 -35.5v-197l-2 -80q26 33 67 56t93 23q142 0 142 -148v-280q0 -51 48 -60l1 -29q-36 -33 -110 -33zM13 822q-19 7 -34 21t-20 30l148 164h76l149 -164q-6 -16 -21 -30t-34 -21l-132 99z" />
    <glyph glyph-name="Hbar" unicode="&#x126;" horiz-adv-x="727" 
d="M48 0q-22 25 -22 64q33 0 46.5 11t13.5 39v320h-47v78h47v72q0 28 -13.5 39.5t-46.5 11.5q0 38 22 63h245q10 -12 16 -29t6 -34q-33 0 -46.5 -11.5t-13.5 -39.5v-72h218v72q0 28 -14 39.5t-46 11.5q0 38 22 63h244q22 -25 22 -63q-32 0 -45.5 -11.5t-13.5 -39.5v-72h45
q0 -19 -1.5 -41.5t-14.5 -36.5h-29v-320q0 -28 13.5 -39t45.5 -11q0 -39 -22 -64h-244q-22 25 -22 64q32 0 46 11t14 39v153h-218v-153q0 -28 13.5 -39t46.5 -11q0 -18 -6 -35t-16 -29h-245zM255 349h218v85h-218v-85z" />
    <glyph glyph-name="hbar" unicode="&#x127;" horiz-adv-x="611" 
d="M473 -6q-49 0 -75 15t-26 48v322q0 32 -18 49.5t-47 17.5q-19 0 -40.5 -12.5t-32.5 -33.5v-292q0 -29 12.5 -41.5t42.5 -12.5q0 -31 -23 -54h-221q-23 23 -23 54q30 0 42.5 12.5t12.5 41.5v454h-55q-6 17 -6 39q0 26 7 39h54v10q0 23 -13 36t-54 13v41q25 13 58.5 24
t67 17.5t55.5 6.5q23 0 33 -10.5t10 -35.5v-102h102q6 -16 6 -39q0 -24 -5 -39h-103v-17l-2 -80q26 33 67 56t93 23q142 0 142 -148v-280q0 -51 48 -60l1 -29q-36 -33 -110 -33z" />
    <glyph glyph-name="Itilde" unicode="&#x128;" horiz-adv-x="345" 
d="M51 0q-22 25 -22 64q33 0 46.5 11t13.5 39v470q0 28 -13.5 39.5t-46.5 11.5q0 38 22 63h243q10 -12 16 -29t6 -34q-33 0 -46.5 -11.5t-13.5 -39.5v-470q0 -28 13.5 -39t46.5 -11q0 -18 -6 -35t-16 -29h-243zM237 747q-27 0 -45 9.5t-31 22.5t-26 22.5t-31 9.5
q-16 0 -32.5 -7t-38.5 -32q-8 -6 -21.5 2t-23.5 23t-6 30q6 22 24 42.5t45.5 34t58.5 13.5t50.5 -9.5t32.5 -22.5t24.5 -22.5t25.5 -9.5q17 0 32.5 6.5t37.5 31.5q8 7 22 -1.5t23.5 -23.5t5.5 -30q-8 -32 -41 -60.5t-86 -28.5z" />
    <glyph glyph-name="itilde" unicode="&#x129;" horiz-adv-x="312" 
d="M47 0q-11 11 -17 24t-6 30q29 0 43 12.5t14 42.5v290q0 26 -12.5 39t-53.5 13v44q15 9 46.5 20.5t68 19.5t64.5 8q23 0 33 -10.5t10 -35.5v-389q0 -30 15 -42t44 -12q0 -17 -6 -30t-17 -24h-226zM226 598q-30 0 -47.5 10.5t-34.5 23.5q-14 11 -27.5 19t-29.5 8t-35 -10
t-41 -35q-3 -3 -8 -3q-13 0 -28.5 16t-15.5 34q0 5 1 8q7 21 25 42.5t44 36t57 14.5q37 0 57 -11.5t37 -26.5q11 -10 22.5 -16.5t22.5 -6.5q17 0 35.5 10t40.5 35q3 3 8 3q13 0 28.5 -16t15.5 -35q0 -5 -1 -7q-10 -20 -26 -41.5t-40 -36.5t-60 -15z" />
    <glyph glyph-name="Imacron" unicode="&#x12a;" horiz-adv-x="345" 
d="M51 0q-22 25 -22 64q33 0 46.5 11t13.5 39v470q0 28 -13.5 39.5t-46.5 11.5q0 38 22 63h243q10 -12 16 -29t6 -34q-33 0 -46.5 -11.5t-13.5 -39.5v-470q0 -28 13.5 -39t46.5 -11q0 -18 -6 -35t-16 -29h-243zM16 768q-3 8 -4.5 20t-1.5 24q0 14 1.5 26.5t5.5 19.5h313
q3 -8 4.5 -20.5t1.5 -25.5q0 -29 -5 -44h-315z" />
    <glyph glyph-name="imacron" unicode="&#x12b;" horiz-adv-x="312" 
d="M47 0q-11 11 -17 24t-6 30q29 0 43 12.5t14 42.5v290q0 26 -12.5 39t-53.5 13v44q15 9 46.5 20.5t68 19.5t64.5 8q23 0 33 -10.5t10 -35.5v-389q0 -30 15 -42t44 -12q0 -17 -6 -30t-17 -24h-226zM-1 617q-3 8 -4.5 22.5t-1.5 26.5q0 14 1.5 29t5.5 22h313q3 -8 4.5 -23
t1.5 -28t-1.5 -27.5t-3.5 -21.5h-315z" />
    <glyph glyph-name="Ibreve" unicode="&#x12c;" horiz-adv-x="345" 
d="M51 0q-22 25 -22 64q33 0 46.5 11t13.5 39v470q0 28 -13.5 39.5t-46.5 11.5q0 38 22 63h243q10 -12 16 -29t6 -34q-33 0 -46.5 -11.5t-13.5 -39.5v-470q0 -28 13.5 -39t46.5 -11q0 -18 -6 -35t-16 -29h-243zM173 751q-83 0 -131.5 44t-48.5 128q3 10 15.5 15t26.5 5
q13 0 27 -4t19 -12q0 -34 24.5 -55.5t67.5 -21.5t67.5 21.5t24.5 55.5q5 8 19.5 12t26.5 4q15 0 27.5 -5t14.5 -15q0 -84 -48.5 -128t-131.5 -44z" />
    <glyph glyph-name="ibreve" unicode="&#x12d;" horiz-adv-x="312" 
d="M47 0q-11 11 -17 24t-6 30q29 0 43 12.5t14 42.5v290q0 26 -12.5 39t-53.5 13v44q15 9 46.5 20.5t68 19.5t64.5 8q23 0 33 -10.5t10 -35.5v-389q0 -30 15 -42t44 -12q0 -17 -6 -30t-17 -24h-226zM156 608q-83 0 -131.5 49t-48.5 133q3 10 15.5 15t26.5 5q13 0 27 -4
t19 -12q0 -34 23.5 -61.5t68.5 -27.5t68.5 27.5t23.5 61.5q5 8 19.5 12t26.5 4q15 0 27 -5t15 -15q0 -84 -48.5 -133t-131.5 -49z" />
    <glyph glyph-name="Iogonek" unicode="&#x12e;" horiz-adv-x="345" 
d="M51 0q-22 25 -22 64q33 0 46.5 11t13.5 39v470q0 28 -13.5 39.5t-46.5 11.5q0 38 22 63h243q10 -12 16 -29t6 -34q-33 0 -46.5 -11.5t-13.5 -39.5v-470q0 -28 13.5 -39t46.5 -11q0 -18 -6 -35t-16 -29h-243zM188 -228q-31 0 -61 11t-49.5 36t-19.5 66q0 36 18 67t45 54.5
t55 37.5t49 16t26 -11l12 -36q-46 -11 -68.5 -38t-22.5 -60q0 -22 20 -30.5t43 -8.5q21 0 40 5.5t28 12.5q5 -7 6.5 -18t1.5 -20q0 -46 -35 -65t-88 -19z" />
    <glyph glyph-name="iogonek" unicode="&#x12f;" horiz-adv-x="312" 
d="M145 613q-43 0 -69 25.5t-26 68.5q0 42 26 68t69 26q44 0 69.5 -26t25.5 -68q0 -43 -25.5 -68.5t-69.5 -25.5zM47 0q-11 11 -17 24t-6 30q29 0 43 12.5t14 42.5v290q0 26 -12.5 39t-53.5 13v44q15 9 46.5 20.5t68 19.5t64.5 8q23 0 33 -10.5t10 -35.5v-389q0 -30 15 -42
t44 -12q0 -17 -6 -30t-17 -24h-58q-39 -13 -58 -38.5t-19 -55.5q0 -22 20 -30.5t43 -8.5q21 0 40 5.5t28 12.5q5 -7 6.5 -18t1.5 -20q0 -14 -3.5 -27.5t-14.5 -24.5q-13 -13 -41.5 -22.5t-63.5 -9.5q-31 0 -61 11t-49.5 36t-19.5 66q0 43 21.5 73.5t51.5 50.5h-50z" />
    <glyph glyph-name="Idotaccent" unicode="&#x130;" horiz-adv-x="345" 
d="M51 0q-22 25 -22 64q33 0 46.5 11t13.5 39v470q0 28 -13.5 39.5t-46.5 11.5q0 38 22 63h243q10 -12 16 -29t6 -34q-33 0 -46.5 -11.5t-13.5 -39.5v-470q0 -28 13.5 -39t46.5 -11q0 -18 -6 -35t-16 -29h-243zM172 751q-43 0 -68.5 25.5t-25.5 68.5q0 42 26.5 68t69.5 26
q44 0 69 -26t25 -68q0 -43 -26 -68.5t-70 -25.5z" />
    <glyph glyph-name="dotlessi" unicode="&#x131;" horiz-adv-x="312" 
d="M47 0q-11 11 -17 24t-6 30q29 0 43 12.5t14 42.5v290q0 26 -12.5 39t-53.5 13v44q15 9 46.5 20.5t68 19.5t64.5 8q23 0 33 -10.5t10 -35.5v-389q0 -30 15 -42t44 -12q0 -17 -6 -30t-17 -24h-226z" />
    <glyph glyph-name="IJ" unicode="&#x132;" horiz-adv-x="906" 
d="M51 0q-22 25 -22 64q33 0 46.5 11t13.5 39v470q0 28 -13.5 39.5t-46.5 11.5q0 38 22 63h243q10 -12 16 -29t6 -34q-33 0 -46.5 -11.5t-13.5 -39.5v-470q0 -28 13.5 -39t46.5 -11q0 -18 -6 -35t-16 -29h-243zM433 -13q-16 18 -35 46.5t-32 72t-13 104.5q0 20 1.5 33.5
t3.5 24.5h152q-4 -16 -6 -31.5t-2 -32.5q0 -55 21 -92t70 -37q18 0 36 8t29.5 29t11.5 58v394q0 36 -19 53t-73 17q0 37 23 63h274q11 -12 17 -29t6 -34q-34 0 -50 -11.5t-16 -39.5v-355q0 -70 -19.5 -116.5t-53 -74t-76.5 -39t-90 -11.5q-16 0 -38.5 3t-44 8t-34.5 12z" />
    <glyph glyph-name="ij" unicode="&#x133;" horiz-adv-x="595" 
d="M159 613q-43 0 -68.5 25.5t-25.5 68.5q0 42 26.5 68t69.5 26q44 0 69.5 -26t25.5 -68q0 -43 -26.5 -68.5t-70.5 -25.5zM47 0q-11 11 -17 24t-6 30q29 0 43 12.5t14 42.5v290q0 26 -12.5 39t-53.5 13v44q15 9 46 20.5t67.5 19.5t65.5 8q23 0 33 -10.5t10 -35.5v-389
q0 -30 15 -42t44 -12q0 -17 -6 -30t-17 -24h-226zM454 613q-43 0 -68.5 25.5t-25.5 68.5q0 42 26.5 68t69.5 26q44 0 69.5 -26t25.5 -68q0 -43 -26.5 -68.5t-70.5 -25.5zM379 -195q-46 0 -67.5 17.5t-21.5 36.5q0 7 3 16t6 13q39 0 61 23.5t22 85.5v405q0 23 -12.5 36
t-53.5 13v45q25 13 59 23.5t67 17t54 6.5q24 0 33.5 -10t9.5 -35v-508q0 -63 -22 -104t-58 -61t-80 -20z" />
    <glyph glyph-name="Jcircumflex" unicode="&#x134;" horiz-adv-x="573" 
d="M100 -13q-16 18 -35 46.5t-32 72t-13 104.5q0 20 1.5 33.5t3.5 24.5h152q-4 -16 -6 -31.5t-2 -32.5q0 -55 21 -92t70 -37q18 0 36 8t29.5 29t11.5 58v394q0 36 -19 53t-73 17q0 37 23 63h274q11 -12 17 -29t6 -34q-34 0 -50 -11.5t-16 -39.5v-355q0 -70 -19.5 -116.5
t-53 -74t-76.5 -39t-90 -11.5q-16 0 -38.5 3t-44 8t-34.5 12zM289 732q-19 7 -34 21t-20 30l148 164h76l149 -164q-6 -16 -21 -30t-34 -21l-132 99z" />
    <glyph glyph-name="jcircumflex" unicode="&#x135;" horiz-adv-x="300" 
d="M84 -195q-46 0 -67.5 17.5t-21.5 36.5q0 7 3 16t6 13q39 0 61 23.5t22 85.5v405q0 23 -12.5 36t-53.5 13v45q25 13 59 23.5t67 17t54 6.5q24 0 33.5 -10t9.5 -35v-508q0 -63 -22 -104t-58 -61t-80 -20zM17 599q-19 7 -34 21t-20 30l148 164h76l149 -164q-6 -16 -21 -30
t-34 -21l-132 99z" />
    <glyph glyph-name="uni0136" unicode="&#x136;" horiz-adv-x="665" 
d="M563 -14q-42 0 -71 14t-48 36.5t-32.5 48t-24.5 47.5q-10 21 -25 49.5t-32.5 57t-36.5 50t-38 29.5v-204q0 -28 13.5 -39t46.5 -11q0 -18 -6 -35t-16 -29h-245q-22 25 -22 64q33 0 46.5 11t13.5 39v470q0 28 -13.5 39.5t-46.5 11.5q0 38 22 63h245q10 -12 16 -29t6 -34
q-33 0 -46.5 -11.5t-13.5 -39.5v-198h17t20 -2l141 187q7 8 10 18t3 18q0 13 -19 20.5t-39 7.5q0 35 23 63h233q10 -13 16 -29.5t6 -33.5q-43 0 -66 -17t-34 -31l-189 -224q49 -22 80.5 -53.5t60.5 -76.5q30 -45 51 -80.5t43 -56.5t52 -25v-40q-16 -21 -38.5 -33t-62.5 -12z
M323 -345q-10 3 -18 14t-8 24q22 12 35 28.5t13 40.5q0 3 -2 11q-3 -1 -6 -1.5t-6 -0.5q-37 0 -56.5 23.5t-19.5 52.5q0 37 22.5 58.5t58.5 21.5q40 0 67.5 -26.5t27.5 -85.5q0 -21 -8.5 -53t-32 -61.5t-67.5 -45.5z" />
    <glyph glyph-name="uni0137" unicode="&#x137;" horiz-adv-x="585" 
d="M493 -10q-55 0 -88 23.5t-53.5 59.5t-36.5 73q-16 38 -34 69t-47 42v-153q0 -29 12.5 -41.5t43.5 -12.5q0 -16 -6.5 -29t-17.5 -24h-220q-24 21 -24 53q30 0 42.5 12.5t12.5 41.5v542q0 23 -13 36.5t-54 13.5v40q25 13 58.5 24t66.5 18t54 7q24 0 34.5 -10.5t10.5 -36.5
v-445l110 114q6 6 12.5 14.5t6.5 15.5q0 14 -21.5 26t-41.5 12q0 36 23 61h225q12 -12 15.5 -28t3.5 -33q-27 0 -40.5 -8.5t-24.5 -18.5l-152 -150q37 -6 62 -24t47 -57q31 -55 48.5 -86.5t33 -47.5t41.5 -25l1 -24q-3 -21 -28 -32.5t-62 -11.5zM273 -345q-10 3 -18 14
t-8 24q22 12 35 28.5t13 40.5q0 3 -2 11q-3 -1 -6 -1.5t-6 -0.5q-37 0 -56.5 23.5t-19.5 52.5q0 37 22.5 58.5t58.5 21.5q40 0 67.5 -26.5t27.5 -85.5q0 -21 -8.5 -53t-32 -61.5t-67.5 -45.5z" />
    <glyph glyph-name="kgreenlandic" unicode="&#x138;" horiz-adv-x="608" 
d="M55 0q-24 24 -24 58q31 0 43.5 12.5t12.5 42.5v288q0 23 -13 36.5t-54 13.5v41q24 13 59.5 24t70 17.5t55.5 6.5q24 0 34.5 -10.5t10.5 -35.5v-203l112 110q14 14 14 29t-12 27t-32 12q0 16 5.5 32.5t17.5 27.5h203q11 -11 15 -27.5t4 -32.5q-25 0 -37 -9.5t-22 -18.5
l-160 -155q37 -6 63 -24.5t51 -57.5q35 -53 54.5 -81t36.5 -41t43 -23v-28q-3 -22 -32.5 -33t-66.5 -11q-46 0 -76.5 16t-50 42.5t-33.5 57.5t-27 61t-29 53.5t-41 33.5v-139q0 -29 12.5 -41.5t42.5 -12.5q0 -35 -23 -58h-227z" />
    <glyph glyph-name="Lacute" unicode="&#x139;" horiz-adv-x="550" 
d="M49 0q-23 25 -23 64q34 0 48 11t14 39v470q0 28 -14 39.5t-48 11.5q0 17 6 34t17 29h257q11 -12 16.5 -29t5.5 -34q-40 0 -58 -11.5t-18 -39.5v-499h62q56 0 87.5 49.5t31.5 133.5h70q13 -9 21 -33.5t12 -53.5t4 -53q0 -60 -21 -94t-73 -34h-397zM163 737q-19 0 -34.5 11
t-18.5 35q32 21 68 52t69 69.5t55 79.5q27 0 46.5 -13t30 -31.5t10.5 -35.5q0 -27 -25 -56t-62 -54.5t-75 -41t-64 -15.5z" />
    <glyph glyph-name="lacute" unicode="&#x13a;" horiz-adv-x="319" 
d="M52 0q-11 12 -17 25t-6 29q29 0 42 12.5t13 42.5v531q0 23 -13 36.5t-55 13.5v40q25 14 58.5 24.5t66.5 17t55 6.5q23 0 33.5 -10t10.5 -35v-624q0 -31 12.5 -43t42.5 -12q0 -16 -6.5 -29t-17.5 -25h-219zM127 817q-19 0 -34.5 11t-18.5 35q32 21 68 52t69 69.5t55 79.5
q27 0 46.5 -13t30 -31.5t10.5 -35.5q0 -27 -25 -56t-62 -54.5t-75 -41t-64 -15.5z" />
    <glyph glyph-name="uni013B" unicode="&#x13b;" horiz-adv-x="550" 
d="M49 0q-23 25 -23 64q34 0 48 11t14 39v470q0 28 -14 39.5t-48 11.5q0 17 6 34t17 29h257q11 -12 16.5 -29t5.5 -34q-40 0 -58 -11.5t-18 -39.5v-499h62q56 0 87.5 49.5t31.5 133.5h70q13 -9 21 -33.5t12 -53.5t4 -53q0 -60 -21 -94t-73 -34h-397zM249 -345q-10 3 -18 14
t-8 24q22 12 35 28.5t13 40.5q0 3 -2 11q-3 -1 -6 -1.5t-6 -0.5q-37 0 -56.5 23.5t-19.5 52.5q0 37 22.5 58.5t58.5 21.5q40 0 67.5 -26.5t27.5 -85.5q0 -21 -8.5 -53t-32 -61.5t-67.5 -45.5z" />
    <glyph glyph-name="uni013C" unicode="&#x13c;" horiz-adv-x="319" 
d="M52 0q-11 12 -17 25t-6 29q29 0 42 12.5t13 42.5v531q0 23 -13 36.5t-55 13.5v40q25 14 58.5 24.5t66.5 17t55 6.5q23 0 33.5 -10t10.5 -35v-624q0 -31 12.5 -43t42.5 -12q0 -16 -6.5 -29t-17.5 -25h-219zM140 -345q-10 3 -18 14t-8 24q22 12 35 28.5t13 40.5q0 3 -2 11
q-3 -1 -6 -1.5t-6 -0.5q-37 0 -56.5 23.5t-19.5 52.5q0 37 22.5 58.5t58.5 21.5q40 0 67.5 -26.5t27.5 -85.5q0 -21 -8.5 -53t-32 -61.5t-67.5 -45.5z" />
    <glyph glyph-name="Lcaron" unicode="&#x13d;" horiz-adv-x="550" 
d="M49 0q-23 25 -23 64q34 0 48 11t14 39v470q0 28 -14 39.5t-48 11.5q0 17 6 34t17 29h257q11 -12 16.5 -29t5.5 -34q-40 0 -58 -11.5t-18 -39.5v-499h62q56 0 87.5 49.5t31.5 133.5h70q13 -9 21 -33.5t12 -53.5t4 -53q0 -60 -21 -94t-73 -34h-397zM491 448q-19 0 -35 13
q3 35 3.5 75.5t0.5 79.5v69q8 8 30 15t39 7q35 0 44 -19.5t9 -60.5q0 -27 -9 -57.5t-20.5 -56t-20.5 -37.5q-9 -13 -19.5 -20.5t-21.5 -7.5z" />
    <glyph glyph-name="lcaron" unicode="&#x13e;" horiz-adv-x="452" 
d="M52 0q-11 12 -17 25t-6 29q29 0 42 12.5t13 42.5v531q0 23 -13 36.5t-55 13.5v40q25 14 58.5 24.5t66.5 17t55 6.5q23 0 33.5 -10t10.5 -35v-624q0 -31 12.5 -43t42.5 -12q0 -16 -6.5 -29t-17.5 -25h-219zM354 572q-19 0 -35 13q3 35 3.5 75.5t0.5 79.5v69q8 8 30 15
t39 7q35 0 44 -19.5t9 -60.5q0 -27 -9 -57.5t-20.5 -56t-20.5 -37.5q-9 -13 -19.5 -20.5t-21.5 -7.5z" />
    <glyph glyph-name="Ldot" unicode="&#x13f;" horiz-adv-x="600" 
d="M49 0q-23 25 -23 64q34 0 48 11t14 39v470q0 28 -14 39.5t-48 11.5q0 17 6 34t17 29h257q11 -12 16.5 -29t5.5 -34q-40 0 -58 -11.5t-18 -39.5v-499h62q56 0 87.5 49.5t31.5 133.5h70q13 -9 21 -33.5t12 -53.5t4 -53q0 -60 -21 -94t-73 -34h-397zM483 300q-46 0 -74 27.5
t-28 71.5q0 45 28 72t74 27q45 0 73 -27t28 -72q0 -44 -28 -71.5t-73 -27.5z" />
    <glyph glyph-name="ldot" unicode="&#x140;" horiz-adv-x="509" 
d="M52 0q-11 12 -17 25t-6 29q29 0 42 12.5t13 42.5v531q0 23 -13 36.5t-55 13.5v40q25 14 58.5 24.5t66.5 17t55 6.5q23 0 33.5 -10t10.5 -35v-624q0 -31 12.5 -43t42.5 -12q0 -16 -6.5 -29t-17.5 -25h-219zM398 301q-46 0 -74 27.5t-28 71.5q0 45 28 72t74 27q45 0 73 -27
t28 -72q0 -44 -28 -71.5t-73 -27.5z" />
    <glyph glyph-name="Lslash" unicode="&#x141;" horiz-adv-x="537" 
d="M49 0q-23 25 -23 64q34 0 48 11t14 39v183l-48 -31q-16 6 -29 23q-15 19 -17 40l94 62v193q0 28 -14 39.5t-48 11.5q0 17 6 34t17 29h257q11 -12 16.5 -29t5.5 -34q-40 0 -58 -11.5t-18 -39.5v-113l108 72q17 -9 29 -27q5 -7 10.5 -17t6.5 -19l-154 -100v-295h62
q56 0 87.5 49.5t31.5 133.5h70q13 -9 21 -33.5t12 -53.5t4 -53q0 -60 -21 -94t-73 -34h-397z" />
    <glyph glyph-name="lslash" unicode="&#x142;" horiz-adv-x="399" 
d="M82 0q-11 12 -17 25t-6 29q29 0 42 12.5t13 42.5v141l-55 -46q-16 5 -30 19q-16 16 -21 35l106 89v293q0 23 -13 36.5t-55 13.5v40q25 14 59 24.5t66.5 17t54.5 6.5q23 0 33.5 -10t10.5 -35v-256l69 58q18 -5 32 -21q6 -7 12 -15.5t8 -16.5l-121 -101v-272
q0 -31 12.5 -43t42.5 -12q0 -16 -6.5 -29t-17.5 -25h-219z" />
    <glyph glyph-name="Nacute" unicode="&#x143;" horiz-adv-x="724" 
d="M606 -6q-52 0 -74.5 14t-41.5 42l-280 425v-361q0 -28 19.5 -39.5t53.5 -11.5q0 -35 -23 -63h-208q-22 27 -22 63q34 0 51.5 11.5t17.5 39.5v470q0 28 -19.5 39.5t-53.5 11.5q0 38 22 63h139q29 0 58.5 -22.5t54.5 -62.5l227 -359v330q0 28 -18.5 39.5t-52.5 11.5
q0 17 6 34t17 29h213q23 -26 23 -63q-33 0 -51 -11.5t-18 -39.5v-590h-40zM330 737q-19 0 -34.5 11t-18.5 35q32 21 68 52t69 69.5t55 79.5q27 0 46.5 -13t30 -31.5t10.5 -35.5q0 -27 -25 -56t-62 -54.5t-75 -41t-64 -15.5z" />
    <glyph glyph-name="nacute" unicode="&#x144;" horiz-adv-x="611" 
d="M55 0q-11 11 -17.5 24t-6.5 29q30 0 43 13t13 42v292q0 26 -14.5 38t-52.5 12v45q23 13 58.5 24t69 17.5t51.5 6.5q21 0 34.5 -13t15.5 -56q25 31 63.5 50t89.5 19q70 0 105.5 -35.5t35.5 -120.5v-273q0 -49 48 -58l1 -29q-10 -10 -32 -17.5t-47.5 -11.5t-47.5 -4
q-43 0 -63.5 16t-20.5 51v312q0 41 -18 57t-44 16q-41 0 -69 -33v-305q0 -29 12.5 -42t42.5 -13q0 -30 -23 -53h-227zM259 624q-19 0 -34.5 11t-18.5 35q32 21 68 52t69 69.5t55 79.5q27 0 46.5 -13t30 -31.5t10.5 -35.5q0 -27 -25 -56t-62 -54.5t-75 -41t-64 -15.5z" />
    <glyph glyph-name="uni0145" unicode="&#x145;" horiz-adv-x="724" 
d="M606 -6q-52 0 -74.5 14t-41.5 42l-280 425v-361q0 -28 19.5 -39.5t53.5 -11.5q0 -35 -23 -63h-208q-22 27 -22 63q34 0 51.5 11.5t17.5 39.5v470q0 28 -19.5 39.5t-53.5 11.5q0 38 22 63h139q29 0 58.5 -22.5t54.5 -62.5l227 -359v330q0 28 -18.5 39.5t-52.5 11.5
q0 17 6 34t17 29h213q23 -26 23 -63q-33 0 -51 -11.5t-18 -39.5v-590h-40zM342 -345q-10 3 -18 14t-8 24q22 12 35 28.5t13 40.5q0 3 -2 11q-3 -1 -6 -1.5t-6 -0.5q-37 0 -56.5 23.5t-19.5 52.5q0 37 22.5 58.5t58.5 21.5q40 0 67.5 -26.5t27.5 -85.5q0 -21 -8.5 -53
t-32 -61.5t-67.5 -45.5z" />
    <glyph glyph-name="uni0146" unicode="&#x146;" horiz-adv-x="611" 
d="M55 0q-11 11 -17.5 24t-6.5 29q30 0 43 13t13 42v292q0 26 -14.5 38t-52.5 12v45q23 13 58.5 24t69 17.5t51.5 6.5q21 0 34.5 -13t15.5 -56q25 31 63.5 50t89.5 19q70 0 105.5 -35.5t35.5 -120.5v-273q0 -49 48 -58l1 -29q-10 -10 -32 -17.5t-47.5 -11.5t-47.5 -4
q-43 0 -63.5 16t-20.5 51v312q0 41 -18 57t-44 16q-41 0 -69 -33v-305q0 -29 12.5 -42t42.5 -13q0 -30 -23 -53h-227zM286 -345q-10 3 -18 14t-8 24q22 12 35 28.5t13 40.5q0 3 -2 11q-3 -1 -6 -1.5t-6 -0.5q-37 0 -56.5 23.5t-19.5 52.5q0 37 22.5 58.5t58.5 21.5
q40 0 67.5 -26.5t27.5 -85.5q0 -21 -8.5 -53t-32 -61.5t-67.5 -45.5z" />
    <glyph glyph-name="Ncaron" unicode="&#x147;" horiz-adv-x="724" 
d="M606 -6q-52 0 -74.5 14t-41.5 42l-280 425v-361q0 -28 19.5 -39.5t53.5 -11.5q0 -35 -23 -63h-208q-22 27 -22 63q34 0 51.5 11.5t17.5 39.5v470q0 28 -19.5 39.5t-53.5 11.5q0 38 22 63h139q29 0 58.5 -22.5t54.5 -62.5l227 -359v330q0 28 -18.5 39.5t-52.5 11.5
q0 17 6 34t17 29h213q23 -26 23 -63q-33 0 -51 -11.5t-18 -39.5v-590h-40zM324 751l-148 163q5 17 20 31t34 21l132 -101l131 101q19 -7 34 -21t21 -31l-148 -163h-76z" />
    <glyph glyph-name="ncaron" unicode="&#x148;" horiz-adv-x="611" 
d="M55 0q-11 11 -17.5 24t-6.5 29q30 0 43 13t13 42v292q0 26 -14.5 38t-52.5 12v45q23 13 58.5 24t69 17.5t51.5 6.5q21 0 34.5 -13t15.5 -56q25 31 63.5 50t89.5 19q70 0 105.5 -35.5t35.5 -120.5v-273q0 -49 48 -58l1 -29q-10 -10 -32 -17.5t-47.5 -11.5t-47.5 -4
q-43 0 -63.5 16t-20.5 51v312q0 41 -18 57t-44 16q-41 0 -69 -33v-305q0 -29 12.5 -42t42.5 -13q0 -30 -23 -53h-227zM278 620l-148 163q5 17 20 31t34 21l132 -101l131 101q19 -7 34 -21t21 -31l-148 -163h-76z" />
    <glyph glyph-name="Eng" unicode="&#x14a;" horiz-adv-x="700" 
d="M61 0q-23 23 -23 58q29 0 42 13t13 42v456q0 26 -14.5 38t-52.5 12v45q24 13 60.5 24t71 17.5t52.5 6.5q24 0 37.5 -17t13.5 -72v-41q19 37 54 66.5t80 46.5t95 17q72 0 109 -27t50 -71t13 -96v-527q0 -64 -24 -105.5t-62.5 -61.5t-82.5 -20q-46 0 -67.5 18t-21.5 36
q0 7 2.5 16t6.5 14q39 0 60 24t21 86v508q0 63 -24 86t-72 22q-37 0 -64 -18t-44.5 -41.5t-28.5 -40.5v-401q0 -30 13 -42.5t42 -12.5q0 -35 -23 -58h-232z" />
    <glyph glyph-name="eng" unicode="&#x14b;" horiz-adv-x="561" 
d="M55 0q-23 23 -23 58q29 0 42 13t13 42v288q0 26 -14.5 38t-52.5 12v45q24 13 59 24t68.5 17.5t51.5 6.5q21 0 34 -12.5t16 -52.5q25 31 64 48t89 17q71 0 106.5 -35t35.5 -101v-417q0 -64 -23 -105.5t-60.5 -61.5t-81.5 -20q-46 0 -67.5 18t-21.5 36q0 7 2.5 16t6.5 14
q39 0 60 24t21 86v381q0 32 -17.5 49.5t-42.5 17.5q-20 0 -38.5 -8.5t-31.5 -21.5v-303q0 -30 13 -42.5t42 -12.5q0 -35 -23 -58h-227z" />
    <glyph glyph-name="Omacron" unicode="&#x14c;" horiz-adv-x="669" 
d="M334 -13q-97 0 -166 45t-106 126.5t-37 189.5q0 115 38 195.5t107.5 123.5t162.5 43q97 0 166.5 -45t107 -126.5t37.5 -190.5q0 -114 -38.5 -194.5t-108 -123.5t-163.5 -43zM334 60q23 0 45 12t40 43t28.5 88.5t10.5 148.5q0 113 -16 174.5t-43.5 85.5t-62.5 24
q-23 0 -45 -12t-40 -43t-28.5 -88t-10.5 -148q0 -113 16 -175t44 -86t62 -24zM178 778q-3 8 -4.5 20t-1.5 24q0 14 1.5 26.5t5.5 19.5h313q3 -8 4.5 -20.5t1.5 -25.5q0 -29 -5 -44h-315z" />
    <glyph glyph-name="omacron" unicode="&#x14d;" horiz-adv-x="552" 
d="M271 -13q-71 0 -126 30.5t-85.5 90t-30.5 147.5q0 94 32 158t89 97t131 33q72 0 126.5 -31t85 -91.5t30.5 -149.5q0 -93 -32 -156.5t-89 -95.5t-131 -32zM279 59q21 0 36.5 15t24 55.5t8.5 117.5q0 94 -9 142.5t-26 65.5t-40 17q-21 0 -37 -15t-24.5 -56t-8.5 -119
q0 -93 9.5 -141t26.5 -65t40 -17zM119 617q-3 8 -4.5 22.5t-1.5 26.5q0 14 1.5 29t5.5 22h313q3 -8 4.5 -23t1.5 -28t-1.5 -27.5t-3.5 -21.5h-315z" />
    <glyph glyph-name="Obreve" unicode="&#x14e;" horiz-adv-x="669" 
d="M334 -13q-97 0 -166 45t-106 126.5t-37 189.5q0 115 38 195.5t107.5 123.5t162.5 43q97 0 166.5 -45t107 -126.5t37.5 -190.5q0 -114 -38.5 -194.5t-108 -123.5t-163.5 -43zM334 60q23 0 45 12t40 43t28.5 88.5t10.5 148.5q0 113 -16 174.5t-43.5 85.5t-62.5 24
q-23 0 -45 -12t-40 -43t-28.5 -88t-10.5 -148q0 -113 16 -175t44 -86t62 -24zM335 761q-83 0 -131.5 44t-48.5 128q3 10 15.5 15t26.5 5q13 0 27 -4t19 -12q0 -34 24.5 -55.5t67.5 -21.5t67.5 21.5t24.5 55.5q5 8 19.5 12t26.5 4q15 0 27.5 -5t14.5 -15q0 -84 -48.5 -128
t-131.5 -44z" />
    <glyph glyph-name="obreve" unicode="&#x14f;" horiz-adv-x="552" 
d="M271 -13q-71 0 -126 30.5t-85.5 90t-30.5 147.5q0 94 32 158t89 97t131 33q72 0 126.5 -31t85 -91.5t30.5 -149.5q0 -93 -32 -156.5t-89 -95.5t-131 -32zM279 59q21 0 36.5 15t24 55.5t8.5 117.5q0 94 -9 142.5t-26 65.5t-40 17q-21 0 -37 -15t-24.5 -56t-8.5 -119
q0 -93 9.5 -141t26.5 -65t40 -17zM276 608q-83 0 -131.5 49t-48.5 133q3 10 15.5 15t26.5 5q13 0 27 -4t19 -12q0 -34 23.5 -61.5t68.5 -27.5t68.5 27.5t23.5 61.5q5 8 19.5 12t26.5 4q15 0 27 -5t15 -15q0 -84 -48.5 -133t-131.5 -49z" />
    <glyph glyph-name="Ohungarumlaut" unicode="&#x150;" horiz-adv-x="669" 
d="M334 -13q-97 0 -166 45t-106 126.5t-37 189.5q0 115 38 195.5t107.5 123.5t162.5 43q97 0 166.5 -45t107 -126.5t37.5 -190.5q0 -114 -38.5 -194.5t-108 -123.5t-163.5 -43zM334 60q23 0 45 12t40 43t28.5 88.5t10.5 148.5q0 113 -16 174.5t-43.5 85.5t-62.5 24
q-23 0 -45 -12t-40 -43t-28.5 -88t-10.5 -148q0 -113 16 -175t44 -86t62 -24zM225 757q-19 0 -21 10.5t-5 35.5q33 33 53 64t37 65.5t39 75.5q40 0 61.5 -14t21.5 -39q0 -27 -19 -60.5t-48.5 -65t-61 -52t-57.5 -20.5zM425 757q-19 0 -20.5 10.5t-4.5 35.5q48 31 81 85
t66 116q40 0 61.5 -14t21.5 -39q0 -27 -22 -60t-55 -64t-67.5 -50.5t-60.5 -19.5z" />
    <glyph glyph-name="ohungarumlaut" unicode="&#x151;" horiz-adv-x="552" 
d="M271 -13q-71 0 -126 30.5t-85.5 90t-30.5 147.5q0 94 32 158t89 97t131 33q72 0 126.5 -31t85 -91.5t30.5 -149.5q0 -93 -32 -156.5t-89 -95.5t-131 -32zM279 59q21 0 36.5 15t24 55.5t8.5 117.5q0 94 -9 142.5t-26 65.5t-40 17q-21 0 -37 -15t-24.5 -56t-8.5 -119
q0 -93 9.5 -141t26.5 -65t40 -17zM156 617q-19 0 -21 10.5t-5 35.5q33 33 53 64t37 65.5t39 75.5q40 0 61.5 -14t21.5 -39q0 -27 -19 -60.5t-48.5 -65t-61 -52t-57.5 -20.5zM356 617q-19 0 -20.5 10.5t-4.5 35.5q48 31 81 85t66 116q40 0 61.5 -14t21.5 -39q0 -27 -22 -60
t-55 -64t-67.5 -50.5t-60.5 -19.5z" />
    <glyph glyph-name="OE" unicode="&#x152;" horiz-adv-x="918" 
d="M870 -33q-18 0 -37.5 4t-38.5 12h-384q-19 -6 -40 -7.5t-45 -1.5q-93 0 -160 44.5t-103.5 125.5t-36.5 191q0 113 37.5 192t106 121t161.5 42q26 0 46.5 -1.5t41.5 -7.5h335q39 17 77 17q8 -16 15 -46t11 -59.5t4 -46.5q-13 -11 -37 -22t-43 -16q-10 32 -32.5 60
t-62.5 28h-96v-222h83q28 0 46.5 17.5t18.5 57.5q44 0 78 -21v-176q-34 -21 -78 -21q0 40 -18.5 55t-46.5 15h-83v-230h105q52 0 82 27t43 69h83q0 -15 -2.5 -42.5t-6.5 -59t-10 -58t-13 -40.5zM345 44q48 0 80 25v518q-27 33 -82 33q-27 0 -50.5 -11.5t-41.5 -42.5
t-28 -88.5t-10 -149.5q0 -113 16 -174.5t45.5 -85.5t70.5 -24z" />
    <glyph glyph-name="oe" unicode="&#x153;" horiz-adv-x="824" 
d="M271 -15q-71 0 -126 31t-85.5 91t-30.5 148q0 94 32 158t89 97t132 33q51 0 90 -19t65 -68q33 48 76 67.5t93 19.5q89 0 140.5 -52.5t51.5 -147.5q0 -38 -12.5 -66.5t-52.5 -28.5h-211q4 -84 38.5 -118t87.5 -34q34 0 62.5 10.5t54.5 29.5q8 -8 13.5 -24.5t5.5 -27.5
q0 -16 -22.5 -39.5t-63.5 -41.5t-99 -18q-52 0 -95 19.5t-75 65.5q-28 -47 -68 -66t-90 -19zM522 324h102q17 0 21.5 13t4.5 32q0 64 -16 84.5t-38 20.5q-17 0 -33.5 -13t-27.5 -45.5t-13 -91.5zM280 57q21 0 36.5 15t23.5 56t8 119q0 94 -9 142.5t-26 65.5t-40 17
q-21 0 -36 -15t-23.5 -56t-8.5 -119q0 -94 9 -142.5t26 -65.5t40 -17z" />
    <glyph glyph-name="Racute" unicode="&#x154;" horiz-adv-x="653" 
d="M572 -7q-64 0 -98 21.5t-50 57.5t-28 79q-7 29 -17.5 60t-24.5 55t-34 31h-66v-183q0 -28 20 -39.5t49 -11.5q0 -36 -22 -63h-251q-23 28 -23 63q34 0 49.5 11.5t15.5 39.5v470q0 28 -16 39.5t-50 11.5q0 17 5 34t15 29q43 0 80 1.5t68 2.5q27 2 59.5 3t63.5 1
q104 0 165.5 -24t88.5 -67t27 -102q0 -146 -161 -179q44 -13 85.5 -62t62.5 -118q11 -37 28.5 -56t45.5 -23v-50q-13 -19 -37 -25.5t-50 -6.5zM298 366q61 0 94.5 38t33.5 99q0 62 -29 94.5t-94 32.5q-10 0 -25.5 -1t-23.5 -3v-258q7 -1 22 -1.5t22 -0.5zM295 737
q-19 0 -34.5 11t-18.5 35q32 21 68 52t69 69.5t55 79.5q27 0 46.5 -13t30 -31.5t10.5 -35.5q0 -27 -25 -56t-62 -54.5t-75 -41t-64 -15.5z" />
    <glyph glyph-name="racute" unicode="&#x155;" horiz-adv-x="450" 
d="M50 0q-11 11 -17 24t-6 30q29 0 41.5 12.5t12.5 42.5v289q0 26 -14 37.5t-52 11.5v45q24 14 57 24.5t65 17t50 6.5q23 0 33.5 -16t10.5 -69q11 21 32.5 41.5t48.5 33.5t56 13q47 0 67 -24t20 -62q0 -43 -22 -70t-61 -27q-34 0 -54 19.5t-20 44.5q0 16 3 25
q-16 -4 -31 -10.5t-30 -20.5v-300q0 -23 7 -37t27.5 -20.5t61.5 -6.5q0 -17 -4 -30t-15 -24h-267zM168 611q-19 0 -34.5 11t-18.5 35q32 21 68 52t69 69.5t55 79.5q27 0 46.5 -13t30 -31.5t10.5 -35.5q0 -27 -25 -56t-62 -54.5t-75 -41t-64 -15.5z" />
    <glyph glyph-name="uni0156" unicode="&#x156;" horiz-adv-x="653" 
d="M572 -7q-64 0 -98 21.5t-50 57.5t-28 79q-7 29 -17.5 60t-24.5 55t-34 31h-66v-183q0 -28 20 -39.5t49 -11.5q0 -36 -22 -63h-251q-23 28 -23 63q34 0 49.5 11.5t15.5 39.5v470q0 28 -16 39.5t-50 11.5q0 17 5 34t15 29q43 0 80 1.5t68 2.5q27 2 59.5 3t63.5 1
q104 0 165.5 -24t88.5 -67t27 -102q0 -146 -161 -179q44 -13 85.5 -62t62.5 -118q11 -37 28.5 -56t45.5 -23v-50q-13 -19 -37 -25.5t-50 -6.5zM298 366q61 0 94.5 38t33.5 99q0 62 -29 94.5t-94 32.5q-10 0 -25.5 -1t-23.5 -3v-258q7 -1 22 -1.5t22 -0.5zM314 -345
q-10 3 -18 14t-8 24q22 12 35 28.5t13 40.5q0 3 -2 11q-3 -1 -6 -1.5t-6 -0.5q-37 0 -56.5 23.5t-19.5 52.5q0 37 22.5 58.5t58.5 21.5q40 0 67.5 -26.5t27.5 -85.5q0 -21 -8.5 -53t-32 -61.5t-67.5 -45.5z" />
    <glyph glyph-name="uni0157" unicode="&#x157;" horiz-adv-x="450" 
d="M50 0q-11 11 -17 24t-6 30q29 0 41.5 12.5t12.5 42.5v289q0 26 -14 37.5t-52 11.5v45q24 14 57 24.5t65 17t50 6.5q23 0 33.5 -16t10.5 -69q11 21 32.5 41.5t48.5 33.5t56 13q47 0 67 -24t20 -62q0 -43 -22 -70t-61 -27q-34 0 -54 19.5t-20 44.5q0 16 3 25
q-16 -4 -31 -10.5t-30 -20.5v-300q0 -23 7 -37t27.5 -20.5t61.5 -6.5q0 -17 -4 -30t-15 -24h-267zM145 -345q-10 3 -18 14t-8 24q22 12 35 28.5t13 40.5q0 3 -2 11q-3 -1 -6 -1.5t-6 -0.5q-37 0 -56.5 23.5t-19.5 52.5q0 37 22.5 58.5t58.5 21.5q40 0 67.5 -26.5t27.5 -85.5
q0 -21 -8.5 -53t-32 -61.5t-67.5 -45.5z" />
    <glyph glyph-name="Rcaron" unicode="&#x158;" horiz-adv-x="653" 
d="M572 -7q-64 0 -98 21.5t-50 57.5t-28 79q-7 29 -17.5 60t-24.5 55t-34 31h-66v-183q0 -28 20 -39.5t49 -11.5q0 -36 -22 -63h-251q-23 28 -23 63q34 0 49.5 11.5t15.5 39.5v470q0 28 -16 39.5t-50 11.5q0 17 5 34t15 29q43 0 80 1.5t68 2.5q27 2 59.5 3t63.5 1
q104 0 165.5 -24t88.5 -67t27 -102q0 -146 -161 -179q44 -13 85.5 -62t62.5 -118q11 -37 28.5 -56t45.5 -23v-50q-13 -19 -37 -25.5t-50 -6.5zM298 366q61 0 94.5 38t33.5 99q0 62 -29 94.5t-94 32.5q-10 0 -25.5 -1t-23.5 -3v-258q7 -1 22 -1.5t22 -0.5zM289 751l-148 163
q5 17 20 31t34 21l132 -101l131 101q19 -7 34 -21t21 -31l-148 -163h-76z" />
    <glyph glyph-name="rcaron" unicode="&#x159;" horiz-adv-x="450" 
d="M50 0q-11 11 -17 24t-6 30q29 0 41.5 12.5t12.5 42.5v289q0 26 -14 37.5t-52 11.5v45q24 14 57 24.5t65 17t50 6.5q23 0 33.5 -16t10.5 -69q11 21 32.5 41.5t48.5 33.5t56 13q47 0 67 -24t20 -62q0 -43 -22 -70t-61 -27q-34 0 -54 19.5t-20 44.5q0 16 3 25
q-16 -4 -31 -10.5t-30 -20.5v-300q0 -23 7 -37t27.5 -20.5t61.5 -6.5q0 -17 -4 -30t-15 -24h-267zM187 607l-148 163q5 17 20 31t34 21l132 -101l131 101q19 -7 34 -21t21 -31l-148 -163h-76z" />
    <glyph glyph-name="Sacute" unicode="&#x15a;" horiz-adv-x="589" 
d="M85 -15q-13 26 -23.5 72.5t-17 97.5t-6.5 91h100q16 -85 63.5 -133t110.5 -48q31 0 48.5 12.5t25.5 30.5t8 34q0 33 -22 57t-55.5 43.5t-67.5 35.5q-88 43 -139 98.5t-51 139.5q0 61 30 103.5t80.5 65.5t113.5 23q29 0 68.5 -6t64.5 -20l85 26q14 -23 19.5 -60.5t7 -77.5
t1.5 -73v-15h-83q-21 85 -59 115.5t-82 30.5q-41 0 -60.5 -23.5t-19.5 -58.5q0 -32 17.5 -54t45.5 -38.5t59 -32.5q34 -16 71 -36.5t68.5 -47.5t51 -64t19.5 -87q0 -55 -28 -100.5t-80 -73t-126 -27.5q-34 0 -74.5 7.5t-86.5 26.5zM275 737q-19 0 -34.5 11t-18.5 35
q32 21 68 52t69 69.5t55 79.5q27 0 46.5 -13t30 -31.5t10.5 -35.5q0 -27 -25 -56t-62 -54.5t-75 -41t-64 -15.5z" />
    <glyph glyph-name="sacute" unicode="&#x15b;" horiz-adv-x="475" 
d="M231 -10q-36 0 -72.5 8t-67 23t-49.5 37.5t-19 51.5q0 35 20 56.5t51 21.5q28 0 47.5 -18t19.5 -47q0 -13 -4 -22.5t-12 -20.5q9 -9 32 -13t45 -4q35 0 54 13t19 32q0 30 -32 51.5t-73 43.5q-37 20 -73.5 42.5t-61 56.5t-24.5 86q0 66 55 109t156 43q70 0 112 -17.5
t61 -44t19 -55.5q0 -31 -19.5 -49.5t-47.5 -18.5q-25 0 -44 15.5t-19 40.5q0 12 4 26t11 23q-11 9 -25.5 12.5t-34.5 3.5q-33 0 -50.5 -15.5t-17.5 -37.5q0 -34 32.5 -56t72.5 -43q37 -19 72.5 -41t59.5 -55t24 -85q0 -56 -32 -89.5t-82.5 -48.5t-106.5 -15zM185 611
q-19 0 -34.5 11t-18.5 35q32 21 68 52t69 69.5t55 79.5q27 0 46.5 -13t30 -31.5t10.5 -35.5q0 -27 -25 -56t-62 -54.5t-75 -41t-64 -15.5z" />
    <glyph glyph-name="Scircumflex" unicode="&#x15c;" horiz-adv-x="589" 
d="M85 -15q-13 26 -23.5 72.5t-17 97.5t-6.5 91h100q16 -85 63.5 -133t110.5 -48q31 0 48.5 12.5t25.5 30.5t8 34q0 33 -22 57t-55.5 43.5t-67.5 35.5q-88 43 -139 98.5t-51 139.5q0 61 30 103.5t80.5 65.5t113.5 23q29 0 68.5 -6t64.5 -20l85 26q14 -23 19.5 -60.5t7 -77.5
t1.5 -73v-15h-83q-21 85 -59 115.5t-82 30.5q-41 0 -60.5 -23.5t-19.5 -58.5q0 -32 17.5 -54t45.5 -38.5t59 -32.5q34 -16 71 -36.5t68.5 -47.5t51 -64t19.5 -87q0 -55 -28 -100.5t-80 -73t-126 -27.5q-34 0 -74.5 7.5t-86.5 26.5zM174 732q-19 7 -34 21t-20 30l148 164h76
l149 -164q-6 -16 -21 -30t-34 -21l-132 99z" />
    <glyph glyph-name="scircumflex" unicode="&#x15d;" horiz-adv-x="475" 
d="M231 -10q-36 0 -72.5 8t-67 23t-49.5 37.5t-19 51.5q0 35 20 56.5t51 21.5q28 0 47.5 -18t19.5 -47q0 -13 -4 -22.5t-12 -20.5q9 -9 32 -13t45 -4q35 0 54 13t19 32q0 30 -32 51.5t-73 43.5q-37 20 -73.5 42.5t-61 56.5t-24.5 86q0 66 55 109t156 43q70 0 112 -17.5
t61 -44t19 -55.5q0 -31 -19.5 -49.5t-47.5 -18.5q-25 0 -44 15.5t-19 40.5q0 12 4 26t11 23q-11 9 -25.5 12.5t-34.5 3.5q-33 0 -50.5 -15.5t-17.5 -37.5q0 -34 32.5 -56t72.5 -43q37 -19 72.5 -41t59.5 -55t24 -85q0 -56 -32 -89.5t-82.5 -48.5t-106.5 -15zM109 599
q-19 7 -34 21t-20 30l148 164h76l149 -164q-6 -16 -21 -30t-34 -21l-132 99z" />
    <glyph glyph-name="Scedilla" unicode="&#x15e;" horiz-adv-x="589" 
d="M85 -15q-13 26 -23.5 72.5t-17 97.5t-6.5 91h100q16 -85 63.5 -133t110.5 -48q31 0 48.5 12.5t25.5 30.5t8 34q0 33 -22 57t-55.5 43.5t-67.5 35.5q-88 43 -139 98.5t-51 139.5q0 61 30 103.5t80.5 65.5t113.5 23q29 0 68.5 -6t64.5 -20l85 26q14 -23 19.5 -60.5t7 -77.5
t1.5 -73v-15h-83q-21 85 -59 115.5t-82 30.5q-41 0 -60.5 -23.5t-19.5 -58.5q0 -32 17.5 -54t45.5 -38.5t59 -32.5q34 -16 71 -36.5t68.5 -47.5t51 -64t19.5 -87q0 -55 -28 -100.5t-80 -73t-126 -27.5q-34 0 -74.5 7.5t-86.5 26.5zM317 -300q-51 0 -87 13.5t-52 28.5
q0 15 7.5 29.5t16.5 22.5q48 -34 98 -34q29 0 42 14t13 35q0 20 -9.5 33t-35.5 13q-7 0 -15.5 -1t-22.5 -5l-43 21l61 162h69l-34 -124q24 8 55 8q34 0 56 -14t33 -35.5t11 -43.5q0 -29 -18.5 -57.5t-54.5 -47t-90 -18.5z" />
    <glyph glyph-name="scedilla" unicode="&#x15f;" horiz-adv-x="475" 
d="M231 -10q-36 0 -72.5 8t-67 23t-49.5 37.5t-19 51.5q0 35 20 56.5t51 21.5q28 0 47.5 -18t19.5 -47q0 -13 -4 -22.5t-12 -20.5q9 -9 32 -13t45 -4q35 0 54 13t19 32q0 30 -32 51.5t-73 43.5q-37 20 -73.5 42.5t-61 56.5t-24.5 86q0 66 55 109t156 43q70 0 112 -17.5
t61 -44t19 -55.5q0 -31 -19.5 -49.5t-47.5 -18.5q-25 0 -44 15.5t-19 40.5q0 12 4 26t11 23q-11 9 -25.5 12.5t-34.5 3.5q-33 0 -50.5 -15.5t-17.5 -37.5q0 -34 32.5 -56t72.5 -43q37 -19 72.5 -41t59.5 -55t24 -85q0 -56 -32 -89.5t-82.5 -48.5t-106.5 -15zM246 -300
q-51 0 -87 13.5t-52 28.5q0 15 7.5 29.5t16.5 22.5q48 -34 98 -34q29 0 42 13.5t13 35.5q0 20 -9.5 33t-35.5 13q-7 0 -15.5 -1t-22.5 -5l-43 21l66 182h69l-39 -144q24 8 55 8q34 0 56 -14t33 -35.5t11 -43.5q0 -29 -18.5 -57.5t-54.5 -47t-90 -18.5z" />
    <glyph glyph-name="Scaron" unicode="&#x160;" horiz-adv-x="589" 
d="M85 -15q-13 26 -23.5 72.5t-17 97.5t-6.5 91h100q16 -85 63.5 -133t110.5 -48q31 0 48.5 12.5t25.5 30.5t8 34q0 33 -22 57t-55.5 43.5t-67.5 35.5q-88 43 -139 98.5t-51 139.5q0 61 30 103.5t80.5 65.5t113.5 23q29 0 68.5 -6t64.5 -20l85 26q14 -23 19.5 -60.5t7 -77.5
t1.5 -73v-15h-83q-21 85 -59 115.5t-82 30.5q-41 0 -60.5 -23.5t-19.5 -58.5q0 -32 17.5 -54t45.5 -38.5t59 -32.5q34 -16 71 -36.5t68.5 -47.5t51 -64t19.5 -87q0 -55 -28 -100.5t-80 -73t-126 -27.5q-34 0 -74.5 7.5t-86.5 26.5zM269 751l-148 163q5 17 20 31t34 21
l132 -101l131 101q19 -7 34 -21t21 -31l-148 -163h-76z" />
    <glyph glyph-name="scaron" unicode="&#x161;" horiz-adv-x="475" 
d="M231 -10q-36 0 -72.5 8t-67 23t-49.5 37.5t-19 51.5q0 35 20 56.5t51 21.5q28 0 47.5 -18t19.5 -47q0 -13 -4 -22.5t-12 -20.5q9 -9 32 -13t45 -4q35 0 54 13t19 32q0 30 -32 51.5t-73 43.5q-37 20 -73.5 42.5t-61 56.5t-24.5 86q0 66 55 109t156 43q70 0 112 -17.5
t61 -44t19 -55.5q0 -31 -19.5 -49.5t-47.5 -18.5q-25 0 -44 15.5t-19 40.5q0 12 4 26t11 23q-11 9 -25.5 12.5t-34.5 3.5q-33 0 -50.5 -15.5t-17.5 -37.5q0 -34 32.5 -56t72.5 -43q37 -19 72.5 -41t59.5 -55t24 -85q0 -56 -32 -89.5t-82.5 -48.5t-106.5 -15zM204 607
l-148 163q5 17 20 31t34 21l132 -101l131 101q19 -7 34 -21t21 -31l-148 -163h-76z" />
    <glyph glyph-name="uni0162" unicode="&#x162;" horiz-adv-x="638" 
d="M150 0q-22 25 -22 64q54 0 83.5 13t29.5 41v501h-22q-26 0 -51.5 -16t-44 -58.5t-25.5 -123.5q-12 1 -30 2t-34.5 3.5t-25.5 5.5q0 21 2 59t6 81t10.5 80.5t15.5 57.5q18 0 41 -3t41 -9h390q19 6 41 9t41 3q9 -20 15.5 -57.5t10.5 -80.5t6 -81t2 -59q-13 -5 -41.5 -8
t-48.5 -3q-6 81 -20 123.5t-37 58.5t-59 16h-17v-501q0 -54 106 -54q0 -39 -23 -64h-340zM329 -300q-51 0 -87 13.5t-52 28.5q0 15 7.5 29.5t16.5 22.5q48 -34 98 -34q29 0 42 14t13 35q0 20 -9.5 33t-35.5 13q-7 0 -15.5 -1t-22.5 -5l-43 21l61 162h69l-34 -124q24 8 55 8
q34 0 56 -14t33 -35.5t11 -43.5q0 -29 -18.5 -57.5t-54.5 -47t-90 -18.5z" />
    <glyph glyph-name="uni0163" unicode="&#x163;" horiz-adv-x="377" 
d="M228 -7q-42 0 -77 15.5t-56.5 53.5t-21.5 104v275h-63v61q27 4 51 34t41.5 74t22.5 88q18 3 33 3q40 0 55.5 -23t15.5 -43v-105h116q0 -24 -2.5 -47.5t-13.5 -41.5h-98v-282q0 -32 13 -42.5t33 -10.5t40.5 10.5t32.5 24.5q11 -9 15 -26.5t4 -26.5q0 -22 -15 -44
t-46.5 -36.5t-79.5 -14.5zM216 -300q-51 0 -87 13.5t-52 28.5q0 15 7.5 29.5t16.5 22.5q48 -34 98 -34q29 0 42 13.5t13 35.5q0 20 -9.5 33t-35.5 13q-7 0 -15.5 -1t-22.5 -5l-43 21l66 182h69l-39 -144q24 8 55 8q34 0 56 -14t33 -35.5t11 -43.5q0 -29 -18.5 -57.5
t-54.5 -47t-90 -18.5z" />
    <glyph glyph-name="Tcaron" unicode="&#x164;" horiz-adv-x="638" 
d="M150 0q-22 25 -22 64q54 0 83.5 13t29.5 41v501h-22q-26 0 -51.5 -16t-44 -58.5t-25.5 -123.5q-12 1 -30 2t-34.5 3.5t-25.5 5.5q0 21 2 59t6 81t10.5 80.5t15.5 57.5q18 0 41 -3t41 -9h390q19 6 41 9t41 3q9 -20 15.5 -57.5t10.5 -80.5t6 -81t2 -59q-13 -5 -41.5 -8
t-48.5 -3q-6 81 -20 123.5t-37 58.5t-59 16h-17v-501q0 -54 106 -54q0 -39 -23 -64h-340zM281 751l-148 163q5 17 20 31t34 21l132 -101l131 101q19 -7 34 -21t21 -31l-148 -163h-76z" />
    <glyph glyph-name="tcaron" unicode="&#x165;" horiz-adv-x="396" 
d="M228 -7q-42 0 -77 15.5t-56.5 53.5t-21.5 104v275h-63v61q27 4 51 34t41.5 74t22.5 88q18 3 33 3q40 0 55.5 -23t15.5 -43v-105h116q0 -24 -2.5 -47.5t-13.5 -41.5h-98v-282q0 -32 13 -42.5t33 -10.5t40.5 10.5t32.5 24.5q11 -9 15 -26.5t4 -26.5q0 -22 -15 -44
t-46.5 -36.5t-79.5 -14.5zM318 572q-19 0 -35 13q3 35 3.5 75.5t0.5 79.5v69q8 8 30 15t39 7q35 0 44 -19.5t9 -60.5q0 -27 -9 -57.5t-20.5 -56t-20.5 -37.5q-9 -13 -19.5 -20.5t-21.5 -7.5z" />
    <glyph glyph-name="Tbar" unicode="&#x166;" horiz-adv-x="646" 
d="M150 0q-22 25 -22 64q54 0 83.5 13t29.5 41v144h-114q-3 8 -4.5 20t-1.5 24q0 14 1.5 26.5t5.5 19.5h113v267h-22q-26 0 -51.5 -16t-44 -58.5t-25.5 -123.5q-12 1 -30 2t-34.5 3.5t-25.5 5.5q0 21 2 59t6 81t10.5 80.5t15.5 57.5q18 0 41 -3t41 -9h390q19 6 41 9t41 3
q9 -20 15.5 -57.5t10.5 -80.5t6 -81t2 -59q-13 -5 -41.5 -8t-48.5 -3q-6 81 -20 123.5t-37 58.5t-59 16h-17v-267h114q3 -8 4.5 -20.5t1.5 -25.5q0 -29 -5 -44h-115v-144q0 -54 106 -54q0 -39 -23 -64h-340z" />
    <glyph glyph-name="tbar" unicode="&#x167;" horiz-adv-x="377" 
d="M228 -7q-42 0 -77 15.5t-56.5 53.5t-21.5 104v88h-56q-4 8 -5.5 20t-1.5 24q0 14 1.5 26.5t5.5 19.5h56v97h-63v61q27 4 51 34t41.5 74t22.5 88q18 3 33 3q40 0 55.5 -23t15.5 -43v-105h116q0 -24 -2.5 -47.5t-13.5 -41.5h-98v-97h119q0 -19 -2.5 -47.5t-11.5 -42.5h-105
v-95q0 -32 13 -42.5t33 -10.5t40.5 10.5t32.5 24.5q11 -9 15 -26.5t4 -26.5q0 -22 -15 -44t-46.5 -36.5t-79.5 -14.5z" />
    <glyph glyph-name="Utilde" unicode="&#x168;" horiz-adv-x="671" 
d="M340 -13q-128 0 -203 70t-75 206v322q0 27 -14 38.5t-48 11.5q0 38 23 63h250q23 -25 23 -63q-34 0 -48 -11.5t-14 -38.5v-343q0 -67 29 -113t95 -46q45 0 71 19.5t37.5 52t11.5 71.5v359q0 27 -16.5 38.5t-54.5 11.5q0 18 5.5 34.5t16.5 28.5h220q22 -25 22 -63
q-38 0 -54.5 -11.5t-16.5 -38.5v-312q0 -138 -64.5 -212t-195.5 -74zM410 747q-27 0 -45 9.5t-31 22.5t-26 22.5t-31 9.5q-16 0 -32.5 -7t-38.5 -32q-8 -6 -21.5 2t-23.5 23t-6 30q6 22 24 42.5t45.5 34t58.5 13.5t50.5 -9.5t32.5 -22.5t24.5 -22.5t25.5 -9.5q17 0 32.5 6.5
t37.5 31.5q8 7 22 -1.5t23.5 -23.5t5.5 -30q-8 -32 -41 -60.5t-86 -28.5z" />
    <glyph glyph-name="utilde" unicode="&#x169;" horiz-adv-x="572" 
d="M216 -7q-70 0 -109 43t-39 116v275q0 17 -13 24t-36 7v44q13 11 54.5 23.5t93.5 12.5q39 0 51.5 -9t12.5 -44v-336q0 -30 10 -46t35 -16q21 0 40.5 13t32.5 30v297q0 17 -15 24t-41 7v44q14 11 55 23.5t97 12.5q39 0 53 -9t14 -44v-368q0 -24 12.5 -40t35.5 -18v-28
q-16 -19 -50.5 -28.5t-66.5 -9.5q-33 0 -57.5 17.5t-32.5 50.5q-49 -68 -137 -68zM356 598q-30 0 -47.5 10.5t-34.5 23.5q-14 11 -27.5 19t-29.5 8t-35 -10t-41 -35q-3 -3 -8 -3q-13 0 -28.5 16t-15.5 34q0 5 1 8q7 21 25 42.5t44 36t57 14.5q37 0 57 -11.5t37 -26.5
q11 -10 22.5 -16.5t22.5 -6.5q17 0 35.5 10t40.5 35q3 3 8 3q13 0 28.5 -16t15.5 -35q0 -5 -1 -7q-10 -20 -26 -41.5t-40 -36.5t-60 -15z" />
    <glyph glyph-name="Umacron" unicode="&#x16a;" horiz-adv-x="671" 
d="M340 -13q-128 0 -203 70t-75 206v322q0 27 -14 38.5t-48 11.5q0 38 23 63h250q23 -25 23 -63q-34 0 -48 -11.5t-14 -38.5v-343q0 -67 29 -113t95 -46q45 0 71 19.5t37.5 52t11.5 71.5v359q0 27 -16.5 38.5t-54.5 11.5q0 18 5.5 34.5t16.5 28.5h220q22 -25 22 -63
q-38 0 -54.5 -11.5t-16.5 -38.5v-312q0 -138 -64.5 -212t-195.5 -74zM189 768q-3 8 -4.5 20t-1.5 24q0 14 1.5 26.5t5.5 19.5h313q3 -8 4.5 -20.5t1.5 -25.5q0 -29 -5 -44h-315z" />
    <glyph glyph-name="umacron" unicode="&#x16b;" horiz-adv-x="572" 
d="M216 -7q-70 0 -109 43t-39 116v275q0 17 -13 24t-36 7v44q13 11 54.5 23.5t93.5 12.5q39 0 51.5 -9t12.5 -44v-336q0 -30 10 -46t35 -16q21 0 40.5 13t32.5 30v297q0 17 -15 24t-41 7v44q14 11 55 23.5t97 12.5q39 0 53 -9t14 -44v-368q0 -24 12.5 -40t35.5 -18v-28
q-16 -19 -50.5 -28.5t-66.5 -9.5q-33 0 -57.5 17.5t-32.5 50.5q-49 -68 -137 -68zM129 617q-3 8 -4.5 22.5t-1.5 26.5q0 14 1.5 29t5.5 22h313q3 -8 4.5 -23t1.5 -28t-1.5 -27.5t-3.5 -21.5h-315z" />
    <glyph glyph-name="Ubreve" unicode="&#x16c;" horiz-adv-x="671" 
d="M340 -13q-128 0 -203 70t-75 206v322q0 27 -14 38.5t-48 11.5q0 38 23 63h250q23 -25 23 -63q-34 0 -48 -11.5t-14 -38.5v-343q0 -67 29 -113t95 -46q45 0 71 19.5t37.5 52t11.5 71.5v359q0 27 -16.5 38.5t-54.5 11.5q0 18 5.5 34.5t16.5 28.5h220q22 -25 22 -63
q-38 0 -54.5 -11.5t-16.5 -38.5v-312q0 -138 -64.5 -212t-195.5 -74zM346 751q-83 0 -131.5 44t-48.5 128q3 10 15.5 15t26.5 5q13 0 27 -4t19 -12q0 -34 24.5 -55.5t67.5 -21.5t67.5 21.5t24.5 55.5q5 8 19.5 12t26.5 4q15 0 27.5 -5t14.5 -15q0 -84 -48.5 -128t-131.5 -44
z" />
    <glyph glyph-name="ubreve" unicode="&#x16d;" horiz-adv-x="572" 
d="M216 -7q-70 0 -109 43t-39 116v275q0 17 -13 24t-36 7v44q13 11 54.5 23.5t93.5 12.5q39 0 51.5 -9t12.5 -44v-336q0 -30 10 -46t35 -16q21 0 40.5 13t32.5 30v297q0 17 -15 24t-41 7v44q14 11 55 23.5t97 12.5q39 0 53 -9t14 -44v-368q0 -24 12.5 -40t35.5 -18v-28
q-16 -19 -50.5 -28.5t-66.5 -9.5q-33 0 -57.5 17.5t-32.5 50.5q-49 -68 -137 -68zM286 608q-83 0 -131.5 49t-48.5 133q3 10 15.5 15t26.5 5q13 0 27 -4t19 -12q0 -34 23.5 -61.5t68.5 -27.5t68.5 27.5t23.5 61.5q5 8 19.5 12t26.5 4q15 0 27 -5t15 -15q0 -84 -48.5 -133
t-131.5 -49z" />
    <glyph glyph-name="Uring" unicode="&#x16e;" horiz-adv-x="671" 
d="M340 -13q-128 0 -203 70t-75 206v322q0 27 -14 38.5t-48 11.5q0 38 23 63h250q23 -25 23 -63q-34 0 -48 -11.5t-14 -38.5v-343q0 -67 29 -113t95 -46q45 0 71 19.5t37.5 52t11.5 71.5v359q0 27 -16.5 38.5t-54.5 11.5q0 18 5.5 34.5t16.5 28.5h220q22 -25 22 -63
q-38 0 -54.5 -11.5t-16.5 -38.5v-312q0 -138 -64.5 -212t-195.5 -74zM345 751q-64 0 -102.5 38t-38.5 100t38.5 100.5t102.5 38.5q65 0 103.5 -38.5t38.5 -100.5t-38.5 -100t-103.5 -38zM345 833q26 0 41 15.5t15 39.5q0 26 -15 41t-41 15q-25 0 -40 -15t-15 -41
q0 -24 15 -39.5t40 -15.5z" />
    <glyph glyph-name="uring" unicode="&#x16f;" horiz-adv-x="572" 
d="M216 -7q-70 0 -109 43t-39 116v275q0 17 -13 24t-36 7v44q13 11 54.5 23.5t93.5 12.5q39 0 51.5 -9t12.5 -44v-336q0 -30 10 -46t35 -16q21 0 40.5 13t32.5 30v297q0 17 -15 24t-41 7v44q14 11 55 23.5t97 12.5q39 0 53 -9t14 -44v-368q0 -24 12.5 -40t35.5 -18v-28
q-16 -19 -50.5 -28.5t-66.5 -9.5q-33 0 -57.5 17.5t-32.5 50.5q-49 -68 -137 -68zM286 612q-64 0 -102.5 38t-38.5 101q0 62 38.5 100t102.5 38q65 0 103 -38t38 -100q0 -63 -38 -101t-103 -38zM286 695q26 0 40.5 15t14.5 40t-14.5 40.5t-40.5 15.5q-25 0 -40 -15.5
t-15 -40.5t15 -40t40 -15z" />
    <glyph glyph-name="Uhungarumlaut" unicode="&#x170;" horiz-adv-x="671" 
d="M340 -13q-128 0 -203 70t-75 206v322q0 27 -14 38.5t-48 11.5q0 38 23 63h250q23 -25 23 -63q-34 0 -48 -11.5t-14 -38.5v-343q0 -67 29 -113t95 -46q45 0 71 19.5t37.5 52t11.5 71.5v359q0 27 -16.5 38.5t-54.5 11.5q0 18 5.5 34.5t16.5 28.5h220q22 -25 22 -63
q-38 0 -54.5 -11.5t-16.5 -38.5v-312q0 -138 -64.5 -212t-195.5 -74zM236 747q-19 0 -21 10.5t-5 35.5q33 33 53 64t37 65.5t39 75.5q40 0 61.5 -14t21.5 -39q0 -27 -19 -60.5t-48.5 -65t-61 -52t-57.5 -20.5zM436 747q-19 0 -20.5 10.5t-4.5 35.5q48 31 81 85t66 116
q40 0 61.5 -14t21.5 -39q0 -27 -22 -60t-55 -64t-67.5 -50.5t-60.5 -19.5z" />
    <glyph glyph-name="uhungarumlaut" unicode="&#x171;" horiz-adv-x="572" 
d="M216 -7q-70 0 -109 43t-39 116v275q0 17 -13 24t-36 7v44q13 11 54.5 23.5t93.5 12.5q39 0 51.5 -9t12.5 -44v-336q0 -30 10 -46t35 -16q21 0 40.5 13t32.5 30v297q0 17 -15 24t-41 7v44q14 11 55 23.5t97 12.5q39 0 53 -9t14 -44v-368q0 -24 12.5 -40t35.5 -18v-28
q-16 -19 -50.5 -28.5t-66.5 -9.5q-33 0 -57.5 17.5t-32.5 50.5q-49 -68 -137 -68zM166 617q-19 0 -21 10.5t-5 35.5q33 33 53 64t37 65.5t39 75.5q40 0 61.5 -14t21.5 -39q0 -27 -19 -60.5t-48.5 -65t-61 -52t-57.5 -20.5zM366 617q-19 0 -20.5 10.5t-4.5 35.5q48 31 81 85
t66 116q40 0 61.5 -14t21.5 -39q0 -27 -22 -60t-55 -64t-67.5 -50.5t-60.5 -19.5z" />
    <glyph glyph-name="Uogonek" unicode="&#x172;" horiz-adv-x="695" 
d="M373 -227q-29 0 -58 11t-47.5 34.5t-18.5 62.5q0 34 14 61t36 47q-110 11 -173.5 80t-63.5 194v322q0 27 -14 38.5t-48 11.5q0 38 23 63h250q23 -25 23 -63q-34 0 -48 -11.5t-14 -38.5v-343q0 -67 29 -113t95 -46q45 0 71 19.5t37.5 52t11.5 71.5v359q0 27 -16.5 38.5
t-54.5 11.5q0 18 5.5 34.5t16.5 28.5h220q22 -25 22 -63q-38 0 -54.5 -11.5t-16.5 -38.5v-312q0 -117 -46 -188t-139 -91q-29 -16 -43 -39t-14 -46q0 -20 19 -28.5t41 -8.5q20 0 38 5t26 12q5 -6 6.5 -16.5t1.5 -19.5q0 -13 -3.5 -26t-13.5 -23q-12 -12 -39 -21.5t-61 -9.5z
" />
    <glyph glyph-name="uogonek" unicode="&#x173;" horiz-adv-x="574" 
d="M216 -7q-70 0 -109 43t-39 116v275q0 17 -13 24t-36 7v44q13 11 54.5 23.5t93.5 12.5q39 0 51.5 -9t12.5 -44v-336q0 -30 10 -46t35 -16q21 0 40.5 13t32.5 30v297q0 17 -15 24t-41 7v44q14 11 55 23.5t97 12.5q39 0 53 -9t14 -44v-368q0 -24 12.5 -40t35.5 -18v-28
q-10 -11 -26.5 -19t-35.5 -12q-41 -13 -61.5 -39t-20.5 -57q0 -22 20 -30.5t43 -8.5q21 0 40 5.5t28 12.5q5 -7 6.5 -18t1.5 -20q0 -46 -35 -65t-88 -19q-31 0 -61 11t-49.5 36t-19.5 66q0 49 27 81.5t62 51.5q-29 18 -38 54q-49 -68 -137 -68z" />
    <glyph glyph-name="Wcircumflex" unicode="&#x174;" horiz-adv-x="992" 
d="M226 -7l-177 595q-7 26 -21 36.5t-48 10.5q0 17 3 32.5t12 30.5h270q6 -12 11.5 -29t5.5 -34q-38 0 -49.5 -13.5t-11.5 -30.5l86 -323l16 -82l95 365q7 38 25 68t49 30h105l99 -381l22 -86l23 88l74 288q3 11 3 20q0 26 -19 41.5t-51 15.5q0 17 3 32.5t11 30.5h235
q8 -14 11.5 -30t3.5 -33q-34 0 -53.5 -10.5t-27.5 -36.5l-126 -458q-19 -70 -49.5 -103.5t-80.5 -33.5h-56l-92 322l-39 147l-32 -148l-51 -184q-19 -70 -47 -103.5t-78 -33.5h-54zM385 732q-19 7 -34 21t-20 30l148 164h76l149 -164q-6 -16 -21 -30t-34 -21l-132 99z" />
    <glyph glyph-name="wcircumflex" unicode="&#x175;" horiz-adv-x="796" 
d="M165 -7l-136 426q-9 27 -20.5 39.5t-37.5 12.5q0 16 5 32.5t16 27.5h225q11 -11 17 -27.5t6 -32.5q-20 0 -33.5 -11t-13.5 -34q0 -4 1.5 -10t2.5 -11l26 -136l30 -141l44 141l29 104q12 47 26.5 79.5t50.5 32.5h77l52 -215l44 -138l22 138l33 141q4 15 4 27q0 33 -40 33
q0 16 4 32.5t15 27.5h191q12 -11 16 -27.5t4 -32.5q-28 0 -43.5 -9.5t-23.5 -36.5l-89 -323q-10 -39 -21 -63t-28.5 -35t-50.5 -11h-79l-94 300l-54 -193q-13 -49 -27 -74.5t-48 -31.5v-1h-102zM282 599q-19 7 -34 21t-20 30l148 164h76l149 -164q-6 -16 -21 -30t-34 -21
l-132 99z" />
    <glyph glyph-name="Ycircumflex" unicode="&#x176;" horiz-adv-x="661" 
d="M193 0q-22 25 -22 64q33 0 62.5 11t29.5 39v132l-199 345q-11 20 -32.5 32t-41.5 12q0 37 24 63h270q23 -25 23 -63q-60 0 -60 -39q0 -18 16 -50l96 -181l110 207q5 10 5 19q0 19 -18 31.5t-41 12.5q0 38 23 63h209q24 -26 24 -63q-25 0 -38 -4.5t-20.5 -15t-18.5 -30.5
l-174 -316v-155q0 -28 30.5 -39t65.5 -11q0 -39 -22 -64h-301zM218 732q-19 7 -34 21t-20 30l148 164h76l149 -164q-6 -16 -21 -30t-34 -21l-132 99z" />
    <glyph glyph-name="ycircumflex" unicode="&#x177;" horiz-adv-x="530" 
d="M161 -211q-62 0 -93 26t-31 62q0 24 11.5 43t29.5 27q27 -32 80 -32q30 0 61.5 29.5t52.5 92.5h-82l-154 374q-12 29 -21 44t-40 15q0 17 5 33t16 28h236q24 -26 24 -61q-25 0 -35.5 -13t-10.5 -33q0 -7 1 -15.5t4 -17.5l93 -271l66 284q3 14 3 24q0 42 -49 42q0 17 4 33
t15 28h193q11 -12 15.5 -28t4.5 -33q-25 0 -38.5 -12t-22.5 -40l-114 -355q-44 -142 -94.5 -208t-129.5 -66zM158 599q-19 7 -34 21t-20 30l148 164h76l149 -164q-6 -16 -21 -30t-34 -21l-132 99z" />
    <glyph glyph-name="Ydieresis" unicode="&#x178;" horiz-adv-x="661" 
d="M193 0q-22 25 -22 64q33 0 62.5 11t29.5 39v132l-199 345q-11 20 -32.5 32t-41.5 12q0 37 24 63h270q23 -25 23 -63q-60 0 -60 -39q0 -18 16 -50l96 -181l110 207q5 10 5 19q0 19 -18 31.5t-41 12.5q0 38 23 63h209q24 -26 24 -63q-25 0 -38 -4.5t-20.5 -15t-18.5 -30.5
l-174 -316v-155q0 -28 30.5 -39t65.5 -11q0 -39 -22 -64h-301zM473 751q-38 0 -59 28.5t-21 66.5t21 65.5t59 27.5q39 0 60 -27.5t21 -65.5t-21 -66.5t-60 -28.5zM229 751q-39 0 -60 28.5t-21 66.5t21 65.5t60 27.5q38 0 59 -27.5t21 -65.5t-21 -66.5t-59 -28.5z" />
    <glyph glyph-name="Zacute" unicode="&#x179;" horiz-adv-x="616" 
d="M559 -16q-18 0 -37.5 4t-37.5 12h-452l-25 38l375 583h-108q-65 0 -93.5 -35t-39.5 -109h-99q0 68 9 128t25 93h489l25 -37l-363 -582h150q34 0 59 25t42.5 62t26.5 73h96q0 -12 -2.5 -38t-7 -58.5t-10 -64.5t-11.5 -57.5t-11 -36.5zM306 737q-19 0 -34.5 11t-18.5 35
q32 21 68 52t69 69.5t55 79.5q27 0 46.5 -13t30 -31.5t10.5 -35.5q0 -27 -25 -56t-62 -54.5t-75 -41t-64 -15.5z" />
    <glyph glyph-name="zacute" unicode="&#x17a;" horiz-adv-x="507" 
d="M36 0l-28 38l248 372l48 53h-84q-47 0 -68 -26t-21 -86h-80q-13 36 -14.5 83t-2.5 96h425l30 -41l-229 -358l-60 -63h66q51 0 79 16t42 44.5t24 67.5h75v-35q0 -39 -4 -82.5t-22 -78.5h-424zM207 611q-19 0 -34.5 11t-18.5 35q32 21 68 52t69 69.5t55 79.5q27 0 46.5 -13
t30 -31.5t10.5 -35.5q0 -27 -25 -56t-62 -54.5t-75 -41t-64 -15.5z" />
    <glyph glyph-name="Zdotaccent" unicode="&#x17b;" horiz-adv-x="616" 
d="M559 -16q-18 0 -37.5 4t-37.5 12h-452l-25 38l375 583h-108q-65 0 -93.5 -35t-39.5 -109h-99q0 68 9 128t25 93h489l25 -37l-363 -582h150q34 0 59 25t42.5 62t26.5 73h96q0 -12 -2.5 -38t-7 -58.5t-10 -64.5t-11.5 -57.5t-11 -36.5zM337 751q-43 0 -68.5 25.5
t-25.5 68.5q0 42 26.5 68t69.5 26q44 0 69 -26t25 -68q0 -43 -26 -68.5t-70 -25.5z" />
    <glyph glyph-name="zdotaccent" unicode="&#x17c;" horiz-adv-x="507" 
d="M36 0l-28 38l248 372l48 53h-84q-47 0 -68 -26t-21 -86h-80q-13 36 -14.5 83t-2.5 96h425l30 -41l-229 -358l-60 -63h66q51 0 79 16t42 44.5t24 67.5h75v-35q0 -39 -4 -82.5t-22 -78.5h-424zM264 613q-43 0 -69 25.5t-26 68.5q0 42 26 68t69 26q44 0 69.5 -26t25.5 -68
q0 -43 -25.5 -68.5t-69.5 -25.5z" />
    <glyph glyph-name="Zcaron" unicode="&#x17d;" horiz-adv-x="616" 
d="M559 -16q-18 0 -37.5 4t-37.5 12h-452l-25 38l375 583h-108q-65 0 -93.5 -35t-39.5 -109h-99q0 68 9 128t25 93h489l25 -37l-363 -582h150q34 0 59 25t42.5 62t26.5 73h96q0 -12 -2.5 -38t-7 -58.5t-10 -64.5t-11.5 -57.5t-11 -36.5zM300 751l-148 163q5 17 20 31t34 21
l132 -101l131 101q19 -7 34 -21t21 -31l-148 -163h-76z" />
    <glyph glyph-name="zcaron" unicode="&#x17e;" horiz-adv-x="507" 
d="M36 0l-28 38l248 372l48 53h-84q-47 0 -68 -26t-21 -86h-80q-13 36 -14.5 83t-2.5 96h425l30 -41l-229 -358l-60 -63h66q51 0 79 16t42 44.5t24 67.5h75v-35q0 -39 -4 -82.5t-22 -78.5h-424zM226 607l-148 163q5 17 20 31t34 21l132 -101l131 101q19 -7 34 -21t21 -31
l-148 -163h-76z" />
    <glyph glyph-name="uni0181" unicode="&#x181;" horiz-adv-x="769" 
d="M447 -8q-47 0 -109 4t-154 4q-22 27 -22 63q34 0 48 11.5t14 39.5v470q0 28 -14 39.5t-48 11.5q-6 0 -13.5 -3.5t-10.5 -8.5q20 -15 25 -30.5t5 -27.5q0 -28 -23 -49.5t-53 -21.5q-33 0 -52.5 25t-19.5 62q0 25 16 52t52 46t96 19q71 0 113 1.5t71.5 2.5t59.5 1
q87 0 143 -15.5t87.5 -40t44 -54t12.5 -58.5q0 -56 -29 -96t-98 -69q86 -18 125.5 -56t39.5 -118q0 -39 -13 -75.5t-46.5 -65.5t-93.5 -46t-153 -17zM419 394q73 0 103.5 32t30.5 86t-29.5 86t-93.5 32q-10 0 -21.5 -1t-19.5 -3v-230q7 -1 15 -1.5t15 -0.5zM431 65
q140 0 140 121q0 68 -34.5 102t-114.5 34q-8 0 -17.5 -0.5t-15.5 -0.5v-253q7 -1 18 -2t24 -1z" />
    <glyph glyph-name="uni0186" unicode="&#x186;" horiz-adv-x="574" 
d="M230 -14q-67 0 -114 19t-71.5 46.5t-24.5 50.5q0 14 7.5 32.5t20.5 27.5q13 -19 45 -36.5t78 -17.5q54 0 99.5 26.5t73.5 88t28 164.5q0 125 -37.5 180t-95.5 55q-44 0 -71.5 -41t-35.5 -106h-113q0 30 2 72.5t8 86t19 75.5q11 0 28 -4t34 -8.5t27 -9.5q21 10 49 16t50 6
q93 0 163.5 -40.5t110 -119.5t39.5 -197q0 -123 -44 -204.5t-116.5 -121.5t-158.5 -40z" />
    <glyph glyph-name="uni0189" unicode="&#x189;" horiz-adv-x="668" 
d="M292 -11q-23 0 -52 3t-74 5.5t-118 2.5q-22 28 -22 64q33 0 47.5 11.5t14.5 39.5v218h-49v78h49v174q0 27 -14.5 38.5t-47.5 11.5q0 38 22 63q99 0 167.5 6t90.5 6q87 0 150 -27.5t104 -75t61 -110t20 -133.5q0 -77 -20 -145t-62.5 -119.5t-108.5 -81t-158 -29.5zM284 72
q55 0 95 27t62 88t22 162q0 146 -51 213.5t-136 67.5h-13t-11 -2v-217h108q0 -19 -1.5 -41.5t-14.5 -36.5h-92v-259q8 -1 16.5 -1.5t15.5 -0.5z" />
    <glyph glyph-name="uni0189" unicode="&#x256;" horiz-adv-x="668" 
d="M292 -11q-23 0 -52 3t-74 5.5t-118 2.5q-22 28 -22 64q33 0 47.5 11.5t14.5 39.5v218h-49v78h49v174q0 27 -14.5 38.5t-47.5 11.5q0 38 22 63q99 0 167.5 6t90.5 6q87 0 150 -27.5t104 -75t61 -110t20 -133.5q0 -77 -20 -145t-62.5 -119.5t-108.5 -81t-158 -29.5zM284 72
q55 0 95 27t62 88t22 162q0 146 -51 213.5t-136 67.5h-13t-11 -2v-217h108q0 -19 -1.5 -41.5t-14.5 -36.5h-92v-259q8 -1 16.5 -1.5t15.5 -0.5z" />
    <glyph glyph-name="uni018A" unicode="&#x18a;" horiz-adv-x="804" 
d="M428 -11q-23 0 -52 3t-74 5.5t-118 2.5q-22 28 -22 64q33 0 47.5 11.5t14.5 39.5v470q0 27 -14.5 38.5t-47.5 11.5q-6 0 -13.5 -3.5t-10.5 -8.5q20 -15 25 -30.5t5 -27.5q0 -28 -23 -49.5t-53 -21.5q-33 0 -52.5 25t-19.5 62q0 25 16 52t52 46t96 19q99 0 167.5 6t90.5 6
q87 0 150 -27.5t104 -75t61 -110t20 -133.5q0 -77 -20 -145t-62.5 -119.5t-108.5 -81t-158 -29.5zM420 72q55 0 95 27t62 88t22 162q0 146 -51 213.5t-136 67.5h-13t-11 -2v-554q8 -1 16.5 -1.5t15.5 -0.5z" />
    <glyph glyph-name="uni018E" unicode="&#x18e;" horiz-adv-x="615" 
d="M61 -16q-7 14 -15 45t-14.5 67.5t-11 68t-4.5 46.5h107q8 -50 38.5 -86.5t73.5 -36.5h121v235h-73q-28 0 -46.5 -18t-18.5 -58q-46 0 -80 21v186q36 21 81 21q0 -40 18.5 -56.5t46.5 -16.5h72v211h-113q-40 0 -67.5 -29t-38.5 -62q-12 3 -30 9t-35 14t-26 16q0 17 9 47
t21 60.5t20 46.5q19 0 41 -4.5t40 -12.5h388q10 -13 16.5 -29.5t6.5 -33.5q-33 0 -49 -11.5t-16 -39.5v-469q0 -28 16.5 -40t49.5 -12q0 -17 -6.5 -33.5t-16.5 -29.5h-463q-18 -8 -27 -11z" />
    <glyph glyph-name="uni018F" unicode="&#x18f;" horiz-adv-x="591" 
d="M270 -5q-112 0 -178.5 65t-66.5 189q0 33 6 61.5t22.5 45.5t47.5 17h306q-4 108 -43.5 152.5t-111.5 44.5q-53 0 -93.5 -17.5t-69.5 -40.5q-6 8 -13.5 23t-12.5 30.5t-5 24.5q0 21 27.5 48t77 46.5t115.5 19.5q87 0 152 -41.5t100.5 -119.5t35.5 -188q0 -114 -39 -194.5
t-106 -123t-151 -42.5zM277 98q20 0 42.5 7.5t42.5 27.5t32.5 58t12.5 99h-209q-19 0 -22 -13.5t-3 -39.5q0 -55 17 -85t41.5 -42t45.5 -12z" />
    <glyph glyph-name="uni0190" unicode="&#x190;" horiz-adv-x="624" 
d="M341 -8q-86 0 -153 25.5t-105 71.5t-38 107q0 63 27 102.5t74 57t105 13.5q-61 25 -95 54t-47.5 60.5t-13.5 63.5q0 51 31 86.5t84.5 54.5t122.5 19q65 0 118.5 -17t86 -48.5t32.5 -77.5q0 -37 -20.5 -61.5t-59.5 -24.5q-38 0 -58 22.5t-20 44.5q0 20 11 34.5t24 19.5
q-15 19 -32.5 25.5t-41.5 6.5q-45 0 -72.5 -30.5t-27.5 -77.5q0 -30 12.5 -56t46 -47t96.5 -38l-20 -60l-59 14q-43 0 -69.5 -20.5t-38 -52t-11.5 -66.5q0 -52 32.5 -83t94.5 -31q29 0 55.5 2t39.5 12q-16 14 -22 32t-6 32q0 28 21 48.5t56 20.5t59 -22.5t24 -65.5
q0 -47 -32 -80.5t-86.5 -51.5t-124.5 -18z" />
    <glyph glyph-name="florin" unicode="&#x192;" horiz-adv-x="579" 
d="M130 -100q-46 0 -67.5 18t-21.5 37q0 6 2 15t6 14q40 0 59 24.5t27 85.5l40 310h-60l7 62q22 6 38.5 12.5t29.5 14.5v16q0 74 31.5 129.5t84.5 87t117 31.5t92.5 -26t28.5 -62v-13q-6 -40 -32.5 -67.5t-62.5 -27.5q-28 0 -46.5 16t-18.5 43q0 14 7 32.5t21 26.5
q-8 7 -19 7q-19 0 -41.5 -25t-27.5 -67q-3 -24 -3 -43q0 -26 9 -41.5t34 -15.5h106q-3 -22 -8.5 -47t-19.5 -43h-103l-40 -317q-13 -96 -58 -141.5t-111 -45.5z" />
    <glyph glyph-name="uni0196" unicode="&#x196;" horiz-adv-x="280" 
d="M151 -7q-40 0 -67 26t-27 75v504q0 17 -15 24t-41 7v44q14 11 55 23.5t97 12.5q39 0 53 -9t14 -44v-539q0 -24 12.5 -40t35.5 -18v-28q-16 -19 -50.5 -28.5t-66.5 -9.5z" />
    <glyph glyph-name="uni0198" unicode="&#x198;" horiz-adv-x="787" 
d="M563 -14q-42 0 -71 14t-48 36.5t-32.5 48t-24.5 47.5q-10 21 -22.5 52.5t-27.5 63.5t-35 57t-47 33v-224q0 -28 13.5 -39t46.5 -11q0 -18 -6 -35t-16 -29h-245q-22 25 -22 64q33 0 46.5 11t13.5 39v470q0 28 -13.5 39.5t-46.5 11.5q0 38 22 63h245q10 -12 16 -29t6 -34
q-33 0 -46.5 -11.5t-13.5 -39.5v-198h17t20 -2l109 243q22 48 54.5 93t79 74t108.5 29q50 0 79.5 -19.5t42 -47.5t12.5 -53q0 -37 -22.5 -62t-55.5 -25q-30 0 -50 21.5t-20 49.5q0 12 5 27.5t25 30.5q-7 12 -28 12q-33 0 -60.5 -36t-74.5 -114l-139 -234q64 -29 98 -62
t63 -78q30 -45 51 -80.5t43 -56.5t52 -25v-40q-16 -21 -38.5 -33t-62.5 -12z" />
    <glyph glyph-name="uni0199" unicode="&#x199;" horiz-adv-x="585" 
d="M493 -10q-55 0 -88 23.5t-53.5 59.5t-36.5 73q-16 38 -34 69t-47 42v-153q0 -29 12.5 -41.5t43.5 -12.5q0 -16 -6.5 -29t-17.5 -24h-220q-24 21 -24 53q30 0 42.5 12.5t12.5 41.5v474q0 70 29.5 125t82 87t122.5 32q58 0 94.5 -19.5t54 -47.5t17.5 -53q0 -37 -24.5 -62
t-57.5 -25q-30 0 -48 21.5t-18 49.5q0 12 5 27.5t25 30.5q-3 5 -18 8.5t-26 3.5q-18 0 -36.5 -12t-31.5 -36t-13 -61v-354l110 114q6 6 12.5 14.5t6.5 15.5q0 14 -21.5 26t-41.5 12q0 36 23 61h225q12 -12 15.5 -28t3.5 -33q-27 0 -40.5 -8.5t-24.5 -18.5l-152 -150
q37 -6 62 -24t47 -57q31 -55 48.5 -86.5t33 -47.5t41.5 -25l1 -24q-3 -21 -28 -32.5t-62 -11.5z" />
    <glyph glyph-name="Ohorn" unicode="&#x1a0;" horiz-adv-x="669" 
d="M334 -13q-97 0 -166 45t-106 126.5t-37 189.5q0 115 38 195.5t107.5 123.5t162.5 43q97 0 166.5 -45t107 -126.5t37.5 -190.5q0 -114 -38.5 -194.5t-108 -123.5t-163.5 -43zM334 60q23 0 45 12t40 43t28.5 88.5t10.5 148.5q0 113 -16 174.5t-43.5 85.5t-62.5 24
q-23 0 -45 -12t-40 -43t-28.5 -88t-10.5 -148q0 -113 16 -175t44 -86t62 -24zM499 629l-88 69h81q24 0 42 7t26.5 29.5t1.5 66.5h61q21 -16 28.5 -34.5t7.5 -44.5q0 -34 -17 -54.5t-41 -29.5t-45 -9h-57z" />
    <glyph glyph-name="ohorn" unicode="&#x1a1;" horiz-adv-x="548" 
d="M271 -13q-71 0 -126 30.5t-85.5 90t-30.5 147.5q0 94 32 158t89 97t131 33q22 0 43 -3h67q24 0 42 7t26.5 29t1.5 66h61q21 -16 28.5 -34.5t7.5 -44.5q0 -34 -17 -54.5t-40 -29.5t-42 -9q30 -34 47 -84t17 -115q0 -93 -32 -156.5t-89 -95.5t-131 -32zM279 59
q21 0 36.5 15t24 55.5t8.5 117.5q0 94 -9 142.5t-26 65.5t-40 17q-21 0 -37 -15t-24.5 -56t-8.5 -119q0 -93 9.5 -141t26.5 -65t40 -17z" />
    <glyph glyph-name="uni01A9" unicode="&#x1a9;" horiz-adv-x="660" 
d="M601 -16q-17 0 -37 4t-37 12h-441l-25 38l183 326l-182 297l25 37h484q16 -33 27 -95.5t11 -129.5h-94q-21 146 -154 146h-125l164 -251v-20l-134 -269h153q26 0 47.5 16.5t38.5 42.5t29.5 53t19.5 48h90q0 -12 -2.5 -38t-7 -58.5t-10 -64.5t-11.5 -57.5t-12 -36.5z" />
    <glyph glyph-name="Uhorn" unicode="&#x1af;" horiz-adv-x="694" 
d="M340 -13q-128 0 -203 70t-75 206v322q0 27 -14 38.5t-48 11.5q0 38 23 63h250q23 -25 23 -63q-34 0 -48 -11.5t-14 -38.5v-343q0 -67 29 -113t95 -46q45 0 71 19.5t37.5 52t11.5 71.5v359q0 27 -16.5 38.5t-54.5 11.5q0 18 5.5 34.5t16.5 28.5h114q40 0 62 15.5t22 59.5
q0 16 -3 37h64q21 -16 28.5 -34t7.5 -44q0 -23 -11 -45.5t-29 -37t-40 -14.5q-27 0 -35.5 -11.5t-8.5 -38.5v-312q0 -138 -64.5 -212t-195.5 -74z" />
    <glyph glyph-name="uhorn" unicode="&#x1b0;" horiz-adv-x="574" 
d="M216 -7q-70 0 -109 43t-39 116v275q0 17 -13 24t-36 7v44q13 11 54.5 23.5t93.5 12.5q39 0 51.5 -9t12.5 -44v-336q0 -30 10 -46t35 -16q21 0 40.5 13t32.5 30v297q0 17 -15 24t-41 7v44q13 10 51 22t90 14v0q24 0 40.5 7.5t23 30t-0.5 66.5h61q21 -16 28.5 -34.5
t7.5 -44.5q0 -44 -26.5 -64.5t-55.5 -26.5v-355q0 -24 12.5 -40t35.5 -18v-28q-16 -19 -50.5 -28.5t-66.5 -9.5q-33 0 -57.5 17.5t-32.5 50.5q-49 -68 -137 -68z" />
    <glyph glyph-name="uni01B1" unicode="&#x1b1;" horiz-adv-x="896" 
d="M720 698q42 0 65 -15.5t32 -40.5t9 -53q0 -31 -5.5 -55.5t-22.5 -38.5h-48q0 37 -5.5 63.5t-30.5 41t-86 14.5q-10 0 -21 -0.5t-22 -1.5q0 -8 11.5 -21t29.5 -30q27 -26 60 -63t57 -86.5t24 -112.5q0 -145 -83 -226t-236 -81t-236 81t-83 226q0 63 24.5 112.5t57.5 87.5
t60 64q18 17 29 29.5t11 19.5q-9 1 -17 1h-16q-78 0 -105 -31t-27 -87h-48q-16 14 -22 38.5t-6 55.5q0 28 9 53t32 40.5t65 15.5h206l28 -73q-9 -10 -24 -32.5t-31 -61t-27 -94.5t-11 -134q0 -76 11.5 -123t30 -71.5t41.5 -33.5t46 -9q70 0 101.5 57t31.5 180q0 104 -18 170
t-40.5 102.5t-34.5 49.5l28 73h206z" />
    <glyph glyph-name="uni01B3" unicode="&#x1b3;" horiz-adv-x="837" 
d="M183 0q-22 25 -22 64q22 0 45.5 5t40 16t16.5 29v132l-199 345q-11 20 -32.5 32t-41.5 12q0 37 24 63h270q23 -25 23 -63q-60 0 -60 -39q0 -18 16 -50l96 -181l106 272q12 29 28.5 61.5t41 61t60.5 46t86 17.5q53 0 85 -19.5t46.5 -47.5t14.5 -53q0 -37 -22.5 -62
t-55.5 -25q-30 0 -50 21.5t-20 49.5q0 12 5 27.5t25 30.5q-7 12 -28 12q-15 0 -26 -9.5t-23.5 -34t-33.5 -69.5l-178 -375v-155q0 -18 19 -29t46.5 -16t50.5 -5q0 -39 -22 -64h-331z" />
    <glyph glyph-name="uni01B4" unicode="&#x1b4;" horiz-adv-x="737" 
d="M161 -211q-62 0 -93 26t-31 62q0 24 11.5 43t29.5 27q27 -32 80 -32q30 0 61.5 29.5t52.5 92.5h-82l-154 374q-12 29 -21 44t-40 15q0 17 5 33t16 28h236q24 -26 24 -61q-25 0 -35.5 -13t-10.5 -33q0 -7 1 -15.5t4 -17.5l93 -271l75 392q9 44 33.5 84.5t63.5 66.5t91 26
q53 0 87.5 -19.5t51.5 -47.5t17 -53q0 -37 -22.5 -62t-55.5 -25q-30 0 -50 21.5t-20 49.5q0 12 5 27.5t25 30.5q-3 5 -13 8.5t-21 3.5q-22 0 -36 -34t-30 -89l-124 -437q-40 -143 -92.5 -208.5t-131.5 -65.5z" />
    <glyph glyph-name="uni01C4" unicode="&#x1c4;" horiz-adv-x="1272" 
d="M292 -11q-23 0 -52 3t-74 5.5t-118 2.5q-22 28 -22 64q33 0 47.5 11.5t14.5 39.5v470q0 27 -14.5 38.5t-47.5 11.5q0 38 22 63q99 0 167.5 6t90.5 6q87 0 150 -27.5t104 -75t61 -110t20 -133.5q0 -77 -20 -145t-62.5 -119.5t-108.5 -81t-158 -29.5zM284 72q55 0 95 27
t62 88t22 162q0 146 -51 213.5t-136 67.5h-13t-11 -2v-554q8 -1 16.5 -1.5t15.5 -0.5zM1215 -16q-18 0 -37.5 4t-37.5 12h-452l-25 38l375 583h-108q-65 0 -93.5 -35t-39.5 -109h-99q0 68 9 128t25 93h489l25 -37l-363 -582h150q34 0 59 25t42.5 62t26.5 73h96
q0 -12 -2.5 -38t-7 -58.5t-10 -64.5t-11.5 -57.5t-11 -36.5zM956 751l-148 163q5 17 20 31t34 21l132 -101l131 101q19 -7 34 -21t21 -31l-148 -163h-76z" />
    <glyph glyph-name="uni01C5" unicode="&#x1c5;" horiz-adv-x="1172" 
d="M292 -11q-23 0 -52 3t-74 5.5t-118 2.5q-22 28 -22 64q33 0 47.5 11.5t14.5 39.5v470q0 27 -14.5 38.5t-47.5 11.5q0 38 22 63q99 0 167.5 6t90.5 6q87 0 150 -27.5t104 -75t61 -110t20 -133.5q0 -77 -20 -145t-62.5 -119.5t-108.5 -81t-158 -29.5zM284 72q55 0 95 27
t62 88t22 162q0 146 -51 213.5t-136 67.5h-13t-11 -2v-554q8 -1 16.5 -1.5t15.5 -0.5zM701 0l-28 38l248 372l48 53h-84q-47 0 -68 -26t-21 -86h-80q-13 36 -14.5 83t-2.5 96h425l30 -41l-229 -358l-60 -63h66q51 0 79 16t42 44.5t24 67.5h75v-35q0 -39 -4 -82.5t-22 -78.5
h-424zM891 607l-148 163q5 17 20 31t34 21l132 -101l131 101q19 -7 34 -21t21 -31l-148 -163h-76z" />
    <glyph glyph-name="uni01C6" unicode="&#x1c6;" horiz-adv-x="1083" 
d="M235 -13q-54 0 -101.5 27.5t-76.5 83.5t-29 141q0 101 37.5 168t98 100t129.5 33q13 0 29 -1t32 -3l-3 60v50q0 23 -13 36t-54 13v41q25 14 59 25t67 17.5t53 6.5q23 0 33.5 -10.5t10.5 -35.5v-628q0 -49 48 -58l1 -28q-14 -19 -43 -28.5t-59 -9.5q-26 0 -55 11.5
t-41 35.5q-21 -28 -51.5 -37.5t-71.5 -9.5zM304 72q31 0 47 18v350q-21 29 -56 29q-27 0 -49 -18.5t-35 -61t-13 -115.5q0 -103 30.5 -152.5t75.5 -49.5zM612 0l-28 38l248 372l48 53h-84q-47 0 -68 -26t-21 -86h-80q-13 36 -14.5 83t-2.5 96h425l30 -41l-229 -358l-60 -63
h66q51 0 79 16t42 44.5t24 67.5h75v-35q0 -39 -4 -82.5t-22 -78.5h-424zM802 607l-148 163q5 17 20 31t34 21l132 -101l131 101q19 -7 34 -21t21 -31l-148 -163h-76z" />
    <glyph glyph-name="uni01C7" unicode="&#x1c7;" horiz-adv-x="1133" 
d="M49 0q-23 25 -23 64q34 0 48 11t14 39v470q0 28 -14 39.5t-48 11.5q0 17 6 34t17 29h257q11 -12 16.5 -29t5.5 -34q-40 0 -58 -11.5t-18 -39.5v-499h62q56 0 87.5 49.5t31.5 133.5h70q13 -9 21 -33.5t12 -53.5t4 -53q0 -60 -21 -94t-73 -34h-397zM660 -13
q-16 18 -35 46.5t-32 72t-13 104.5q0 20 1.5 33.5t3.5 24.5h152q-4 -16 -6 -31.5t-2 -32.5q0 -55 21 -92t70 -37q18 0 36 8t29.5 29t11.5 58v394q0 36 -19 53t-73 17q0 37 23 63h274q11 -12 17 -29t6 -34q-34 0 -50 -11.5t-16 -39.5v-355q0 -70 -19.5 -116.5t-53 -74
t-76.5 -39t-90 -11.5q-16 0 -38.5 3t-44 8t-34.5 12z" />
    <glyph glyph-name="uni01C8" unicode="&#x1c8;" horiz-adv-x="827" 
d="M49 0q-23 25 -23 64q34 0 48 11t14 39v470q0 28 -14 39.5t-48 11.5q0 17 6 34t17 29h257q11 -12 16.5 -29t5.5 -34q-40 0 -58 -11.5t-18 -39.5v-499h62q56 0 87.5 49.5t31.5 133.5h70q13 -9 21 -33.5t12 -53.5t4 -53q0 -60 -21 -94t-73 -34h-397zM686 613
q-43 0 -68.5 25.5t-25.5 68.5q0 42 26.5 68t69.5 26q44 0 69.5 -26t25.5 -68q0 -43 -26.5 -68.5t-70.5 -25.5zM611 -195q-46 0 -67.5 17.5t-21.5 36.5q0 7 3 16t6 13q39 0 61 23.5t22 85.5v405q0 23 -12.5 36t-53.5 13v45q25 13 59 23.5t67 17t54 6.5q24 0 33.5 -10t9.5 -35
v-508q0 -63 -22 -104t-58 -61t-80 -20z" />
    <glyph glyph-name="uni01C9" unicode="&#x1c9;" horiz-adv-x="599" 
d="M52 0q-11 12 -17 25t-6 29q29 0 42 12.5t13 42.5v531q0 23 -13 36.5t-55 13.5v40q25 14 58.5 24.5t66.5 17t55 6.5q23 0 33.5 -10t10.5 -35v-624q0 -31 12.5 -43t42.5 -12q0 -16 -6.5 -29t-17.5 -25h-219zM458 613q-43 0 -68.5 25.5t-25.5 68.5q0 42 26.5 68t69.5 26
q44 0 69.5 -26t25.5 -68q0 -43 -26.5 -68.5t-70.5 -25.5zM383 -195q-46 0 -67.5 17.5t-21.5 36.5q0 7 3 16t6 13q39 0 61 23.5t22 85.5v405q0 23 -12.5 36t-53.5 13v45q25 13 59 23.5t67 17t54 6.5q24 0 33.5 -10t9.5 -35v-508q0 -63 -22 -104t-58 -61t-80 -20z" />
    <glyph glyph-name="uni01CA" unicode="&#x1ca;" horiz-adv-x="1274" 
d="M606 -6q-52 0 -74.5 14t-41.5 42l-280 425v-361q0 -28 19.5 -39.5t53.5 -11.5q0 -35 -23 -63h-208q-22 27 -22 63q34 0 51.5 11.5t17.5 39.5v470q0 28 -19.5 39.5t-53.5 11.5q0 38 22 63h139q29 0 58.5 -22.5t54.5 -62.5l227 -359v330q0 28 -18.5 39.5t-52.5 11.5
q0 17 6 34t17 29h213q23 -26 23 -63q-33 0 -51 -11.5t-18 -39.5v-590h-40zM801 -13q-16 18 -35 46.5t-32 72t-13 104.5q0 20 1.5 33.5t3.5 24.5h152q-4 -16 -6 -31.5t-2 -32.5q0 -55 21 -92t70 -37q18 0 36 8t29.5 29t11.5 58v394q0 36 -19 53t-73 17q0 37 23 63h274
q11 -12 17 -29t6 -34q-34 0 -50 -11.5t-16 -39.5v-355q0 -70 -19.5 -116.5t-53 -74t-76.5 -39t-90 -11.5q-16 0 -38.5 3t-44 8t-34.5 12z" />
    <glyph glyph-name="uni01CB" unicode="&#x1cb;" horiz-adv-x="1012" 
d="M606 -6q-52 0 -74.5 14t-41.5 42l-280 425v-361q0 -28 19.5 -39.5t53.5 -11.5q0 -35 -23 -63h-208q-22 27 -22 63q34 0 51.5 11.5t17.5 39.5v470q0 28 -19.5 39.5t-53.5 11.5q0 38 22 63h139q29 0 58.5 -22.5t54.5 -62.5l227 -359v330q0 28 -18.5 39.5t-52.5 11.5
q0 17 6 34t17 29h213q23 -26 23 -63q-33 0 -51 -11.5t-18 -39.5v-590h-40zM871 613q-43 0 -68.5 25.5t-25.5 68.5q0 42 26.5 68t69.5 26q44 0 69.5 -26t25.5 -68q0 -43 -26.5 -68.5t-70.5 -25.5zM796 -195q-46 0 -67.5 17.5t-21.5 36.5q0 7 3 16t6 13q39 0 61 23.5t22 85.5
v405q0 23 -12.5 36t-53.5 13v45q25 13 59 23.5t67 17t54 6.5q24 0 33.5 -10t9.5 -35v-508q0 -63 -22 -104t-58 -61t-80 -20z" />
    <glyph glyph-name="uni01CC" unicode="&#x1cc;" horiz-adv-x="894" 
d="M55 0q-11 11 -17.5 24t-6.5 29q30 0 43 13t13 42v292q0 26 -14.5 38t-52.5 12v45q23 13 58.5 24t69 17.5t51.5 6.5q21 0 34.5 -13t15.5 -56q25 31 63.5 50t89.5 19q70 0 105.5 -35.5t35.5 -120.5v-273q0 -49 48 -58l1 -29q-10 -10 -32 -17.5t-47.5 -11.5t-47.5 -4
q-43 0 -63.5 16t-20.5 51v312q0 41 -18 57t-44 16q-41 0 -69 -33v-305q0 -29 12.5 -42t42.5 -13q0 -30 -23 -53h-227zM753 613q-43 0 -68.5 25.5t-25.5 68.5q0 42 26.5 68t69.5 26q44 0 69.5 -26t25.5 -68q0 -43 -26.5 -68.5t-70.5 -25.5zM678 -195q-46 0 -67.5 17.5
t-21.5 36.5q0 7 3 16t6 13q39 0 61 23.5t22 85.5v405q0 23 -12.5 36t-53.5 13v45q25 13 59 23.5t67 17t54 6.5q24 0 33.5 -10t9.5 -35v-508q0 -63 -22 -104t-58 -61t-80 -20z" />
    <glyph glyph-name="uni01CD" unicode="&#x1cd;" horiz-adv-x="677" 
d="M3 0q-23 25 -23 64q27 0 50.5 16t34.5 49l164 484q-40 13 -101 13q0 43 24 72h274l186 -566q11 -33 35 -50.5t50 -17.5q0 -39 -23 -64h-271q-23 25 -23 64q26 0 41.5 11.5t15.5 36.5q0 9 -1.5 21t-5.5 26l-6 21h-224l-6 -21q-4 -13 -6.5 -24t-2.5 -20q0 -27 17 -39
t47 -12q0 -39 -23 -64h-223zM222 258h180l-71 248q-9 30 -23 51zM293 751l-148 163q5 17 20 31t34 21l132 -101l131 101q19 -7 34 -21t21 -31l-148 -163h-76z" />
    <glyph glyph-name="uni01CE" unicode="&#x1ce;" horiz-adv-x="537" 
d="M190 -7q-75 0 -121.5 41.5t-46.5 106.5t42.5 105t131.5 40q29 0 61 -5.5t52 -16.5v133q0 42 -21.5 58.5t-52.5 16.5q-33 0 -54 -16q20 -7 29 -21.5t9 -31.5q0 -33 -23.5 -52.5t-57.5 -19.5q-38 0 -61 22.5t-23 56.5t23 64.5t71.5 50.5t125.5 20q201 0 201 -159v-265
q0 -48 46 -58v-32q-13 -19 -44 -28.5t-60 -9.5q-68 0 -96 47q-20 -18 -53 -32.5t-78 -14.5zM255 74q14 0 29 4.5t25 11.5v97q-10 7 -25.5 12t-30.5 5q-26 0 -45 -16.5t-19 -51.5q0 -27 18 -44.5t48 -17.5zM236 607l-148 163q5 17 20 31t34 21l132 -101l131 101q19 -7 34 -21
t21 -31l-148 -163h-76z" />
    <glyph glyph-name="uni01CF" unicode="&#x1cf;" horiz-adv-x="345" 
d="M51 0q-22 25 -22 64q33 0 46.5 11t13.5 39v470q0 28 -13.5 39.5t-46.5 11.5q0 38 22 63h243q10 -12 16 -29t6 -34q-33 0 -46.5 -11.5t-13.5 -39.5v-470q0 -28 13.5 -39t46.5 -11q0 -18 -6 -35t-16 -29h-243zM135 751l-148 163q5 17 20 31t34 21l132 -101l131 101
q19 -7 34 -21t21 -31l-148 -163h-76z" />
    <glyph glyph-name="uni01D0" unicode="&#x1d0;" horiz-adv-x="312" 
d="M47 0q-11 11 -17 24t-6 30q29 0 43 12.5t14 42.5v290q0 26 -12.5 39t-53.5 13v44q15 9 46.5 20.5t68 19.5t64.5 8q23 0 33 -10.5t10 -35.5v-389q0 -30 15 -42t44 -12q0 -17 -6 -30t-17 -24h-226zM118 607l-148 163q5 17 20 31t34 21l132 -101l131 101q19 -7 34 -21
t21 -31l-148 -163h-76z" />
    <glyph glyph-name="uni01D1" unicode="&#x1d1;" horiz-adv-x="669" 
d="M334 -13q-97 0 -166 45t-106 126.5t-37 189.5q0 115 38 195.5t107.5 123.5t162.5 43q97 0 166.5 -45t107 -126.5t37.5 -190.5q0 -114 -38.5 -194.5t-108 -123.5t-163.5 -43zM334 60q23 0 45 12t40 43t28.5 88.5t10.5 148.5q0 113 -16 174.5t-43.5 85.5t-62.5 24
q-23 0 -45 -12t-40 -43t-28.5 -88t-10.5 -148q0 -113 16 -175t44 -86t62 -24zM297 761l-148 163q5 17 20 31t34 21l132 -101l131 101q19 -7 34 -21t21 -31l-148 -163h-76z" />
    <glyph glyph-name="uni01D2" unicode="&#x1d2;" horiz-adv-x="552" 
d="M271 -13q-71 0 -126 30.5t-85.5 90t-30.5 147.5q0 94 32 158t89 97t131 33q72 0 126.5 -31t85 -91.5t30.5 -149.5q0 -93 -32 -156.5t-89 -95.5t-131 -32zM279 59q21 0 36.5 15t24 55.5t8.5 117.5q0 94 -9 142.5t-26 65.5t-40 17q-21 0 -37 -15t-24.5 -56t-8.5 -119
q0 -93 9.5 -141t26.5 -65t40 -17zM238 607l-148 163q5 17 20 31t34 21l132 -101l131 101q19 -7 34 -21t21 -31l-148 -163h-76z" />
    <glyph glyph-name="uni01D3" unicode="&#x1d3;" horiz-adv-x="671" 
d="M340 -13q-128 0 -203 70t-75 206v322q0 27 -14 38.5t-48 11.5q0 38 23 63h250q23 -25 23 -63q-34 0 -48 -11.5t-14 -38.5v-343q0 -67 29 -113t95 -46q45 0 71 19.5t37.5 52t11.5 71.5v359q0 27 -16.5 38.5t-54.5 11.5q0 18 5.5 34.5t16.5 28.5h220q22 -25 22 -63
q-38 0 -54.5 -11.5t-16.5 -38.5v-312q0 -138 -64.5 -212t-195.5 -74zM308 751l-148 163q5 17 20 31t34 21l132 -101l131 101q19 -7 34 -21t21 -31l-148 -163h-76z" />
    <glyph glyph-name="uni01D4" unicode="&#x1d4;" horiz-adv-x="572" 
d="M216 -7q-70 0 -109 43t-39 116v275q0 17 -13 24t-36 7v44q13 11 54.5 23.5t93.5 12.5q39 0 51.5 -9t12.5 -44v-336q0 -30 10 -46t35 -16q21 0 40.5 13t32.5 30v297q0 17 -15 24t-41 7v44q14 11 55 23.5t97 12.5q39 0 53 -9t14 -44v-368q0 -24 12.5 -40t35.5 -18v-28
q-16 -19 -50.5 -28.5t-66.5 -9.5q-33 0 -57.5 17.5t-32.5 50.5q-49 -68 -137 -68zM248 607l-148 163q5 17 20 31t34 21l132 -101l131 101q19 -7 34 -21t21 -31l-148 -163h-76z" />
    <glyph glyph-name="uni01D5" unicode="&#x1d5;" horiz-adv-x="671" 
d="M340 -13q-128 0 -203 70t-75 206v322q0 27 -14 38.5t-48 11.5q0 38 23 63h250q23 -25 23 -63q-34 0 -48 -11.5t-14 -38.5v-343q0 -67 29 -113t95 -46q45 0 71 19.5t37.5 52t11.5 71.5v359q0 27 -16.5 38.5t-54.5 11.5q0 18 5.5 34.5t16.5 28.5h220q22 -25 22 -63
q-38 0 -54.5 -11.5t-16.5 -38.5v-312q0 -138 -64.5 -212t-195.5 -74zM468 751q-38 0 -59 28.5t-21 66.5t21 65.5t59 27.5q39 0 60 -27.5t21 -65.5t-21 -66.5t-60 -28.5zM224 751q-39 0 -60 28.5t-21 66.5t21 65.5t60 27.5q38 0 59 -27.5t21 -65.5t-21 -66.5t-59 -28.5z
M189 969q-3 8 -4.5 20t-1.5 24q0 14 1.5 26.5t5.5 19.5h313q3 -8 4.5 -20.5t1.5 -25.5q0 -29 -5 -44h-315z" />
    <glyph glyph-name="uni01D6" unicode="&#x1d6;" horiz-adv-x="572" 
d="M216 -7q-70 0 -109 43t-39 116v275q0 17 -13 24t-36 7v44q13 11 54.5 23.5t93.5 12.5q39 0 51.5 -9t12.5 -44v-336q0 -30 10 -46t35 -16q21 0 40.5 13t32.5 30v297q0 17 -15 24t-41 7v44q14 11 55 23.5t97 12.5q39 0 53 -9t14 -44v-368q0 -24 12.5 -40t35.5 -18v-28
q-16 -19 -50.5 -28.5t-66.5 -9.5q-33 0 -57.5 17.5t-32.5 50.5q-49 -68 -137 -68zM408 613q-40 0 -60 28.5t-20 66.5t20 65.5t60 27.5q41 0 61 -27t20 -65t-20 -67t-61 -29zM164 613q-40 0 -60.5 28.5t-20.5 66.5t20.5 65.5t60.5 27.5t60 -27t20 -65t-20 -67t-60 -29z
M129 848q-3 8 -4.5 22.5t-1.5 26.5q0 14 1.5 29t5.5 22h313q3 -8 4.5 -23t1.5 -28t-1.5 -27.5t-3.5 -21.5h-315z" />
    <glyph glyph-name="uni01D7" unicode="&#x1d7;" horiz-adv-x="671" 
d="M340 -13q-128 0 -203 70t-75 206v322q0 27 -14 38.5t-48 11.5q0 38 23 63h250q23 -25 23 -63q-34 0 -48 -11.5t-14 -38.5v-343q0 -67 29 -113t95 -46q45 0 71 19.5t37.5 52t11.5 71.5v359q0 27 -16.5 38.5t-54.5 11.5q0 18 5.5 34.5t16.5 28.5h220q22 -25 22 -63
q-38 0 -54.5 -11.5t-16.5 -38.5v-312q0 -138 -64.5 -212t-195.5 -74zM468 751q-38 0 -59 28.5t-21 66.5t21 65.5t59 27.5q39 0 60 -27.5t21 -65.5t-21 -66.5t-60 -28.5zM224 751q-39 0 -60 28.5t-21 66.5t21 65.5t60 27.5q38 0 59 -27.5t21 -65.5t-21 -66.5t-59 -28.5z
M314 938q-19 0 -34.5 11t-18.5 35q32 21 68 52t69 69.5t55 79.5q27 0 46.5 -13t30 -31.5t10.5 -35.5q0 -27 -25 -56t-62 -54.5t-75 -41t-64 -15.5z" />
    <glyph glyph-name="uni01D8" unicode="&#x1d8;" horiz-adv-x="572" 
d="M216 -7q-70 0 -109 43t-39 116v275q0 17 -13 24t-36 7v44q13 11 54.5 23.5t93.5 12.5q39 0 51.5 -9t12.5 -44v-336q0 -30 10 -46t35 -16q21 0 40.5 13t32.5 30v297q0 17 -15 24t-41 7v44q14 11 55 23.5t97 12.5q39 0 53 -9t14 -44v-368q0 -24 12.5 -40t35.5 -18v-28
q-16 -19 -50.5 -28.5t-66.5 -9.5q-33 0 -57.5 17.5t-32.5 50.5q-49 -68 -137 -68zM408 613q-40 0 -60 28.5t-20 66.5t20 65.5t60 27.5q41 0 61 -27t20 -65t-20 -67t-61 -29zM164 613q-40 0 -60.5 28.5t-20.5 66.5t20.5 65.5t60.5 27.5t60 -27t20 -65t-20 -67t-60 -29z
M229 842q-19 0 -34.5 11t-18.5 35q32 21 68 52t69 69.5t55 79.5q27 0 46.5 -13t30 -31.5t10.5 -35.5q0 -27 -25 -56t-62 -54.5t-75 -41t-64 -15.5z" />
    <glyph glyph-name="uni01D9" unicode="&#x1d9;" horiz-adv-x="671" 
d="M340 -13q-128 0 -203 70t-75 206v322q0 27 -14 38.5t-48 11.5q0 38 23 63h250q23 -25 23 -63q-34 0 -48 -11.5t-14 -38.5v-343q0 -67 29 -113t95 -46q45 0 71 19.5t37.5 52t11.5 71.5v359q0 27 -16.5 38.5t-54.5 11.5q0 18 5.5 34.5t16.5 28.5h220q22 -25 22 -63
q-38 0 -54.5 -11.5t-16.5 -38.5v-312q0 -138 -64.5 -212t-195.5 -74zM468 751q-38 0 -59 28.5t-21 66.5t21 65.5t59 27.5q39 0 60 -27.5t21 -65.5t-21 -66.5t-60 -28.5zM224 751q-39 0 -60 28.5t-21 66.5t21 65.5t60 27.5q38 0 59 -27.5t21 -65.5t-21 -66.5t-59 -28.5z
M308 952l-148 163q5 17 20 31t34 21l132 -101l131 101q19 -7 34 -21t21 -31l-148 -163h-76z" />
    <glyph glyph-name="uni01DA" unicode="&#x1da;" horiz-adv-x="572" 
d="M216 -7q-70 0 -109 43t-39 116v275q0 17 -13 24t-36 7v44q13 11 54.5 23.5t93.5 12.5q39 0 51.5 -9t12.5 -44v-336q0 -30 10 -46t35 -16q21 0 40.5 13t32.5 30v297q0 17 -15 24t-41 7v44q14 11 55 23.5t97 12.5q39 0 53 -9t14 -44v-368q0 -24 12.5 -40t35.5 -18v-28
q-16 -19 -50.5 -28.5t-66.5 -9.5q-33 0 -57.5 17.5t-32.5 50.5q-49 -68 -137 -68zM408 613q-40 0 -60 28.5t-20 66.5t20 65.5t60 27.5q41 0 61 -27t20 -65t-20 -67t-61 -29zM164 613q-40 0 -60.5 28.5t-20.5 66.5t20.5 65.5t60.5 27.5t60 -27t20 -65t-20 -67t-60 -29z
M248 838l-148 163q5 17 20 31t34 21l132 -101l131 101q19 -7 34 -21t21 -31l-148 -163h-76z" />
    <glyph glyph-name="uni01DB" unicode="&#x1db;" horiz-adv-x="671" 
d="M340 -13q-128 0 -203 70t-75 206v322q0 27 -14 38.5t-48 11.5q0 38 23 63h250q23 -25 23 -63q-34 0 -48 -11.5t-14 -38.5v-343q0 -67 29 -113t95 -46q45 0 71 19.5t37.5 52t11.5 71.5v359q0 27 -16.5 38.5t-54.5 11.5q0 18 5.5 34.5t16.5 28.5h220q22 -25 22 -63
q-38 0 -54.5 -11.5t-16.5 -38.5v-312q0 -138 -64.5 -212t-195.5 -74zM468 751q-38 0 -59 28.5t-21 66.5t21 65.5t59 27.5q39 0 60 -27.5t21 -65.5t-21 -66.5t-60 -28.5zM224 751q-39 0 -60 28.5t-21 66.5t21 65.5t60 27.5q38 0 59 -27.5t21 -65.5t-21 -66.5t-59 -28.5z
M432 952q-20 0 -49 10.5t-60 28t-57.5 39t-43 45t-16.5 44.5q0 17 10.5 35.5t30.5 31.5t46 13q22 -41 54.5 -79.5t69 -69.5t68.5 -52q-3 -24 -18 -35t-35 -11z" />
    <glyph glyph-name="uni01DC" unicode="&#x1dc;" horiz-adv-x="572" 
d="M216 -7q-70 0 -109 43t-39 116v275q0 17 -13 24t-36 7v44q13 11 54.5 23.5t93.5 12.5q39 0 51.5 -9t12.5 -44v-336q0 -30 10 -46t35 -16q21 0 40.5 13t32.5 30v297q0 17 -15 24t-41 7v44q14 11 55 23.5t97 12.5q39 0 53 -9t14 -44v-368q0 -24 12.5 -40t35.5 -18v-28
q-16 -19 -50.5 -28.5t-66.5 -9.5q-33 0 -57.5 17.5t-32.5 50.5q-49 -68 -137 -68zM408 613q-40 0 -60 28.5t-20 66.5t20 65.5t60 27.5q41 0 61 -27t20 -65t-20 -67t-61 -29zM164 613q-40 0 -60.5 28.5t-20.5 66.5t20.5 65.5t60.5 27.5t60 -27t20 -65t-20 -67t-60 -29z
M323 828q-20 0 -49 10.5t-60 28t-57.5 39t-43 45t-16.5 44.5q0 17 10.5 35.5t30.5 31.5t46 13q22 -41 54.5 -79.5t69 -69.5t68.5 -52q-3 -24 -18 -35t-35 -11z" />
    <glyph glyph-name="uni01DD" unicode="&#x1dd;" horiz-adv-x="504" 
d="M226 -15q-90 0 -143.5 52.5t-53.5 147.5q0 38 12.5 66.5t51.5 28.5h214q-3 84 -36.5 118t-87.5 34q-34 0 -62.5 -10.5t-54.5 -30.5q-9 9 -14.5 26t-5.5 27q0 16 22.5 39.5t64.5 41.5t99 18q75 0 129.5 -34t84 -96t29.5 -147q0 -86 -32 -149.5t-88.5 -97.5t-128.5 -34z
M232 54q18 0 34.5 13t28 45.5t12.5 91.5h-101q-17 0 -21.5 -12.5t-4.5 -32.5q0 -64 15.5 -84.5t36.5 -20.5z" />
    <glyph glyph-name="uni01DE" unicode="&#x1de;" horiz-adv-x="677" 
d="M3 0q-23 25 -23 64q27 0 50.5 16t34.5 49l164 484q-40 13 -101 13q0 43 24 72h274l186 -566q11 -33 35 -50.5t50 -17.5q0 -39 -23 -64h-271q-23 25 -23 64q26 0 41.5 11.5t15.5 36.5q0 9 -1.5 21t-5.5 26l-6 21h-224l-6 -21q-4 -13 -6.5 -24t-2.5 -20q0 -27 17 -39
t47 -12q0 -39 -23 -64h-223zM222 258h180l-71 248q-9 30 -23 51zM453 751q-38 0 -59 28.5t-21 66.5t21 65.5t59 27.5q39 0 60 -27.5t21 -65.5t-21 -66.5t-60 -28.5zM209 751q-39 0 -60 28.5t-21 66.5t21 65.5t60 27.5q38 0 59 -27.5t21 -65.5t-21 -66.5t-59 -28.5zM174 969
q-3 8 -4.5 20t-1.5 24q0 14 1.5 26.5t5.5 19.5h313q3 -8 4.5 -20.5t1.5 -25.5q0 -29 -5 -44h-315z" />
    <glyph glyph-name="uni01DF" unicode="&#x1df;" horiz-adv-x="537" 
d="M190 -7q-75 0 -121.5 41.5t-46.5 106.5t42.5 105t131.5 40q29 0 61 -5.5t52 -16.5v133q0 42 -21.5 58.5t-52.5 16.5q-33 0 -54 -16q20 -7 29 -21.5t9 -31.5q0 -33 -23.5 -52.5t-57.5 -19.5q-38 0 -61 22.5t-23 56.5t23 64.5t71.5 50.5t125.5 20q201 0 201 -159v-265
q0 -48 46 -58v-32q-13 -19 -44 -28.5t-60 -9.5q-68 0 -96 47q-20 -18 -53 -32.5t-78 -14.5zM255 74q14 0 29 4.5t25 11.5v97q-10 7 -25.5 12t-30.5 5q-26 0 -45 -16.5t-19 -51.5q0 -27 18 -44.5t48 -17.5zM396 613q-40 0 -60 28.5t-20 66.5t20 65.5t60 27.5q41 0 61 -27
t20 -65t-20 -67t-61 -29zM152 613q-40 0 -60.5 28.5t-20.5 66.5t20.5 65.5t60.5 27.5t60 -27t20 -65t-20 -67t-60 -29zM117 848q-3 8 -4.5 22.5t-1.5 26.5q0 14 1.5 29t5.5 22h313q3 -8 4.5 -23t1.5 -28t-1.5 -27.5t-3.5 -21.5h-315z" />
    <glyph glyph-name="uni01E0" unicode="&#x1e0;" horiz-adv-x="677" 
d="M3 0q-23 25 -23 64q27 0 50.5 16t34.5 49l164 484q-40 13 -101 13q0 43 24 72h274l186 -566q11 -33 35 -50.5t50 -17.5q0 -39 -23 -64h-271q-23 25 -23 64q26 0 41.5 11.5t15.5 36.5q0 9 -1.5 21t-5.5 26l-6 21h-224l-6 -21q-4 -13 -6.5 -24t-2.5 -20q0 -27 17 -39
t47 -12q0 -39 -23 -64h-223zM222 258h180l-71 248q-9 30 -23 51zM330 751q-43 0 -68.5 25.5t-25.5 68.5q0 42 26.5 68t69.5 26q44 0 69 -26t25 -68q0 -43 -26 -68.5t-70 -25.5zM174 970q-3 8 -4.5 20t-1.5 24q0 14 1.5 26.5t5.5 19.5h313q3 -8 4.5 -20.5t1.5 -25.5
q0 -29 -5 -44h-315z" />
    <glyph glyph-name="uni01E1" unicode="&#x1e1;" horiz-adv-x="537" 
d="M190 -7q-75 0 -121.5 41.5t-46.5 106.5t42.5 105t131.5 40q29 0 61 -5.5t52 -16.5v133q0 42 -21.5 58.5t-52.5 16.5q-33 0 -54 -16q20 -7 29 -21.5t9 -31.5q0 -33 -23.5 -52.5t-57.5 -19.5q-38 0 -61 22.5t-23 56.5t23 64.5t71.5 50.5t125.5 20q201 0 201 -159v-265
q0 -48 46 -58v-32q-13 -19 -44 -28.5t-60 -9.5q-68 0 -96 47q-20 -18 -53 -32.5t-78 -14.5zM255 74q14 0 29 4.5t25 11.5v97q-10 7 -25.5 12t-30.5 5q-26 0 -45 -16.5t-19 -51.5q0 -27 18 -44.5t48 -17.5zM274 613q-43 0 -69 25.5t-26 68.5q0 42 26 68t69 26q44 0 69.5 -26
t25.5 -68q0 -43 -25.5 -68.5t-69.5 -25.5zM117 835q-3 8 -4.5 22.5t-1.5 26.5q0 14 1.5 29t5.5 22h313q3 -8 4.5 -23t1.5 -28t-1.5 -27.5t-3.5 -21.5h-315z" />
    <glyph glyph-name="uni01E2" unicode="&#x1e2;" horiz-adv-x="900" 
d="M839 -16l-15 5t-27 11h-456q-23 28 -23 63q33 0 47 12t14 40v49h-203q-6 -13 -11 -28t-5 -27q0 -23 17 -34t45 -11q0 -38 -23 -64h-232q-22 27 -22 64q26 0 49.5 17.5t37.5 46.5l220 442q-4 27 -34.5 43t-77.5 16q-19 0 -39 -3q0 44 22 72h600q18 8 40 12.5t41 4.5
q9 -16 20.5 -46.5t20.5 -60.5t9 -47q-8 -8 -25.5 -16t-35.5 -14t-30 -9q-11 33 -38.5 62t-67.5 29h-113v-211h72q28 0 46.5 16.5t18.5 56.5q45 0 81 -21v-186q-34 -21 -80 -21q0 40 -18.5 58t-46.5 18h-73v-235h121q44 0 74.5 36.5t37.5 86.5h107q0 -15 -4.5 -46.5t-11 -68
t-14.5 -67.5t-15 -45zM213 242h166v374zM293 768q-3 8 -4.5 20t-1.5 24q0 14 1.5 26.5t5.5 19.5h313q3 -8 4.5 -20.5t1.5 -25.5q0 -29 -5 -44h-315z" />
    <glyph glyph-name="uni01E3" unicode="&#x1e3;" horiz-adv-x="772" 
d="M191 -15q-78 0 -123.5 43t-45.5 108t46 107t127 42q29 0 60.5 -5.5t50.5 -16.5v132q0 41 -18.5 59t-50.5 18t-53 -16q20 -6 28.5 -22t8.5 -34q0 -32 -23.5 -52.5t-57.5 -20.5q-37 0 -60 23.5t-23 57.5q0 33 23 64t69.5 51t114.5 20q51 0 88.5 -12t62.5 -34q58 46 140 46
q88 0 139.5 -52.5t51.5 -147.5q0 -38 -12.5 -66.5t-52.5 -28.5h-210q4 -84 37.5 -118t87.5 -34q34 0 62.5 10.5t54.5 29.5q8 -7 13.5 -24.5t5.5 -25.5q0 -17 -22.5 -41t-64 -42t-99.5 -18q-55 0 -99.5 19t-76.5 54q-34 -38 -79.5 -55.5t-99.5 -17.5zM471 324h103
q17 0 21.5 12.5t4.5 32.5q0 62 -16.5 82.5t-37.5 20.5q-17 0 -34 -12.5t-28 -44.5t-13 -91zM251 66q35 0 55 22v98q-10 7 -25 12t-29 5q-27 0 -46 -17t-19 -51t19.5 -51.5t44.5 -17.5zM251 617q-3 8 -4.5 22.5t-1.5 26.5q0 14 1.5 29t5.5 22h313q3 -8 4.5 -23t1.5 -28
t-1.5 -27.5t-3.5 -21.5h-315z" />
    <glyph glyph-name="Gcaron" unicode="&#x1e6;" horiz-adv-x="664" 
d="M370 -14q-106 0 -183.5 45t-119.5 125t-42 183q0 123 42 205t116 123.5t170 41.5q23 0 53.5 -4t67.5 -18q10 5 27 9.5t34 8.5t27 4q13 -32 19 -73.5t8 -82t2 -70.5h-97q-10 65 -50 99.5t-94 34.5q-40 0 -72 -22t-50.5 -76.5t-18.5 -153.5q0 -106 17.5 -167.5t51 -88
t81.5 -26.5q54 0 79 26v114q0 26 -23 37.5t-70 11.5q0 17 7 41t17 36h216q30 0 45 -13.5t19.5 -29.5t4.5 -24q0 -10 -5 -18q-16 0 -30.5 -1.5t-25.5 -6.5v-115q0 -22 3.5 -31t7.5 -14q3 -3 5 -6.5t2 -11.5q0 -18 -32 -39.5t-86.5 -37t-122.5 -15.5zM318 751l-148 163
q5 17 20 31t34 21l132 -101l131 101q19 -7 34 -21t21 -31l-148 -163h-76z" />
    <glyph glyph-name="gcaron" unicode="&#x1e7;" horiz-adv-x="529" 
d="M245 164q-33 0 -63 7v-3q0 -25 19.5 -35t68.5 -14q127 -9 191.5 -46t64.5 -111q0 -39 -22 -73t-60.5 -59t-87.5 -39t-102 -14q-124 0 -180.5 44.5t-56.5 111.5q0 37 24.5 67t70.5 46q-22 16 -27.5 36t-5.5 44q0 16 13 35t40 29q-47 25 -73.5 69t-26.5 95t25 92.5t74 66.5
t122 25h1q9 0 27.5 -1t34.5 -4q69 0 105.5 1.5t55.5 3.5t37 5q11 0 16 -14.5t5 -27.5q0 -19 -9 -32t-30 -13q-9 0 -33 10t-46 18q34 -27 51.5 -62t17.5 -66q0 -94 -64 -143t-177 -49zM262 230q33 0 46.5 35t13.5 103q0 56 -15.5 80t-44.5 24q-33 0 -46 -34.5t-13 -94.5
q0 -55 14 -84t45 -29zM168 -41q0 -42 26 -71t93 -29q50 0 70 24t20 53q0 23 -20.5 36t-54.5 21t-76 15q-25 4 -45 9q-7 -13 -10 -28.5t-3 -29.5zM227 607l-148 163q5 17 20 31t34 21l132 -101l131 101q19 -7 34 -21t21 -31l-148 -163h-76z" />
    <glyph glyph-name="uni01E8" unicode="&#x1e8;" horiz-adv-x="665" 
d="M563 -14q-42 0 -71 14t-48 36.5t-32.5 48t-24.5 47.5q-10 21 -25 49.5t-32.5 57t-36.5 50t-38 29.5v-204q0 -28 13.5 -39t46.5 -11q0 -18 -6 -35t-16 -29h-245q-22 25 -22 64q33 0 46.5 11t13.5 39v470q0 28 -13.5 39.5t-46.5 11.5q0 38 22 63h245q10 -12 16 -29t6 -34
q-33 0 -46.5 -11.5t-13.5 -39.5v-198h17t20 -2l141 187q7 8 10 18t3 18q0 13 -19 20.5t-39 7.5q0 35 23 63h233q10 -13 16 -29.5t6 -33.5q-43 0 -66 -17t-34 -31l-189 -224q49 -22 80.5 -53.5t60.5 -76.5q30 -45 51 -80.5t43 -56.5t52 -25v-40q-16 -21 -38.5 -33t-62.5 -12z
M316 751l-148 163q5 17 20 31t34 21l132 -101l131 101q19 -7 34 -21t21 -31l-148 -163h-76z" />
    <glyph glyph-name="uni01E9" unicode="&#x1e9;" horiz-adv-x="585" 
d="M493 -10q-55 0 -88 23.5t-53.5 59.5t-36.5 73q-16 38 -34 69t-47 42v-153q0 -29 12.5 -41.5t43.5 -12.5q0 -16 -6.5 -29t-17.5 -24h-220q-24 21 -24 53q30 0 42.5 12.5t12.5 41.5v542q0 23 -13 36.5t-54 13.5v40q25 13 58.5 24t66.5 18t54 7q24 0 34.5 -10.5t10.5 -36.5
v-445l110 114q6 6 12.5 14.5t6.5 15.5q0 14 -21.5 26t-41.5 12q0 36 23 61h225q12 -12 15.5 -28t3.5 -33q-27 0 -40.5 -8.5t-24.5 -18.5l-152 -150q37 -6 62 -24t47 -57q31 -55 48.5 -86.5t33 -47.5t41.5 -25l1 -24q-3 -21 -28 -32.5t-62 -11.5zM108 841l-148 163
q5 17 20 31t34 21l132 -101l131 101q19 -7 34 -21t21 -31l-148 -163h-76z" />
    <glyph glyph-name="uni01EA" unicode="&#x1ea;" horiz-adv-x="675" 
d="M387 -228q-31 0 -61 11t-49.5 36t-19.5 66q0 33 13 58.5t34 44.5q-88 7 -150.5 53.5t-95.5 125t-33 181.5q0 115 38 195.5t107.5 123.5t162.5 43q97 0 166.5 -45t107 -126.5t37.5 -190.5q0 -142 -59.5 -232t-160.5 -118q-27 -14 -40 -36t-13 -47q0 -22 20 -30.5t43 -8.5
q21 0 40 5.5t28 12.5q5 -7 6.5 -18t1.5 -20q0 -14 -3.5 -27.5t-14.5 -24.5q-13 -13 -41.5 -22.5t-63.5 -9.5zM334 60q23 0 45 12t40 43t28.5 88.5t10.5 148.5q0 113 -16 174.5t-43.5 85.5t-62.5 24q-23 0 -45 -12t-40 -43t-28.5 -88t-10.5 -148q0 -113 16 -175t44 -86
t62 -24z" />
    <glyph glyph-name="uni01EB" unicode="&#x1eb;" horiz-adv-x="548" 
d="M296 -235q-31 0 -61 11t-49.5 36t-19.5 66q0 37 16.5 65t41.5 48q-88 14 -141.5 80.5t-53.5 183.5q0 94 32 158t89 97t131 33q72 0 126.5 -31t85 -91.5t30.5 -149.5q0 -118 -50.5 -187.5t-134.5 -89.5q-29 -14 -43.5 -37t-14.5 -49q0 -22 20 -30.5t43 -8.5q21 0 40 5.5
t28 12.5q5 -7 6.5 -18t1.5 -20q0 -14 -3.5 -27.5t-14.5 -24.5q-13 -13 -41.5 -22.5t-63.5 -9.5zM279 59q21 0 36.5 15t24 55.5t8.5 117.5q0 94 -9 142.5t-26 65.5t-40 17q-21 0 -37 -15t-24.5 -56t-8.5 -119q0 -93 9.5 -141t26.5 -65t40 -17z" />
    <glyph glyph-name="uni01EC" unicode="&#x1ec;" horiz-adv-x="669" 
d="M334 -13q-97 0 -166 45t-106 126.5t-37 189.5q0 115 38 195.5t107.5 123.5t162.5 43q97 0 166.5 -45t107 -126.5t37.5 -190.5q0 -114 -38.5 -194.5t-108 -123.5t-163.5 -43zM334 60q23 0 45 12t40 43t28.5 88.5t10.5 148.5q0 113 -16 174.5t-43.5 85.5t-62.5 24
q-23 0 -45 -12t-40 -43t-28.5 -88t-10.5 -148q0 -113 16 -175t44 -86t62 -24zM387 -228q-31 0 -61 11t-49.5 36t-19.5 66q0 36 18 67t45 54.5t55 37.5t49 16t26 -11l12 -36q-46 -11 -68.5 -38t-22.5 -60q0 -22 20 -30.5t43 -8.5q21 0 40 5.5t28 12.5q5 -7 6.5 -18t1.5 -20
q0 -46 -35 -65t-88 -19zM178 778q-3 8 -4.5 20t-1.5 24q0 14 1.5 26.5t5.5 19.5h313q3 -8 4.5 -20.5t1.5 -25.5q0 -29 -5 -44h-315z" />
    <glyph glyph-name="uni01ED" unicode="&#x1ed;" horiz-adv-x="552" 
d="M271 -13q-71 0 -126 30.5t-85.5 90t-30.5 147.5q0 94 32 158t89 97t131 33q72 0 126.5 -31t85 -91.5t30.5 -149.5q0 -93 -32 -156.5t-89 -95.5t-131 -32zM279 59q21 0 36.5 15t24 55.5t8.5 117.5q0 94 -9 142.5t-26 65.5t-40 17q-21 0 -37 -15t-24.5 -56t-8.5 -119
q0 -93 9.5 -141t26.5 -65t40 -17zM315 -228q-31 0 -61 11t-49.5 36t-19.5 66q0 36 18 67t45 54.5t55 37.5t49 16t26 -11l12 -36q-46 -11 -68.5 -38t-22.5 -60q0 -22 20 -30.5t43 -8.5q21 0 40 5.5t28 12.5q5 -7 6.5 -18t1.5 -20q0 -46 -35 -65t-88 -19zM119 617
q-3 8 -4.5 22.5t-1.5 26.5q0 14 1.5 29t5.5 22h313q3 -8 4.5 -23t1.5 -28t-1.5 -27.5t-3.5 -21.5h-315z" />
    <glyph glyph-name="uni01F0" unicode="&#x1f0;" horiz-adv-x="300" 
d="M84 -195q-46 0 -67.5 17.5t-21.5 36.5q0 7 3 16t6 13q39 0 61 23.5t22 85.5v405q0 23 -12.5 36t-53.5 13v45q25 13 59 23.5t67 17t54 6.5q24 0 33.5 -10t9.5 -35v-508q0 -63 -22 -104t-58 -61t-80 -20zM112 607l-148 163q5 17 20 31t34 21l132 -101l131 101q19 -7 34 -21
t21 -31l-148 -163h-76z" />
    <glyph glyph-name="uni01F1" unicode="&#x1f1;" horiz-adv-x="1272" 
d="M292 -11q-23 0 -52 3t-74 5.5t-118 2.5q-22 28 -22 64q33 0 47.5 11.5t14.5 39.5v470q0 27 -14.5 38.5t-47.5 11.5q0 38 22 63q99 0 167.5 6t90.5 6q87 0 150 -27.5t104 -75t61 -110t20 -133.5q0 -77 -20 -145t-62.5 -119.5t-108.5 -81t-158 -29.5zM284 72q55 0 95 27
t62 88t22 162q0 146 -51 213.5t-136 67.5h-13t-11 -2v-554q8 -1 16.5 -1.5t15.5 -0.5zM1215 -16q-18 0 -37.5 4t-37.5 12h-452l-25 38l375 583h-108q-65 0 -93.5 -35t-39.5 -109h-99q0 68 9 128t25 93h489l25 -37l-363 -582h150q34 0 59 25t42.5 62t26.5 73h96
q0 -12 -2.5 -38t-7 -58.5t-10 -64.5t-11.5 -57.5t-11 -36.5z" />
    <glyph glyph-name="uni01F2" unicode="&#x1f2;" horiz-adv-x="1172" 
d="M292 -11q-23 0 -52 3t-74 5.5t-118 2.5q-22 28 -22 64q33 0 47.5 11.5t14.5 39.5v470q0 27 -14.5 38.5t-47.5 11.5q0 38 22 63q99 0 167.5 6t90.5 6q87 0 150 -27.5t104 -75t61 -110t20 -133.5q0 -77 -20 -145t-62.5 -119.5t-108.5 -81t-158 -29.5zM284 72q55 0 95 27
t62 88t22 162q0 146 -51 213.5t-136 67.5h-13t-11 -2v-554q8 -1 16.5 -1.5t15.5 -0.5zM701 0l-28 38l248 372l48 53h-84q-47 0 -68 -26t-21 -86h-80q-13 36 -14.5 83t-2.5 96h425l30 -41l-229 -358l-60 -63h66q51 0 79 16t42 44.5t24 67.5h75v-35q0 -39 -4 -82.5t-22 -78.5
h-424z" />
    <glyph glyph-name="uni01F3" unicode="&#x1f3;" horiz-adv-x="1082" 
d="M235 -13q-54 0 -101.5 27.5t-76.5 83.5t-29 141q0 101 37.5 168t98 100t129.5 33q13 0 29 -1t32 -3l-3 60v50q0 23 -13 36t-54 13v41q25 14 59 25t67 17.5t53 6.5q23 0 33.5 -10.5t10.5 -35.5v-628q0 -49 48 -58l1 -28q-14 -19 -43 -28.5t-59 -9.5q-26 0 -55 11.5
t-41 35.5q-21 -28 -51.5 -37.5t-71.5 -9.5zM304 72q31 0 47 18v350q-21 29 -56 29q-27 0 -49 -18.5t-35 -61t-13 -115.5q0 -103 30.5 -152.5t75.5 -49.5zM611 0l-28 38l248 372l48 53h-84q-47 0 -68 -26t-21 -86h-80q-13 36 -14.5 83t-2.5 96h425l30 -41l-229 -358l-60 -63
h66q51 0 79 16t42 44.5t24 67.5h75v-35q0 -39 -4 -82.5t-22 -78.5h-424z" />
    <glyph glyph-name="uni01F4" unicode="&#x1f4;" horiz-adv-x="664" 
d="M370 -14q-106 0 -183.5 45t-119.5 125t-42 183q0 123 42 205t116 123.5t170 41.5q23 0 53.5 -4t67.5 -18q10 5 27 9.5t34 8.5t27 4q13 -32 19 -73.5t8 -82t2 -70.5h-97q-10 65 -50 99.5t-94 34.5q-40 0 -72 -22t-50.5 -76.5t-18.5 -153.5q0 -106 17.5 -167.5t51 -88
t81.5 -26.5q54 0 79 26v114q0 26 -23 37.5t-70 11.5q0 17 7 41t17 36h216q30 0 45 -13.5t19.5 -29.5t4.5 -24q0 -10 -5 -18q-16 0 -30.5 -1.5t-25.5 -6.5v-115q0 -22 3.5 -31t7.5 -14q3 -3 5 -6.5t2 -11.5q0 -18 -32 -39.5t-86.5 -37t-122.5 -15.5zM324 737q-19 0 -34.5 11
t-18.5 35q32 21 68 52t69 69.5t55 79.5q27 0 46.5 -13t30 -31.5t10.5 -35.5q0 -27 -25 -56t-62 -54.5t-75 -41t-64 -15.5z" />
    </font>
</defs>
</svg>
