<svg width="512" height="512" viewBox="0 0 512 512" fill="none" xmlns="http://www.w3.org/2000/svg">
<path d="M267.015 463.624C263.398 463.921 259.695 463.992 256 463.992C212.294 463.917 169.727 450.054 134.36 424.376C98.9929 398.698 72.6302 362.515 59.0265 320.98C45.4228 279.446 45.2718 234.678 58.5949 193.053C71.9181 151.427 98.0361 115.067 133.229 89.1512C168.422 63.2353 210.895 49.0848 254.599 48.7154C298.303 48.346 341.009 61.7763 376.635 87.0937C412.261 112.411 438.99 148.324 453.015 189.718C467.04 231.112 467.645 275.877 454.746 317.635C454.124 319.662 454.332 321.854 455.324 323.728C456.317 325.602 458.012 327.006 460.038 327.631C462.065 328.256 464.256 328.051 466.132 327.062C468.008 326.072 469.414 324.379 470.042 322.354C484.03 277.288 483.432 228.956 468.335 184.25C453.237 139.544 424.41 100.745 385.964 73.3863C347.519 46.0275 301.416 31.5052 254.231 31.89C207.046 32.2748 161.187 47.5471 123.192 75.5292C85.1975 103.511 57.0073 142.775 42.6408 187.721C28.2744 232.668 28.4651 281.003 43.1859 325.835C57.9067 370.667 86.406 409.706 124.62 437.388C162.835 465.069 208.813 479.979 256 479.991C260.148 479.991 264.289 479.905 268.343 479.562C269.39 479.475 270.41 479.184 271.343 478.703C272.277 478.222 273.107 477.562 273.786 476.76C274.464 475.958 274.978 475.031 275.297 474.03C275.617 473.029 275.736 471.976 275.648 470.929C275.578 469.876 275.298 468.848 274.822 467.906C274.347 466.964 273.687 466.127 272.881 465.445C272.076 464.763 271.141 464.251 270.133 463.938C269.126 463.625 268.065 463.519 267.015 463.624Z" fill="#080708"/>
<path d="M256 88.0067C254.949 88.0061 253.908 88.2126 252.937 88.6144C251.967 89.0162 251.084 89.6055 250.341 90.3485C249.598 91.0915 249.009 91.9736 248.607 92.9445C248.206 93.9154 247.999 94.956 248 96.0067V225.14C242.499 226.572 237.481 229.446 233.461 233.466C229.442 237.485 226.568 242.503 225.136 248.004H136.002C134.951 248.004 133.911 248.211 132.94 248.613C131.97 249.015 131.088 249.604 130.345 250.347C129.602 251.09 129.013 251.972 128.611 252.942C128.209 253.913 128.002 254.953 128.002 256.004C128.002 257.054 128.209 258.095 128.611 259.065C129.013 260.036 129.602 260.918 130.345 261.661C131.088 262.404 131.97 262.993 132.94 263.395C133.911 263.797 134.951 264.004 136.002 264.004H225.136C226.535 269.461 229.354 274.452 233.306 278.468C237.258 282.484 242.202 285.382 247.637 286.87C253.071 288.357 258.802 288.38 264.248 286.937C269.695 285.493 274.662 282.634 278.646 278.65C282.63 274.666 285.489 269.699 286.932 264.253C288.376 258.806 288.353 253.075 286.866 247.641C285.378 242.206 282.479 237.262 278.463 233.31C274.447 229.359 269.457 226.54 264 225.14V96.0066C264 94.9558 263.794 93.9153 263.392 92.9444C262.99 91.9735 262.401 91.0914 261.658 90.3484C260.915 89.6054 260.033 89.0162 259.062 88.6144C258.091 88.2126 257.05 88.0061 256 88.0067ZM272 256.004C272 259.168 271.061 262.261 269.303 264.893C267.545 267.524 265.046 269.575 262.123 270.786C259.199 271.997 255.982 272.313 252.878 271.696C249.774 271.079 246.924 269.555 244.686 267.317C242.448 265.08 240.924 262.229 240.307 259.125C239.69 256.021 240.007 252.804 241.218 249.881C242.429 246.957 244.479 244.458 247.111 242.7C249.742 240.942 252.835 240.004 256 240.004C260.241 240.009 264.308 241.696 267.307 244.696C270.307 247.695 271.994 251.762 272 256.004Z" fill="#080708"/>
<path d="M319.686 369.197C362.747 368.141 362.76 284.967 319.687 283.901C276.625 284.957 276.612 368.13 319.686 369.197ZM319.686 299.901C341.449 301.021 341.458 352.068 319.687 353.197C297.923 352.077 297.914 301.03 319.686 299.901Z" fill="#080708"/>
<path d="M400.31 369.197C443.371 368.141 443.384 284.967 400.311 283.901C357.249 284.957 357.236 368.13 400.31 369.197ZM400.31 353.197C378.547 352.077 378.538 301.03 400.31 299.901C422.073 301.021 422.082 352.068 400.31 353.197Z" fill="#080708"/>
<path d="M273.874 414.633C318.595 411.342 295.933 332.016 256.837 344.791C224.568 357.829 243.645 415.591 273.874 414.633ZM256.742 367.119C257.299 364.351 260.211 359.145 264.586 359.439C279.2 359.142 289.938 392.223 276.282 398.212C265.421 402.245 252.262 379.21 256.742 367.119Z" fill="#080708"/>
<path d="M463.953 345.097C424.625 330.774 400.931 411.24 446.122 414.633C475.813 415.855 495.204 358.701 463.953 345.097ZM462.129 383.173C452.281 408.12 430.788 400.288 439.278 374.853C451.271 347.297 470.297 360.955 462.129 383.173Z" fill="#080708"/>
<path d="M359.998 374.376C322.178 374.376 289.007 410.531 289.008 451.748C288.604 496.754 331.664 473.676 359.998 473.952C376.54 473.747 392.15 479.597 407.396 479.999C423.412 480.107 431.204 469.456 430.989 451.749C430.989 410.532 397.818 374.376 359.998 374.376ZM412.474 462.89C409.622 465.265 399.614 463.359 390.802 461.671C380.678 459.442 370.362 458.197 359.998 457.952C349.634 458.197 339.318 459.442 329.194 461.671C320.389 463.351 310.374 465.257 307.523 462.89C306.765 462.265 305.007 459.929 305.007 451.749C305.007 422.781 328.522 390.376 359.998 390.376C391.474 390.376 414.989 422.781 414.989 451.749C414.989 459.929 413.231 462.265 412.474 462.89Z" fill="#080708"/>
</svg>
