<svg width="512" height="512" viewBox="0 0 512 512" fill="none" xmlns="http://www.w3.org/2000/svg">
<path d="M483.723 366.898C478.272 365.999 473.131 369.701 472.24 375.152C470.441 386.148 461.599 393.353 456.489 396.67C451.76 399.738 446.514 401.945 441.508 403.118C446.227 389.051 446.351 373.524 441.264 358.747L409.567 266.681C427.011 251.708 429.595 225.406 415.126 207.315C415.126 207.315 407.243 197.488 407.107 197.338C395.645 183.521 378.156 176.061 360.104 177.383C355.916 177.692 351.863 175.916 349.243 172.641C342.396 164.081 329.859 162.685 321.298 169.533L313.313 175.919C305.825 181.908 301.118 190.454 300.058 199.984C298.998 209.514 301.713 218.886 307.702 226.374L323.509 246.137L316.823 266.76C306.246 262.638 296.266 257.172 287.056 250.449L271.162 238.846C262.321 232.391 251.022 231.074 240.934 235.324C230.83 239.58 223.827 248.885 222.265 259.752C220.814 269.85 224.511 280.141 232.224 286.823L246.498 299.177C255.688 307.13 272.436 317.068 289.166 324.495C297.419 328.159 307.73 332.143 318.33 334.786L337.87 388.859C323.443 411.714 319.079 439.446 325.93 465.774L332.121 489.569C335.556 502.768 347.48 511.986 361.118 511.986C377.639 511.986 391.081 498.545 391.081 482.023V448.64L394.921 447.547C404.501 444.821 413.551 439.942 421.094 433.436C424.48 430.515 427.528 427.326 430.227 423.921C431.374 424.009 432.532 424.069 433.711 424.069C444.618 424.069 456.763 420.332 467.375 413.446C480.986 404.614 489.723 392.16 491.977 378.38C492.869 372.93 489.173 367.789 483.723 366.898ZM399.506 219.808C407.402 229.681 405.795 244.137 395.922 252.033L386.27 259.753C383.408 262.042 379.31 263.308 375.345 263.155C373.164 263.068 369.134 262.458 366.649 259.351C364.553 256.731 363.604 253.452 363.975 250.118C364.346 246.784 365.993 243.793 368.611 241.699L398.135 218.095L399.506 219.808ZM323.32 213.882C320.668 210.566 319.466 206.416 319.935 202.195C320.404 197.974 322.489 194.19 325.805 191.538L333.698 185.225C340.436 193.589 350.838 198.111 361.559 197.33C369.79 196.728 377.824 198.955 384.42 203.453L356.12 226.078C350.235 230.785 346.248 237.234 344.662 244.496C344.756 242.121 344.013 239.756 342.491 237.853L323.32 213.882ZM408.033 418.291C402.677 422.91 396.25 426.375 389.448 428.311L378.345 431.471C374.047 432.694 371.082 436.62 371.082 441.089V482.025C371.082 487.519 366.613 491.988 361.119 491.988C356.584 491.988 352.619 488.923 351.477 484.534L345.286 460.739C339.477 438.414 343.801 414.818 357.149 396.003C359.045 393.331 359.511 389.899 358.398 386.818L340.673 337.768C341.471 337.758 342.269 337.748 343.054 337.706C348.569 337.412 352.802 332.703 352.508 327.188C352.214 321.672 347.504 317.435 341.99 317.734C331.191 318.311 315.308 314.219 297.282 306.217C280.137 298.606 265.996 289.602 259.587 284.055L245.316 271.704C242.775 269.503 241.584 265.927 242.062 262.598C242.861 257.04 246.981 254.481 248.698 253.757C250.407 253.037 254.868 251.716 259.368 255.001L275.264 266.605C288.933 276.583 304.072 284.156 320.259 289.113C325.482 290.712 331.017 287.829 332.7 282.635L344.194 247.182C344.195 247.179 344.195 247.175 344.197 247.172C344.164 247.417 344.125 247.66 344.097 247.906C343.136 256.55 345.597 265.05 351.03 271.842C356.469 278.642 365.77 282.774 375.278 283.152C381.11 283.152 387.632 281.775 392.73 279.216L422.354 365.258C428.914 384.312 423.292 405.129 408.033 418.291Z" fill="#080708"/>
<path d="M375.279 283.152C374.794 283.152 375.765 283.172 375.279 283.152V283.152Z" fill="#080708"/>
<path d="M251.51 72.086C242.146 71.258 232.897 72.405 224.019 75.504C200.146 83.838 179.869 99.196 165.38 119.917C162.215 124.443 163.319 130.678 167.845 133.843C169.59 135.063 171.588 135.649 173.567 135.649C176.721 135.649 179.826 134.16 181.771 131.378C193.839 114.12 210.728 101.328 230.611 94.387C236.789 92.23 243.224 91.429 249.744 92.008C267.639 93.6 284.06 81.263 287.126 63.933C288.804 54.447 286.423 44.641 280.593 37.03C274.76 29.413 265.935 24.56 256.382 23.713C239.879 22.251 223.582 24.247 207.929 29.637C198.108 11.613 179.026 0 158.057 0C126.759 0 101.295 25.463 101.295 56.761C101.295 67.029 104.011 76.831 108.974 85.346C76.2166 87.816 47.5276 111.486 40.2676 145.191L21.8656 230.447C20.6186 236.222 19.9766 242.144 19.9556 248.053C18.7216 270.635 34.5526 301.243 67.0176 339.038C84.6956 359.618 102.367 376.599 110.393 384.066L91.3756 463.75C88.5766 475.48 91.2556 487.638 98.7296 497.104C106.203 506.57 117.406 512 129.466 512C147.566 512 163.208 499.72 167.506 482.138L188.973 394.299C193.836 374.402 191.971 353.118 183.721 334.37C183.654 334.216 183.582 334.064 183.507 333.914L136.284 239.754L146.744 211.325C148.651 206.142 145.995 200.394 140.812 198.487C135.629 196.577 129.881 199.235 127.974 204.419L118.427 230.366H42.3446L59.8186 149.407C62.9736 134.759 71.6436 122.217 84.2326 114.09C94.1226 107.705 105.503 104.663 117.029 105.175L116.651 105.772C113.698 110.439 115.087 116.617 119.754 119.569C124.421 122.524 130.599 121.133 133.551 116.466L138.453 108.719C156.075 80.866 182.917 59.544 214.036 48.681C227.138 44.107 240.789 42.408 254.616 43.634C258.658 43.992 262.245 45.966 264.715 49.191C267.181 52.411 268.146 56.409 267.431 60.448C266.157 67.653 259.159 72.769 251.51 72.086ZM165.513 342.648C171.917 357.336 173.35 373.983 169.545 389.55L148.077 477.388C145.974 485.991 138.321 491.999 129.465 491.999C123.565 491.999 118.083 489.343 114.427 484.711C110.771 480.079 109.46 474.131 110.83 468.392L131.213 382.985C132.067 379.408 130.887 375.65 128.143 373.201C127.911 372.993 104.614 352.136 82.0546 325.849C54.6256 293.887 39.7296 267.184 39.8926 250.365H119.232L165.513 342.648ZM132.303 82.988C125.315 76.153 121.296 66.804 121.296 56.761C121.296 36.491 137.787 20 158.058 20C170.924 20 182.689 26.752 189.3 37.385C167.222 48.187 147.687 63.813 132.303 82.988Z" fill="#080708"/>
<path d="M152.907 175.627C158.43 175.627 162.907 171.15 162.907 165.627C162.907 160.104 158.43 155.627 152.907 155.627C147.384 155.627 142.907 160.104 142.907 165.627C142.907 171.15 147.384 175.627 152.907 175.627Z" fill="#080708"/>
</svg>
