<svg width="512" height="512" viewBox="0 0 512 512" fill="none" xmlns="http://www.w3.org/2000/svg">
<path d="M187.682 141.09H454.536L308.764 255.562C305.675 257.985 302 259.169 298.666 259.493C295.31 259.163 291.624 257.98 288.5 255.562L184.326 173.727C183.222 172.84 181.976 172.163 180.605 171.742C185.509 164.824 188.308 156.456 188.16 147.439C188.131 145.374 187.949 143.246 187.682 141.09ZM119.819 67.4702C120.155 67.5271 120.707 67.7376 121.907 68.2951C124.279 69.4215 128.051 72.3228 131.743 76.3676C139.178 84.4686 146.608 96.7395 150.465 104.841C150.585 105.079 150.71 105.341 150.824 105.608C161.769 124.388 166.491 138.752 166.633 147.763C166.787 156.814 164.357 160.711 156.683 165.12L136.886 176.532C123.989 183.956 117.896 197.262 116.383 209.675C114.864 222.094 117.1 234.16 122.624 243.701L171.491 327.925C177.027 337.459 186.476 345.435 198.03 350.333C209.596 355.243 224.222 356.631 237.118 349.224L256.916 337.835C264.584 333.437 269.221 333.346 277.009 337.977C284.82 342.619 294.963 353.832 305.863 372.622C306.017 372.901 306.164 373.134 306.341 373.402C311.449 380.769 318.407 393.267 321.763 403.735C323.43 408.934 324.084 413.633 323.874 416.233C323.641 418.844 323.584 418.577 322.895 418.987L307.831 427.622C269.989 444.035 235.304 440.331 204.305 424.255C173.249 408.109 146.255 378.954 127.437 344.724C127.374 344.656 127.346 344.57 127.294 344.525L86.0727 273.482C86.0044 273.414 85.976 273.351 85.9191 273.26C65.5244 239.923 53.6403 202.075 55.1308 167.253C56.6213 132.483 70.7298 100.784 103.964 76.3961L119.034 67.7888C119.381 67.5897 119.495 67.4361 119.819 67.4702ZM119.973 46.3018C115.985 46.2393 111.917 47.0755 108.259 49.1975L92.3248 58.3623C91.9664 58.5671 91.6364 58.7776 91.3122 58.9824C52.9747 87.04 35.3221 126.1 33.5984 166.36C31.8746 206.603 45.3118 248.138 67.5098 284.45L108.595 355.248L108.498 355.038C129.007 392.306 158.396 424.636 194.309 443.261C230.241 461.915 273.044 466.239 316.643 447.226C317.002 447.073 317.366 446.902 317.69 446.703L333.647 437.538C341.026 433.34 344.735 425.17 345.338 418.037C345.958 410.926 344.508 404.002 342.306 397.181C337.994 383.693 330.473 370.591 324.261 361.603C312.525 341.413 301.192 327.401 288.097 319.568C274.898 311.7 259.055 311.814 246.13 319.243L226.332 330.655C220.484 334.023 213.646 333.631 206.45 330.587C199.287 327.543 192.654 321.456 190.191 317.19L141.323 232.971C138.854 228.682 136.835 219.932 137.79 212.218C138.712 204.527 141.835 198.502 147.689 195.129L166.923 184.07C167.424 186.647 168.88 188.985 170.991 190.555L275.171 272.407C281.947 277.732 289.974 280.695 298.058 281.162C298.467 281.185 298.888 281.185 299.304 281.162C307.393 280.695 315.38 277.726 322.162 272.407L465.647 159.687V345.907C465.647 348.74 462.415 352.472 456.078 352.472H356.744C350.765 352.438 345.924 357.262 345.924 363.207C345.924 369.141 350.771 373.965 356.744 373.931H456.078C472.314 373.931 487.236 362.194 487.236 345.907V147.655C487.236 131.356 472.314 119.626 456.078 119.626H181.771C178.733 112.031 174.723 103.981 169.671 95.232C164.943 85.3902 157.275 72.3797 147.678 61.9178C142.831 56.6158 137.603 51.9168 131.066 48.8789V48.9073C127.818 47.3713 123.955 46.3872 119.973 46.3018Z" fill="black"/>
</svg>
