<svg width="512" height="512" viewBox="0 0 512 512" fill="none" xmlns="http://www.w3.org/2000/svg">
<g clip-path="url(#clip0_417_1043)">
<path d="M265.638 109.574C267.167 109.574 268.71 109.107 270.041 108.14C273.392 105.704 274.134 101.014 271.699 97.6635L264.433 87.666C261.996 84.3141 257.306 83.5762 253.957 86.0081C250.606 88.444 249.864 93.1337 252.299 96.4846L259.564 106.482C261.033 108.502 263.32 109.574 265.638 109.574Z" fill="#080708"/>
<path d="M435.187 67.585C426.362 59.2144 413.051 57.0935 402.059 62.3152L378.375 73.5677L324.607 81.5324C313.586 83.1643 302.587 78.1605 296.577 68.7859C287.997 55.4025 272.802 47.8069 256.964 48.9408L161.906 55.7835L154.279 46.9369C145.758 37.0524 134.743 29.5427 122.428 25.2199C118.52 23.8519 114.24 25.9059 112.866 29.8127C111.495 33.7205 113.551 38.0013 117.459 39.3742C127.304 42.8291 136.106 48.8318 142.919 56.7315L153.005 68.4309C154.554 70.2259 156.874 71.1808 159.224 71.0138L258.04 63.9011C268.423 63.1532 278.339 68.129 283.95 76.8806C293.139 91.2139 309.963 98.8626 326.804 96.3687L373.105 89.51C373.996 95.0937 376.738 100.24 381.029 104.156C386.802 109.426 394.535 111.711 402.246 110.427C404.664 110.026 407.144 110.497 409.24 111.754L427.637 122.789C426.85 125.675 425.735 128.404 424.314 130.893C419.272 139.73 411.115 146.157 401.345 148.992L313.11 174.6C298.562 178.823 289.779 193.706 293.118 208.49C294.639 216.333 300.81 224.684 308.542 228.515C329.138 238.86 379.328 264.098 403.771 276.39C407.946 278.488 409.728 283.481 407.833 287.744C407.288 289.024 406.619 290.052 404.506 291.955C389.485 305.48 368.696 310.709 349.407 304.989C323.39 298.012 296.083 298.563 270.431 306.587C244.79 314.608 222.075 329.696 204.74 350.22C203.391 351.816 201.966 353.529 200.478 355.341L153.484 315.205C150.335 312.514 145.601 312.89 142.911 316.037C140.221 319.187 140.594 323.92 143.743 326.61L205.709 379.534C206.755 380.428 206.881 382.006 205.989 383.053L181.584 411.702C180.688 412.754 179.105 412.877 178.06 411.984L12.3738 270.881C9.21992 268.196 4.48613 268.575 1.80125 271.728C-0.88463 274.882 -0.505647 279.615 2.64821 282.3L157.581 414.248C140.092 449.566 132.885 501.205 132.574 503.484C132.013 507.588 134.886 511.369 138.99 511.929C139.334 511.977 139.676 511.999 140.014 511.999C143.705 511.999 146.922 509.272 147.435 505.513C147.506 504.998 154.148 457.353 169.423 424.251C172.492 426.476 176.084 427.575 179.666 427.575C184.62 427.575 189.545 425.488 193.001 421.43L217.406 392.78C223.654 385.446 222.776 374.387 215.45 368.13L211.886 365.087C213.396 363.248 214.84 361.51 216.198 359.901C247.618 322.699 298.38 306.831 345.518 319.478C369.4 326.57 396.367 320.245 414.756 302.906C416.91 301.026 419.766 297.96 421.533 293.849C426.685 282.506 421.494 267.964 409.639 262.552C424.302 252.878 433.286 238.03 433 222.489C432.942 219.381 432.504 216.254 431.697 213.195C430.199 207.512 425.975 202.989 420.399 201.095C414.842 199.208 408.768 200.22 404.143 203.796C400.495 206.618 396.664 208.409 392.753 209.121C391.879 209.281 390.823 209.361 389.615 209.361C389.574 209.361 389.536 209.362 389.49 209.361C385.361 209.361 382.006 212.701 381.991 216.834C381.976 220.976 385.322 224.346 389.465 224.36C391.674 224.39 393.616 224.21 395.442 223.878C401.737 222.732 407.753 219.967 413.32 215.66C414.203 214.977 415.113 215.139 415.577 215.297C416.054 215.459 416.898 215.899 417.194 217.019C417.695 218.92 417.967 220.854 418.003 222.766C418.236 235.373 408.214 248.013 393.302 254.336C372.206 243.727 344.911 230.004 326.529 220.765C333.491 217.84 342.334 217.306 354.192 218.948C358.291 219.51 362.081 216.65 362.649 212.546C363.216 208.444 360.35 204.658 356.247 204.09C343.587 202.34 325.801 201.494 311.447 212.281C310.362 211.148 308.679 208.701 307.747 205.18C306.155 198.125 310.347 191.021 317.292 189.006L405.527 163.398C419.058 159.47 430.357 150.567 437.341 138.329C441.364 131.278 443.66 122.994 443.981 114.371L444.853 90.8609C445.291 83.1693 441.293 73.7507 435.187 67.585ZM399.781 95.6317C396.637 96.1547 393.493 95.2257 391.142 93.0788C389.036 91.1579 387.853 88.509 387.796 85.6982L408.494 75.8636C412.819 73.7317 420.486 74.1707 425.087 78.6805C428.234 81.7653 430.025 85.9511 429.863 90.306L429.27 106.279L416.955 98.8916C411.807 95.8037 405.706 94.6448 399.781 95.6317Z" fill="#080708"/>
<path d="M88.1712 96.2986L57.5916 43.451C55.5187 39.8651 50.9279 38.6402 47.345 40.7161C43.7592 42.79 42.5342 47.3778 44.6101 50.9626L75.1898 103.81C81.6595 114.993 93.7049 121.938 106.625 121.938H120.264C124.407 121.938 127.763 118.582 127.763 114.439C127.763 110.296 124.407 106.939 120.264 106.939H106.625C99.0407 106.938 91.97 102.861 88.1712 96.2986Z" fill="#080708"/>
<path d="M0.0135142 200.342C-0.0584825 202.989 1.27446 205.593 3.72135 207.026C3.72235 207.027 3.72435 207.027 3.72635 207.028L117.116 303.87C118.529 305.077 120.261 305.667 121.983 305.667C124.101 305.667 126.207 304.774 127.69 303.038C130.38 299.888 130.007 295.155 126.858 292.465L17.2137 198.822L56.118 132.359L56.539 133.069C64.7696 146.937 79.9029 155.552 96.0312 155.552H102.972C107.115 155.552 110.472 152.195 110.472 148.052C110.472 143.91 107.115 140.553 102.972 140.553H96.0312C85.1707 140.553 74.9801 134.751 69.4364 125.412L19.2806 40.9161C16.2228 35.7644 17.5317 29.1687 22.3265 25.5738L25.8814 22.9059C38.5998 13.3724 55.689 12.3814 69.4194 20.3911C74.0902 23.1159 78.954 25.6368 83.8778 27.8847C87.6446 29.6056 92.0944 27.9467 93.8153 24.1779C95.5362 20.4101 93.8763 15.9613 90.1085 14.2403C85.6387 12.1994 81.2199 9.90953 76.9761 7.43364C58.0269 -3.61786 34.437 -2.25592 16.8818 10.9075L13.3259 13.5754C2.39141 21.775 -0.593459 36.8203 6.38323 48.5728L47.3664 117.617L1.62144 195.768C0.55749 197.121 0.0245137 198.732 0.0135142 200.342Z" fill="#080708"/>
<path d="M504.488 196.63H453.807C449.664 196.63 446.308 199.987 446.308 204.13C446.308 208.273 449.664 211.629 453.807 211.629H504.488C508.631 211.629 511.988 208.273 511.988 204.13C511.988 199.987 508.631 196.63 504.488 196.63Z" fill="#080708"/>
<path d="M453.814 176.16C454.941 176.16 456.085 175.905 457.162 175.366L487.57 160.165C491.274 158.313 492.776 153.809 490.923 150.103C489.072 146.398 484.568 144.895 480.862 146.749L450.454 161.951C446.749 163.803 445.247 168.306 447.1 172.012C448.413 174.64 451.063 176.16 453.814 176.16Z" fill="#080708"/>
<path d="M487.387 248.005L456.979 233.816C453.228 232.067 448.764 233.688 447.012 237.442C445.261 241.195 446.884 245.658 450.637 247.41L481.045 261.597C482.07 262.076 483.149 262.302 484.211 262.302C487.034 262.302 489.739 260.698 491.013 257.971C492.764 254.22 491.141 249.757 487.387 248.005Z" fill="#080708"/>
</g>
<defs>
<clipPath id="clip0_417_1043">
<rect width="512" height="512" fill="white"/>
</clipPath>
</defs>
</svg>
