<svg width="512" height="512" viewBox="0 0 512 512" fill="none" xmlns="http://www.w3.org/2000/svg">
<g clip-path="url(#clip0_412_64)">
<path d="M488.451 266.498C484.552 266.498 480.92 264.57 478.735 261.34C469.266 247.342 453.524 238.986 436.623 238.986H424.224C402.397 238.986 384.641 256.743 384.641 278.569V289.673C384.641 290.736 384.697 291.786 384.805 292.821C347.96 278.323 313.331 257.452 281.456 230.502C282.527 228.785 283.454 226.96 284.177 225.019C287.051 217.306 286.749 208.935 283.326 201.449C279.904 193.964 273.772 188.259 266.058 185.386L212.378 165.387C212.378 165.387 165.739 119.037 165.685 118.981C162.572 115.811 159.149 113.067 155.495 110.747C165.884 102.044 172.505 88.985 172.505 74.4039C172.505 48.2636 151.239 26.9973 125.099 26.9973C98.9595 26.9973 77.6932 48.2636 77.6932 74.4039C77.6932 88.999 84.3273 102.07 94.7334 110.773C91.0784 113.09 87.7004 115.805 84.6713 118.869C84.5893 118.943 35.6928 166.159 35.6928 166.159C32.5967 169.025 30.1617 172.434 28.4537 176.295L2.63537 234.628C-4.24071 250.166 2.80537 268.401 18.3436 275.277C22.3036 277.029 26.4956 277.918 30.8017 277.918C42.8368 277.918 53.774 270.9 58.798 259.997L68.2131 242.848V255.731C68.2131 260.147 71.0782 263.886 75.0482 265.211L58.762 349.901L12.2185 433.458C7.73943 441.5 6.65841 450.804 9.17744 459.658C11.6965 468.512 17.5115 475.856 25.5536 480.335C30.6747 483.187 36.4658 484.695 42.3008 484.695C54.804 484.695 66.3491 477.914 72.4302 466.998L121.665 378.609C123.396 375.5 124.63 372.16 125.335 368.676L135.732 328.205L156.136 369.801L157.056 374.48C158.121 379.899 163.378 383.431 168.797 382.363C174.216 381.298 177.746 376.041 176.68 370.622L175.506 364.65C175.338 363.792 175.057 362.96 174.672 362.175L141.762 295.084C139.918 291.325 135.924 289.11 131.763 289.54C127.598 289.968 124.14 292.944 123.098 296.999C123.098 296.999 105.797 364.368 105.758 364.569C105.467 366.081 104.939 367.53 104.19 368.876L54.96 457.265C52.4069 461.847 47.5579 464.694 42.3028 464.694C39.8308 464.694 37.4708 464.077 35.2877 462.861C31.9127 460.982 29.4727 457.9 28.4157 454.185C27.3587 450.47 27.8117 446.565 29.6917 443.19L77.0162 358.231C77.5342 357.302 77.8992 356.297 78.1003 355.253L95.3155 265.73H161.873L202.254 352.892C202.739 353.939 203.099 355.046 203.322 356.181L221.206 447.162C221.951 450.952 221.175 454.806 219.022 458.013C216.869 461.22 213.595 463.396 209.805 464.141C208.873 464.324 207.926 464.417 206.989 464.417C201.712 464.417 196.859 461.535 194.323 456.895C191.675 452.048 185.6 450.266 180.752 452.914C175.905 455.562 174.123 461.637 176.771 466.484C182.815 477.548 194.396 484.42 206.99 484.418C209.218 484.418 211.463 484.199 213.663 483.766C222.695 481.991 230.495 476.805 235.626 469.161C240.757 461.518 242.605 452.336 240.83 443.304L222.947 352.324C222.416 349.62 221.559 346.982 220.402 344.484L181.141 259.739C181.679 258.511 181.983 257.157 181.983 255.73V219.669C182.887 220.11 183.814 220.512 184.767 220.867L244.543 243.137C248.006 244.428 251.625 245.082 255.298 245.082C258.871 245.082 262.343 244.434 265.6 243.267C303.014 275.483 344.147 299.694 388.201 315.462C385.639 316.058 382.992 316.371 380.299 316.371H339.624C320.823 316.371 304.038 325.124 293.097 338.758C277.034 336.899 263.564 325.351 259.51 309.395C258.15 304.042 252.709 300.802 247.356 302.165C242.003 303.526 238.767 308.967 240.127 314.32C245.578 335.778 262.309 351.957 283.036 357.206C281.064 363.124 279.979 369.444 279.979 376.016C279.979 386.824 282.918 397.436 288.479 406.703L290.514 410.095L283.931 431.886C283.385 433.695 283.362 435.62 283.865 437.441L291.074 463.528C294.569 476.172 306.17 485.003 319.287 485.003C328.717 485.003 337.62 480.422 343.102 472.751C348.584 465.078 350.034 455.171 346.979 446.25L345.429 441.723L351.149 435.96C353.535 433.555 355.646 430.933 357.478 428.148H411.479L439.376 471.547C444.793 479.973 454.006 485.003 464.022 485.003C474.395 485.003 483.78 479.696 489.127 470.807C494.474 461.919 494.765 451.141 489.905 441.978L469.99 404.426C468.839 402.256 468.962 399.633 470.311 397.581C482.549 378.963 485.568 356.366 479.199 335.694C497.384 335.103 511.999 320.135 511.999 301.807V290.048C512 277.062 501.436 266.498 488.451 266.498ZM404.64 278.569C404.64 267.771 413.425 258.986 424.223 258.986H425.177V289.674C425.177 295.337 420.571 299.943 414.908 299.943C409.246 299.943 404.639 295.337 404.639 289.674V278.569H404.64ZM125.098 46.9976C140.21 46.9976 152.504 59.2917 152.504 74.4039C152.504 89.515 140.21 101.809 125.098 101.809C109.987 101.809 97.6925 89.515 97.6925 74.4039C97.6925 59.2917 109.987 46.9976 125.098 46.9976ZM40.7038 251.474C38.9718 255.388 35.0857 257.917 30.8037 257.917C29.3017 257.917 27.8327 257.604 26.4376 256.987C20.9846 254.574 18.5126 248.175 20.9256 242.721L46.7419 184.388C47.3479 183.019 48.2149 181.811 49.3179 180.798C49.3809 180.74 68.2141 162.549 68.2141 162.549V201.288C68.2141 201.288 40.8188 251.214 40.7038 251.474ZM251.525 224.396L191.749 202.125C190.345 201.602 189.087 200.809 188.01 199.769L141.907 155.23C137.935 151.392 131.604 151.501 127.767 155.474C123.93 159.447 124.039 165.777 128.011 169.614L161.982 202.433V245.731H88.2144V158.838C88.2144 138.501 104.761 121.954 125.099 121.954C135.077 121.954 144.422 125.875 151.415 132.996C151.467 133.049 199.813 181.098 199.813 181.098C200.823 182.102 202.036 182.878 203.37 183.375L259.075 204.128C261.782 205.136 263.934 207.138 265.135 209.765C266.336 212.392 266.442 215.33 265.433 218.037C263.864 222.25 259.79 225.081 255.296 225.081C254.016 225.082 252.748 224.851 251.525 224.396ZM472.237 451.349C474.46 455.54 472.805 459.143 471.99 460.497C471.176 461.851 468.768 465.002 464.023 465.002C460.845 465.002 457.921 463.406 456.202 460.732L425.352 412.741C423.512 409.879 420.343 408.148 416.94 408.148H365.228C366.321 401.39 366.09 394.395 364.37 387.6C363.015 382.245 357.578 379.006 352.221 380.359C346.867 381.714 343.626 387.154 344.981 392.508C347.628 402.964 344.552 414.216 336.955 421.872L326.861 432.043C324.182 434.742 323.266 438.728 324.498 442.326L328.059 452.728C329.041 455.596 328.593 458.655 326.831 461.121C325.069 463.587 322.319 465.002 319.288 465.002C315.133 465.002 311.459 462.205 310.352 458.2L303.913 434.901L310.939 411.639C311.754 408.939 311.392 406.021 309.941 403.603L305.628 396.414C301.932 390.254 299.979 383.2 299.979 376.016C299.979 354.156 317.764 336.371 339.624 336.371H380.299C393.203 336.371 405.45 331.868 415.168 323.796L457.269 334.332C465.25 351.164 463.959 370.837 453.601 386.594C448.24 394.75 447.75 405.174 452.323 413.796L472.237 451.349ZM492 301.807C492 309.48 485.758 315.723 478.086 315.723H465.286L438.228 308.952C442.568 303.713 445.179 296.992 445.179 289.674V260.207C452.027 262.182 458.07 266.486 462.17 272.547C468.08 281.283 477.904 286.499 488.451 286.499C490.408 286.499 492 288.091 492 290.048V301.807Z" fill="#080708"/>
<path d="M175.666 426.69C181.189 426.69 185.666 422.213 185.666 416.69C185.666 411.167 181.189 406.69 175.666 406.69C170.143 406.69 165.666 411.167 165.666 416.69C165.666 422.213 170.143 426.69 175.666 426.69Z" fill="#080708"/>
</g>
<defs>
<clipPath id="clip0_412_64">
<rect width="512" height="512" fill="white"/>
</clipPath>
</defs>
</svg>
