<svg width="512" height="512" viewBox="0 0 512 512" fill="none" xmlns="http://www.w3.org/2000/svg">
<path d="M183.976 315.952C184.928 316.048 185.872 316.096 186.808 316.096C205.344 316.096 221.24 298.2 223.632 273.92C224.784 262.232 222.496 250.816 217.208 241.768C211.52 232.048 202.672 225.92 192.92 224.96C183.264 224.024 173.304 228.288 165.824 236.712C158.88 244.544 154.416 255.304 153.272 267C150.768 292.504 164.248 314.008 183.976 315.952ZM169.192 268.56C170.008 260.32 173.136 252.584 177.8 247.328C180.008 244.832 184.456 240.824 190.16 240.824C190.552 240.824 190.952 240.84 191.352 240.88C197.624 241.496 201.592 246.76 203.4 249.848C206.944 255.912 208.52 264.112 207.704 272.352C206.128 288.368 196.08 301.064 185.536 300.032C175.096 299.008 167.616 284.592 169.192 268.56Z" fill="black"/>
<path d="M277.664 341.16C278.832 329.304 276.52 317.728 271.168 308.56C265.4 298.712 256.44 292.504 246.576 291.536C226.624 289.584 208.952 308.304 206.408 334.152C205.24 346.008 207.56 357.584 212.912 366.752C218.752 376.744 227.488 382.792 237.496 383.768C238.4 383.856 239.32 383.904 240.232 383.904C249.184 383.904 258.064 379.616 264.928 371.864C271.976 363.92 276.496 353.024 277.664 341.16ZM261.744 339.592C260.912 348 257.72 355.896 252.96 361.256C250.536 363.992 245.56 368.472 239.064 367.856C232.624 367.224 228.568 361.84 226.728 358.68C223.104 352.496 221.504 344.128 222.328 335.72C223.872 319.976 233.544 307.4 243.792 307.4C244.2 307.4 244.608 307.416 245.008 307.456C251.448 308.088 255.504 313.48 257.352 316.632C260.968 322.816 262.568 331.192 261.744 339.592Z" fill="black"/>
<path d="M85.048 472.176C97.696 472.176 110.752 467.6 120.44 464.2C125.304 462.496 131.632 460.048 134 460.272C135.992 460.536 142.096 464.136 146.552 466.76C157.44 473.192 173 482.376 188.384 482.376C197.176 482.376 205.912 479.376 213.696 471.16C244.416 438.704 216.032 399.16 205.344 384.272C201.36 378.72 198.672 371.016 195.832 362.856C189 343.272 180.504 318.904 148.224 315.728C115.984 312.544 102.856 334.808 92.352 352.688C87.968 360.136 83.84 367.168 78.848 371.84C65.472 384.36 29.936 417.624 53.728 455.432C61.752 468.168 73.224 472.176 85.056 472.176H85.048ZM89.776 383.52C96.448 377.272 101.368 368.896 106.136 360.808C116.016 344.008 124.488 329.52 146.656 331.656C168.76 333.832 174.296 349.728 180.72 368.136C183.816 377.008 187.016 386.176 192.344 393.608C214.328 424.24 217.24 444.144 202.072 460.168C190.408 472.512 173.704 464.224 154.68 453C147.008 448.472 140.944 444.888 135.568 444.36C130.224 443.808 123.56 446.152 115.144 449.112C94.296 456.416 76.312 461.296 67.264 446.92C55.512 428.256 62.24 409.296 89.768 383.528L89.776 383.52Z" fill="black"/>
<path d="M112.104 308.88C113 308.968 113.904 309.016 114.808 309.016C123.656 309.016 132.416 304.784 139.208 297.136C146.152 289.304 150.616 278.544 151.76 266.848C154.264 241.344 140.784 219.832 121.048 217.888C101.264 215.944 83.904 234.416 81.4 259.928C80.248 271.616 82.528 283.032 87.816 292.072C93.504 301.8 102.352 307.92 112.104 308.88ZM97.32 261.488C98.832 246.064 108.288 233.752 118.296 233.752C118.688 233.752 119.088 233.768 119.48 233.808C129.92 234.832 137.408 249.248 135.832 265.28C135.016 273.52 131.888 281.256 127.224 286.512C124.864 289.184 119.984 293.624 113.664 292.96C107.392 292.344 103.432 287.08 101.624 283.992C98.08 277.936 96.504 269.728 97.32 261.488Z" fill="black"/>
<path d="M47.392 365.088C48.352 365.184 49.312 365.232 50.256 365.232C69.04 365.232 85.136 347.088 87.552 322.48C88.72 310.624 86.408 299.04 81.056 289.872C75.288 280.024 66.328 273.816 56.464 272.848C36.528 270.92 18.84 289.616 16.296 315.464C13.76 341.32 27.416 363.128 47.392 365.088ZM32.224 317.024C33.768 301.28 43.44 288.704 53.688 288.704C54.096 288.704 54.504 288.72 54.904 288.76C61.344 289.392 65.4 294.784 67.248 297.936C70.864 304.12 72.464 312.488 71.64 320.896C70.04 337.264 59.696 350.16 48.96 349.152C38.28 348.104 30.616 333.384 32.224 317.008V317.024Z" fill="black"/>
<path d="M365.456 278.648C369.912 276.016 376.016 272.416 377.992 272.16C379.88 272.088 386.688 274.376 391.568 276.088C401.256 279.48 414.312 284.064 426.96 284.064C438.792 284.064 450.272 280.056 458.288 267.32C482.088 229.504 446.544 196.248 433.168 183.728C428.176 179.064 424.04 172.024 419.664 164.576C409.16 146.704 396.144 124.44 363.792 127.616C331.512 130.792 323.008 155.16 316.184 174.752C313.344 182.912 310.656 190.616 306.672 196.168C295.984 211.048 267.6 250.592 298.32 283.048C306.104 291.272 314.832 294.264 323.632 294.264C339.016 294.264 354.568 285.08 365.456 278.648ZM319.656 205.488C324.984 198.056 328.184 188.888 331.28 180.008C337.704 161.6 343.24 145.704 365.344 143.528C387.552 141.36 395.984 155.872 405.864 172.68C410.632 180.776 415.552 189.152 422.224 195.392C449.752 221.16 456.48 240.112 444.728 258.784C435.688 273.168 417.688 268.288 396.848 260.976C388.424 258.016 381.712 255.688 376.424 256.224C371.048 256.752 364.984 260.328 357.312 264.864C338.288 276.088 321.576 284.368 309.92 272.032C294.752 256.008 297.664 236.104 319.648 205.48L319.656 205.488Z" fill="black"/>
<path d="M300.928 116.08C307.712 123.736 316.472 127.968 325.32 127.968C326.216 127.968 327.128 127.928 328.024 127.832C337.776 126.872 346.624 120.752 352.312 111.024C357.6 101.984 359.872 90.568 358.728 78.88C356.224 53.376 338.944 34.888 319.08 36.84C309.328 37.8 300.48 43.92 294.792 53.648C289.504 62.688 287.224 74.104 288.368 85.8C289.52 97.496 293.976 108.24 300.928 116.08ZM308.592 61.728C310.4 58.648 314.368 53.384 320.64 52.76C321.04 52.72 321.432 52.704 321.824 52.704C331.832 52.704 341.288 65.024 342.8 80.44C343.616 88.68 342.04 96.888 338.496 102.944C336.688 106.024 332.728 111.288 326.456 111.912C320.184 112.52 315.272 108.144 312.896 105.464C308.232 100.208 305.096 92.472 304.288 84.232C303.472 75.992 305.048 67.792 308.592 61.728Z" fill="black"/>
<path d="M271.632 195.8C272.576 195.8 273.536 195.752 274.496 195.656C294.472 193.688 308.128 171.896 305.592 146.032C304.424 134.176 299.904 123.264 292.856 115.32C285.296 106.776 275.216 102.44 265.424 103.416C255.56 104.384 246.592 110.584 240.832 120.432C235.472 129.6 233.16 141.176 234.336 153.032C236.752 177.648 252.848 195.8 271.632 195.8ZM254.648 128.52C256.488 125.36 260.552 119.976 266.992 119.344C267.416 119.304 267.824 119.288 268.224 119.288C274.064 119.288 278.616 123.384 280.888 125.944C285.648 131.304 288.84 139.2 289.672 147.608C291.28 163.976 283.616 178.696 272.936 179.744C262.232 180.848 251.864 167.856 250.256 151.488C249.424 143.08 251.032 134.704 254.648 128.52Z" fill="black"/>
<path d="M397.064 120.904C398 120.904 398.952 120.856 399.896 120.76C419.624 118.816 433.104 97.312 430.6 71.8C429.448 60.112 424.992 49.352 418.048 41.52C410.576 33.088 400.672 28.768 390.952 29.768C381.2 30.728 372.352 36.848 366.664 46.576C361.376 55.616 359.096 67.032 360.24 78.728C362.632 103.008 378.52 120.904 397.064 120.904ZM380.472 54.656C382.28 51.576 386.248 46.312 392.52 45.688C392.928 45.648 393.328 45.632 393.712 45.632C399.416 45.632 403.864 49.632 406.072 52.136C410.736 57.392 413.872 65.136 414.68 73.368C416.256 89.4 408.776 103.808 398.336 104.84C387.896 105.8 377.736 93.192 376.168 77.16C375.352 68.92 376.928 60.72 380.472 54.656Z" fill="black"/>
<path d="M424.448 134.344C425.616 146.2 430.136 157.112 437.184 165.056C444.048 172.808 452.928 177.096 461.88 177.096C462.792 177.096 463.712 177.056 464.616 176.96C484.592 174.992 498.248 153.2 495.712 127.336C494.544 115.48 490.024 104.568 482.976 96.624C475.408 88.088 465.312 83.76 455.544 84.72C445.68 85.688 436.712 91.888 430.952 101.736C425.592 110.904 423.28 122.48 424.456 134.336L424.448 134.344ZM444.76 109.824C446.6 106.664 450.664 101.28 457.104 100.648C457.528 100.608 457.936 100.592 458.336 100.592C464.176 100.592 468.728 104.688 471 107.248C475.76 112.608 478.952 120.504 479.784 128.912C481.392 145.28 473.728 160 463.048 161.048C456.568 161.664 451.584 157.192 449.152 154.448C444.392 149.088 441.2 141.192 440.368 132.784C439.536 124.384 441.144 116.016 444.76 109.832V109.824Z" fill="black"/>
</svg>
