<svg width="512" height="512" viewBox="0 0 512 512" fill="none" xmlns="http://www.w3.org/2000/svg">
<g clip-path="url(#clip0_414_247)">
<path d="M368.028 273.211C358.53 264.107 345.279 260.726 332.578 264.176L307.911 270.869C300.921 272.766 293.739 274.239 286.567 275.247C280.139 276.144 273.677 274.128 268.84 269.697C263.89 265.162 261.25 258.72 261.599 252.025C261.859 247.043 264.582 242.561 268.886 240.036L291.752 226.62C312.504 214.444 319.482 187.655 307.307 166.904L300.587 155.449C294.214 144.59 280.196 140.938 269.336 147.309C263.66 150.64 256.745 150.893 250.84 147.983C230.92 138.171 207.173 139.188 187.167 150.667C187.105 150.701 173.323 158.778 173.323 158.778C161.167 165.91 152.515 177.349 148.962 190.989C145.409 204.629 147.381 218.835 154.514 230.991L157.563 236.187L130.574 251.922C125.803 254.703 124.19 260.826 126.971 265.598C128.829 268.785 132.178 270.563 135.619 270.563C137.329 270.563 139.062 270.124 140.646 269.2L168.787 252.794C173.668 257.674 179.772 261.194 186.627 262.981C189.93 263.84 193.276 264.266 196.6 264.266C203.502 264.266 210.31 262.431 216.421 258.846C219.743 256.897 222.665 254.526 225.176 251.85L241.897 258.428C243.122 268.348 247.814 277.561 255.33 284.446C264.586 292.925 276.986 296.794 289.35 295.053C297.348 293.93 305.355 292.287 313.148 290.173L337.818 283.478C343.683 281.888 349.802 283.447 354.188 287.65C358.59 291.871 360.331 298.307 358.979 304.273C357.788 309.528 353.974 314.118 348.915 315.955L325.864 324.311C302.5 332.781 238.433 340.351 208.041 326.824C202.997 324.582 197.085 326.847 194.838 331.893C192.592 336.938 194.861 342.849 199.907 345.095C201.869 345.969 203.93 346.765 206.068 347.499L135.795 375.49C135.307 372.936 134.746 370.387 134.094 367.849C132.72 362.5 127.273 359.284 121.92 360.652C116.571 362.026 113.348 367.476 114.722 372.826C122.398 402.702 116.518 434.235 98.5921 459.338L80.0345 485.326C75.8214 491.225 68.1502 493.539 61.378 490.943C57.4049 489.422 54.2618 486.446 52.5278 482.561C50.7938 478.677 50.6757 474.349 52.1968 470.376L64.3721 438.567C69.9833 423.908 65.1271 407.096 52.5628 397.686C47.0206 393.535 42.3565 388.118 39.0764 382.019C26.7681 359.137 34.7093 330.962 57.1559 317.875L62.2581 314.9C67.0292 312.118 68.6422 305.995 65.8612 301.223C63.0801 296.453 56.9579 294.839 52.1848 297.621L47.0826 300.596C37.0174 306.464 28.7982 314.671 22.973 324.445C20.8789 317.447 19.9479 309.4 20.5229 301.433C21.1289 293.049 23.98 277.543 36.2674 267.896C40.6115 264.486 41.3685 258.2 37.9574 253.856C34.5453 249.51 28.2591 248.754 23.916 252.166C10.3216 262.838 2.03142 279.824 0.574379 299.992C-0.816659 319.245 4.26148 338.084 13.9297 350.42C12.0517 364.498 14.6268 378.786 21.4629 391.494C26.1111 400.135 32.7193 407.811 40.5745 413.694C46.0206 417.773 48.1257 425.062 45.6936 431.417L33.5183 463.226C30.0882 472.188 30.3522 481.95 34.2643 490.712C38.1764 499.477 45.2656 506.192 54.2278 509.621C58.42 511.226 62.7641 511.998 67.0592 511.998C78.4125 511.997 89.4138 506.603 96.31 496.948L114.868 470.959C130.621 448.899 138.557 422.674 137.98 396.147L244.006 353.916C247.798 354.101 251.634 354.188 255.482 354.188C286.046 354.187 317.325 348.68 332.681 343.113L355.736 334.755C367.228 330.583 375.783 320.618 378.486 308.692C381.403 295.82 377.544 282.334 368.028 273.211ZM215.211 229.814C213.912 234.802 210.748 238.987 206.301 241.596C197.124 246.982 185.274 243.897 179.887 234.715L171.764 220.87C167.335 213.321 166.111 204.5 168.317 196.03C170.523 187.56 175.895 180.458 183.444 176.029L188.478 173.076L213.181 215.182C215.789 219.629 216.51 224.826 215.211 229.814ZM244.837 238.091L234.722 234.112C237.013 224.572 235.777 214.173 230.432 205.062L206.281 163.897C218.188 159.877 230.977 160.493 242.003 165.925C253.959 171.816 267.962 171.306 279.459 164.56C280.807 163.768 282.546 164.222 283.337 165.571L290.057 177.026C296.651 188.265 292.872 202.775 281.632 209.371L258.766 222.787C252.567 226.422 247.771 231.79 244.837 238.091Z" fill="#080708"/>
<path d="M504.308 95.2716C498.905 88.8144 491.312 84.8533 482.937 84.1193L472.471 83.1912L498.466 51.4304C503.795 44.9202 506.269 36.725 505.433 28.3537C504.597 19.9825 500.552 12.4383 494.042 7.11016C480.604 -3.89014 460.721 -1.90508 449.721 11.5333L349.775 133.644C344.446 140.154 341.972 148.349 342.808 156.72C343.644 165.091 347.689 172.636 354.197 177.962C358.228 181.264 363.051 183.529 368.143 184.514C370.148 184.903 372.161 185.092 374.156 185.092C383.499 185.092 392.468 180.936 398.519 173.541L424.213 142.15L477.372 146.863C485.752 147.603 493.92 145.043 500.371 139.641C506.822 134.242 510.784 126.652 511.527 118.273C512.27 109.892 509.706 101.724 504.308 95.2716ZM491.605 116.506C491.605 116.507 491.605 116.507 491.605 116.506C491.334 119.565 489.888 122.334 487.534 124.305C485.18 126.276 482.199 127.207 479.139 126.941L420.71 121.76C417.411 121.466 414.185 122.826 412.088 125.387L383.043 160.872C380.361 164.148 376.104 165.686 371.944 164.877C370.07 164.515 368.363 163.711 366.867 162.486C364.491 160.542 363.015 157.788 362.71 154.733C362.405 151.677 363.308 148.687 365.253 146.311L465.199 24.2006C467.469 21.4286 470.773 19.9915 474.104 19.9915C476.666 19.9915 479.242 20.8415 481.376 22.5866C483.752 24.5306 485.228 27.2847 485.533 30.3398C485.838 33.3959 484.935 36.386 482.99 38.762L445.023 85.1483C442.675 88.0154 442.106 91.9455 443.543 95.3606C444.981 98.7757 448.188 101.117 451.878 101.444L481.179 104.043C484.234 104.311 487 105.754 488.969 108.107C490.94 110.462 491.876 113.446 491.605 116.506Z" fill="#080708"/>
<path d="M282.188 56.5215H378.402C383.926 56.5215 388.403 52.0434 388.403 46.5213C388.403 40.9991 383.926 36.521 378.402 36.521H282.188C276.665 36.521 272.188 40.9991 272.188 46.5213C272.188 52.0434 276.665 56.5215 282.188 56.5215Z" fill="#080708"/>
<path d="M234.08 107.255H246.254C251.777 107.255 256.254 102.777 256.254 97.2554C256.254 91.7334 251.777 87.2554 246.254 87.2554H234.08C228.557 87.2554 224.08 91.7334 224.08 97.2554C224.08 102.777 228.557 107.255 234.08 107.255Z" fill="#080708"/>
<path d="M288.638 87.2554C283.115 87.2554 278.638 91.7335 278.638 97.2556C278.638 102.778 283.115 107.256 288.638 107.256H330.295C335.818 107.256 340.295 102.778 340.295 97.2556C340.295 91.7335 335.818 87.2554 330.295 87.2554H288.638Z" fill="#080708"/>
<path d="M96.498 293.281C102.021 293.281 106.498 288.803 106.498 283.281C106.498 277.758 102.021 273.281 96.498 273.281C90.9752 273.281 86.498 277.758 86.498 283.281C86.498 288.803 90.9752 293.281 96.498 293.281Z" fill="#080708"/>
</g>
<defs>
<clipPath id="clip0_414_247">
<rect width="512" height="512" fill="white"/>
</clipPath>
</defs>
</svg>
